<svg width="30" height="32" viewBox="0 0 30 32" fill="none" xmlns="http://www.w3.org/2000/svg">
<path d="M22.9167 0.166687H7.08333C2.33333 0.166687 0.75 3.00085 0.75 6.50002V31.8334H10.25V22.2384C10.25 21.415 10.915 20.75 11.7383 20.75H18.2775C19.085 20.75 19.7658 21.415 19.7658 22.2384V31.8334H29.2658V6.50002C29.25 3.00085 27.6667 0.166687 22.9167 0.166687ZM18.9583 11.6459H16.1875V14.4167C16.1875 15.0659 15.6492 15.6042 15 15.6042C14.3508 15.6042 13.8125 15.0659 13.8125 14.4167V11.6459H11.0417C10.3925 11.6459 9.85417 11.1075 9.85417 10.4584C9.85417 9.80919 10.3925 9.27085 11.0417 9.27085H13.8125V6.50002C13.8125 5.85085 14.3508 5.31252 15 5.31252C15.6492 5.31252 16.1875 5.85085 16.1875 6.50002V9.27085H18.9583C19.6075 9.27085 20.1458 9.80919 20.1458 10.4584C20.1458 11.1075 19.6075 11.6459 18.9583 11.6459Z" fill="#E4E8F0"/>
</svg>
