<svg width="26" height="26" viewBox="0 0 26 26" fill="none" xmlns="http://www.w3.org/2000/svg">
<path d="M15.7296 25.5938C16.7667 25.6089 17.795 25.4011 18.7448 24.9844C19.8237 24.5341 20.7432 23.7711 21.3846 22.7936C22.026 21.8162 22.3601 20.669 22.3437 19.5C22.3437 15.8438 21.5312 15.0312 20.3125 12.5938C19.0937 10.1562 20.3125 7.71875 20.3125 7.71875C19.3381 7.96574 18.4778 8.53928 17.875 9.34375C17.875 0.8125 12.1875 0.40625 12.1875 0.40625C12.5269 1.34852 12.6304 2.35959 12.4887 3.35107C12.3471 4.34254 11.9647 5.28422 11.375 6.09375C9.34375 8.9375 7.3125 10.5625 6.5 13.8125C6.5 13.8125 4.875 13 5.28125 11.375C5.28125 11.375 3.65625 14.2188 3.65625 18.6875C3.65625 23.5877 7.58144 25.025 9.51356 25.4353C10.0274 25.5425 10.5511 25.5956 11.076 25.5938H15.7296Z" fill="#FEBD55"/>
<path d="M10.0921 25.5938C10.0921 25.5938 5.90125 24.0224 5.90125 19.3074C5.90125 14.0693 9.53637 12.1875 9.53637 12.1875C9.53637 12.1875 8.52074 14.0693 9.56846 14.5929C9.56846 14.5929 11.3214 8.88388 16.0364 7.3125C16.0364 7.3125 14.3898 9.04434 15.4376 12.1875C16.4853 15.3307 20.0347 16.0363 20.0989 19.5V19.9062C20.1401 21.0826 19.8288 22.2445 19.2051 23.2428C18.3975 24.5009 17.4652 25.5938 15.3307 25.5938H10.0921Z" fill="#FC9E20"/>
<path d="M10.5625 25.5938C9.60081 25.1917 8.77932 24.5145 8.20112 23.6472C7.62292 22.7799 7.31378 21.7611 7.3125 20.7188C7.3125 16.6563 9.34375 15.0313 9.34375 15.0313C9.34375 15.0313 9.34375 16.6563 10.1562 17.0625C10.1562 17.0625 10.9688 11.375 14.625 10.1562C14.625 10.1562 13.4062 10.9688 14.2188 13.4063C15.0312 15.8438 18.6875 16.6563 18.6875 20.7188V21.0726C18.7019 22.0244 18.4438 22.9605 17.9437 23.7705C17.6006 24.3403 17.1129 24.8091 16.53 25.1293C15.9471 25.4496 15.2899 25.6098 14.625 25.5938H10.5625Z" fill="#E03E3E"/>
<path d="M10.5625 23.5624C10.4822 23.5624 10.4037 23.5385 10.3369 23.4939C10.2701 23.4493 10.218 23.3858 10.1873 23.3116C10.1566 23.2374 10.1485 23.1557 10.1642 23.0769C10.1798 22.9981 10.2185 22.9257 10.2753 22.8689L15.1503 17.9939C15.2269 17.9199 15.3296 17.879 15.4361 17.8799C15.5426 17.8808 15.6445 17.9235 15.7198 17.9989C15.7951 18.0742 15.8379 18.1761 15.8388 18.2826C15.8397 18.3891 15.7988 18.4917 15.7248 18.5684L10.8498 23.4434C10.7736 23.5196 10.6703 23.5624 10.5625 23.5624Z" fill="#FBFBFB"/>
<path d="M14.2188 23.9688C13.9777 23.9688 13.7421 23.8973 13.5416 23.7634C13.3412 23.6294 13.185 23.4391 13.0928 23.2164C13.0005 22.9937 12.9764 22.7486 13.0234 22.5122C13.0704 22.2758 13.1865 22.0587 13.357 21.8882C13.5274 21.7178 13.7446 21.6017 13.981 21.5547C14.2174 21.5076 14.4624 21.5318 14.6851 21.624C14.9078 21.7163 15.0982 21.8725 15.2321 22.0729C15.366 22.2733 15.4375 22.509 15.4375 22.75C15.4375 23.0732 15.3091 23.3832 15.0805 23.6118C14.852 23.8403 14.542 23.9688 14.2188 23.9688ZM14.2188 22.3438C14.1384 22.3438 14.0599 22.3676 13.9931 22.4122C13.9262 22.4569 13.8742 22.5203 13.8434 22.5945C13.8127 22.6688 13.8046 22.7505 13.8203 22.8293C13.836 22.9081 13.8747 22.9804 13.9315 23.0373C13.9883 23.0941 14.0607 23.1328 14.1395 23.1484C14.2183 23.1641 14.3 23.1561 14.3742 23.1253C14.4484 23.0946 14.5119 23.0425 14.5565 22.9757C14.6012 22.9089 14.625 22.8303 14.625 22.75C14.625 22.6423 14.5822 22.5389 14.506 22.4627C14.4298 22.3866 14.3265 22.3438 14.2188 22.3438Z" fill="#FBFBFB"/>
<path d="M11.7813 19.9063C11.5402 19.9063 11.3046 19.8348 11.1041 19.7009C10.9037 19.5669 10.7475 19.3766 10.6553 19.1539C10.563 18.9312 10.5389 18.6861 10.5859 18.4497C10.6329 18.2133 10.749 17.9962 10.9195 17.8257C11.0899 17.6553 11.3071 17.5392 11.5435 17.4922C11.7799 17.4451 12.0249 17.4693 12.2476 17.5615C12.4703 17.6538 12.6607 17.81 12.7946 18.0104C12.9285 18.2108 13 18.4465 13 18.6875C13 19.0107 12.8716 19.3207 12.643 19.5493C12.4145 19.7778 12.1045 19.9063 11.7813 19.9063ZM11.7813 18.2813C11.7009 18.2813 11.6224 18.3051 11.5556 18.3497C11.4887 18.3944 11.4367 18.4578 11.4059 18.532C11.3752 18.6063 11.3671 18.688 11.3828 18.7668C11.3985 18.8456 11.4372 18.9179 11.494 18.9748C11.5508 19.0316 11.6232 19.0703 11.702 19.0859C11.7808 19.1016 11.8625 19.0936 11.9367 19.0628C12.0109 19.0321 12.0744 18.98 12.119 18.9132C12.1637 18.8464 12.1875 18.7678 12.1875 18.6875C12.1875 18.5798 12.1447 18.4764 12.0685 18.4002C11.9923 18.3241 11.889 18.2813 11.7813 18.2813Z" fill="#FBFBFB"/>
</svg>
