<svg width="10" height="10" viewBox="0 0 10 10" fill="none" xmlns="http://www.w3.org/2000/svg">
<path d="M8.00008 2C7.69508 2 7.41508 1.825 7.27508 1.555L6.91508 0.83C6.68508 0.375 6.08508 0 5.57508 0H4.43008C3.91508 0 3.31508 0.375 3.08508 0.83L2.72508 1.555C2.58508 1.825 2.30508 2 2.00008 2C0.915084 2 0.0550838 2.915 0.125084 3.995L0.385084 8.125C0.445084 9.155 1.00008 10 2.38008 10H7.62008C9.00008 10 9.55008 9.155 9.61508 8.125L9.87508 3.995C9.94508 2.915 9.08508 2 8.00008 2ZM4.25008 2.625H5.75008C5.95508 2.625 6.12508 2.795 6.12508 3C6.12508 3.205 5.95508 3.375 5.75008 3.375H4.25008C4.04508 3.375 3.87508 3.205 3.87508 3C3.87508 2.795 4.04508 2.625 4.25008 2.625ZM5.00008 8.06C4.07008 8.06 3.31008 7.305 3.31008 6.37C3.31008 5.435 4.06508 4.68 5.00008 4.68C5.93508 4.68 6.69008 5.435 6.69008 6.37C6.69008 7.305 5.93008 8.06 5.00008 8.06Z" fill="white"/>
</svg>
