<svg width="512" height="512" viewBox="0 0 512 512" fill="none" xmlns="http://www.w3.org/2000/svg">
<g clip-path="url(#clip0_1835_621)">
<path d="M256 512C397.385 512 512 397.385 512 256C512 114.615 397.385 0 256 0C114.615 0 0 114.615 0 256C0 397.385 114.615 512 256 512Z" fill="#FF0000"/>
<path d="M270.835 511.577C265.921 511.856 260.976 512 256 512C114.618 512 0 397.382 0 256C0 114.618 114.618 0 256 0C260.976 0 265.921 0.144 270.835 0.422C136.355 8.108 29.669 119.594 29.669 256C29.669 392.406 136.355 503.892 270.835 511.577Z" fill="#FF0000"/>
<path d="M256 470.793C374.627 470.793 470.793 374.627 470.793 256C470.793 137.373 374.627 41.207 256 41.207C137.373 41.207 41.207 137.373 41.207 256C41.207 374.627 137.373 470.793 256 470.793Z" fill="white"/>
<path d="M305.365 256L358.123 203.242C371.755 189.61 371.755 167.509 358.123 153.877C344.492 140.246 322.389 140.246 308.758 153.877L256 206.635L203.242 153.877C189.611 140.246 167.509 140.246 153.877 153.877C140.245 167.509 140.245 189.611 153.877 203.242L206.635 256L153.877 308.758C140.245 322.39 140.245 344.491 153.877 358.123C160.693 364.939 169.627 368.347 178.56 368.347C187.493 368.347 196.427 364.939 203.242 358.123L256 305.364L308.758 358.122C315.573 364.938 324.507 368.346 333.44 368.346C342.373 368.346 351.307 364.938 358.122 358.122C371.754 344.49 371.754 322.389 358.122 308.757L305.365 256Z" fill="#FF0000"/>
<path d="M273.759 224.393L344.276 153.876C346.395 151.757 348.735 150.008 351.199 148.548C337.808 140.614 320.27 142.364 308.758 153.876L256 206.635L273.759 224.393Z" fill="#FF0000"/>
<path d="M344.276 358.122L273.759 287.605L256 305.364L308.758 358.122C315.573 364.938 324.507 368.346 333.44 368.346C339.596 368.346 345.736 366.687 351.199 363.451C348.735 361.991 346.394 360.241 344.276 358.122Z" fill="#FF0000"/>
<path d="M189.395 358.122C175.763 344.49 175.763 322.389 189.395 308.757L242.153 256L189.395 203.242C175.763 189.61 175.763 167.509 189.395 153.877C191.514 151.758 193.855 150.009 196.319 148.549C182.929 140.616 165.391 142.365 153.877 153.877C140.245 167.509 140.245 189.611 153.877 203.242L206.635 256L153.877 308.758C140.245 322.39 140.245 344.491 153.877 358.123C160.693 364.939 169.627 368.347 178.56 368.347C184.716 368.347 190.856 366.689 196.319 363.452C193.854 361.991 191.514 360.241 189.395 358.122Z" fill="#FF0000"/>
</g>
<defs>
<clipPath id="clip0_1835_621">
<rect width="512" height="512" fill="white"/>
</clipPath>
</defs>
</svg>
