<svg width="56" height="57" viewBox="0 0 56 57" fill="none" xmlns="http://www.w3.org/2000/svg">
<path d="M27.9518 52.1386C41.1186 52.1386 51.7924 41.4647 51.7924 28.2979C51.7924 15.1311 41.1186 4.45721 27.9518 4.45721C14.7849 4.45721 4.11108 15.1311 4.11108 28.2979C4.11108 41.4647 14.7849 52.1386 27.9518 52.1386Z" fill="url(#paint0_radial_4727_841)"/>
<path d="M27.9518 51.9594C41.0197 51.9594 51.6133 41.3658 51.6133 28.2979C51.6133 15.23 41.0197 4.63638 27.9518 4.63638C14.8839 4.63638 4.29028 15.23 4.29028 28.2979C4.29028 41.3658 14.8839 51.9594 27.9518 51.9594Z" fill="url(#paint1_radial_4727_841)"/>
<g filter="url(#filter0_i_4727_841)">
<path d="M27.9518 50.4736C40.1991 50.4736 50.1275 40.5452 50.1275 28.2979C50.1275 16.0505 40.1991 6.1221 27.9518 6.1221C15.7044 6.1221 5.776 16.0505 5.776 28.2979C5.776 40.5452 15.7044 50.4736 27.9518 50.4736Z" fill="url(#paint2_radial_4727_841)"/>
</g>
<path d="M27.9518 50.3358C40.123 50.3358 49.9897 40.4691 49.9897 28.2979C49.9897 16.1267 40.123 6.25995 27.9518 6.25995C15.7805 6.25995 5.91382 16.1267 5.91382 28.2979C5.91382 40.4691 15.7805 50.3358 27.9518 50.3358Z" fill="url(#paint3_radial_4727_841)"/>
<path d="M27.9518 50.1953C40.0453 50.1953 49.8491 40.3915 49.8491 28.2979C49.8491 16.2043 40.0453 6.40054 27.9518 6.40054C15.8582 6.40054 6.05438 16.2043 6.05438 28.2979C6.05438 40.3915 15.8582 50.1953 27.9518 50.1953Z" fill="url(#paint4_radial_4727_841)"/>
<path d="M27.9517 50.0575C39.9692 50.0575 49.7113 40.3154 49.7113 28.2979C49.7113 16.2804 39.9692 6.53836 27.9517 6.53836C15.9343 6.53836 6.1922 16.2804 6.1922 28.2979C6.1922 40.3154 15.9343 50.0575 27.9517 50.0575Z" fill="url(#paint5_radial_4727_841)"/>
<path d="M27.9517 49.9196C39.8931 49.9196 49.5735 40.2392 49.5735 28.2979C49.5735 16.3566 39.8931 6.67618 27.9517 6.67618C16.0104 6.67618 6.33002 16.3566 6.33002 28.2979C6.33002 40.2392 16.0104 49.9196 27.9517 49.9196Z" fill="url(#paint6_radial_4727_841)"/>
<path d="M27.9518 49.779C39.8155 49.779 49.4329 40.1616 49.4329 28.2979C49.4329 16.4342 39.8155 6.81674 27.9518 6.81674C16.0881 6.81674 6.47064 16.4342 6.47064 28.2979C6.47064 40.1616 16.0881 49.779 27.9518 49.779Z" fill="url(#paint7_radial_4727_841)"/>
<path d="M27.9518 49.6412C39.7394 49.6412 49.2951 40.0855 49.2951 28.2979C49.2951 16.5103 39.7394 6.95459 27.9518 6.95459C16.1642 6.95459 6.60846 16.5103 6.60846 28.2979C6.60846 40.0855 16.1642 49.6412 27.9518 49.6412Z" fill="url(#paint8_radial_4727_841)"/>
<path d="M27.9518 49.5034C39.6632 49.5034 49.1573 40.0094 49.1573 28.2979C49.1573 16.5864 39.6632 7.09241 27.9518 7.09241C16.2403 7.09241 6.74628 16.5864 6.74628 28.2979C6.74628 40.0094 16.2403 49.5034 27.9518 49.5034Z" fill="url(#paint9_radial_4727_841)"/>
<path d="M27.9518 49.3628C39.5856 49.3628 49.0167 39.9317 49.0167 28.2979C49.0167 16.6641 39.5856 7.23297 27.9518 7.23297C16.3179 7.23297 6.88684 16.6641 6.88684 28.2979C6.88684 39.9317 16.3179 49.3628 27.9518 49.3628Z" fill="url(#paint10_radial_4727_841)"/>
<path d="M27.9517 49.225C39.5095 49.225 48.8788 39.8556 48.8788 28.2979C48.8788 16.7402 39.5095 7.37079 27.9517 7.37079C16.394 7.37079 7.02466 16.7402 7.02466 28.2979C7.02466 39.8556 16.394 49.225 27.9517 49.225Z" fill="url(#paint11_radial_4727_841)"/>
<path d="M27.9519 49.0875C39.4335 49.0875 48.7411 39.7798 48.7411 28.2982C48.7411 16.8166 39.4335 7.50894 27.9519 7.50894C16.4703 7.50894 7.1626 16.8166 7.1626 28.2982C7.1626 39.7798 16.4703 49.0875 27.9519 49.0875Z" fill="url(#paint12_radial_4727_841)"/>
<path d="M27.9518 48.9466C39.3557 48.9466 48.6005 39.7018 48.6005 28.2979C48.6005 16.8939 39.3557 7.6492 27.9518 7.6492C16.5478 7.6492 7.3031 16.8939 7.3031 28.2979C7.3031 39.7018 16.5478 48.9466 27.9518 48.9466Z" fill="url(#paint13_radial_4727_841)"/>
<path d="M27.9518 48.8088C39.2796 48.8088 48.4627 39.6257 48.4627 28.2979C48.4627 16.97 39.2796 7.78702 27.9518 7.78702C16.6239 7.78702 7.44092 16.97 7.44092 28.2979C7.44092 39.6257 16.6239 48.8088 27.9518 48.8088Z" fill="url(#paint14_radial_4727_841)"/>
<path d="M27.9518 48.671C39.2035 48.671 48.3248 39.5496 48.3248 28.2979C48.3248 17.0462 39.2035 7.92487 27.9518 7.92487C16.7001 7.92487 7.57874 17.0462 7.57874 28.2979C7.57874 39.5496 16.7001 48.671 27.9518 48.671Z" fill="url(#paint15_radial_4727_841)"/>
<path d="M27.9518 48.5304C39.1258 48.5304 48.1842 39.472 48.1842 28.2979C48.1842 17.1238 39.1258 8.06543 27.9518 8.06543C16.7777 8.06543 7.7193 17.1238 7.7193 28.2979C7.7193 39.472 16.7777 48.5304 27.9518 48.5304Z" fill="url(#paint16_radial_4727_841)"/>
<path d="M27.9519 48.3929C39.0498 48.3929 48.0465 39.3962 48.0465 28.2982C48.0465 17.2003 39.0498 8.20358 27.9519 8.20358C16.8539 8.20358 7.85724 17.2003 7.85724 28.2982C7.85724 39.3962 16.8539 48.3929 27.9519 48.3929Z" fill="url(#paint17_radial_4727_841)"/>
<path d="M27.9518 48.2547C38.9736 48.2547 47.9086 39.3198 47.9086 28.2979C47.9086 17.2761 38.9736 8.34109 27.9518 8.34109C16.9299 8.34109 7.99493 17.2761 7.99493 28.2979C7.99493 39.3198 16.9299 48.2547 27.9518 48.2547Z" fill="url(#paint18_radial_4727_841)"/>
<path d="M27.9518 48.1141C38.896 48.1141 47.768 39.2421 47.768 28.2979C47.768 17.3537 38.896 8.48166 27.9518 8.48166C17.0076 8.48166 8.13556 17.3537 8.13556 28.2979C8.13556 39.2421 17.0076 48.1141 27.9518 48.1141Z" fill="url(#paint19_radial_4727_841)"/>
<path d="M27.9518 47.9763C38.8199 47.9763 47.6302 39.166 47.6302 28.2979C47.6302 17.4298 38.8199 8.61948 27.9518 8.61948C17.0837 8.61948 8.27338 17.4298 8.27338 28.2979C8.27338 39.166 17.0837 47.9763 27.9518 47.9763Z" fill="url(#paint20_radial_4727_841)"/>
<path d="M27.9518 47.8385C38.7438 47.8385 47.4924 39.0899 47.4924 28.2979C47.4924 17.5059 38.7438 8.75729 27.9518 8.75729C17.1598 8.75729 8.41119 17.5059 8.41119 28.2979C8.41119 39.0899 17.1598 47.8385 27.9518 47.8385Z" fill="url(#paint21_radial_4727_841)"/>
<path d="M27.9519 47.6982C38.6662 47.6982 47.3519 39.0125 47.3519 28.2982C47.3519 17.5839 38.6662 8.89819 27.9519 8.89819C17.2376 8.89819 8.55188 17.5839 8.55188 28.2982C8.55188 39.0125 17.2376 47.6982 27.9519 47.6982Z" fill="url(#paint22_radial_4727_841)"/>
<path d="M28 49C39.598 49 49 39.598 49 28C49 16.402 39.598 7 28 7C16.402 7 7 16.402 7 28C7 39.598 16.402 49 28 49Z" fill="url(#paint23_radial_4727_841)"/>
<path d="M46.1279 6.8581C44.3096 5.86079 42.3279 5.19616 40.2759 4.89549L41.2765 2.08114C41.3251 1.94733 41.3374 1.80307 41.3123 1.66297C41.2871 1.52286 41.2254 1.3919 41.1333 1.28333C41.0413 1.17476 40.9222 1.09245 40.788 1.04474C40.6539 0.997028 40.5096 0.985605 40.3697 1.01163L28.2109 3.2168C28.071 3.24222 27.9404 3.30397 27.8319 3.39584C27.7235 3.48772 27.6411 3.6065 27.5931 3.74026C27.5451 3.87403 27.5331 4.01807 27.5583 4.15794C27.5835 4.29781 27.645 4.42859 27.7368 4.53715L35.7305 13.967C35.8224 14.0749 35.941 14.1568 36.0744 14.2045C36.2079 14.2522 36.3515 14.2641 36.4909 14.239C36.6304 14.2139 36.7608 14.1527 36.8692 14.0614C36.9776 13.9702 37.0602 13.8521 37.1088 13.7189L38.2444 10.5325C40.7309 11.1432 43.0536 12.2906 45.0496 13.8941C47.0456 15.4976 48.6666 17.5184 49.7989 19.8147C50.9312 22.1111 51.5473 24.6274 51.6041 27.1871C51.6609 29.7468 51.1569 32.2879 50.1276 34.6322C52.0503 32.7047 53.498 30.356 54.3559 27.7722C55.2138 25.1883 55.4584 22.4402 55.0703 19.7454C54.6822 17.0506 53.6722 14.4832 52.1201 12.2464C50.5679 10.0096 48.5164 8.16478 46.1279 6.8581Z" fill="url(#paint24_linear_4727_841)"/>
<path d="M46.6075 5.86025C44.7887 4.86413 42.8072 4.19957 40.7555 3.89764L41.7644 1.08605C41.8127 0.952114 41.8248 0.807823 41.7996 0.667701C41.7744 0.527579 41.7127 0.396571 41.6208 0.287865C41.5289 0.179159 41.4099 0.0965925 41.2759 0.0484768C41.1419 0.000361049 40.9976 -0.0116054 40.8575 0.0137819L28.6988 2.20517C28.5584 2.23031 28.4272 2.29203 28.3183 2.38409C28.2095 2.47615 28.1268 2.59529 28.0788 2.7295C28.0307 2.86371 28.0188 3.00823 28.0444 3.14848C28.0701 3.28872 28.1322 3.41973 28.2246 3.52828L36.2184 12.9581C36.3105 13.0659 36.4293 13.1477 36.5628 13.1952C36.6964 13.2428 36.8401 13.2544 36.9796 13.229C37.1191 13.2036 37.2495 13.1421 37.3578 13.0505C37.4661 12.959 37.5484 12.8406 37.5966 12.7073L38.7378 9.5291C41.2237 10.1405 43.5458 11.2883 45.5412 12.8921C47.5366 14.4959 49.157 16.5168 50.2887 18.8131C51.4205 21.1093 52.0361 23.6254 52.0926 26.1848C52.149 28.7442 51.6448 31.285 50.6154 33.6289C52.5341 31.6994 53.9779 29.3504 54.8328 26.7672C55.6878 24.184 55.9305 21.4374 55.5418 18.7443C55.1531 16.0512 54.1436 13.4853 52.5931 11.2493C51.0426 9.01332 48.9934 7.1684 46.6075 5.86025Z" fill="url(#paint25_linear_4727_841)"/>
<path d="M46.5387 6.08107C44.7197 5.08539 42.7383 4.42086 40.6868 4.11847L41.6956 1.30687C41.7439 1.17294 41.7561 1.02865 41.7308 0.888526C41.7056 0.748404 41.644 0.617396 41.552 0.50869C41.4601 0.399984 41.3411 0.317418 41.2071 0.269302C41.0731 0.221186 40.9288 0.20922 40.7887 0.234607L28.63 2.43978C28.4921 2.4689 28.364 2.53275 28.2578 2.62528C28.1515 2.7178 28.0707 2.83594 28.0229 2.96848C27.9752 3.10102 27.962 3.24356 27.9848 3.38259C28.0076 3.52162 28.0655 3.65252 28.1531 3.76288L36.1469 13.1928C36.2413 13.2961 36.3604 13.3738 36.4931 13.4185C36.6258 13.4632 36.7676 13.4735 36.9053 13.4485C37.0431 13.4234 37.1722 13.3638 37.2806 13.2752C37.389 13.1866 37.4731 13.0719 37.5251 12.9419L38.6663 9.76371C41.1527 10.3744 43.4754 11.5218 45.4714 13.1253C47.4674 14.7288 49.0885 16.7496 50.2207 19.046C51.353 21.3423 51.9692 23.8586 52.0259 26.4183C52.0827 28.9781 51.5788 31.5192 50.5494 33.8635C52.4717 31.9344 53.9187 29.5844 54.7757 26.9994C55.6328 24.4144 55.8764 21.6654 55.4873 18.97C55.0981 16.2745 54.087 13.7067 52.5338 11.4696C50.9807 9.23256 48.9282 7.3877 46.5387 6.08107Z" fill="url(#paint26_radial_4727_841)"/>
<path d="M10.9278 50.0519C12.8015 50.9408 14.8186 51.4887 16.8846 51.67L16.0411 54.5367C16.0051 54.6738 16.005 54.8178 16.0407 54.9549C16.0765 55.092 16.1468 55.2176 16.245 55.3197C16.3433 55.4218 16.4661 55.497 16.6017 55.538C16.7374 55.579 16.8813 55.5844 17.0196 55.5538L29.0213 52.6485C29.1596 52.6154 29.2868 52.5463 29.3898 52.4483C29.4929 52.3502 29.5683 52.2267 29.6083 52.0902C29.6483 51.9537 29.6515 51.809 29.6176 51.6709C29.5838 51.5327 29.514 51.4059 29.4154 51.3034L20.8925 42.3531C20.7947 42.2465 20.6703 42.168 20.532 42.1257C20.3937 42.0835 20.2466 42.079 20.1059 42.1127C19.9653 42.1465 19.8363 42.2172 19.7322 42.3177C19.6282 42.4181 19.5529 42.5445 19.5142 42.6839L18.577 45.9227C16.0589 45.4589 13.6727 44.4497 11.586 42.9657C9.49931 41.4818 7.76265 39.5592 6.49791 37.3328C5.23316 35.1064 4.47098 32.6303 4.26484 30.078C4.0587 27.5258 4.4136 24.9594 5.30464 22.5589C3.49859 24.5963 2.19155 27.026 1.48696 29.6558C0.782369 32.2857 0.699579 35.0434 1.24514 37.7108C1.7907 40.3782 2.94964 42.8819 4.63022 45.0239C6.3108 47.1659 8.46689 48.8873 10.9278 50.0519Z" fill="url(#paint27_linear_4727_841)"/>
<path d="M10.5088 51.0773C12.3839 51.9648 14.4018 52.5117 16.4683 52.6926L15.6248 55.5593C15.5846 55.6958 15.5809 55.8405 15.6143 55.9788C15.6477 56.1171 15.7169 56.2442 15.8149 56.3473C15.913 56.4504 16.0365 56.5258 16.1729 56.566C16.3094 56.6063 16.4541 56.6099 16.5924 56.5765L28.5968 53.6712C28.7324 53.6337 28.8562 53.5624 28.9565 53.4637C29.0569 53.3651 29.1304 53.2425 29.1701 53.1076C29.2099 52.9726 29.2145 52.8298 29.1836 52.6925C29.1528 52.5553 29.0874 52.4282 28.9937 52.3232L20.4735 43.3758C20.3757 43.2692 20.2513 43.1906 20.113 43.1484C19.9747 43.1061 19.8276 43.1016 19.687 43.1354C19.5463 43.1691 19.4173 43.2399 19.3133 43.3403C19.2092 43.4407 19.1339 43.5672 19.0952 43.7065L18.1415 46.9454C16.6419 46.6708 15.185 46.2 13.8083 45.5451C9.84375 43.6634 6.7286 40.3639 5.07776 36.2978C3.42692 32.2316 3.36034 27.6944 4.89117 23.5816C3.08512 25.6191 1.77809 28.0491 1.07351 30.6791C0.368923 33.3092 0.286129 36.0671 0.831676 38.7347C1.37722 41.4022 2.53614 43.9062 4.2167 46.0485C5.89727 48.1907 8.05337 49.9124 10.5144 51.0773H10.5088Z" fill="url(#paint28_linear_4727_841)"/>
<path d="M10.564 50.8513C12.4377 51.7402 14.4548 52.2881 16.5207 52.4693L15.6772 55.3361C15.6418 55.4723 15.6418 55.6154 15.6772 55.7516C15.7125 55.8879 15.7821 56.0128 15.8793 56.1147C15.9764 56.2166 16.098 56.2919 16.2324 56.3337C16.3669 56.3754 16.5097 56.3821 16.6475 56.3532L28.6574 53.4451C28.7958 53.4115 28.9228 53.3421 29.0258 53.2438C29.1288 53.1455 29.204 53.0217 29.244 52.8851C29.284 52.7484 29.2872 52.6037 29.2534 52.4654C29.2197 52.327 29.15 52.2001 29.0516 52.0972L20.5314 43.1497C20.4313 43.048 20.3067 42.9739 20.1696 42.9346C20.0324 42.8953 19.8874 42.8921 19.7487 42.9254C19.61 42.9587 19.4822 43.0273 19.3779 43.1246C19.2735 43.2218 19.1961 43.3445 19.1531 43.4805L18.2132 46.7221C15.695 46.2583 13.3088 45.249 11.2221 43.7651C9.13545 42.2812 7.3988 40.3586 6.13405 38.1322C4.86931 35.9058 4.10712 33.4296 3.90098 30.8774C3.69484 28.3252 4.04974 25.7588 4.94078 23.3583C3.13418 25.3954 1.82665 27.8251 1.12174 30.4551C0.416825 33.085 0.333884 35.843 0.879485 38.5105C1.42509 41.1781 2.58424 43.682 4.26517 45.824C5.94609 47.9659 8.10262 49.6871 10.564 50.8513Z" fill="url(#paint29_radial_4727_841)"/>
<defs>
<filter id="filter0_i_4727_841" x="5.776" y="6.1221" width="44.3516" height="48.3515" filterUnits="userSpaceOnUse" color-interpolation-filters="sRGB">
<feFlood flood-opacity="0" result="BackgroundImageFix"/>
<feBlend mode="normal" in="SourceGraphic" in2="BackgroundImageFix" result="shape"/>
<feColorMatrix in="SourceAlpha" type="matrix" values="0 0 0 0 0 0 0 0 0 0 0 0 0 0 0 0 0 0 127 0" result="hardAlpha"/>
<feOffset dy="4"/>
<feGaussianBlur stdDeviation="5.7"/>
<feComposite in2="hardAlpha" operator="arithmetic" k2="-1" k3="1"/>
<feColorMatrix type="matrix" values="0 0 0 0 0.809722 0 0 0 0 0 0 0 0 0 0 0 0 0 0.25 0"/>
<feBlend mode="normal" in2="shape" result="effect1_innerShadow_4727_841"/>
</filter>
<radialGradient id="paint0_radial_4727_841" cx="0" cy="0" r="1" gradientUnits="userSpaceOnUse" gradientTransform="translate(11.6583 12.7239) scale(46.4244)">
<stop stop-color="#FFFF08"/>
<stop offset="1" stop-color="#FFFE0F"/>
</radialGradient>
<radialGradient id="paint1_radial_4727_841" cx="0" cy="0" r="1" gradientUnits="userSpaceOnUse" gradientTransform="translate(11.7824 12.8396) scale(46.0771)">
<stop stop-color="#FEED03"/>
<stop offset="1" stop-color="#F08906"/>
</radialGradient>
<radialGradient id="paint2_radial_4727_841" cx="0" cy="0" r="1" gradientUnits="userSpaceOnUse" gradientTransform="translate(12.7967 13.8126) scale(43.1828)">
<stop stop-color="#FCD702"/>
<stop offset="1" stop-color="#DE5C04"/>
</radialGradient>
<radialGradient id="paint3_radial_4727_841" cx="0" cy="0" r="1" gradientUnits="userSpaceOnUse" gradientTransform="translate(11.8101 5.03465) scale(57.2035 47.0888)">
<stop stop-color="#FCD702"/>
<stop offset="1" stop-color="#DE5C04"/>
</radialGradient>
<radialGradient id="paint4_radial_4727_841" cx="0" cy="0" r="1" gradientUnits="userSpaceOnUse" gradientTransform="translate(11.913 5.18306) scale(56.8386 46.7885)">
<stop stop-color="#FCD702"/>
<stop offset="1" stop-color="#DE5C04"/>
</radialGradient>
<radialGradient id="paint5_radial_4727_841" cx="0" cy="0" r="1" gradientUnits="userSpaceOnUse" gradientTransform="translate(12.014 5.32854) scale(56.4808 46.494)">
<stop stop-color="#FCD702"/>
<stop offset="1" stop-color="#DE5C04"/>
</radialGradient>
<radialGradient id="paint6_radial_4727_841" cx="0" cy="0" r="1" gradientUnits="userSpaceOnUse" gradientTransform="translate(12.1149 5.47402) scale(56.1231 46.1995)">
<stop stop-color="#FCD702"/>
<stop offset="1" stop-color="#DE5C04"/>
</radialGradient>
<radialGradient id="paint7_radial_4727_841" cx="0" cy="0" r="1" gradientUnits="userSpaceOnUse" gradientTransform="translate(12.2179 5.6224) scale(55.7582 45.8991)">
<stop stop-color="#FCD702"/>
<stop offset="1" stop-color="#DE5C04"/>
</radialGradient>
<radialGradient id="paint8_radial_4727_841" cx="0" cy="0" r="1" gradientUnits="userSpaceOnUse" gradientTransform="translate(12.3189 5.76791) scale(55.4005 45.6046)">
<stop stop-color="#FCD702"/>
<stop offset="1" stop-color="#DE5C04"/>
</radialGradient>
<radialGradient id="paint9_radial_4727_841" cx="0" cy="0" r="1" gradientUnits="userSpaceOnUse" gradientTransform="translate(12.4198 5.91339) scale(55.0427 45.3101)">
<stop stop-color="#FCD702"/>
<stop offset="1" stop-color="#DE5C04"/>
</radialGradient>
<radialGradient id="paint10_radial_4727_841" cx="0" cy="0" r="1" gradientUnits="userSpaceOnUse" gradientTransform="translate(12.5228 6.06177) scale(54.6778 45.0097)">
<stop stop-color="#FCD702"/>
<stop offset="1" stop-color="#DE5C04"/>
</radialGradient>
<radialGradient id="paint11_radial_4727_841" cx="0" cy="0" r="1" gradientUnits="userSpaceOnUse" gradientTransform="translate(12.6237 6.20725) scale(54.3201 44.7152)">
<stop stop-color="#FCD702"/>
<stop offset="1" stop-color="#DE5C04"/>
</radialGradient>
<radialGradient id="paint12_radial_4727_841" cx="0" cy="0" r="1" gradientUnits="userSpaceOnUse" gradientTransform="translate(12.7248 6.35307) scale(53.9623 44.4208)">
<stop stop-color="#FCD702"/>
<stop offset="1" stop-color="#DE5C04"/>
</radialGradient>
<radialGradient id="paint13_radial_4727_841" cx="0" cy="0" r="1" gradientUnits="userSpaceOnUse" gradientTransform="translate(12.8277 6.50114) scale(53.5974 44.1204)">
<stop stop-color="#FCD702"/>
<stop offset="1" stop-color="#DE5C04"/>
</radialGradient>
<radialGradient id="paint14_radial_4727_841" cx="0" cy="0" r="1" gradientUnits="userSpaceOnUse" gradientTransform="translate(12.9286 6.64662) scale(53.2397 43.8259)">
<stop stop-color="#FCD702"/>
<stop offset="1" stop-color="#DE5C04"/>
</radialGradient>
<radialGradient id="paint15_radial_4727_841" cx="0" cy="0" r="1" gradientUnits="userSpaceOnUse" gradientTransform="translate(13.0296 6.79213) scale(52.8819 43.5314)">
<stop stop-color="#FCD702"/>
<stop offset="1" stop-color="#DE5C04"/>
</radialGradient>
<radialGradient id="paint16_radial_4727_841" cx="0" cy="0" r="1" gradientUnits="userSpaceOnUse" gradientTransform="translate(13.1325 6.94052) scale(52.517 43.231)">
<stop stop-color="#FCD702"/>
<stop offset="1" stop-color="#DE5C04"/>
</radialGradient>
<radialGradient id="paint17_radial_4727_841" cx="0" cy="0" r="1" gradientUnits="userSpaceOnUse" gradientTransform="translate(13.2336 7.08633) scale(52.1593 42.9365)">
<stop stop-color="#FCD702"/>
<stop offset="1" stop-color="#DE5C04"/>
</radialGradient>
<radialGradient id="paint18_radial_4727_841" cx="0" cy="0" r="1" gradientUnits="userSpaceOnUse" gradientTransform="translate(13.3344 7.23151) scale(51.8015 42.642)">
<stop stop-color="#FCD702"/>
<stop offset="1" stop-color="#DE5C04"/>
</radialGradient>
<radialGradient id="paint19_radial_4727_841" cx="0" cy="0" r="1" gradientUnits="userSpaceOnUse" gradientTransform="translate(13.4374 7.37989) scale(51.4366 42.3417)">
<stop stop-color="#FCD702"/>
<stop offset="1" stop-color="#DE5C04"/>
</radialGradient>
<radialGradient id="paint20_radial_4727_841" cx="0" cy="0" r="1" gradientUnits="userSpaceOnUse" gradientTransform="translate(13.5383 7.52537) scale(51.0789 42.0472)">
<stop stop-color="#FCD702"/>
<stop offset="1" stop-color="#DE5C04"/>
</radialGradient>
<radialGradient id="paint21_radial_4727_841" cx="0" cy="0" r="1" gradientUnits="userSpaceOnUse" gradientTransform="translate(13.6393 7.67085) scale(50.7211 41.7527)">
<stop stop-color="#FCD702"/>
<stop offset="1" stop-color="#DE5C04"/>
</radialGradient>
<radialGradient id="paint22_radial_4727_841" cx="0" cy="0" r="1" gradientUnits="userSpaceOnUse" gradientTransform="translate(13.7424 7.81956) scale(50.3562 41.4523)">
<stop stop-color="#FCD702"/>
<stop offset="1" stop-color="#DE5C04"/>
</radialGradient>
<radialGradient id="paint23_radial_4727_841" cx="0" cy="0" r="1" gradientUnits="userSpaceOnUse" gradientTransform="translate(15.5151 14.0475) rotate(43.3875) scale(38.5083 31.6993)">
<stop stop-color="#FFE030"/>
<stop offset="1" stop-color="#DE5C04"/>
</radialGradient>
<linearGradient id="paint24_linear_4727_841" x1="28.2004" y1="18.5819" x2="55.0547" y2="17.3813" gradientUnits="userSpaceOnUse">
<stop stop-color="#FF8107"/>
<stop offset="1" stop-color="#FF3907"/>
</linearGradient>
<linearGradient id="paint25_linear_4727_841" x1="28.68" y1="17.5837" x2="55.5343" y2="16.3831" gradientUnits="userSpaceOnUse">
<stop stop-color="#FFFC9D"/>
<stop offset="1" stop-color="#FFEC9C"/>
</linearGradient>
<radialGradient id="paint26_radial_4727_841" cx="0" cy="0" r="1" gradientUnits="userSpaceOnUse" gradientTransform="translate(31.6786 -0.713617) scale(35.9416)">
<stop stop-color="#FCD702"/>
<stop offset="1" stop-color="#DE5C04"/>
</radialGradient>
<linearGradient id="paint27_linear_4727_841" x1="28.1419" y1="37.3133" x2="1.40369" y2="40.0812" gradientUnits="userSpaceOnUse">
<stop stop-color="#FF8107"/>
<stop offset="1" stop-color="#FF3907"/>
</linearGradient>
<linearGradient id="paint28_linear_4727_841" x1="27.7211" y1="38.3351" x2="0.982932" y2="41.1029" gradientUnits="userSpaceOnUse">
<stop stop-color="#FFFC9D"/>
<stop offset="1" stop-color="#FFEC9C"/>
</linearGradient>
<radialGradient id="paint29_radial_4727_841" cx="0" cy="0" r="1" gradientUnits="userSpaceOnUse" gradientTransform="translate(25.7948 56.7712) rotate(176.65) scale(35.9416 35.9416)">
<stop stop-color="#FCD702"/>
<stop offset="1" stop-color="#DE5C04"/>
</radialGradient>
</defs>
</svg>
