<svg width="45" height="45" viewBox="0 0 45 45" fill="none" xmlns="http://www.w3.org/2000/svg">
<g clip-path="url(#clip0_4090_2971)">
<path d="M39.6672 22.5071C39.4662 23.5164 38.5711 24.2517 37.4979 24.2973C37.1599 24.311 36.8722 24.5577 36.8082 24.891C36.7397 25.2244 36.9087 25.5624 37.2147 25.704C38.1874 26.1607 38.7309 27.1837 38.5254 28.193L38.3336 29.152C38.0824 30.4171 36.6848 31.2072 35.4609 30.9058C35.1184 30.8236 34.7668 30.7596 34.4197 30.6911C33.9082 30.5906 33.3967 30.4856 32.8852 30.3851C32.2092 30.2481 31.5333 30.1157 30.8574 29.9787C30.0536 29.8189 29.2453 29.6544 28.4415 29.4946C27.5418 29.3119 26.6421 29.1338 25.7424 28.9511C24.7833 28.7593 23.8197 28.5675 22.8606 28.3711C21.8741 28.1747 20.8877 27.9738 19.9058 27.7774C18.9285 27.581 17.9557 27.3846 16.9783 27.1883C16.0467 27.001 15.115 26.8138 14.1834 26.6265C13.3294 26.4576 12.4799 26.284 11.6259 26.115C10.886 25.9689 10.1462 25.8182 9.41089 25.672C8.82175 25.5533 8.23261 25.4346 7.6389 25.3158C7.23244 25.2336 6.82593 25.1514 6.41952 25.0692C6.23222 25.0327 6.04502 24.9916 5.85778 24.9551C5.84864 24.9551 5.83951 24.9505 5.83033 24.9505C5.9308 25.4254 5.88513 25.9324 5.66592 26.4073C5.20461 27.4029 4.13137 27.9236 3.09928 27.7226C2.79329 27.6632 2.4599 27.7774 2.32746 28.0606L1.91643 28.9511C1.78403 29.2342 1.91643 29.5631 2.15853 29.7594C2.20419 29.796 35.123 44.9721 35.1777 44.9858C35.4837 45.0451 35.8171 44.9309 35.9496 44.6478L36.3606 43.7572C36.493 43.4741 36.3606 43.1453 36.1185 42.9489C35.2965 42.2958 34.995 41.1404 35.4563 40.1448C35.9176 39.1492 36.9908 38.6286 38.023 38.8295C38.3289 38.8889 38.6623 38.7747 38.7947 38.4916L39.2058 37.601C39.3382 37.3178 39.2058 36.9891 38.9637 36.7926C38.1417 36.1396 37.8402 34.9841 38.3015 33.9886C38.7628 32.993 39.836 32.4723 40.8681 32.6733C41.1741 32.7326 41.5075 32.6185 41.64 32.3353L42.051 31.4448C42.1834 31.1616 42.051 30.8328 41.8089 30.6364C40.9868 29.9833 40.6854 28.8279 41.1467 27.8323C41.608 26.8367 42.6812 26.3161 43.7133 26.517C44.0193 26.5764 44.3527 26.4622 44.4851 26.1791L44.9372 25.1926C45.0697 24.9094 44.9464 24.576 44.6632 24.4436L39.7446 22.1738L39.6672 22.5071Z" fill="#E9E9E9"/>
<path d="M0.44139 22.191C0.496194 22.2184 36.0319 29.3474 36.0912 29.3474C36.4018 29.3337 36.7032 29.1419 36.7626 28.8405L36.9544 27.8814C37.0138 27.5754 36.8128 27.2831 36.5297 27.1507C35.5797 26.7031 35.0179 25.6527 35.2326 24.5749C35.4473 23.4971 36.3744 22.7436 37.4248 22.6979C37.7353 22.6842 38.0368 22.4924 38.0961 22.191L38.2377 21.4876L38.288 21.2273C38.3474 20.9213 38.1464 20.629 37.8633 20.4966C36.9133 20.049 36.3515 18.9986 36.5662 17.9209C36.7809 16.843 37.708 16.0895 38.7584 16.0438C39.0689 16.0301 39.3704 15.8383 39.4297 15.5369L39.6215 14.5778C39.6809 14.2718 39.4799 13.9795 39.1968 13.8471C38.2468 13.3995 37.6851 12.3491 37.8998 11.2713C38.1144 10.1935 39.0415 9.43995 40.0919 9.39428C40.4025 9.38058 40.7039 9.18876 40.7633 8.88734L40.9779 7.82324C41.0373 7.51725 40.8409 7.22039 40.5349 7.16102C40.5349 7.16102 4.82574 0 4.7892 0C4.52431 0 4.2914 0.187246 4.2366 0.452131L4.02195 1.51624C3.96258 1.82222 4.16352 2.11451 4.44668 2.24695C5.39661 2.69452 5.95835 3.74492 5.7437 4.82273C5.52905 5.90054 4.60195 6.65409 3.55155 6.69976C3.24095 6.71346 2.93957 6.90527 2.8802 7.20669L2.68839 8.16576C2.62902 8.47175 2.82997 8.76403 3.11312 8.89648C4.06305 9.34404 4.62483 10.3944 4.41014 11.4723C4.19549 12.5501 3.2684 13.3036 2.21799 13.3493C1.90744 13.363 1.60602 13.5548 1.54664 13.8562L1.35483 14.8153C1.29546 15.1213 1.49645 15.4136 1.77956 15.546C2.72954 15.9936 3.29128 17.044 3.07658 18.1218C2.86193 19.1996 1.93484 19.9532 0.884432 19.9988C0.573878 20.0126 0.272457 20.2044 0.213087 20.5058L0.0212735 21.4648C-0.0427099 21.7708 0.158191 22.0586 0.44139 22.191ZM30.8803 10.4858C31.0036 9.86929 31.6065 9.46739 32.223 9.5907C32.8395 9.71401 33.2414 10.3169 33.1181 10.9334L31.611 18.4324L30.6839 23.0542C30.5743 23.5976 30.0994 23.9722 29.565 23.9722C29.4919 23.9722 29.4143 23.963 29.3412 23.9493C28.7247 23.826 28.3228 23.2232 28.4461 22.6066L29.4828 17.4505L30.8803 10.4858ZM10.2924 6.35271C10.4157 5.73617 11.0185 5.33428 11.6351 5.45759C12.2516 5.58089 12.6535 6.18374 12.5302 6.80028L12.0095 9.38976L11.4205 12.3263L10.9455 14.692L10.1006 18.921C9.99103 19.4645 9.51602 19.8391 8.98169 19.8391C8.90862 19.8391 8.83098 19.8299 8.75795 19.8162C8.72598 19.8116 8.69401 19.8025 8.66661 19.7934C8.1003 19.6289 7.7486 19.0581 7.86739 18.4735L8.03632 17.6195L8.47932 15.4091L10.2924 6.35271Z" fill="#E9E9E9"/>
<path d="M35.25 17.3359C39.7157 17.3359 43.3359 13.7157 43.3359 9.25C43.3359 4.78426 39.7157 1.16406 35.25 1.16406C30.7843 1.16406 27.1641 4.78426 27.1641 9.25C27.1641 13.7157 30.7843 17.3359 35.25 17.3359Z" fill="#C3C1C3"/>
<path d="M38.0623 13.1183C37.9238 13.1184 37.7866 13.0912 37.6586 13.0382C37.5307 12.9852 37.4144 12.9074 37.3166 12.8093L31.6916 7.18427C31.4951 6.98625 31.385 6.7184 31.3855 6.43937C31.386 6.16035 31.497 5.8929 31.6943 5.6956C31.8916 5.4983 32.1591 5.38723 32.4381 5.38672C32.7171 5.38621 32.985 5.4963 33.183 5.69289L38.808 11.3179C38.9555 11.4654 39.0559 11.6533 39.0966 11.8579C39.1373 12.0624 39.1164 12.2745 39.0366 12.4672C38.9568 12.6599 38.8216 12.8246 38.6482 12.9405C38.4748 13.0564 38.2709 13.1182 38.0623 13.1183Z" fill="white"/>
<path d="M32.4373 13.1183C32.2288 13.1182 32.0249 13.0564 31.8515 12.9405C31.6781 12.8246 31.5429 12.6599 31.4631 12.4672C31.3833 12.2745 31.3624 12.0624 31.4031 11.8579C31.4438 11.6533 31.5442 11.4654 31.6916 11.3179L37.3166 5.69289C37.5147 5.4963 37.7825 5.38621 38.0615 5.38672C38.3406 5.38723 38.608 5.4983 38.8053 5.6956C39.0026 5.8929 39.1137 6.16035 39.1142 6.43937C39.1147 6.7184 39.0046 6.98625 38.808 7.18427L33.183 12.8093C33.0852 12.9074 32.969 12.9852 32.841 13.0382C32.713 13.0912 32.5759 13.1184 32.4373 13.1183Z" fill="white"/>
</g>
<defs>
<clipPath id="clip0_4090_2971">
<rect width="45" height="45" fill="white"/>
</clipPath>
</defs>
</svg>
