<svg width="50" height="50" viewBox="0 0 50 50" fill="none" xmlns="http://www.w3.org/2000/svg">
<path d="M45.1372 22C44.1089 22 43.2744 21.1157 43.2744 20.0261C43.2744 14.4893 41.2402 9.28614 37.5463 5.36993C36.8179 4.59814 36.8179 3.35064 37.5463 2.57884C38.2746 1.80705 39.4519 1.80705 40.1803 2.57884C44.5784 7.23921 47 13.4353 47 20.0261C47 21.1157 46.1655 22 45.1372 22Z" fill="#DEDEDE"/>
<path d="M4.8628 22C3.83454 22 3 21.1157 3 20.0261C3 13.4353 5.42165 7.23921 9.81973 2.57884C10.5481 1.80705 11.7254 1.80705 12.4537 2.57884C13.1821 3.35064 13.1821 4.59814 12.4537 5.36993C8.75979 9.28417 6.72561 14.4893 6.72561 20.0261C6.72561 21.1157 5.89107 22 4.8628 22Z" fill="#DEDEDE"/>
<path d="M42.8201 34.1347C39.9473 31.7065 38.3 28.1573 38.3 24.3972V19.1C38.3 12.4139 33.3334 6.8792 26.9 5.952V3.9C26.9 2.8493 26.0488 2 25 2C23.9512 2 23.1 2.8493 23.1 3.9V5.952C16.6647 6.8792 11.7 12.4139 11.7 19.1V24.3972C11.7 28.1573 10.0527 31.7065 7.1628 34.1499C6.4237 34.7826 6 35.7022 6 36.675C6 38.5085 7.4915 40 9.325 40H40.675C42.5085 40 44 38.5085 44 36.675C44 35.7022 43.5763 34.7826 42.8201 34.1347Z" fill="#E9E9E9"/>
<path d="M25 48C28.4505 48 31.337 45.418 32 42H18C18.663 45.418 21.5495 48 25 48Z" fill="#C3C1C3"/>
</svg>
