<svg width="50" height="50" viewBox="0 0 50 50" fill="none" xmlns="http://www.w3.org/2000/svg">
<path d="M25.7989 7.50977C16.6538 7.50977 9.24023 14.9233 9.24023 24.0685C9.24023 33.2136 16.6538 40.6271 25.7989 40.6271C34.944 40.6271 42.3576 33.2136 42.3576 24.0685C42.3576 14.9233 34.944 7.50977 25.7989 7.50977ZM25.7988 36.6328C18.8709 36.6328 13.2346 30.9965 13.2346 24.0686C13.2346 17.1406 18.8709 11.5043 25.7988 11.5043C32.7268 11.5043 38.3631 17.1406 38.3631 24.0686C38.3631 30.9965 32.7269 36.6328 25.7988 36.6328Z" fill="#E9E9E9"/>
<path d="M25.7988 14.873C20.7279 14.873 16.6024 18.9985 16.6024 24.0694C16.6024 29.1403 20.7279 33.2658 25.7988 33.2658C30.8697 33.2658 34.9952 29.1403 34.9952 24.0694C34.9952 18.9985 30.8698 14.873 25.7988 14.873Z" fill="#DEDEDE"/>
<path d="M48.9566 25.4569V5.33514C48.9566 5.141 48.8327 4.96844 48.6485 4.90643C48.4645 4.84451 48.2615 4.90711 48.144 5.0618C45.6334 8.37264 44.2747 12.4137 44.2747 16.5686V23.9298C44.2747 24.774 44.959 25.4585 45.8034 25.4585H46.4407C45.8125 31.9471 45.3973 41.022 45.3973 42.0846C45.3973 43.7586 46.4277 45.1156 47.6987 45.1156C48.9697 45.1156 50 43.7585 50 42.0846C50 41.0219 49.5849 31.9455 48.9566 25.4569Z" fill="#DEDEDE"/>
<path d="M6.68135 21.4699C7.95498 20.6984 8.80625 19.2996 8.80625 17.7018L8.17539 7.38721C8.15127 6.99404 7.82539 6.6875 7.43145 6.6875C7.00537 6.6875 6.66592 7.04443 6.68711 7.46973L7.09736 15.7421C7.09736 16.2071 6.72031 16.584 6.25547 16.584C5.79053 16.584 5.41357 16.2069 5.41357 15.7421L5.20859 7.47314C5.19775 7.03613 4.84043 6.6876 4.40322 6.6876C3.96602 6.6876 3.60879 7.03623 3.59785 7.47314L3.39287 15.7421C3.39287 16.2071 3.01582 16.584 2.55098 16.584C2.08604 16.584 1.70908 16.2069 1.70908 15.7421L2.11934 7.46973C2.14043 7.04424 1.80078 6.6875 1.375 6.6875C0.981055 6.6875 0.655176 6.99404 0.631152 7.38721L0 17.7019C0 19.2997 0.851172 20.6984 2.1249 21.47C2.95381 21.9721 3.41592 22.9107 3.30908 23.874C2.59004 30.3543 2.10176 40.9339 2.10176 42.0863C2.10176 43.7603 3.13213 45.1174 4.40313 45.1174C5.67412 45.1174 6.70449 43.7603 6.70449 42.0863C6.70449 40.9339 6.21611 30.3543 5.49717 23.874C5.39023 22.9112 5.85283 21.9718 6.68135 21.4699Z" fill="#DEDEDE"/>
</svg>
