<svg width="50" height="50" viewBox="0 0 50 50" fill="none" xmlns="http://www.w3.org/2000/svg">
<path d="M29.6875 1.55859C19.3414 1.55859 10.939 9.96867 10.939 20.3147C10.939 30.6608 19.3414 39.0632 29.6875 39.0632C40.0336 39.0632 48.4375 30.6608 48.4375 20.3147C48.4375 9.96867 40.0336 1.55859 29.6875 1.55859ZM29.6875 4.68517C38.3077 4.68517 45.311 11.6946 45.311 20.3147C45.311 28.9349 38.3077 35.9366 29.6875 35.9366C21.0673 35.9366 14.0655 28.9349 14.0655 20.3147C14.0655 11.6946 21.0673 4.68517 29.6875 4.68517ZM29.6842 10.9382C28.3991 10.9382 27.3436 11.9937 27.3436 13.2789C27.3436 13.6309 27.4279 13.9624 27.5694 14.2631C24.6604 14.8514 22.8276 16.6175 21.7893 18.3479C21.3812 19.0282 21.0922 19.7011 20.8753 20.3101H38.4977C38.2817 19.7011 37.9934 19.0281 37.5853 18.3479C36.5474 16.6181 34.7124 14.8521 31.8037 14.2631C31.9458 13.9624 32.0311 13.6309 32.0311 13.2789C32.0311 11.9937 30.9694 10.9382 29.6842 10.9382ZM19.528 21.8727C19.3208 21.8735 19.1224 21.9566 18.9765 22.1037C18.8306 22.2508 18.7491 22.4498 18.7499 22.657V23.4352C18.7499 25.153 20.1587 26.5602 21.8764 26.5602H37.4985C39.2162 26.5602 40.625 25.1529 40.625 23.4352V22.657C40.6254 22.5539 40.6054 22.4517 40.5661 22.3564C40.5268 22.261 40.4691 22.1744 40.3962 22.1015C40.3232 22.0286 40.2366 21.9708 40.1413 21.9315C40.046 21.8922 39.9438 21.8723 39.8407 21.8727H19.528ZM13.3741 32.3951L12.1122 33.657L16.342 37.8867L17.6039 36.6248C15.9958 35.4299 14.5688 34.0034 13.3741 32.3951ZM9.83409 33.9119C9.63499 33.9119 9.4356 33.988 9.28325 34.1392L2.92186 40.5067C1.11055 42.3181 1.11049 45.2689 2.92186 47.0802C4.73317 48.8915 7.684 48.8915 9.49535 47.0802L15.8583 40.7127C16.1627 40.4067 16.1613 39.9123 15.8551 39.6079L10.385 34.1392C10.2327 33.988 10.0332 33.9119 9.83409 33.9119Z" fill="#E9E9E9"/>
</svg>
