<svg width="50" height="50" viewBox="0 0 50 50" fill="none" xmlns="http://www.w3.org/2000/svg">
<g clip-path="url(#clip0_4090_3010)">
<path d="M50 20.5211C50 10.9395 40.7047 3.14453 29.2797 3.14453C17.8543 3.14453 8.55907 10.9396 8.55907 20.5211C8.55907 30.1025 17.8543 37.8976 29.2797 37.8976C30.2403 37.8976 31.2042 37.842 32.152 37.7322C36.5526 40.5278 39.8012 42.0579 41.8147 42.2816C41.8847 42.2892 41.9552 42.2931 42.0243 42.2931C42.671 42.2931 43.2696 41.9708 43.6261 41.4304C44.0245 40.8258 44.0505 40.0588 43.6956 39.4326C43.6791 39.4028 42.1252 36.5678 42.5735 33.8598C47.3008 30.5516 50 25.7172 50 20.5211ZM23.6524 23.1454C21.957 23.1454 20.5831 21.7712 20.5831 20.0761C20.5831 18.3809 21.957 17.0067 23.6524 17.0067C25.3474 17.0067 26.7219 18.381 26.7219 20.0761C26.722 21.7712 25.3475 23.1454 23.6524 23.1454ZM34.9074 23.1454C33.2118 23.1454 31.8375 21.7712 31.8375 20.0761C31.8375 18.3809 33.2118 17.0067 34.9074 17.0067C36.6024 17.0067 37.9766 18.381 37.9766 20.0761C37.9766 21.7712 36.6023 23.1454 34.9074 23.1454Z" fill="#E9E9E9"/>
<path d="M12.9365 34.4239C10.8806 32.7215 9.25989 30.7288 8.12018 28.5013C6.91846 26.1529 6.30923 23.6547 6.30923 21.0763C6.30923 18.4977 6.91855 15.9996 8.12018 13.6512C8.21217 13.4714 8.3085 13.2939 8.40662 13.1172C3.3317 16.0247 0 20.8773 0 26.3629C0 31.2912 2.65482 35.8607 7.29281 38.9343C8.14943 42.3019 6.1616 45.8647 6.14061 45.9012C6.02214 46.1101 6.03088 46.3679 6.16307 46.5684C6.28219 46.7491 6.48333 46.8561 6.69681 46.8561C6.72043 46.8561 6.74395 46.8547 6.76781 46.8521C9.08824 46.5944 13.1744 44.236 16.27 42.2474C17.3126 42.3889 18.3784 42.4605 19.4417 42.4605C23.5083 42.4605 27.2866 41.4205 30.411 39.646C29.713 39.7019 29.0099 39.7317 28.3089 39.7317C22.5299 39.7317 17.0706 37.8467 12.9365 34.4239Z" fill="#C3C1C3"/>
</g>
<defs>
<clipPath id="clip0_4090_3010">
<rect width="50" height="50" fill="white"/>
</clipPath>
</defs>
</svg>
