<svg width="34" height="45" viewBox="0 0 34 45" fill="none" xmlns="http://www.w3.org/2000/svg">
<path d="M31.637 15.8185C31.637 22.8119 21.5991 38.2254 17.6861 44.0127C16.786 45.3291 14.8509 45.3291 13.9509 44.0127C9.76561 37.8361 0 22.6927 0 15.8185C0 7.08794 7.07669 0 15.8185 0C24.5603 0 31.637 7.08794 31.637 15.8185Z" fill="#E9E9E9"/>
<path d="M15.8173 24.7511C20.7882 24.7511 24.8179 20.7214 24.8179 15.7506C24.8179 10.7797 20.7882 6.75 15.8173 6.75C10.8465 6.75 6.81677 10.7797 6.81677 15.7506C6.81677 20.7214 10.8465 24.7511 15.8173 24.7511Z" fill="#F0F0F0"/>
<path d="M26.5053 40.5048C30.5442 40.5048 33.8183 37.2307 33.8183 33.1919C33.8183 29.153 30.5442 25.8789 26.5053 25.8789C22.4665 25.8789 19.1924 29.153 19.1924 33.1919C19.1924 37.2307 22.4665 40.5048 26.5053 40.5048Z" fill="#C3C1C3"/>
<path d="M29.0489 36.6897C28.9236 36.6899 28.7996 36.6652 28.6838 36.6173C28.5681 36.5693 28.463 36.499 28.3745 36.4103L23.2872 31.323C23.1095 31.1439 23.0099 30.9016 23.0103 30.6493C23.0108 30.3969 23.1113 30.1551 23.2897 29.9766C23.4681 29.7982 23.71 29.6977 23.9624 29.6973C24.2147 29.6968 24.457 29.7964 24.6361 29.9742L29.7233 35.0614C29.8567 35.1948 29.9475 35.3648 29.9843 35.5498C30.0211 35.7348 30.0022 35.9266 29.93 36.1009C29.8579 36.2751 29.7356 36.4241 29.5788 36.5289C29.422 36.6337 29.2376 36.6897 29.0489 36.6897Z" fill="white"/>
<path d="M23.9611 36.6897C23.7725 36.6897 23.5881 36.6337 23.4313 36.5289C23.2744 36.4241 23.1522 36.2751 23.08 36.1009C23.0078 35.9266 22.9889 35.7348 23.0257 35.5498C23.0625 35.3648 23.1534 35.1948 23.2867 35.0614L28.374 29.9742C28.5531 29.7964 28.7953 29.6968 29.0477 29.6973C29.3 29.6977 29.5419 29.7982 29.7204 29.9766C29.8988 30.1551 29.9992 30.3969 29.9997 30.6493C30.0002 30.9016 29.9006 31.1439 29.7228 31.323L24.6355 36.4103C24.5471 36.499 24.442 36.5693 24.3262 36.6173C24.2105 36.6652 24.0864 36.6899 23.9611 36.6897Z" fill="white"/>
<path d="M20.317 14.6272V20.2526C20.317 20.8736 19.8129 21.3777 19.1919 21.3777H12.4415C11.8204 21.3777 11.3164 20.8736 11.3164 20.2526V14.6272L15.8167 10.127L20.317 14.6272Z" fill="#E9E9E9"/>
<path d="M20.6445 16.5481L15.8145 11.7182L10.9846 16.5481C10.5447 16.988 9.83367 16.988 9.39377 16.5481C8.95387 16.1082 8.95387 15.3971 9.39377 14.9572L15.0191 9.33188C15.459 8.89198 16.1701 8.89198 16.61 9.33188L22.2353 14.9572C22.6752 15.3971 22.6752 16.1082 22.2353 16.5481C21.7954 16.988 21.0844 16.988 20.6445 16.5481Z" fill="#C3C1C3"/>
<path d="M17.5049 16.8751V21.3754H14.1297V16.8751C14.1297 16.254 14.6337 15.75 15.2548 15.75H16.3798C17.0009 15.75 17.5049 16.254 17.5049 16.8751Z" fill="#C3C1C3"/>
</svg>
