<svg width="50" height="50" viewBox="0 0 50 50" fill="none" xmlns="http://www.w3.org/2000/svg">
<g clip-path="url(#clip0_4090_2931)">
<path d="M39.1667 0.833984H4.16675V8.33398H7.50008V45.834C7.49839 46.6622 7.80584 47.4612 8.36226 48.0746C8.91867 48.6881 9.68399 49.0718 10.5084 49.1507C10.6167 49.159 10.7334 49.1673 10.8417 49.1673H42.5001V4.16732C42.5001 3.28326 42.1489 2.43542 41.5238 1.8103C40.8987 1.18517 40.0508 0.833984 39.1667 0.833984Z" fill="#E9E9E9"/>
<path d="M7.50003 4.16761C7.50007 3.70223 7.40266 3.242 7.21407 2.81654C7.02548 2.39108 6.74989 2.00982 6.40505 1.69732C6.0602 1.38481 5.65373 1.14798 5.21181 1.00206C4.7699 0.85615 4.30233 0.804388 3.8392 0.850112C2.99952 0.954634 2.22811 1.36584 1.67326 2.00468C1.11841 2.64352 0.819275 3.46491 0.833362 4.31095V7.50095C0.833362 7.72196 0.921159 7.93392 1.07744 8.0902C1.23372 8.24648 1.44568 8.33428 1.66669 8.33428H7.50003V4.16761Z" fill="#C3C1C3"/>
<path d="M10.8334 49.168H45.8334C46.7174 49.168 47.5653 48.8168 48.1904 48.1917C48.8155 47.5665 49.1667 46.7187 49.1667 45.8346V41.668H14.1667V45.8346C14.1667 46.7187 13.8155 47.5665 13.1904 48.1917C12.5653 48.8168 11.7174 49.168 10.8334 49.168Z" fill="#C3C1C3"/>
<path d="M37.3372 31.9395H36.0154V30.1771C36.0188 28.6343 35.6944 27.1084 35.0637 25.7004C35.4846 25.3469 35.8275 24.9097 36.0705 24.4165C36.3134 23.9234 36.4512 23.3851 36.4751 22.8359C36.4989 22.2867 36.4083 21.7385 36.209 21.2262C36.0097 20.7138 35.7061 20.2485 35.3173 19.8598C34.9286 19.4711 34.4633 19.1674 33.951 18.9681C33.4386 18.7688 32.8904 18.6782 32.3412 18.7021C31.792 18.7259 31.2537 18.8637 30.7606 19.1067C30.2675 19.3497 29.8303 19.6925 29.4767 20.1135C28.5833 19.7156 27.6409 19.4386 26.6744 19.2895L27.0269 17.1746C27.0585 16.9838 27.0479 16.7884 26.9957 16.6022C26.9436 16.416 26.8513 16.2435 26.7252 16.0969C26.5992 15.9503 26.4425 15.8331 26.2662 15.7536C26.09 15.6741 25.8984 15.6342 25.705 15.6368H24.2775C24.0841 15.6342 23.8926 15.6741 23.7163 15.7536C23.54 15.8331 23.3833 15.9503 23.2573 16.0969C23.1312 16.2435 23.0389 16.416 22.9868 16.6022C22.9347 16.7884 22.924 16.9838 22.9556 17.1746L23.3081 19.2895C20.7106 19.6933 18.3431 21.0127 16.6333 23.0094C14.9234 25.006 13.984 27.5483 13.9847 30.1771V31.9395H12.6629C12.546 31.9395 12.434 31.9859 12.3513 32.0686C12.2687 32.1512 12.2223 32.2633 12.2223 32.3801V33.4817C12.2221 33.5565 12.2411 33.6302 12.2773 33.6958C12.3135 33.7613 12.3659 33.8165 12.4294 33.8562L14.1918 34.9577C14.262 35.0012 14.3429 35.0241 14.4254 35.0238H35.5748C35.6573 35.0241 35.7382 35.0012 35.8083 34.9577L37.5708 33.8562C37.6343 33.8165 37.6866 33.7613 37.7228 33.6958C37.7591 33.6302 37.778 33.5565 37.7778 33.4817V32.3801C37.7778 32.2633 37.7314 32.1512 37.6488 32.0686C37.5662 31.9859 37.4541 31.9395 37.3372 31.9395ZM32.4905 19.6024C33.1005 19.6024 33.6968 19.7832 34.204 20.1222C34.7112 20.4611 35.1066 20.9428 35.34 21.5063C35.5734 22.0699 35.6345 22.6901 35.5155 23.2884C35.3965 23.8867 35.1028 24.4362 34.6714 24.8676C34.2401 25.2989 33.6905 25.5927 33.0922 25.7117C32.4939 25.8307 31.8738 25.7696 31.3102 25.5362C30.7466 25.3027 30.2649 24.9074 29.926 24.4002C29.5871 23.893 29.4062 23.2967 29.4062 22.6866C29.4062 21.8686 29.7312 21.0841 30.3096 20.5057C30.888 19.9273 31.6725 19.6024 32.4905 19.6024ZM23.8413 17.0292C23.831 16.9657 23.8347 16.9007 23.8522 16.8388C23.8697 16.777 23.9005 16.7197 23.9425 16.6709C23.9845 16.6222 24.0366 16.5833 24.0952 16.5569C24.1539 16.5305 24.2176 16.5172 24.2819 16.5181H25.7271C25.7914 16.5172 25.8551 16.5305 25.9137 16.5569C25.9724 16.5833 26.0245 16.6222 26.0665 16.6709C26.1085 16.7197 26.1393 16.777 26.1568 16.8388C26.1743 16.9007 26.178 16.9657 26.1677 17.0292L25.8064 19.1926C25.2755 19.1529 24.7423 19.1529 24.2114 19.1926L23.8413 17.0292ZM14.866 30.1771C14.8664 28.5027 15.2817 26.8546 16.0747 25.3799C16.8677 23.9053 18.0138 22.6501 19.4104 21.7266C20.8071 20.803 22.4107 20.24 24.0782 20.0876C25.7456 19.9353 27.4247 20.1985 28.9656 20.8537C27.2031 24.2729 30.8955 27.974 34.3234 26.2116C34.8592 27.4649 35.135 28.814 35.1342 30.1771V31.9395H14.866V30.1771ZM36.8966 33.2614L35.447 34.1426H14.5531L13.1035 33.2614V32.8207H36.8966V33.2614Z" fill="#9B9B9B"/>
<path d="M32.5199 18.5645C31.7143 18.5645 30.9268 18.8033 30.2569 19.2509C29.5871 19.6985 29.065 20.3346 28.7567 21.0789C28.4484 21.8232 28.3678 22.6422 28.5249 23.4323C28.6821 24.2224 29.07 24.9482 29.6397 25.5179C30.2093 26.0875 30.9351 26.4755 31.7252 26.6326C32.5154 26.7898 33.3343 26.7091 34.0786 26.4008C34.8229 26.0925 35.4591 25.5705 35.9066 24.9006C36.3542 24.2308 36.5931 23.4433 36.5931 22.6377C36.592 21.5577 36.1625 20.5223 35.3989 19.7587C34.6352 18.995 33.5998 18.5655 32.5199 18.5645ZM32.5199 19.9222C33.0031 19.9246 33.4767 20.0576 33.8905 20.3071L30.1893 24.0083C29.9398 23.5945 29.8068 23.1209 29.8044 22.6377C29.8044 21.9175 30.0905 21.2268 30.5997 20.7175C31.109 20.2083 31.7997 19.9222 32.5199 19.9222ZM32.5199 25.3532C32.0366 25.3508 31.5631 25.2178 31.1492 24.9682L34.8504 21.267C35.1 21.6808 35.233 22.1544 35.2354 22.6377C35.2354 23.3579 34.9493 24.0486 34.44 24.5578C33.9308 25.0671 33.2401 25.3532 32.5199 25.3532Z" fill="#C3C1C3"/>
<path d="M20.1534 22.3082C19.0224 23.0056 18.0549 23.9384 17.3166 25.0431C16.5784 26.1478 16.0867 27.3986 15.875 28.7103C15.8573 28.8254 15.8858 28.9428 15.9543 29.0369C16.0228 29.131 16.1258 29.1942 16.2407 29.2126H16.3112C16.4169 29.214 16.5194 29.1774 16.6003 29.1094C16.6812 29.0415 16.735 28.9468 16.7519 28.8425C16.941 27.6594 17.3819 26.5307 18.0447 25.5327C18.7076 24.5346 19.5769 23.6905 20.594 23.0573C20.6538 23.0344 20.7079 22.9988 20.7526 22.9528C20.7972 22.9069 20.8313 22.8518 20.8525 22.7914C20.8737 22.7309 20.8814 22.6666 20.8752 22.6029C20.869 22.5391 20.8489 22.4775 20.8165 22.4223C20.784 22.3671 20.7399 22.3196 20.6872 22.2832C20.6345 22.2468 20.5745 22.2223 20.5114 22.2115C20.4483 22.2006 20.3835 22.2036 20.3217 22.2203C20.2599 22.2371 20.2024 22.267 20.1534 22.3082Z" fill="#9B9B9B"/>
</g>
<defs>
<clipPath id="clip0_4090_2931">
<rect width="50" height="50" fill="white"/>
</clipPath>
</defs>
</svg>
