<svg width="50" height="50" viewBox="0 0 50 50" fill="none" xmlns="http://www.w3.org/2000/svg">
<g clip-path="url(#clip0_4090_2958)">
<path d="M19.9552 15.0871H32.7586V13.5897C32.759 13.3306 32.6428 13.0852 32.4422 12.9212C32.2416 12.7573 31.978 12.6922 31.7242 12.744L19.9552 15.0871Z" fill="#C3C1C3"/>
<path d="M12.069 17.6726V48.7071C12.069 49.1832 12.4549 49.5692 12.931 49.5692H37.069C37.5451 49.5692 37.931 49.1832 37.931 48.7071V17.6726C37.931 17.1965 37.5451 16.8105 37.069 16.8105H12.931C12.4549 16.8105 12.069 17.1965 12.069 17.6726ZM16.3793 24.5692V21.983C16.3793 21.5069 16.7653 21.1209 17.2414 21.1209C17.7175 21.1209 18.1035 21.5069 18.1035 21.983V24.5692C18.108 25.6612 18.798 26.6327 19.8276 26.9968V21.983C19.8276 21.5069 20.2136 21.1209 20.6897 21.1209C21.1658 21.1209 21.5517 21.5069 21.5517 21.983V26.9968C22.5813 26.6327 23.2713 25.6612 23.2759 24.5692V21.983C23.2759 21.5069 23.6618 21.1209 24.1379 21.1209C24.614 21.1209 25 21.5069 25 21.983V24.5692C24.9974 26.6167 23.5573 28.3809 21.5517 28.7933V37.5002C21.5517 37.9763 21.1658 38.3623 20.6897 38.3623C20.2136 38.3623 19.8276 37.9763 19.8276 37.5002V28.7933C17.8221 28.3809 16.3819 26.6167 16.3793 24.5692ZM28.4483 46.1209H21.5517C21.0756 46.1209 20.6897 45.7349 20.6897 45.2588C20.6897 44.7827 21.0756 44.3968 21.5517 44.3968H28.4483C28.9244 44.3968 29.3103 44.7827 29.3103 45.2588C29.3103 45.7349 28.9244 46.1209 28.4483 46.1209ZM31.0345 42.6726H18.9655C18.4894 42.6726 18.1035 42.2867 18.1035 41.8105C18.1035 41.3344 18.4894 40.9485 18.9655 40.9485H31.0345C31.5106 40.9485 31.8966 41.3344 31.8966 41.8105C31.8966 42.2867 31.5106 42.6726 31.0345 42.6726ZM33.6207 31.4657C33.6207 32.4179 32.8488 33.1899 31.8966 33.1899H30.1724V37.5002C30.1724 37.9763 29.7865 38.3623 29.3103 38.3623C28.8342 38.3623 28.4483 37.9763 28.4483 37.5002V21.983C28.4483 21.5069 28.8342 21.1209 29.3103 21.1209C30.4539 21.1197 31.5509 21.5735 32.3595 22.3821C33.1681 23.1907 33.6218 24.2877 33.6207 25.4312V31.4657Z" fill="#E9E9E9"/>
<path d="M48.2759 15.0868C48.0169 15.0864 47.7614 15.0275 47.5285 14.9144L25 4.06867L2.47244 14.9144C1.62419 15.279 0.639277 14.9106 0.238428 14.0789C-0.162422 13.2472 0.163084 12.2473 0.976751 11.8109L24.2526 0.604019C24.725 0.376785 25.2751 0.376785 25.7474 0.604019L49.0233 11.8109C49.7459 12.1609 50.1313 12.9634 49.9527 13.7462C49.7741 14.529 49.0788 15.0849 48.2759 15.0868Z" fill="#E5E5E5"/>
</g>
<defs>
<clipPath id="clip0_4090_2958">
<rect width="50" height="50" fill="white"/>
</clipPath>
</defs>
</svg>
