<svg width="50" height="50" viewBox="0 0 50 50" fill="none" xmlns="http://www.w3.org/2000/svg">
<path d="M30.7846 4.20629L16.171 7.29263H33.3281V6.14923C33.3281 4.87145 32.0878 3.92405 30.7846 4.20629Z" fill="#E7E7E7"/>
<path d="M33.3332 26.3131V24.2298C33.3332 19.6274 29.6022 15.8965 24.9999 15.8965C20.3975 15.8965 16.6665 19.6274 16.6665 24.2298V26.3131H33.3332Z" fill="#C3C1C3"/>
<path d="M24.9999 14.854C24.3786 14.854 23.7715 14.9144 23.184 15.0297C23.3535 14.1818 24.102 13.543 24.9998 13.543C25.8975 13.543 26.646 14.1818 26.8155 15.0296C26.2281 14.9144 25.6211 14.854 24.9999 14.854Z" fill="#C3C1C3"/>
<path d="M15.6249 27.4707C15.6249 27.4308 15.6572 27.3984 15.6972 27.3984H34.3025C34.3425 27.3984 34.3749 27.4308 34.3749 27.4707C34.3749 28.6533 33.4162 29.6119 32.2337 29.6119H17.766C16.5835 29.6119 15.6249 28.6533 15.6249 27.4707Z" fill="#C3C1C3"/>
<path fill-rule="evenodd" clip-rule="evenodd" d="M12.4999 8.33398C12.3647 8.33398 12.2326 8.34689 12.1047 8.37144C11.1431 8.55609 10.4165 9.40188 10.4165 10.4173V43.7507C10.4165 44.9013 11.3493 45.834 12.4999 45.834H37.4999C38.6505 45.834 39.5832 44.9013 39.5832 43.7507V10.4173C39.5832 9.26673 38.6505 8.33398 37.4999 8.33398H12.4999ZM15.6249 24.2283C15.6249 20.0599 18.3453 16.527 22.1075 15.308C22.1531 13.7498 23.4305 12.5007 24.9997 12.5007C26.5689 12.5007 27.8463 13.7498 27.8919 15.3079C31.6543 16.5268 34.3749 20.0598 34.3749 24.2283V26.3587C34.9564 26.396 35.4165 26.8795 35.4165 27.4704C35.4165 29.2282 33.9915 30.6532 32.2337 30.6532H17.766C16.0082 30.6532 14.5832 29.2282 14.5832 27.4704C14.5832 26.8795 15.0433 26.396 15.6249 26.3587V24.2283ZM15.104 35.4173C15.104 35.1297 15.3372 34.8965 15.6249 34.8965H34.3749C34.6625 34.8965 34.8957 35.1297 34.8957 35.4173C34.8957 35.705 34.6625 35.9382 34.3749 35.9382H15.6249C15.3372 35.9382 15.104 35.705 15.104 35.4173ZM15.104 39.584C15.104 39.2963 15.3372 39.0632 15.6249 39.0632H34.3749C34.6625 39.0632 34.8957 39.2963 34.8957 39.584C34.8957 39.8716 34.6625 40.1048 34.3749 40.1048H15.6249C15.3372 40.1048 15.104 39.8716 15.104 39.584Z" fill="#E9E9E9"/>
</svg>
