<svg width="45" height="45" viewBox="0 0 45 45" fill="none" xmlns="http://www.w3.org/2000/svg">
<path d="M41.8359 13.2328V39.375C41.8328 40.0267 41.5726 40.6509 41.1117 41.1117C40.6509 41.5726 40.0267 41.8328 39.375 41.8359H12.6562C12.0045 41.8328 11.3804 41.5726 10.9195 41.1117C10.4587 40.6509 10.1984 40.0267 10.1953 39.375V5.625C10.1984 4.97328 10.4587 4.34913 10.9195 3.88829C11.3804 3.42744 12.0045 3.16717 12.6562 3.16406H31.7673C32.4156 3.16707 33.0368 3.42463 33.497 3.88125L41.1187 11.5031C41.3464 11.7299 41.527 11.9995 41.6501 12.2963C41.7732 12.5932 41.8364 12.9115 41.8359 13.2328Z" fill="#E9E9E9"/>
<path d="M41.8359 13.2328V13.7109H33.75C33.0983 13.7078 32.4741 13.4476 32.0133 12.9867C31.5524 12.5259 31.2922 11.9017 31.2891 11.25V3.16406H31.7673C32.4156 3.16707 33.0368 3.42463 33.497 3.88125L41.1187 11.5031C41.3464 11.7299 41.527 11.9995 41.6501 12.2963C41.7732 12.5932 41.8364 12.9115 41.8359 13.2328Z" fill="#C3C1C3"/>
<path d="M35.1562 22.1484H16.875C16.5953 22.1484 16.327 22.0373 16.1292 21.8395C15.9314 21.6417 15.8203 21.3735 15.8203 21.0938C15.8203 20.814 15.9314 20.5458 16.1292 20.348C16.327 20.1502 16.5953 20.0391 16.875 20.0391H35.1562C35.436 20.0391 35.7042 20.1502 35.902 20.348C36.0998 20.5458 36.2109 20.814 36.2109 21.0938C36.2109 21.3735 36.0998 21.6417 35.902 21.8395C35.7042 22.0373 35.436 22.1484 35.1562 22.1484Z" fill="white"/>
<path d="M35.1562 27.7734H16.875C16.5953 27.7734 16.327 27.6623 16.1292 27.4645C15.9314 27.2667 15.8203 26.9985 15.8203 26.7188C15.8203 26.439 15.9314 26.1708 16.1292 25.973C16.327 25.7752 16.5953 25.6641 16.875 25.6641H35.1562C35.436 25.6641 35.7042 25.7752 35.902 25.973C36.0998 26.1708 36.2109 26.439 36.2109 26.7188C36.2109 26.9985 36.0998 27.2667 35.902 27.4645C35.7042 27.6623 35.436 27.7734 35.1562 27.7734Z" fill="white"/>
<path d="M25.3125 37.6181C25.1389 37.6181 24.9679 37.5753 24.8148 37.4934C24.6617 37.4114 24.5313 37.2929 24.435 37.1484L22.3359 34.0002L20.4332 35.9028C20.2352 36.0994 19.9674 36.2095 19.6883 36.209C19.4093 36.2085 19.1419 36.0974 18.9446 35.9001C18.7473 35.7028 18.6362 35.4354 18.6357 35.1563C18.6352 34.8773 18.7453 34.6095 18.9419 34.4114L21.7544 31.5989C21.8646 31.4885 21.998 31.4039 22.145 31.3514C22.2919 31.2988 22.4487 31.2795 22.604 31.2948C22.7593 31.3102 22.9092 31.3599 23.043 31.4403C23.1768 31.5207 23.291 31.6297 23.3775 31.7597L25.3125 34.6622L27.2475 31.7597C27.334 31.6299 27.4483 31.5209 27.5819 31.4405C27.7156 31.3601 27.8655 31.3104 28.0207 31.2948C28.1761 31.2784 28.3332 31.2972 28.4804 31.3499C28.6276 31.4026 28.761 31.4877 28.8707 31.599L31.3742 34.1025H35.1563C35.436 34.1025 35.7042 34.2136 35.902 34.4114C36.0998 34.6092 36.2109 34.8774 36.2109 35.1572C36.2109 35.4369 36.0998 35.7051 35.902 35.9029C35.7042 36.1007 35.436 36.2118 35.1563 36.2118H30.9375C30.799 36.2119 30.6619 36.1846 30.5339 36.1316C30.4059 36.0785 30.2897 36.0008 30.1918 35.9028L28.2884 34.0002L26.19 37.1484C26.0937 37.2929 25.9633 37.4114 25.8102 37.4934C25.6571 37.5753 25.4861 37.6181 25.3125 37.6181Z" fill="white"/>
<path d="M11.25 19.3359C15.7157 19.3359 19.3359 15.7157 19.3359 11.25C19.3359 6.78426 15.7157 3.16406 11.25 3.16406C6.78426 3.16406 3.16406 6.78426 3.16406 11.25C3.16406 15.7157 6.78426 19.3359 11.25 19.3359Z" fill="#C3C1C3"/>
<path d="M14.0625 15.1163C13.924 15.1165 13.7868 15.0893 13.6588 15.0362C13.5308 14.9832 13.4146 14.9054 13.3168 14.8073L7.69181 9.18232C7.49523 8.9843 7.38513 8.71644 7.38564 8.43742C7.38615 8.15839 7.49722 7.89094 7.69452 7.69364C7.89182 7.49634 8.15927 7.38528 8.43829 7.38477C8.71732 7.38426 8.98517 7.49435 9.18319 7.69093L14.8082 13.3159C14.9557 13.4634 15.0561 13.6513 15.0968 13.8559C15.1374 14.0605 15.1166 14.2725 15.0367 14.4652C14.9569 14.6579 14.8218 14.8226 14.6484 14.9385C14.475 15.0544 14.2711 15.1163 14.0625 15.1163Z" fill="white"/>
<path d="M8.4375 15.1163C8.22893 15.1163 8.02505 15.0544 7.85163 14.9385C7.67822 14.8226 7.54307 14.6579 7.46325 14.4652C7.38344 14.2725 7.36256 14.0605 7.40324 13.8559C7.44392 13.6513 7.54434 13.4634 7.69181 13.3159L13.3168 7.69093C13.5148 7.49435 13.7827 7.38426 14.0617 7.38477C14.3407 7.38528 14.6082 7.49634 14.8055 7.69364C15.0028 7.89094 15.1138 8.15839 15.1144 8.43742C15.1149 8.71644 15.0048 8.9843 14.8082 9.18232L9.18319 14.8073C9.08539 14.9054 8.96916 14.9832 8.84118 15.0362C8.71321 15.0893 8.57602 15.1165 8.4375 15.1163Z" fill="white"/>
</svg>
