<svg width="50" height="50" viewBox="0 0 50 50" fill="none" xmlns="http://www.w3.org/2000/svg">
<path d="M33.2292 49.9997H5.89062L3.90234 49.6677C3.36299 49.6677 2.92578 49.2305 2.92578 48.6911L3.49414 12.6677C3.49414 12.1283 3.93135 11.6911 4.4707 11.6911L5.79688 11.2031H18.4448L21.3477 21.4713L34.2058 29.3105V49.0231C34.2058 49.5625 33.7686 49.9997 33.2292 49.9997Z" fill="#E9E9E9"/>
<path d="M5.11265 48.9936V12.2092C5.11265 11.6535 5.56304 11.2031 6.1187 11.2031H3.40229C2.84663 11.2031 2.39624 11.6535 2.39624 12.2092V48.9936C2.39624 49.5493 2.84663 49.9997 3.40229 49.9997H6.1186C5.56304 49.9997 5.11265 49.5493 5.11265 48.9936Z" fill="#DAD8DB"/>
<path d="M33.1997 11.2031H18.4448C18.3454 11.9207 18.2927 12.653 18.2927 13.3976C18.2927 22.172 25.4312 29.3105 34.2057 29.3105V12.2092C34.2057 11.6536 33.7553 11.2031 33.1997 11.2031Z" fill="#F5F5F5"/>
<path d="M12.9512 21.4708C12.8975 24.6144 8.22144 24.6139 8.16821 21.4707C8.22183 18.3272 12.8979 18.3277 12.9512 21.4708Z" fill="#F9F9F9"/>
<path d="M18.301 22.2258H16.1158C15.6991 22.2258 15.3613 21.888 15.3613 21.4713C15.3613 21.0546 15.6991 20.7168 16.1158 20.7168H18.301C18.7177 20.7168 19.0555 21.0546 19.0555 21.4713C19.0555 21.888 18.7177 22.2258 18.301 22.2258Z" fill="#F9F9F9"/>
<path d="M12.9512 30.9787C12.8975 34.1223 8.22144 34.1218 8.16821 30.9786C8.22183 27.835 12.8979 27.8355 12.9512 30.9787Z" fill="#F9F9F9"/>
<path d="M28.4338 31.7336H16.1158C15.6991 31.7336 15.3613 31.3958 15.3613 30.9791C15.3613 30.5624 15.6991 30.2246 16.1158 30.2246H28.4338C28.8505 30.2246 29.1883 30.5624 29.1883 30.9791C29.1883 31.3958 28.8505 31.7336 28.4338 31.7336Z" fill="#F9F9F9"/>
<path d="M10.5597 42.8787C11.8805 42.8787 12.9512 41.808 12.9512 40.4872C12.9512 39.1664 11.8805 38.0957 10.5597 38.0957C9.23893 38.0957 8.16821 39.1664 8.16821 40.4872C8.16821 41.808 9.23893 42.8787 10.5597 42.8787Z" fill="#F9F9F9"/>
<path d="M28.4338 41.2414H16.1158C15.6991 41.2414 15.3613 40.9036 15.3613 40.4869C15.3613 40.0702 15.6991 39.7324 16.1158 39.7324H28.4338C28.8505 39.7324 29.1883 40.0702 29.1883 40.4869C29.1883 40.9036 28.8505 41.2414 28.4338 41.2414Z" fill="#F9F9F9"/>
<path d="M47.6036 13.3979C47.6036 20.7973 41.6052 26.7957 34.2058 26.7957C26.8063 26.7957 22.8008 20.7974 22.8008 13.3979C22.8008 5.99834 26.8063 0 34.2058 0C41.6052 0 47.6036 5.99844 47.6036 13.3979Z" fill="#DAD8DB"/>
<path d="M23.2223 13.3979C23.2223 6.40547 28.5793 0.665137 35.4129 0.0546875C35.0152 0.0192383 34.6127 0 34.2057 0C26.8063 0 20.8079 5.99844 20.8079 13.3979C20.8079 20.7973 26.8063 26.7957 34.2057 26.7957C34.6127 26.7957 35.0152 26.7766 35.4129 26.741C28.5793 26.1306 23.2223 20.3903 23.2223 13.3979Z" fill="#DAD8DB"/>
<path d="M35.5354 7.84522L34.4032 8.97891C34.2942 9.08818 34.1171 9.08818 34.008 8.97891L32.8759 7.84522C32.4323 7.40088 31.8852 7.08359 31.2912 6.9166C30.9745 6.82754 30.6588 7.06699 30.3241 7.06699C27.2907 7.06699 26.226 10.2914 28.1103 12.6686L33.7679 19.7467C33.9915 20.0288 34.4198 20.0288 34.6434 19.7467L35.1956 19.9122L40.9436 12.6605C42.8279 10.2834 41.1349 6.78125 38.1015 6.78125C37.1389 6.78125 36.2157 7.16406 35.5354 7.84522Z" fill="#C3C1C4"/>
<path d="M29.4477 12.6605C27.7823 10.5597 28.9122 7.58164 31.291 6.91758C30.9743 6.82852 30.6446 6.78125 30.3098 6.78125C27.2765 6.78125 25.5835 10.2835 27.4677 12.6605L33.7679 20.6089C33.9915 20.891 34.4197 20.891 34.6434 20.6089L35.1956 19.9122L29.4477 12.6605Z" fill="#BDBCBD"/>
</svg>
