<svg width="100" height="100" viewBox="0 0 100 100" fill="none" xmlns="http://www.w3.org/2000/svg">
<rect width="100" height="100" rx="8" fill="#C1C1C1" fill-opacity="0.2"/>
<g clip-path="url(#clip0_4336_1143)">
<path d="M49.6078 39.4118H51.9608C51.9608 37.8791 51.4164 37.0624 50.9788 36.4063C50.6255 35.8762 50.3921 35.5262 50.3921 34.7059C50.3921 33.8856 50.6255 33.5355 50.9788 33.0055C51.4164 32.3493 51.9608 31.5327 51.9608 30H49.6078C49.6078 30.8202 49.3743 31.1704 49.0211 31.7004C48.5836 32.3565 48.0392 33.1732 48.0392 34.7059C48.0392 36.2386 48.5836 37.0552 49.0211 37.7114C49.3743 38.2414 49.6078 38.5915 49.6078 39.4118Z" fill="#CAD0DD" fill-opacity="0.5"/>
<path d="M57.0589 44.1168H59.4118C59.4118 42.5841 58.8674 41.7675 58.4298 41.1114C58.0765 40.5814 57.8432 40.2313 57.8432 39.411C57.8432 38.5906 58.0766 38.2406 58.4298 37.7106C58.8674 37.0544 59.4118 36.2377 59.4118 34.7051H57.0589C57.0589 35.5254 56.8254 35.8754 56.4722 36.4055C56.0346 37.0616 55.4902 37.8783 55.4902 39.411C55.4902 40.9436 56.0346 41.7603 56.4722 42.4165C56.8254 42.9465 57.0589 43.2966 57.0589 44.1168Z" fill="#CAD0DD" fill-opacity="0.5"/>
<path d="M40.5883 44.1168H42.9412C42.9412 43.2966 43.1747 42.9465 43.5279 42.4165C43.9654 41.7603 44.5098 40.9437 44.5098 39.411C44.5098 37.8783 43.9654 37.0616 43.5279 36.4055C43.1747 35.8754 42.9412 35.5254 42.9412 34.7051H40.5883C40.5883 36.2377 41.1326 37.0544 41.5702 37.7106C41.9235 38.2405 42.1569 38.5906 42.1569 39.411C42.1569 40.2313 41.9234 40.5813 41.5702 41.1114C41.1326 41.7675 40.5883 42.5841 40.5883 44.1168Z" fill="#CAD0DD" fill-opacity="0.5"/>
<path d="M30 62.9414V65.2943H32.8023L35.1552 70.0002H64.8447L67.1976 65.2943H70V62.9414C64.5065 62.9414 35.5227 62.9414 30 62.9414Z" fill="#CAD0DD" fill-opacity="0.5"/>
<path d="M53.5295 48.0267V47.6466C53.5295 45.7005 51.9463 44.1172 50.0001 44.1172C48.0502 44.1172 46.4706 45.6964 46.4706 47.6466V48.0267C40.249 49.3882 35.2999 54.2633 33.9128 60.5878H66.0874C64.7009 54.2666 59.7541 49.389 53.5295 48.0267Z" fill="#CAD0DD" fill-opacity="0.5"/>
</g>
<defs>
<clipPath id="clip0_4336_1143">
<rect width="40" height="40" fill="white" transform="translate(30 30)"/>
</clipPath>
</defs>
</svg>
