<svg width="20" height="21" viewBox="0 0 20 21" fill="none" xmlns="http://www.w3.org/2000/svg">
<g id="image- 2">
<g id="Group">
<path id="Vector" d="M2.1498 16.1913L2.13313 16.2079C1.90813 15.7163 1.76646 15.1579 1.70813 14.5413C1.76646 15.1496 1.9248 15.6996 2.1498 16.1913Z" fill="#9B9B9B"/>
<path id="Vector_2" d="M7.50006 8.99961C8.59546 8.99961 9.48337 8.11164 9.48337 7.01628C9.48337 5.92091 8.59546 5.03294 7.50006 5.03294C6.40469 5.03294 5.51672 5.92091 5.51672 7.01628C5.51672 8.11164 6.40469 8.99961 7.50006 8.99961Z" fill="#9B9B9B"/>
<path id="Vector_3" d="M13.4916 2.01628H6.50829C3.47496 2.01628 1.66663 3.82461 1.66663 6.85795V13.8413C1.66663 14.7496 1.82496 15.5413 2.13329 16.2079C2.84996 17.7913 4.38329 18.6829 6.50829 18.6829H13.4916C16.525 18.6829 18.3333 16.8746 18.3333 13.8413V11.9329V6.85795C18.3333 3.82461 16.525 2.01628 13.4916 2.01628ZM16.975 10.7663C16.325 10.2079 15.275 10.2079 14.625 10.7663L11.1583 13.7413C10.5083 14.2996 9.45829 14.2996 8.80829 13.7413L8.52496 13.5079C7.93329 12.9913 6.99163 12.9413 6.32496 13.3913L3.20829 15.4829C3.02496 15.0163 2.91663 14.4746 2.91663 13.8413V6.85795C2.91663 4.50795 4.15829 3.26628 6.50829 3.26628H13.4916C15.8416 3.26628 17.0833 4.50795 17.0833 6.85795V10.8579L16.975 10.7663Z" fill="#9B9B9B"/>
</g>
</g>
</svg>
