<svg width="206" height="206" viewBox="0 0 206 206" fill="none" xmlns="http://www.w3.org/2000/svg">
<g clip-path="url(#clip0_3369_1027)">
<mask id="mask0_3369_1027" style="mask-type:luminance" maskUnits="userSpaceOnUse" x="0" y="0" width="206" height="206">
<path d="M206 0H0V206H206V0Z" fill="white"/>
</mask>
<g mask="url(#mask0_3369_1027)">
<path d="M61.4223 168.55C41.7201 156.072 30.9162 134.024 28.7029 120.469C26.9499 109.729 25.0085 89.7464 38.7178 70.4936C46.2859 59.864 63.8688 59.452 81.6808 50.8C99.4928 42.148 111.597 30.1057 124.759 27.6044C139.116 24.8761 154.228 25.8056 166.69 40.706C187.905 66.072 170.375 117.045 148.916 144.2C143.922 150.52 131.403 168.998 104.997 175.224C95.9187 177.366 77.8269 178.939 61.4223 168.55Z" fill="#FF8200" fill-opacity="0.05"/>
<path d="M139.715 34.461V151.383C139.718 152.222 139.427 153.035 138.893 153.681C138.816 153.776 138.731 153.865 138.641 153.947C138.06 154.521 137.277 154.844 136.461 154.848H77.7508C77.4681 154.848 77.1867 154.808 76.9153 154.73C75.5272 154.337 74.4968 152.983 74.4968 151.383V34.461C74.4968 32.5551 75.9611 30.9961 77.7516 30.9961H136.462C138.251 30.9961 139.715 32.5551 139.715 34.461Z" fill="#3D393B"/>
<path d="M136.272 44.8437V138.028C136.272 138.504 135.906 138.893 135.458 138.893H78.421C77.9736 138.893 77.6073 138.503 77.6073 138.028V44.8437C77.6073 44.3674 77.9736 43.9785 78.421 43.9785H135.458C135.906 43.9777 136.272 44.3674 136.272 44.8437Z" fill="#E0E0E0"/>
<path d="M155.905 50.3159C152.815 58.0001 146.439 63.6565 139.714 68.6759V49.0062C142.735 46.2297 146.024 43.808 149.907 42.5959C151.642 42.0566 153.689 41.8234 155.151 42.9078C157.302 44.5022 156.906 47.8336 155.905 50.3159Z" fill="#F2BAA7"/>
<path d="M118.89 154.85C117.676 156.198 116.995 156.973 116.336 157.628C116.257 157.704 116.181 157.781 116.105 157.857C116.041 157.92 115.975 157.984 115.909 158.042C115.843 158.101 115.779 158.166 115.716 158.222C115.653 158.279 115.584 158.346 115.515 158.405C115.175 158.712 114.794 159.033 114.321 159.421C110.889 162.22 107.875 164.803 104.444 167.601C99.3007 171.8 94.1479 176.006 89.3299 180.567C88.2486 181.592 87.1853 182.637 86.1402 183.7C80.2527 189.707 38.5489 163.883 43.4607 154.849C46.7794 148.745 48.9028 141.997 49.7849 135.741C50.7552 128.859 50.3003 121.857 50.7778 114.923C51.068 110.688 51.7042 106.484 52.68 102.352C54.3944 95.0963 57.1424 88.1199 58.8568 80.8638C60.2023 75.1658 60.9016 69.3344 60.9415 63.4799C60.9468 62.845 60.9415 62.2101 60.9316 61.5752C60.8748 58.253 60.6049 54.9378 60.1237 51.6501C59.9177 50.2176 59.9411 48.3051 61.3185 47.8634C61.4296 47.8275 61.5447 47.8054 61.6612 47.7975C62.0217 47.7563 62.3979 47.8251 62.7559 47.9013C66.9744 48.8077 70.7899 51.3172 73.43 54.7232C73.4428 54.7381 73.4556 54.7562 73.4683 54.7714C74.7878 56.4715 75.7908 58.3949 76.4294 60.45C76.541 60.8159 76.6428 61.1838 76.7318 61.5546C76.9328 62.3913 77.0821 63.2395 77.1788 64.0946C77.2703 64.8893 77.3185 65.6894 77.3308 66.492C77.3337 66.6111 77.3362 66.733 77.3362 66.8525C77.3387 67.3057 77.3284 67.754 77.3106 68.2035C77.3008 68.4601 77.288 68.7139 77.2694 68.9706C77.1726 70.5362 76.972 72.0944 76.731 73.641C75.7422 79.9751 73.978 86.4056 74.9684 92.6808C75.3265 94.9488 76.0351 97.1357 76.731 99.3272C77.0049 100.192 77.2793 101.058 77.5257 101.931C80.0249 110.747 79.9054 119.995 79.3847 129.065C79.2425 131.548 79.0674 134.03 78.9022 136.513C78.8313 137.564 78.7625 138.614 78.7016 139.667C78.6584 140.356 78.6196 141.043 78.585 141.727C78.5644 142.11 78.5466 142.497 78.5289 142.881C78.4399 144.834 78.016 147.003 78.2599 148.915C78.4527 150.44 79.0724 151.795 80.6268 152.745C80.6928 152.786 80.7587 152.827 80.8275 152.865C82.4071 153.748 84.2508 154 86.0516 154.195C86.3919 154.233 86.7244 154.269 87.0544 154.302C87.3288 154.33 87.6008 154.355 87.8673 154.384L88.5302 154.445C88.7004 154.461 88.8681 154.476 89.0358 154.487C90.1861 154.585 91.2882 154.664 92.3573 154.728C92.6749 154.746 92.9922 154.763 93.3049 154.779C94.0922 154.817 94.8614 154.847 95.6236 154.87C95.8395 154.878 96.0525 154.883 96.2684 154.888C96.6367 154.898 97.0026 154.906 97.3685 154.913L98.0689 154.921C99.0515 154.934 100.027 154.936 101.01 154.931C101.162 154.931 101.317 154.931 101.47 154.928C102.564 154.921 103.669 154.908 104.804 154.893C105.073 154.888 105.342 154.885 105.614 154.88C105.749 154.878 105.886 154.878 106.023 154.875L108.121 154.845C108.443 154.84 108.771 154.837 109.101 154.832L110.554 154.817C110.739 154.817 110.927 154.814 111.115 154.812C111.304 154.809 111.501 154.809 111.694 154.809C112.004 154.807 112.319 154.807 112.639 154.807C113.581 154.801 114.559 154.804 115.575 154.809C115.768 154.812 115.961 154.812 116.156 154.814L116.931 154.822L117.5 154.829C117.632 154.829 117.764 154.832 117.898 154.834L118.89 154.85Z" fill="#FFD9CA"/>
<path d="M118.89 154.85C117.676 156.198 116.995 156.973 116.336 157.628C116.257 157.704 116.181 157.781 116.105 157.857C116.041 157.92 115.975 157.984 115.909 158.042C115.843 158.101 115.78 158.166 115.716 158.222C115.653 158.279 115.584 158.346 115.515 158.405C115.175 158.712 114.794 159.033 114.321 159.421C110.89 162.22 107.875 164.803 104.444 167.601C99.3008 171.8 94.1479 176.006 89.33 180.567C87.0722 171.8 83.0902 163.474 77.663 156.229C76.3981 154.537 75.0014 152.783 74.779 150.685C74.5021 148.097 75.8712 145.311 76.3586 142.804C77.0318 139.327 77.6358 135.838 78.063 132.323C78.8985 125.483 79.093 118.514 77.8776 111.708C76.93 106.403 74.1185 100.945 71.3602 96.3517C70.8172 95.4478 70.2437 94.5418 69.9594 93.5258C69.6842 92.5403 69.6953 91.4967 69.7905 90.477C70.2741 85.3019 72.7906 80.6525 74.6162 75.872C76.5114 70.9115 76.7471 65.5432 75.4847 60.3685C75.1292 58.9104 74.6694 57.4577 73.8491 56.2031C73.1202 55.0833 72.1323 54.1613 71.1299 53.2779C69.3953 51.7441 67.7572 50.3041 65.7055 49.2754C64.6462 48.7447 63.5631 48.2866 62.4165 47.9854C62.3073 47.9574 62.0201 47.8811 61.6621 47.7975C62.0226 47.7563 62.3988 47.8251 62.7568 47.9013C66.9753 48.8077 70.7908 51.3172 73.4309 54.7232C73.4437 54.7381 73.4564 54.7562 73.4692 54.7714C74.7887 56.4715 75.7917 58.3949 76.4302 60.45C76.5419 60.8159 76.6437 61.1838 76.7327 61.5546C76.9337 62.3913 77.083 63.2395 77.1797 64.0946C77.2481 64.8918 77.314 65.6894 77.3317 66.492C77.3346 66.6111 77.3371 66.733 77.3371 66.8525C77.3395 67.3057 77.3292 67.754 77.3115 68.2035C77.3016 68.4601 77.2889 68.7139 77.2703 68.9706C77.1735 70.5362 76.9729 72.0944 76.7318 73.641C75.743 79.9751 73.9788 86.4056 74.9693 92.6808C75.3273 94.9488 76.036 97.1357 76.7318 99.3272C77.0058 100.192 77.2802 101.058 77.5266 101.931C80.0258 110.747 79.9063 119.995 79.3855 129.065C79.2434 131.548 79.0683 134.03 78.9031 136.513C78.8322 137.564 78.7634 138.614 78.7024 139.667C78.6593 140.356 78.6204 141.043 78.5858 141.727C78.5121 142.027 78.4511 142.329 78.4004 142.636C78.098 144.452 77.8442 146.834 78.2608 148.915C78.5731 150.491 79.2739 151.893 80.6277 152.744C80.6936 152.785 80.7595 152.827 80.8283 152.864C82.408 153.747 84.2517 153.999 86.0525 154.194C86.3928 154.232 86.7253 154.268 87.0553 154.301C87.3297 154.329 87.6016 154.354 87.8682 154.384L88.5311 154.445C88.7013 154.46 88.8689 154.475 89.0366 154.486C90.1869 154.585 91.289 154.663 92.3582 154.727C92.6758 154.745 92.9931 154.763 93.3058 154.778C94.0931 154.816 94.8623 154.846 95.6245 154.869C95.8404 154.877 96.0534 154.882 96.2693 154.887C96.6376 154.897 97.0035 154.905 97.3693 154.912L98.0697 154.92C99.0523 154.933 100.028 154.935 101.011 154.93C101.163 154.93 101.318 154.93 101.47 154.927C102.565 154.92 103.67 154.907 104.805 154.892C105.074 154.887 105.343 154.885 105.615 154.879C105.75 154.877 105.887 154.877 106.024 154.874L108.122 154.844C108.444 154.839 108.772 154.836 109.102 154.831L110.555 154.816C110.74 154.816 110.928 154.813 111.116 154.811C111.304 154.808 111.502 154.808 111.695 154.808C112.005 154.806 112.32 154.806 112.64 154.806C113.582 154.801 114.56 154.803 115.576 154.808C115.769 154.811 115.962 154.811 116.157 154.813L116.932 154.821L117.501 154.829C117.633 154.829 117.765 154.831 117.899 154.833L118.89 154.85Z" fill="#F2BAA7"/>
<path d="M67.0738 60.871C65.7253 62.4914 63.2108 63.5379 60.9403 63.4794C60.9457 62.8445 60.9403 62.2096 60.9304 61.5747C61.5752 61.6126 62.2204 61.6126 62.8668 61.5162C64.1572 61.323 65.2721 60.6222 66.3688 59.9593C66.9716 59.5963 67.4746 60.3911 67.0738 60.871Z" fill="#F2BAA7"/>
<path d="M138.844 113.147C139.936 113.834 141.342 114.112 142.548 114.579C143.936 115.116 145.304 115.701 146.652 116.333C147.468 116.714 148.297 117.129 148.897 117.8C149.441 118.409 149.756 119.185 150.031 119.954C150.759 121.995 151.295 124.21 151.211 126.387C151.16 127.71 151.044 129.063 150.488 130.264C149.922 131.486 148.94 132.464 147.91 133.333C145.902 135.022 143.648 136.396 141.226 137.406C139.151 138.271 136.874 139.153 135.371 136.82C134.708 135.792 134.658 134.497 134.682 133.274C134.695 132.586 134.727 131.888 134.932 131.23C135.648 128.93 138.89 127.422 138.805 124.899C138.676 121.057 138.654 117.213 138.738 113.368L138.844 113.147Z" fill="#FFD9CA"/>
<path d="M144.767 89.9339C146.753 91.8501 149.326 92.9003 150.766 95.4044C151.545 96.7587 151.978 98.2798 152.403 99.7832C152.853 101.372 153.455 103.409 152.75 105.016C152.123 106.444 150.79 107.965 149.846 109.232C147.6 112.242 144.951 114.928 141.971 117.214C140.532 118.317 138.87 119.368 137.059 119.266C134.235 119.108 132.261 116.049 132.351 113.221C132.442 110.393 134.045 107.848 135.783 105.615C136.828 104.273 137.967 102.939 138.475 101.316C138.866 100.067 138.764 91.1691 138.723 88.042C140.716 88.7609 144.767 89.9339 144.767 89.9339Z" fill="#FFD9CA"/>
<path d="M151.155 83.9607C151.049 85.8506 149.257 87.8274 148.142 89.2183C146.596 91.1323 144.893 92.9137 143.05 94.5438C141.363 96.0459 139.376 97.5048 137.114 97.4805C134.72 97.4587 132.567 95.6504 131.724 93.4104C130.881 91.1703 131.203 88.611 132.171 86.4229C133.14 84.2347 134.696 82.3593 136.35 80.6289C137.125 79.8185 137.931 79.0266 138.546 78.091C138.587 78.0288 138.629 77.9637 138.665 77.8932C138.829 77.5866 138.961 77.2639 139.058 76.9304C139.701 74.8506 139.726 71.6432 139.717 70.7644C139.717 70.6181 139.715 70.5341 139.715 70.5341C139.715 70.5341 139.716 70.5338 139.717 70.5332C139.717 70.5327 139.717 70.532 139.717 70.5312H139.72C139.769 70.4879 139.891 70.4797 140.064 70.4962C140.065 70.4958 140.065 70.4955 140.066 70.4953C140.066 70.4951 140.067 70.495 140.067 70.495C140.068 70.495 140.068 70.4951 140.069 70.4953C140.069 70.4955 140.069 70.4958 140.07 70.4962C140.829 70.5691 142.508 71.1006 142.95 71.2608C142.977 71.2716 143.001 71.2798 143.025 71.2905C144.33 71.8261 147.676 73.5248 148.004 73.8284C148.275 74.0806 148.473 74.3925 148.633 74.7287C148.759 74.9946 148.87 75.267 148.966 75.5448C148.972 75.5582 148.977 75.5719 148.98 75.586C149.712 77.6225 150.266 79.7184 150.821 81.8117C151.008 82.5154 151.195 83.234 151.155 83.9607Z" fill="#FFD9CA"/>
<path d="M144.773 84.8213C143.599 83.018 142.085 82.2385 140.169 81.3733C139.674 81.1504 139.217 81.4557 139.075 81.8425L139.066 81.8215C139.04 81.8908 139.029 81.9648 139.034 82.0387C139.016 82.2747 139.121 82.5141 139.411 82.669C140.877 83.4518 142.336 84.0323 143.325 85.4319C143.755 86.0392 144.137 86.7029 144.386 87.4058C144.654 88.1618 144.658 88.9763 144.945 89.7175C145.09 90.0912 145.698 90.2972 145.908 89.8432C146.649 88.2401 145.662 86.1867 144.773 84.8213Z" fill="#F2BAA7"/>
<path d="M140.175 104.674C140.525 105.226 141.027 105.358 141.59 105.674C142.395 106.128 143.177 106.633 143.828 107.294C144.487 107.966 144.937 108.753 145.275 109.627C145.495 110.195 145.496 110.755 146.034 111.078C146.053 111.088 146.075 111.093 146.096 111.09C146.118 111.087 146.138 111.077 146.153 111.062C147.302 110.063 145.656 107.565 144.936 106.733C143.998 105.65 141.9 103.862 140.373 104.189C140.167 104.232 140.065 104.501 140.175 104.674Z" fill="#F2BAA7"/>
<path d="M144.227 124.775C144.313 125.945 145.323 126.884 145.921 127.845C146.86 129.356 147.056 131.275 146.604 132.978C146.428 133.64 147.477 133.82 147.552 133.106C147.743 131.264 147.571 129.611 146.997 127.856C146.594 126.625 145.861 124.979 144.532 124.543C144.391 124.496 144.216 124.623 144.227 124.775H144.227Z" fill="#F2BAA7"/>
<path d="M66.2085 38.4654L64.1835 34.2918C64.7403 33.2199 65.0299 32.0294 65.0277 30.8215C65.0277 26.8292 61.9278 23.5625 58.139 23.5625H43.1241C39.3337 23.5625 36.2355 26.8292 36.2355 30.8215C36.2355 34.8138 39.3354 38.0801 43.1241 38.0801H58.139C59.0503 38.0802 59.9515 37.8893 60.7845 37.5198L66.2085 38.4654Z" fill="#EAF2F9"/>
<path d="M45.333 32.9046L45.3445 32.2615L45.3556 31.7423V31.5957C45.3636 31.5244 45.3674 31.4527 45.3668 31.381C45.3628 31.3587 45.3508 31.3386 45.333 31.3246C45.3152 31.3105 45.3032 31.2904 45.2992 31.2681V31.257C45.2332 31.2759 45.1646 31.2835 45.0961 31.2797C44.9744 31.2767 44.8534 31.2615 44.7347 31.2343C44.69 31.2269 44.5697 31.2081 44.3738 31.1779V32.4757C44.3738 32.6715 44.3851 32.9801 44.4076 33.4015C44.4304 33.8151 44.4417 34.1236 44.4414 34.3268C44.4439 34.4318 44.4122 34.5347 44.3512 34.6202C44.3251 34.6589 44.2898 34.6905 44.2484 34.7121C44.2071 34.7337 44.1609 34.7446 44.1143 34.7438C43.9714 34.7438 43.8698 34.6046 43.8094 34.3264C43.7492 34.0405 43.7192 33.668 43.7192 33.2091L43.7418 32.2948C43.7492 32.0394 43.7529 31.7686 43.7529 31.4824V31.1326C43.7553 31.0533 43.7516 30.974 43.7418 30.8953V30.8388L43.7756 30.1846C43.7756 29.8986 43.7643 29.4729 43.7418 28.9074C43.7193 28.3418 43.708 27.9168 43.708 27.6322C43.7068 27.5446 43.7391 27.4599 43.7983 27.3953C43.826 27.3627 43.8606 27.3366 43.8997 27.319C43.9387 27.3014 43.9812 27.2927 44.024 27.2936C44.2647 27.2936 44.385 27.5193 44.385 27.9709L44.3623 29.3717C44.3475 29.7933 44.34 30.2635 44.34 30.7824C44.4529 30.8203 44.6561 30.8391 44.9494 30.8388H45.3668C45.3817 30.7953 45.3893 30.7497 45.3894 30.7037C45.3894 30.3425 45.3669 29.8083 45.3218 29.101C45.2691 28.4388 45.2427 27.9009 45.2427 27.4872C45.2423 27.4474 45.2506 27.4081 45.2672 27.372C45.2838 27.3358 45.3083 27.3038 45.3387 27.2783C45.4024 27.2218 45.4852 27.1915 45.5703 27.1934C45.648 27.1995 45.7242 27.2185 45.7956 27.2499L45.8974 27.2952C45.8974 28.3634 45.935 29.7892 46.0103 31.5726L46.1116 34.4278C46.1134 34.4755 46.1036 34.5229 46.083 34.5659C46.0624 34.609 46.0317 34.6464 45.9934 34.675C45.914 34.7352 45.8166 34.767 45.717 34.7652C45.4612 34.7663 45.3332 34.1461 45.333 32.9046Z" fill="#99A7BA"/>
<path d="M48.2453 34.7946C48.0724 34.6613 47.9331 34.4893 47.8387 34.2924C47.6169 33.8194 47.4794 33.3113 47.4324 32.791C47.3661 32.3008 47.3322 31.8067 47.3307 31.312C47.3299 31.2366 47.3336 31.1612 47.3418 31.0862V30.8831C47.3418 30.8456 47.3381 30.8266 47.3307 30.8266V30.6235L47.3418 29.8333C47.3492 29.5927 47.3793 29.209 47.432 28.6822C47.4695 28.322 47.5569 27.9689 47.6916 27.6328C47.7315 27.5037 47.801 27.3858 47.8947 27.2884C47.9316 27.2511 47.9756 27.2214 48.024 27.2011C48.0724 27.1808 48.1244 27.1703 48.1769 27.1701C48.4564 27.1661 48.7335 27.2223 48.9894 27.3349C49.2243 27.4396 49.4327 27.5958 49.5991 27.7918C49.7618 28.0023 49.8911 28.2364 49.9827 28.4861C50.09 28.7684 50.1657 29.0617 50.2085 29.3607C50.2548 29.6935 50.2774 30.0292 50.2761 30.3652V30.4554C50.2761 30.6886 50.2799 30.8993 50.2876 31.0874L50.2987 31.7306C50.2987 33.8977 49.7946 34.9812 48.7863 34.9812C48.5902 34.9808 48.3999 34.9152 48.2453 34.7946ZM49.1142 34.3414C49.2363 34.2166 49.3255 34.0634 49.3738 33.8956C49.52 33.4966 49.6074 33.0784 49.6333 32.6543C49.6707 32.2697 49.6895 31.9386 49.6898 31.6609C49.6898 31.3223 49.6634 30.8784 49.6107 30.3293C49.5656 29.7501 49.5431 29.3175 49.5431 29.0315V28.828C49.5325 28.5546 49.431 28.2924 49.2547 28.0831C49.0781 27.8725 48.8618 27.7671 48.6058 27.7671C48.3498 27.7671 48.1805 27.9139 48.0978 28.2075C48.0228 28.4407 47.9853 28.7416 47.9853 29.1102C47.9853 29.2532 47.9886 29.3739 47.9965 29.4716V29.776L47.9738 30.2956C47.9584 30.4535 47.9509 30.6265 47.9511 30.8147C47.9511 31.2209 47.9625 31.6234 47.9853 32.0223C48.0138 32.577 48.0892 33.1283 48.2107 33.6703C48.331 34.2273 48.5079 34.5057 48.7414 34.5054C48.8111 34.5044 48.88 34.4895 48.9439 34.4617C49.0079 34.4338 49.0656 34.3935 49.1138 34.3431L49.1142 34.3414Z" fill="#99A7BA"/>
<path d="M52.2624 34.8126C52.1479 34.8859 52.0148 34.9251 51.8788 34.9255C51.8336 34.9252 51.7891 34.9143 51.7489 34.8937C51.7087 34.8731 51.6739 34.8433 51.6473 34.8068C51.5865 34.7361 51.5525 34.6463 51.5513 34.553C51.5513 33.9213 51.5776 33.0786 51.6304 32.025C51.6757 30.9041 51.6982 30.0651 51.6979 29.5081V29.429C51.6532 28.9552 51.6307 28.6015 51.6304 28.3681C51.6304 27.6539 51.7621 27.2969 52.0255 27.2969C52.0998 27.2985 52.1707 27.3287 52.2233 27.3813C52.2759 27.4339 52.3061 27.5047 52.3077 27.5791C52.3036 27.7225 52.2922 27.8657 52.2735 28.008C52.2545 28.1502 52.2433 28.2934 52.2397 28.4369C52.2397 28.9409 52.2436 29.396 52.2513 29.8022C52.2587 30.2011 52.2624 30.6525 52.2624 31.1565C52.2193 31.3107 52.2002 31.4707 52.2059 31.6307V31.7663L52.1833 32.6578C52.1682 32.9209 52.1608 33.2218 52.161 33.5605C52.161 34.0796 52.2846 34.3392 52.5318 34.3392C52.5471 34.3392 52.573 34.3392 52.6056 34.3338C52.6524 34.3295 52.6994 34.3275 52.7465 34.3281C52.8327 34.3196 52.9194 34.3158 53.006 34.3165C53.4123 34.3165 53.6154 34.4294 53.6154 34.6552C53.6151 34.693 53.6057 34.7301 53.5881 34.7635C53.5705 34.7969 53.5451 34.8256 53.514 34.8472C53.4416 34.9015 53.3565 34.9364 53.2668 34.9485C52.9955 34.8579 52.6606 34.8126 52.2624 34.8126Z" fill="#99A7BA"/>
<path d="M56.393 34.7897C56.3106 34.737 56.2694 34.6393 56.2694 34.4963C56.2694 34.2706 56.2318 33.8869 56.1565 33.3452L56.1116 33.1079L54.9943 32.9386C54.949 33.1119 54.885 33.4618 54.8023 33.9883C54.7573 34.3569 54.6858 34.6015 54.5881 34.7221C54.5612 34.7558 54.5268 34.7826 54.4875 34.8002C54.4482 34.8178 54.4053 34.8258 54.3623 34.8235C54.2728 34.8234 54.1859 34.7937 54.1151 34.739C54.0806 34.7161 54.0522 34.6851 54.0326 34.6487C54.0129 34.6122 54.0024 34.5715 54.0022 34.5301L54.0249 34.4737L54.036 34.4284C54.523 32.5446 54.8999 30.6341 55.1649 28.7065C55.1649 28.6764 55.1686 28.6241 55.176 28.5541C55.1834 28.484 55.1912 28.3794 55.1986 28.2438C55.2214 27.9659 55.2459 27.7439 55.272 27.578C55.2981 27.4121 55.3413 27.2885 55.4018 27.2072H55.7849C55.8805 27.2045 55.9748 27.23 56.056 27.2806C56.0916 27.3023 56.1209 27.3331 56.1407 27.3698C56.1605 27.4065 56.1703 27.4478 56.1689 27.4895C56.1689 28.0613 56.2479 28.9114 56.4058 30.0397C56.5563 31.1988 56.6316 32.0114 56.6316 32.4775C56.6424 32.5954 56.6612 32.7124 56.688 32.8277C56.7159 32.9388 56.7348 33.0519 56.7445 33.166C56.7445 33.2187 56.7821 33.4445 56.8574 33.8433C56.9249 34.2045 56.9587 34.438 56.9587 34.5437V34.5553C56.9587 34.7201 56.8986 34.8254 56.7783 34.8713C56.6036 34.8688 56.4754 34.842 56.393 34.7897ZM55.9979 32.2843C55.9979 31.607 55.9378 30.7418 55.8175 29.6887L55.7046 28.5149C55.3808 30.2832 55.1587 31.6188 55.0384 32.5216C55.1513 32.5969 55.4824 32.657 56.0317 32.7021C56.007 32.5642 55.9956 32.4243 55.9979 32.2843Z" fill="#99A7BA"/>
<path d="M58.0237 34.8903C57.9847 34.8499 57.9542 34.8022 57.9338 34.75C57.9135 34.6977 57.9037 34.6419 57.905 34.5859C57.9036 34.4545 57.952 34.3274 58.0406 34.2303C58.0804 34.1823 58.1305 34.1437 58.187 34.1173C58.2436 34.091 58.3053 34.0775 58.3677 34.0779C58.4311 34.0763 58.4941 34.0892 58.5518 34.1156C58.6095 34.142 58.6604 34.1812 58.7006 34.2303C58.7899 34.3399 58.836 34.4784 58.8304 34.6196C58.8304 34.8831 58.6461 35.0148 58.2775 35.0148C58.2288 35.0128 58.1811 35.0008 58.1374 34.9794C58.0937 34.9579 58.055 34.9276 58.0237 34.8903ZM58.2664 32.8027C58.1982 32.6072 58.1643 32.3175 58.1646 31.9338C58.1646 31.7981 58.1721 31.5423 58.1873 31.1663C58.2021 30.8877 58.2096 30.5793 58.2099 30.2409L58.1873 28.3898L58.1646 26.5391C58.1646 26.4797 58.1777 26.421 58.2031 26.3673C58.2284 26.3136 58.2654 26.2662 58.3113 26.2284C58.4008 26.1451 58.5185 26.0987 58.6409 26.0987C58.6765 26.0981 58.7119 26.1049 58.7448 26.1185C58.7777 26.1321 58.8076 26.1523 58.8324 26.1778C58.8588 26.2044 58.8794 26.2362 58.893 26.2711C58.9066 26.3061 58.9129 26.3434 58.9115 26.3809C58.9115 27.0431 58.8739 27.9422 58.7987 29.0782C58.7163 30.3348 58.6751 31.234 58.6751 31.7756C58.6751 32.1744 58.6694 32.4628 58.6582 32.6408C58.6466 32.8176 58.6281 32.9362 58.6017 32.9964C58.5939 33.022 58.5783 33.0445 58.557 33.0607C58.5357 33.0769 58.5098 33.0859 58.4831 33.0866C58.4062 33.0847 58.3339 32.99 58.2664 32.8027Z" fill="#99A7BA"/>
<path d="M128.05 159.197L129.263 166.105C128.484 167.605 128.079 169.27 128.082 170.96C128.082 176.546 132.419 181.116 137.72 181.116H158.727C164.028 181.116 168.365 176.546 168.365 170.96C168.365 165.375 164.028 160.804 158.727 160.804H137.721C136.446 160.804 135.185 161.071 134.019 161.587L128.05 159.197Z" fill="#FB6B00"/>
<path d="M140.521 172.615L140.533 171.918L140.545 171.356V171.197C140.554 171.12 140.558 171.043 140.557 170.965C140.553 170.941 140.54 170.919 140.521 170.904C140.501 170.889 140.488 170.867 140.484 170.843V170.831C140.412 170.851 140.338 170.859 140.264 170.855C140.132 170.852 140.001 170.836 139.873 170.806C139.824 170.798 139.694 170.778 139.482 170.745V172.15C139.482 172.362 139.494 172.696 139.519 173.152C139.543 173.601 139.555 173.935 139.555 174.154C139.558 174.268 139.523 174.379 139.457 174.472C139.429 174.514 139.391 174.548 139.346 174.572C139.301 174.596 139.251 174.607 139.201 174.607C139.046 174.607 138.936 174.456 138.871 174.153C138.805 173.844 138.773 173.441 138.773 172.944L138.798 171.955C138.805 171.678 138.809 171.385 138.81 171.075V170.696C138.812 170.611 138.808 170.525 138.798 170.44V170.379L138.834 169.67C138.834 169.36 138.822 168.9 138.798 168.289C138.773 167.678 138.761 167.218 138.761 166.908C138.76 166.813 138.794 166.722 138.859 166.652C138.889 166.616 138.926 166.588 138.968 166.569C139.011 166.55 139.057 166.541 139.103 166.542C139.364 166.542 139.494 166.786 139.494 167.275L139.47 168.79C139.453 169.247 139.445 169.756 139.445 170.317C139.567 170.358 139.787 170.379 140.104 170.379H140.558C140.573 170.331 140.582 170.282 140.582 170.232C140.582 169.841 140.557 169.263 140.509 168.497C140.451 167.78 140.423 167.197 140.423 166.749C140.422 166.706 140.431 166.664 140.449 166.625C140.467 166.585 140.494 166.551 140.527 166.523C140.596 166.462 140.685 166.43 140.777 166.432C140.862 166.438 140.944 166.459 141.022 166.493L141.132 166.542C141.132 167.699 141.173 169.242 141.256 171.173L141.366 174.263C141.368 174.314 141.357 174.366 141.335 174.413C141.312 174.46 141.279 174.501 141.237 174.532C141.151 174.597 141.046 174.631 140.938 174.629C140.66 174.63 140.521 173.959 140.521 172.615Z" fill="white"/>
<path d="M143.105 174.68C143.064 174.647 143.031 174.606 143.007 174.56C142.983 174.513 142.968 174.463 142.964 174.411V173.849C142.956 173.763 142.952 173.678 142.952 173.592C142.952 173.421 142.94 173.16 142.916 172.809L142.891 172.026C142.891 171.628 142.903 171.033 142.928 170.242C142.96 169.534 142.976 168.939 142.977 168.458C142.977 168.344 142.964 168.173 142.94 167.945C142.916 167.709 142.904 167.538 142.903 167.432C142.903 166.854 143.074 166.564 143.417 166.564C143.685 166.564 143.997 166.617 144.351 166.723C144.706 166.83 144.883 166.956 144.883 167.102C144.882 167.145 144.872 167.187 144.854 167.226C144.836 167.265 144.81 167.3 144.779 167.328C144.707 167.399 144.622 167.455 144.528 167.493C144.227 167.382 143.916 167.3 143.6 167.249C143.608 167.372 143.612 167.546 143.612 167.774C143.612 168.1 143.608 168.393 143.6 168.654C143.575 169.045 143.563 169.338 143.563 169.534L143.6 169.729L143.795 169.717C143.876 169.708 143.958 169.704 144.04 169.705C144.431 169.705 144.626 169.819 144.626 170.047C144.627 170.091 144.617 170.134 144.598 170.173C144.579 170.212 144.551 170.247 144.516 170.273C144.436 170.336 144.337 170.369 144.235 170.365C144.121 170.367 144.006 170.359 143.893 170.34H143.588C143.604 170.552 143.612 170.862 143.612 171.269C143.612 171.676 143.608 172.043 143.6 172.369C143.575 172.866 143.563 173.236 143.563 173.481C143.563 173.937 143.571 174.165 143.588 174.165L143.991 174.153C144.128 174.145 144.295 174.141 144.492 174.141C144.801 174.141 144.956 174.239 144.956 174.434C144.958 174.488 144.944 174.541 144.917 174.587C144.89 174.634 144.851 174.672 144.803 174.697C144.69 174.76 144.562 174.792 144.433 174.788H143.394C143.287 174.789 143.184 174.75 143.105 174.68Z" fill="white"/>
<path d="M147.094 174.68C146.97 174.76 146.826 174.802 146.679 174.803C146.63 174.803 146.582 174.791 146.538 174.769C146.495 174.747 146.457 174.714 146.428 174.675C146.362 174.598 146.325 174.501 146.324 174.4C146.324 173.716 146.353 172.803 146.41 171.663C146.459 170.449 146.484 169.541 146.483 168.938V168.852C146.434 168.339 146.41 167.956 146.41 167.704C146.41 166.93 146.553 166.543 146.838 166.543C146.918 166.545 146.995 166.578 147.051 166.634C147.108 166.691 147.141 166.768 147.143 166.848C147.139 167.004 147.127 167.159 147.106 167.313C147.086 167.467 147.074 167.622 147.07 167.777C147.07 168.323 147.074 168.816 147.082 169.256C147.09 169.687 147.094 170.176 147.094 170.722C147.054 170.844 147.033 171.015 147.033 171.235V171.382L147.009 172.347C146.992 172.632 146.984 172.958 146.984 173.324C146.984 173.887 147.119 174.168 147.388 174.168C147.404 174.168 147.43 174.166 147.467 174.162C147.518 174.157 147.569 174.155 147.62 174.155C147.713 174.147 147.807 174.143 147.901 174.144C148.34 174.144 148.56 174.266 148.56 174.51C148.559 174.55 148.549 174.59 148.53 174.626C148.511 174.662 148.483 174.693 148.45 174.716C148.371 174.775 148.279 174.813 148.181 174.826C147.889 174.728 147.527 174.68 147.094 174.68Z" fill="white"/>
<path d="M150.369 174.68C150.245 174.76 150.101 174.802 149.954 174.803C149.905 174.803 149.857 174.791 149.813 174.769C149.77 174.747 149.732 174.714 149.703 174.675C149.637 174.598 149.6 174.501 149.599 174.4C149.599 173.716 149.628 172.803 149.685 171.663C149.734 170.449 149.758 169.541 149.758 168.938V168.852C149.709 168.339 149.684 167.956 149.685 167.704C149.685 166.93 149.827 166.543 150.112 166.543C150.193 166.545 150.269 166.578 150.326 166.634C150.383 166.691 150.416 166.768 150.418 166.848C150.414 167.004 150.401 167.159 150.381 167.313C150.36 167.467 150.348 167.622 150.345 167.777C150.345 168.323 150.349 168.816 150.357 169.256C150.365 169.687 150.369 170.176 150.369 170.722C150.328 170.844 150.308 171.015 150.308 171.235V171.382L150.283 172.347C150.267 172.632 150.259 172.958 150.259 173.324C150.259 173.887 150.393 174.168 150.662 174.168C150.678 174.168 150.704 174.166 150.742 174.162C150.793 174.157 150.843 174.155 150.894 174.155C150.988 174.147 151.082 174.143 151.176 174.144C151.615 174.144 151.835 174.266 151.835 174.51C151.834 174.55 151.824 174.59 151.805 174.626C151.786 174.662 151.758 174.693 151.725 174.716C151.646 174.775 151.554 174.813 151.456 174.826C151.163 174.728 150.801 174.68 150.369 174.68Z" fill="white"/>
<path d="M153.693 174.661C153.505 174.517 153.355 174.331 153.253 174.117C153.012 173.606 152.864 173.056 152.813 172.492C152.741 171.962 152.705 171.427 152.703 170.891C152.702 170.81 152.706 170.728 152.715 170.647V170.427C152.715 170.386 152.711 170.366 152.703 170.366V170.146L152.715 169.291C152.723 169.03 152.756 168.615 152.813 168.044C152.853 167.654 152.948 167.272 153.094 166.908C153.137 166.769 153.213 166.642 153.314 166.537C153.354 166.496 153.401 166.464 153.454 166.442C153.506 166.42 153.562 166.409 153.619 166.408C153.922 166.404 154.222 166.464 154.499 166.586C154.753 166.699 154.979 166.868 155.159 167.08C155.335 167.308 155.475 167.561 155.574 167.831C155.69 168.137 155.772 168.455 155.819 168.779C155.869 169.139 155.893 169.503 155.892 169.867V169.964C155.892 170.217 155.896 170.445 155.904 170.649L155.916 171.345C155.916 173.691 155.37 174.864 154.279 174.864C154.066 174.864 153.86 174.792 153.693 174.661ZM154.634 174.173C154.766 174.037 154.862 173.871 154.915 173.69C155.073 173.258 155.167 172.805 155.196 172.346C155.236 171.93 155.257 171.571 155.257 171.27C155.257 170.904 155.228 170.423 155.171 169.828C155.122 169.201 155.098 168.733 155.098 168.423V168.203C155.087 167.907 154.979 167.623 154.789 167.396C154.596 167.168 154.362 167.054 154.086 167.054C153.809 167.053 153.626 167.212 153.536 167.53C153.453 167.783 153.412 168.109 153.412 168.508C153.412 168.663 153.416 168.793 153.424 168.899V169.229L153.4 169.791C153.383 169.962 153.375 170.149 153.375 170.353C153.375 170.792 153.388 171.228 153.412 171.66C153.443 172.261 153.525 172.857 153.656 173.444C153.787 174.047 153.978 174.348 154.231 174.349C154.306 174.347 154.381 174.331 154.45 174.301C154.519 174.271 154.581 174.227 154.634 174.173Z" fill="white"/>
<path d="M157.352 174.765C157.31 174.721 157.277 174.67 157.255 174.613C157.233 174.556 157.222 174.496 157.224 174.435C157.222 174.293 157.275 174.156 157.371 174.051C157.414 173.999 157.468 173.957 157.529 173.928C157.59 173.9 157.657 173.885 157.725 173.886C157.794 173.884 157.862 173.898 157.924 173.927C157.987 173.955 158.042 173.998 158.085 174.051C158.182 174.169 158.232 174.319 158.226 174.472C158.226 174.757 158.026 174.9 157.627 174.9C157.574 174.898 157.523 174.885 157.475 174.861C157.428 174.838 157.386 174.805 157.352 174.765ZM157.615 172.504C157.542 172.293 157.505 171.979 157.505 171.564C157.505 171.417 157.513 171.14 157.529 170.733C157.546 170.431 157.554 170.097 157.554 169.731L157.529 167.727L157.505 165.723C157.505 165.658 157.519 165.595 157.546 165.537C157.574 165.479 157.614 165.427 157.664 165.387C157.76 165.297 157.887 165.247 158.018 165.246C158.057 165.246 158.095 165.253 158.13 165.268C158.165 165.282 158.197 165.304 158.224 165.331C158.253 165.36 158.275 165.395 158.29 165.433C158.304 165.47 158.311 165.511 158.31 165.551C158.31 166.268 158.269 167.242 158.186 168.472C158.096 169.832 158.052 170.806 158.052 171.392C158.052 171.824 158.046 172.136 158.033 172.327C158.022 172.519 158.001 172.647 157.972 172.712C157.964 172.74 157.947 172.764 157.924 172.782C157.901 172.799 157.873 172.809 157.844 172.81C157.765 172.81 157.688 172.708 157.615 172.505V172.504Z" fill="white"/>
<mask id="mask1_3369_1027" style="mask-type:luminance" maskUnits="userSpaceOnUse" x="81" y="47" width="19" height="19">
<path d="M90.4651 65.1391C95.2548 65.1391 99.1377 61.2563 99.1377 56.4665C99.1377 51.6768 95.2548 47.7939 90.4651 47.7939C85.6753 47.7939 81.7925 51.6768 81.7925 56.4665C81.7925 61.2563 85.6753 65.1391 90.4651 65.1391Z" fill="white"/>
</mask>
<g mask="url(#mask1_3369_1027)">
<path d="M90.465 65.1391C95.2547 65.1391 99.1376 61.2563 99.1376 56.4665C99.1376 51.6768 95.2547 47.7939 90.465 47.7939C85.6752 47.7939 81.7924 51.6768 81.7924 56.4665C81.7924 61.2563 85.6752 65.1391 90.465 65.1391Z" fill="#0E4471"/>
<path d="M90.5407 58.2783H90.528C90.5424 58.2792 90.5527 58.2787 90.5407 58.2783Z" fill="white"/>
<path d="M99.7309 50.736L99.7272 50.7397C99.8623 50.5147 99.8862 50.2214 99.7383 49.9923C99.5249 49.6627 99.0882 49.5193 98.7363 49.7295H98.7334C98.3882 49.8782 98.0858 50.1604 97.7949 50.3817C97.1621 50.8621 96.5354 51.3507 95.91 51.841C94.5339 52.9204 93.1694 54.0139 91.8312 55.1415C91.6717 55.2782 91.5266 55.4309 91.3982 55.5972C91.324 55.6922 91.251 55.7883 91.179 55.8856C91.166 55.8962 91.1538 55.9076 91.1423 55.9198C91.111 55.9515 91.0813 55.984 91.0513 56.017C90.9633 56.1158 90.8815 56.2198 90.8061 56.3285H90.8016C90.7112 56.2869 90.6127 56.266 90.5132 56.2671H90.4753C90.4242 56.2671 90.3727 56.2724 90.3216 56.2766C90.2898 56.2773 90.2586 56.2853 90.2302 56.2997C90.2019 56.3142 90.1772 56.3349 90.1579 56.3602C90.1386 56.3855 90.1252 56.4148 90.1187 56.446C90.1123 56.4771 90.1129 56.5093 90.1206 56.5402C90.128 56.5814 90.1354 56.6226 90.1445 56.6667C90.1472 56.6866 90.1512 56.7063 90.1564 56.7256C90.1593 56.7335 90.1626 56.7475 90.1651 56.7565C90.1714 56.8027 90.1863 56.8472 90.2087 56.888C90.2161 56.9007 90.287 56.9897 90.2726 56.9704L90.3023 57.0087H90.2709H90.2643C90.1382 56.8358 90.0018 56.6707 89.8556 56.5143C89.5825 56.2259 89.2624 55.9844 88.96 55.7286C88.6254 55.446 88.2914 55.1626 87.958 54.8786C86.6882 53.798 85.3925 52.7478 84.1264 51.6605C83.9014 51.4673 83.6769 51.2732 83.4561 51.0751C83.3271 50.9597 83.2064 50.8435 83.0721 50.7455C82.8088 50.4739 82.3037 50.4768 82.0474 50.7562C81.9565 50.8514 81.8922 50.9689 81.8612 51.0969C81.8302 51.2248 81.8334 51.3587 81.8707 51.485C81.8686 51.4817 81.8666 51.4784 81.8649 51.4751C82.0075 51.937 82.5315 52.2777 82.8805 52.5809C83.4429 53.0696 84.0118 53.5504 84.582 54.0303C85.921 55.1565 87.2771 56.2626 88.6501 57.3486C88.7454 57.4229 88.8448 57.4917 88.948 57.5546C88.8722 57.5958 88.7972 57.637 88.7226 57.6802C88.384 57.8842 88.0779 58.1437 87.7631 58.3831C87.4148 58.6484 87.0661 58.9129 86.717 59.1766C86.3157 59.4788 85.9175 59.785 85.5222 60.0954L85.2726 60.2886L85.1391 60.392L85.0979 60.4233L85.102 60.42L85.0917 60.4283L85.081 60.4365L85.0369 60.4703C84.8836 60.5873 84.7316 60.706 84.5787 60.8238C83.9702 61.2918 83.3601 61.7586 82.7454 62.2184C82.5076 62.396 82.2699 62.5732 82.0285 62.7458C81.8666 62.862 81.6952 62.9658 81.5514 63.1005C81.4832 63.1556 81.4255 63.2226 81.3812 63.2983C81.2486 63.5236 81.2275 63.817 81.3734 64.0428C81.5839 64.3695 82.0005 64.5038 82.3507 64.318C82.7087 64.1754 83.0267 63.8846 83.325 63.6633C83.9241 63.2204 84.517 62.7693 85.109 62.3169C86.5378 61.2247 87.9559 60.1193 89.3456 58.9768C89.5064 58.8425 89.653 58.692 89.7831 58.5277C89.8532 58.4408 89.9199 58.3518 89.9891 58.2632C89.943 58.3246 90.0184 58.2356 90.0439 58.2093C90.0575 58.1948 90.0715 58.1804 90.0851 58.1681L90.2034 58.2196C90.2937 58.2615 90.3922 58.2824 90.4918 58.2809H90.54C90.5874 58.2809 90.6347 58.2768 90.6817 58.2731C90.8267 58.2628 90.9062 58.1495 90.8828 58.0094C90.8753 57.9682 90.8683 57.9241 90.8597 57.8821C90.8569 57.862 90.8531 57.8421 90.8482 57.8224C90.8457 57.8146 90.8428 57.8022 90.8407 57.7935C90.8343 57.7467 90.8192 57.7014 90.7962 57.6601C90.788 57.6456 90.6932 57.5237 90.748 57.5974L90.7414 57.5888C90.7229 57.5632 90.704 57.5381 90.6854 57.513L90.5804 57.3721C90.5804 57.3684 90.5804 57.3651 90.5804 57.3618C90.6047 57.3881 90.629 57.4145 90.6545 57.4409C90.6801 57.4672 90.7002 57.4915 90.725 57.5142L90.7349 57.5224L90.741 57.5311C90.8681 57.7048 91.0064 57.87 91.1551 58.0255C91.4303 58.3102 91.7525 58.55 92.057 58.8034C92.3937 59.083 92.7299 59.3634 93.0655 59.6447C94.3427 60.7159 95.6492 61.7541 96.9227 62.8307C97.1493 63.0222 97.3759 63.2142 97.5979 63.4103C97.7248 63.5296 97.8578 63.6423 97.9964 63.7478C98.2642 64.0061 98.7553 64.0036 99.0095 63.7263C99.0996 63.6316 99.1636 63.5149 99.195 63.3879C99.2264 63.2609 99.2243 63.1279 99.1887 63.002L99.192 63.0078C99.1875 62.993 99.1813 62.979 99.1759 62.9666C99.1706 62.9543 99.1668 62.9402 99.1611 62.9254C99.1611 62.9221 99.1582 62.9192 99.157 62.9159C99.1483 62.8958 99.1388 62.8747 99.1281 62.8562C98.9287 62.4702 98.4842 62.1776 98.1698 61.9086C97.6033 61.4249 97.0306 60.9482 96.4567 60.4732C95.1078 59.3569 93.7425 58.2623 92.3606 57.1891C92.1735 57.0488 91.9748 56.9247 91.7665 56.8183C91.8393 56.7718 91.9147 56.7294 91.9923 56.6914C92.1512 56.6186 92.3054 56.5361 92.4541 56.4442C92.8299 56.2115 93.1694 55.9144 93.5175 55.6425C93.8656 55.3706 94.2088 55.1036 94.5549 54.835C95.2664 54.2825 95.9685 53.7176 96.6755 53.1594C97.0007 52.9026 97.3263 52.6466 97.6523 52.3914C97.8004 52.276 97.9483 52.161 98.0961 52.0461L98.1863 51.9761L98.1982 51.967L98.2637 51.9164L98.3737 51.8315C98.609 51.651 98.8451 51.471 99.084 51.2959C99.2542 51.1723 99.4388 51.0594 99.5875 50.9103L99.59 50.9078L99.5966 50.9012C99.6336 50.8658 99.667 50.8267 99.6963 50.7846C99.7095 50.7677 99.7206 50.7521 99.7309 50.736Z" fill="white"/>
<path d="M90.4753 56.2656C90.4078 56.2635 90.5904 56.2656 90.4753 56.2656V56.2656Z" fill="white"/>
<path d="M85.0985 60.4209L85.0372 60.4681L85.0923 60.4267L85.0985 60.4209Z" fill="white"/>
<path d="M98.6741 50.5805C98.5954 50.6518 98.512 50.7177 98.4244 50.7778C98.3374 50.8425 98.239 50.8602 98.1413 50.9088C98.0209 50.9636 97.9048 51.0275 97.794 51.1C97.5159 51.3002 97.2415 51.5054 96.9774 51.7242C96.661 51.9858 96.3302 52.2186 95.994 52.4542C94.484 53.5102 93.0231 54.6378 91.5617 55.7597C91.2596 55.9926 90.9574 56.2261 90.6553 56.4601C90.5342 56.5536 90.413 56.6472 90.2944 56.744C90.1757 56.8408 89.9998 56.9426 89.9813 57.1148C89.9758 57.1538 89.9789 57.1935 89.9904 57.2312C90.0018 57.2689 90.0214 57.3036 90.0477 57.333C90.074 57.3623 90.1064 57.3856 90.1426 57.4011C90.1788 57.4167 90.2179 57.4241 90.2573 57.423C90.4143 57.4258 90.5527 57.2755 90.6693 57.1852C90.9429 56.9763 91.2111 56.7605 91.4822 56.5483C92.1657 56.0127 92.8529 55.4828 93.5368 54.9481C94.2817 54.3651 95.0464 53.8006 95.7695 53.1909C96.1026 52.9099 96.4363 52.6296 96.7706 52.35C97.059 52.1077 97.3841 51.9092 97.677 51.6718C97.9027 51.4946 98.1132 51.2988 98.3061 51.0864C98.3795 51.004 98.4133 50.9187 98.499 50.8474C98.5525 50.8029 98.6065 50.758 98.6588 50.7119C98.6853 50.6902 98.7106 50.6671 98.7346 50.6427C98.7746 50.6011 98.7153 50.5405 98.6741 50.5805Z" fill="#F15158"/>
<path d="M83.2887 52.3454C83.7369 52.7162 84.172 53.1043 84.6231 53.473C85.6762 54.3329 86.7561 55.1622 87.812 56.0167C88.0213 56.1864 88.2351 56.3504 88.4469 56.5173L88.683 56.7027C88.7386 56.7468 88.8218 56.8164 88.903 56.8098C89.1008 56.9392 89.3533 56.6862 89.1811 56.5024C89.1616 56.4442 89.1317 56.3899 89.0929 56.3422C89.0318 56.2796 88.9667 56.2212 88.8981 56.1671C88.7291 56.0183 88.5557 55.8741 88.3835 55.7291C87.9072 55.3287 87.4111 54.9496 86.9233 54.5636C86.3511 54.1104 85.7887 53.644 85.2107 53.1982C84.7352 52.8315 84.2466 52.4846 83.772 52.1175C83.5767 51.9663 83.3855 51.8085 83.184 51.6643C83.1111 51.6128 83.0369 51.5506 82.9467 51.5337C82.8565 51.5168 82.7687 51.5222 82.7288 51.5819C82.7145 51.5992 82.7048 51.6199 82.7007 51.6419C82.6966 51.664 82.6982 51.6867 82.7053 51.708C82.7243 51.8082 82.7762 51.8993 82.8528 51.9667C82.9887 52.1039 83.1416 52.223 83.2887 52.3454Z" fill="#F15158"/>
<path d="M98.2872 62.9259C98.2872 62.9197 98.2839 62.9148 98.2826 62.9098C98.2826 62.9131 98.2855 62.9127 98.2847 62.9028C98.2748 62.7862 98.1891 62.7047 98.1063 62.6317C97.9592 62.502 97.8121 62.3714 97.6601 62.2478C97.1764 61.8547 96.6775 61.4802 96.1897 61.0942C95.6026 60.6265 95.0114 60.1639 94.4214 59.7C93.8635 59.2612 93.2748 58.8673 92.7066 58.4425C92.4722 58.267 92.2374 58.0915 92.0062 57.9143C91.9238 57.8534 91.8456 57.7907 91.7656 57.7306C91.7747 57.7376 91.7133 57.6894 91.6964 57.677C91.6692 57.6573 91.5122 57.5732 91.6066 57.6156C91.5918 57.6091 91.5773 57.6012 91.5625 57.5938C91.3656 57.4949 91.0735 57.7137 91.2288 57.9275C91.4636 58.2501 91.8493 58.499 92.1533 58.7515C92.665 59.18 93.1541 59.6402 93.6777 60.0514C94.7901 60.9195 95.9058 61.7785 97.005 62.6606C97.211 62.8254 97.4236 62.9819 97.6337 63.1418C97.7388 63.2217 97.8212 63.2914 97.9633 63.2938H97.9708C98.1702 63.3894 98.4066 63.1414 98.2909 62.9395C98.2901 62.935 98.2888 62.9309 98.2872 62.9259ZM98.295 62.9506C98.3078 62.9778 98.3078 62.989 98.295 62.9506V62.9506Z" fill="#F15158"/>
<path d="M89.4214 58.0734C88.2755 58.9279 87.1279 59.7794 85.9787 60.6278C85.4238 61.0398 84.8704 61.4518 84.3233 61.8737C84.055 62.0805 83.7885 62.2895 83.524 62.5007C83.379 62.6169 83.2389 62.7381 83.0997 62.8604C83.0383 62.9144 82.9736 62.9642 82.9196 63.0211C82.897 62.9939 82.8413 62.9968 82.8467 63.0417C82.8385 63.0829 82.8298 63.1241 82.8216 63.1653C82.8127 63.1857 82.8057 63.2068 82.8006 63.2283H82.8043C82.7837 63.321 82.8372 63.4282 82.9476 63.4228C83.1256 63.4146 83.2282 63.3116 83.3658 63.2069C83.4869 63.1146 83.6093 63.0248 83.7296 62.9317C84.0073 62.7158 84.2825 62.497 84.5623 62.284C85.1222 61.858 85.6887 61.4411 86.2568 61.0262C87.3989 60.1915 88.5436 59.3606 89.6908 58.5336C89.9681 58.3342 89.6958 57.8686 89.4214 58.0734Z" fill="#F15158"/>
<path d="M100.873 57.0759C100.839 56.3116 100.255 55.6656 99.4626 55.6656C96.9404 55.6656 94.418 55.6666 91.8954 55.6685H91.6894V47.0404C91.6894 46.3029 91.041 45.5959 90.2792 45.6301C89.5174 45.6643 88.8689 46.2481 88.8689 47.0404V55.6701L83.7519 55.6726C82.398 55.6726 81.0443 55.6726 79.6908 55.6726C78.9529 55.6726 78.2463 56.3211 78.2805 57.0829C78.3147 57.8447 78.8985 58.4931 79.6908 58.4931C82.213 58.4931 84.7354 58.4922 87.258 58.4903H88.8689V67.3948C88.8689 68.1323 89.5174 68.8368 90.2792 68.8051C91.041 68.7734 91.6894 68.1871 91.6894 67.3948V58.489H95.4016H99.4622C100.201 58.4861 100.907 57.8372 100.873 57.0759Z" fill="white"/>
<path d="M101.605 56.3685C101.387 56.2942 101.156 56.2649 100.926 56.2824C100.843 56.2894 100.761 56.2927 100.678 56.301C100.578 56.3046 100.479 56.3185 100.381 56.3422C100.039 56.3047 99.6687 56.3455 99.3246 56.3475C98.6271 56.3508 97.9296 56.3339 97.2321 56.3323C95.8365 56.3287 94.4412 56.3359 93.0462 56.3537C92.5205 56.3611 91.9946 56.3711 91.4686 56.3838C91.4527 55.8619 91.4364 55.3409 91.4196 54.8207C91.3784 53.4475 91.3673 52.0697 91.296 50.6978C91.2573 49.9459 91.2012 49.194 91.1563 48.4421C91.1098 47.6593 91.0966 46.8724 90.9561 46.0999C90.8391 45.4538 89.7642 45.451 89.6488 46.0999C89.5252 46.7908 89.5125 47.4866 89.4811 48.1866C89.4515 48.8497 89.4232 49.5127 89.3963 50.1758C89.3406 51.544 89.3699 52.9176 89.3707 54.2871C89.3707 55.0065 89.3732 55.7257 89.3781 56.4448C87.8282 56.4997 86.2789 56.5722 84.7304 56.6623C83.9727 56.7068 83.2146 56.7319 82.4574 56.7756C82.0742 56.7978 81.6869 56.7838 81.3038 56.8168C81.1052 56.8333 80.9037 56.8345 80.7064 56.8609C80.4443 56.8963 80.2532 57.0075 80.1053 57.2115C79.9565 57.2527 79.9425 57.448 80.0538 57.5357C80.1959 57.9622 80.5836 58.0796 81.0014 58.1826C81.3598 58.2707 81.7306 58.3025 82.0977 58.3338C82.7779 58.3919 83.4499 58.3795 84.1313 58.3503C85.5156 58.2905 86.9 58.223 88.2851 58.1813C88.6532 58.1704 89.0211 58.1603 89.3888 58.1513C89.4012 59.6345 89.4149 61.1177 89.43 62.6009C89.4375 63.3499 89.4431 64.0989 89.4469 64.8479C89.4486 65.2091 89.4498 65.5706 89.4506 65.9323C89.4506 66.3109 89.4317 66.6941 89.4762 67.0698C89.5108 67.3615 89.5718 67.6054 89.7877 67.8217C89.9718 68.0059 90.2742 68.1447 90.5392 68.1328C90.814 68.1204 91.0991 68.0302 91.2906 67.8217C91.4938 67.6005 91.5671 67.3661 91.6021 67.0698C91.6779 66.4259 91.6223 65.7514 91.6174 65.1025C91.6119 64.4433 91.605 63.7829 91.5968 63.1212C91.5797 61.7537 91.5587 60.3864 91.5337 59.0193C91.5282 58.7172 91.5218 58.4151 91.5144 58.1129C93.2415 58.0903 94.9694 58.094 96.6957 58.1335C97.4757 58.1514 98.2554 58.1742 99.0346 58.2019C99.4178 58.2159 99.8005 58.2431 100.183 58.2674L100.307 58.2753L100.43 58.2831L100.33 58.2806C100.321 58.2843 100.621 58.3358 100.541 58.3251L100.621 58.3358C100.552 58.3265 100.546 58.3265 100.605 58.3358C100.764 58.3699 100.925 58.3929 101.087 58.4046C101.258 58.41 101.437 58.3634 101.602 58.3222C102.016 58.2192 102.365 57.7788 102.344 57.3458C102.338 57.1262 102.264 56.9138 102.131 56.7385C101.999 56.5633 101.815 56.4339 101.605 56.3685Z" fill="#F15158"/>
</g>
<mask id="mask2_3369_1027" style="mask-type:luminance" maskUnits="userSpaceOnUse" x="113" y="47" width="18" height="19">
<path d="M122.234 65.1391C127.023 65.1391 130.906 61.2563 130.906 56.4665C130.906 51.6768 127.023 47.7939 122.234 47.7939C117.444 47.7939 113.561 51.6768 113.561 56.4665C113.561 61.2563 117.444 65.1391 122.234 65.1391Z" fill="white"/>
</mask>
<g mask="url(#mask2_3369_1027)">
<path d="M130.906 56.4652C130.906 61.2551 127.023 65.1378 122.234 65.1378C122.093 65.1378 121.953 65.1345 121.814 65.1279C121.959 59.9626 122.197 52.3147 122.27 47.793C127.043 47.8123 130.906 51.6876 130.906 56.4652Z" fill="#F15158"/>
<path d="M122.27 47.7934C122.197 52.3163 121.959 59.963 121.814 65.1283C117.219 64.9091 113.561 61.1146 113.561 56.4656C113.561 51.6757 117.444 47.793 122.234 47.793L122.27 47.7934Z" fill="#0E4471"/>
<path d="M120.284 43.5266C120.28 43.5469 120.273 43.5667 120.264 43.5855L120.47 43.0936C120.431 43.1815 120.386 43.2672 120.337 43.3502L121.142 42.5452L121.129 42.5514C120.445 42.881 119.976 43.7709 120.005 44.5121V44.5273C120.032 44.3257 120.06 44.1244 120.087 43.9233C120.066 44.0601 119.994 44.2031 119.947 44.3329L120.192 43.7536C120.024 44.0568 119.916 44.4173 119.78 44.7424L120.449 43.5945C119.944 44.0889 119.689 44.7893 119.669 45.484C119.7 45.2516 119.731 45.0194 119.762 44.7873C119.706 45.0522 119.654 45.3093 119.618 45.5792C119.553 45.8157 119.553 46.0653 119.618 46.3018C119.633 46.4271 119.65 46.5522 119.668 46.6771C119.673 46.6949 119.677 46.7126 119.682 46.7307C119.693 46.7719 119.705 46.8131 119.717 46.8543C119.741 46.9367 119.761 47.0257 119.791 47.1081C119.76 46.879 119.73 46.6498 119.699 46.4205C119.724 46.6775 119.761 46.926 119.766 47.1847C119.772 47.4542 119.781 47.7236 119.779 47.9931C119.774 48.5973 119.768 49.2016 119.76 49.8059C119.743 51.2211 119.723 52.6363 119.692 54.0515C119.659 55.5853 119.624 57.1191 119.587 58.6532C119.552 60.1364 119.557 61.6195 119.558 63.1069C119.558 63.8562 119.558 64.6056 119.558 65.3552V66.374C119.558 66.7152 119.554 67.0406 119.643 67.3805C119.73 67.6869 119.841 67.9858 119.977 68.2742C119.907 68.1094 119.839 67.9458 119.771 67.7835C119.827 68.0076 119.953 68.2511 120.059 68.4711C120.347 69.0784 121.105 69.4397 121.748 69.4397C122.419 69.4397 123.114 69.0714 123.437 68.4711C123.559 68.2521 123.659 68.0218 123.737 67.7835C123.668 67.9483 123.599 68.1118 123.531 68.2742C123.661 68.0079 123.772 67.7325 123.863 67.4502C123.964 67.1441 123.971 66.8128 123.989 66.4919C124.005 66.2037 124.021 65.9153 124.037 65.6267C124.073 64.9969 124.109 64.367 124.145 63.7372C124.228 62.3183 124.333 60.8986 124.381 59.4784C124.479 56.5837 124.575 53.689 124.67 50.7942C124.692 50.0977 124.713 49.4013 124.733 48.705C124.75 48.101 124.729 47.4748 124.806 46.8753C124.777 47.0986 124.747 47.3222 124.717 47.546C124.774 47.1715 124.831 46.7966 124.874 46.42C124.843 46.6497 124.813 46.8789 124.782 47.1077C124.811 47.0298 124.832 46.9478 124.856 46.8679C124.868 46.8267 124.881 46.7855 124.893 46.7443C124.898 46.7266 124.903 46.7089 124.908 46.6911C125.036 46.2145 125.018 46.0043 124.961 45.5787C124.925 45.3093 124.875 45.0514 124.818 44.7869L124.912 45.4836C124.896 44.9953 124.847 44.833 124.685 44.449C124.554 44.138 124.378 43.8331 124.131 43.5941L124.8 44.742C124.667 44.4228 124.533 44.1043 124.397 43.7865L124.645 44.3695C124.575 44.1567 124.488 43.95 124.385 43.7515L124.629 44.3308C124.578 44.199 124.501 44.0593 124.469 43.9213C124.497 44.1229 124.524 44.3242 124.552 44.5253C124.552 44.5203 124.552 44.515 124.552 44.51C124.541 44.0109 124.37 43.5285 124.064 43.1339C123.966 42.9655 123.825 42.8252 123.657 42.7265C123.439 42.5265 123.173 42.3865 122.884 42.3202L122.876 42.3169L124.217 43.3469C124.169 43.2748 124.119 43.204 124.067 43.1343C123.748 42.7046 123.696 42.621 123.258 42.3149C122.74 41.9511 122.011 41.9795 121.458 42.2127C121.209 42.2935 120.984 42.4376 120.807 42.6309C120.56 42.8784 120.38 43.1858 120.287 43.5233L120.284 43.5266Z" fill="white"/>
</g>
<mask id="mask3_3369_1027" style="mask-type:luminance" maskUnits="userSpaceOnUse" x="81" y="117" width="19" height="18">
<path d="M90.4653 134.397C95.2551 134.397 99.1379 130.514 99.1379 125.724C99.1379 120.935 95.2551 117.052 90.4653 117.052C85.6756 117.052 81.7927 120.935 81.7927 125.724C81.7927 130.514 85.6756 134.397 90.4653 134.397Z" fill="white"/>
</mask>
<g mask="url(#mask3_3369_1027)">
<path d="M99.138 125.724C99.138 130.514 95.2553 134.397 90.4654 134.397C90.3245 134.397 90.1845 134.393 90.0455 134.387C90.1906 129.221 90.4291 121.573 90.502 117.052C95.275 117.071 99.138 120.946 99.138 125.724Z" fill="#F15158"/>
<path d="M90.502 117.051C90.4291 121.574 90.1905 129.221 90.0455 134.386C85.4505 134.167 81.7927 130.372 81.7927 125.723C81.7927 120.933 85.6754 117.051 90.4653 117.051L90.502 117.051Z" fill="#8BD1C0"/>
<path d="M88.5154 112.785C88.5112 112.806 88.5047 112.825 88.496 112.844L88.702 112.352C88.6625 112.44 88.6181 112.526 88.5689 112.609L89.374 111.804L89.3616 111.81C88.6765 112.14 88.208 113.03 88.2369 113.771V113.786C88.2643 113.584 88.2918 113.383 88.3193 113.182C88.2982 113.319 88.2261 113.462 88.1796 113.592L88.4243 113.012C88.2562 113.315 88.1483 113.676 88.0144 114.001C88.2371 113.618 88.4602 113.236 88.6835 112.853C88.1784 113.348 87.9229 114.048 87.9007 114.743L87.9946 114.046C87.9382 114.311 87.8862 114.568 87.85 114.838C87.7853 115.074 87.7853 115.324 87.85 115.56C87.8652 115.684 87.8817 115.811 87.9007 115.936C87.9048 115.954 87.9093 115.971 87.9143 115.989C87.925 116.031 87.9373 116.072 87.9489 116.113C87.9732 116.197 87.9934 116.284 88.0234 116.367L87.9307 115.679C87.9555 115.936 87.9929 116.185 87.9987 116.443C88.0045 116.713 88.0127 116.982 88.0107 117.252C88.006 117.856 88 118.46 87.9925 119.065C87.9748 120.48 87.955 121.895 87.9246 123.31C87.8913 124.844 87.8563 126.378 87.8195 127.912C87.7845 129.395 87.7894 130.878 87.7894 132.366C87.7894 133.115 87.7894 133.864 87.7894 134.614C87.7894 134.953 87.7894 135.293 87.7894 135.633C87.7894 135.974 87.7857 136.299 87.8747 136.639C87.9617 136.946 88.0732 137.244 88.208 137.533C88.1391 137.368 88.0704 137.204 88.002 137.042C88.058 137.266 88.1845 137.51 88.2904 137.73C88.5788 138.337 89.3373 138.698 89.9796 138.698C90.6499 138.698 91.345 138.33 91.6688 137.73C91.7906 137.511 91.8909 137.28 91.9683 137.042L91.7623 137.533C91.8926 137.266 92.0036 136.991 92.0944 136.709C92.1958 136.403 92.2024 136.071 92.2201 135.751C92.236 135.463 92.2522 135.174 92.2687 134.885C92.3044 134.256 92.3405 133.626 92.377 132.996C92.4594 131.577 92.5649 130.157 92.6131 128.737C92.7112 125.842 92.8073 122.948 92.9015 120.053C92.9238 119.356 92.9449 118.66 92.965 117.964C92.9819 117.36 92.9613 116.733 93.0383 116.134L92.9477 116.804C93.0049 116.43 93.0622 116.055 93.105 115.678C93.0746 115.908 93.0438 116.137 93.0128 116.366C93.0428 116.288 93.0634 116.206 93.0873 116.126C93.0993 116.085 93.1125 116.044 93.1236 116.003C93.1285 115.985 93.1347 115.967 93.1397 115.949C93.2674 115.473 93.2497 115.263 93.1924 114.837C93.1561 114.568 93.1067 114.31 93.0494 114.045C93.0807 114.278 93.1119 114.51 93.1429 114.742C93.1273 114.254 93.0787 114.091 92.9168 113.707C92.7853 113.396 92.609 113.091 92.3622 112.852C92.5855 113.235 92.8081 113.618 93.0301 114.003C92.8971 113.684 92.7628 113.365 92.6271 113.047C92.7095 113.242 92.7919 113.436 92.8743 113.63C92.8048 113.417 92.7179 113.211 92.6144 113.012L92.8591 113.592C92.808 113.46 92.7305 113.32 92.6988 113.182C92.7263 113.384 92.7537 113.585 92.7812 113.786V113.771C92.7705 113.272 92.5995 112.789 92.2934 112.395C92.1948 112.226 92.0546 112.086 91.8864 111.987C91.6683 111.787 91.4021 111.647 91.1139 111.581L91.1056 111.578L92.4463 112.608C92.3979 112.536 92.3479 112.465 92.2963 112.395C91.977 111.965 91.9255 111.882 91.4871 111.576C90.9692 111.212 90.2404 111.24 89.6875 111.473C89.438 111.554 89.2137 111.698 89.0365 111.892C88.789 112.139 88.6098 112.447 88.5166 112.784L88.5154 112.785Z" fill="white"/>
</g>
<mask id="mask4_3369_1027" style="mask-type:luminance" maskUnits="userSpaceOnUse" x="113" y="71" width="18" height="18">
<path d="M122.233 88.519C127.023 88.519 130.906 84.6362 130.906 79.8464C130.906 75.0567 127.023 71.1738 122.233 71.1738C117.444 71.1738 113.561 75.0567 113.561 79.8464C113.561 84.6362 117.444 88.519 122.233 88.519Z" fill="white"/>
</mask>
<g mask="url(#mask4_3369_1027)">
<path d="M122.233 88.5192C117.443 88.5192 113.561 84.6365 113.561 79.8466C113.561 79.7057 113.564 79.5657 113.571 79.4268C118.736 79.5718 126.384 79.8103 130.905 79.8833C130.886 84.6563 127.011 88.5192 122.233 88.5192Z" fill="#F15158"/>
<path d="M130.905 79.8831C126.383 79.8102 118.736 79.5716 113.571 79.4266C113.79 74.8316 117.584 71.1738 122.233 71.1738C127.023 71.1738 130.906 75.0565 130.906 79.8464C130.906 79.8588 130.906 79.8707 130.905 79.8831Z" fill="#F15158"/>
<path d="M134.513 77.6323C135.102 77.7559 134.522 77.4651 135.494 78.9095C135.156 77.8626 134.271 77.1791 133.513 77.2203C135.17 77.5499 132.703 76.503 134.286 77.4972C132.909 76.5713 132.962 76.6997 134.445 77.8824C133.996 77.2001 131.695 76.55 133.25 76.8611C132.543 76.6374 130.186 77.0526 131.618 76.7667C127.604 77.341 123.413 76.6905 119.386 76.6019C117.207 76.5537 114.858 76.3077 112.684 76.5607C112.092 76.6291 109.164 77.5627 110.256 76.8775C108.855 77.3975 108.768 78.8094 108.729 80.5394C108.698 81.9126 110.869 83.156 109.765 82.4634C112.173 84.2762 115.937 83.5548 118.56 83.7283C122.703 84.0023 127.049 83.5717 131.163 84.3586C130.117 84.148 130.268 84.1813 131.617 84.4588C130.092 84.1539 132.537 84.6046 133.248 84.3764C131.672 84.6911 134.008 84.0187 134.443 83.3546C132.393 85.1307 134.231 83.7769 134.285 83.7299C132.696 84.727 135.173 83.6442 133.511 83.9771C134.645 83.9149 135.345 82.8998 135.719 81.4849C133.276 86.2085 138.109 79.1316 134.513 77.6323Z" fill="#FFCC71"/>
</g>
<mask id="mask5_3369_1027" style="mask-type:luminance" maskUnits="userSpaceOnUse" x="81" y="93" width="19" height="19">
<path d="M90.4651 111.308C95.2548 111.308 99.1377 107.425 99.1377 102.635C99.1377 97.8457 95.2548 93.9629 90.4651 93.9629C85.6753 93.9629 81.7925 97.8457 81.7925 102.635C81.7925 107.425 85.6753 111.308 90.4651 111.308Z" fill="white"/>
</mask>
<g mask="url(#mask5_3369_1027)">
<path d="M90.4651 111.308C85.6752 111.308 81.7925 107.426 81.7925 102.636C81.7925 102.495 81.7958 102.355 81.8024 102.216C86.9676 102.361 94.6156 102.599 99.1373 102.672C99.1179 107.445 95.2426 111.308 90.4651 111.308Z" fill="#FFCC71"/>
<path d="M99.1373 102.672C94.6143 102.599 86.9676 102.361 81.8024 102.216C82.0216 97.6206 85.8161 93.9629 90.4651 93.9629C95.255 93.9629 99.1377 97.8456 99.1377 102.635C99.1377 102.648 99.1377 102.66 99.1373 102.672Z" fill="#3D393B"/>
<path d="M102.745 100.421C103.333 100.544 102.754 100.254 103.726 101.698C103.388 100.65 102.502 99.9673 101.744 100.009C103.401 100.338 100.934 99.2916 102.518 100.285C101.14 99.36 101.193 99.4884 102.676 100.671C102.227 99.9887 99.9266 99.3386 101.481 99.6497C100.774 99.4259 98.417 99.8412 99.8495 99.5549C95.835 100.13 91.6437 99.4787 87.6172 99.3901C85.4382 99.3415 83.089 99.0959 80.9152 99.3489C80.3232 99.4173 77.3947 100.351 78.4869 99.6653C77.0861 100.186 76.9988 101.598 76.96 103.328C76.9291 104.701 79.1024 105.944 77.9962 105.251C80.4048 107.064 84.168 106.343 86.7912 106.516C90.9343 106.79 95.2784 106.359 99.3943 107.147C98.3481 106.936 98.4991 106.969 99.8475 107.247C98.3231 106.942 100.767 107.393 101.479 107.165C99.9023 107.48 102.239 106.807 102.674 106.143C100.625 107.919 102.462 106.565 102.516 106.519C100.927 107.516 103.404 106.433 101.742 106.766C102.876 106.703 103.576 105.688 103.95 104.273C101.508 108.997 106.341 101.92 102.745 100.421Z" fill="#F15158"/>
</g>
<mask id="mask6_3369_1027" style="mask-type:luminance" maskUnits="userSpaceOnUse" x="113" y="94" width="18" height="18">
<path d="M122.233 111.899C127.023 111.899 130.906 108.016 130.906 103.226C130.906 98.4366 127.023 94.5537 122.233 94.5537C117.444 94.5537 113.561 98.4366 113.561 103.226C113.561 108.016 117.444 111.899 122.233 111.899Z" fill="white"/>
</mask>
<g mask="url(#mask6_3369_1027)">
<path d="M122.233 111.899C117.443 111.899 113.561 108.016 113.561 103.226C113.561 103.086 113.564 102.946 113.571 102.807C118.736 102.952 126.384 103.19 130.906 103.263C130.886 108.036 127.011 111.899 122.233 111.899Z" fill="#F15158"/>
<path d="M130.906 103.263C126.383 103.19 118.736 102.952 113.571 102.806C113.79 98.2114 117.585 94.5537 122.233 94.5537C127.023 94.5537 130.906 98.4364 130.906 103.226C130.906 103.239 130.906 103.251 130.906 103.263Z" fill="white"/>
<path d="M135.172 101.276C135.761 101.358 135.181 101.163 136.154 102.135C135.816 101.431 134.93 100.971 134.172 100.999C135.829 101.221 133.362 100.516 134.946 101.185C133.568 100.563 133.621 100.649 135.104 101.444C134.655 100.985 132.354 100.548 133.909 100.757C133.202 100.607 130.845 100.886 132.278 100.693C128.263 101.08 124.072 100.642 120.046 100.582C117.866 100.55 115.517 100.384 113.343 100.553C112.752 100.6 109.823 101.227 110.915 100.766C109.515 101.116 109.427 102.066 109.388 103.229C109.358 104.153 111.528 104.989 110.424 104.523C112.833 105.744 116.596 105.258 119.219 105.374C123.362 105.558 127.708 105.269 131.823 105.798C130.776 105.656 130.928 105.679 132.276 105.865C130.751 105.659 133.196 105.964 133.907 105.81C132.331 106.021 134.668 105.569 135.102 105.122C133.052 106.317 134.89 105.407 134.944 105.375C133.355 106.045 135.832 105.317 134.17 105.54C135.304 105.499 136.004 104.815 136.378 103.864C133.935 107.044 138.768 102.284 135.172 101.276Z" fill="#0E4471"/>
</g>
<path d="M90.465 88.2231C95.2547 88.2231 99.1376 84.3403 99.1376 79.5505C99.1376 74.7608 95.2547 70.8779 90.465 70.8779C85.6752 70.8779 81.7924 74.7608 81.7924 79.5505C81.7924 84.3403 85.6752 88.2231 90.465 88.2231Z" fill="white"/>
<path d="M96.1836 79.2922L96.0353 78.1893C95.9142 77.6628 95.6587 77.1766 95.2937 76.7782C95.1134 76.4706 94.8572 76.2144 94.5496 76.0341C94.4018 75.8986 94.2414 75.7774 94.0705 75.6724C93.5297 75.1071 92.8496 74.6942 92.0986 74.4751C91.7925 74.387 91.4588 74.3581 91.1449 74.3042C90.1804 74.1394 89.2801 73.9606 88.3115 74.2308C87.0549 74.5818 86.0624 75.3651 85.3917 76.482C84.4441 78.0624 84.4317 80.2839 85.3418 81.8792C85.6257 82.3777 85.9837 82.8573 86.4102 83.2433C87.1785 83.9392 87.8188 84.2931 88.7853 84.64C89.5784 84.9247 90.3723 84.9107 91.1811 84.8019C91.9899 84.6932 92.7261 84.5135 93.424 84.041C94.2798 83.46 94.8331 82.9286 95.4016 82.0691C95.9162 81.288 96.2458 80.2337 96.1836 79.2922Z" fill="#F15158"/>
<path d="M122.22 134.436C127.01 134.436 130.892 130.553 130.892 125.763C130.892 120.974 127.01 117.091 122.22 117.091C117.43 117.091 113.547 120.974 113.547 125.763C113.547 130.553 117.43 134.436 122.22 134.436Z" fill="#F15158"/>
<path d="M126.2 127.214L126.351 127.522C126.355 127.529 126.361 127.536 126.367 127.54C126.374 127.545 126.382 127.548 126.39 127.55L126.729 127.599C126.739 127.6 126.747 127.604 126.754 127.611C126.762 127.617 126.767 127.625 126.77 127.633C126.773 127.642 126.773 127.652 126.771 127.661C126.769 127.67 126.764 127.679 126.757 127.685L126.51 127.925C126.504 127.93 126.5 127.937 126.497 127.945C126.495 127.953 126.494 127.961 126.496 127.969L126.554 128.308C126.555 128.317 126.554 128.326 126.551 128.335C126.547 128.344 126.541 128.351 126.533 128.357C126.526 128.362 126.517 128.366 126.508 128.366C126.498 128.367 126.489 128.365 126.48 128.361L126.177 128.201C126.17 128.197 126.162 128.195 126.153 128.195C126.145 128.195 126.137 128.197 126.13 128.201L125.826 128.361C125.818 128.365 125.808 128.367 125.799 128.366C125.79 128.366 125.781 128.362 125.773 128.357C125.766 128.351 125.76 128.344 125.756 128.335C125.752 128.326 125.751 128.317 125.753 128.308L125.811 127.969C125.812 127.961 125.812 127.953 125.809 127.945C125.807 127.937 125.802 127.93 125.797 127.925L125.549 127.685C125.543 127.679 125.538 127.67 125.536 127.661C125.534 127.652 125.534 127.642 125.537 127.633C125.54 127.625 125.545 127.617 125.552 127.611C125.559 127.604 125.568 127.6 125.577 127.599L125.917 127.55C125.925 127.548 125.933 127.545 125.939 127.54C125.946 127.536 125.951 127.529 125.955 127.522L126.107 127.214C126.111 127.205 126.117 127.197 126.125 127.192C126.134 127.186 126.143 127.184 126.153 127.184C126.163 127.184 126.173 127.186 126.181 127.192C126.189 127.197 126.196 127.205 126.2 127.214Z" fill="#FFCC71"/>
<path d="M119.975 123.491L120.593 124.744C120.607 124.774 120.629 124.799 120.656 124.819C120.683 124.839 120.714 124.851 120.747 124.856L122.13 125.057C122.167 125.063 122.203 125.079 122.232 125.104C122.261 125.129 122.283 125.161 122.295 125.197C122.306 125.234 122.308 125.272 122.299 125.31C122.29 125.347 122.271 125.381 122.243 125.407L121.243 126.383C121.219 126.406 121.201 126.435 121.191 126.466C121.181 126.498 121.179 126.532 121.184 126.565L121.42 127.941C121.427 127.979 121.422 128.018 121.408 128.053C121.393 128.089 121.369 128.119 121.338 128.142C121.307 128.164 121.271 128.178 121.232 128.181C121.194 128.183 121.156 128.176 121.122 128.158L119.886 127.508C119.856 127.492 119.824 127.484 119.79 127.484C119.757 127.484 119.724 127.492 119.695 127.508L118.459 128.158C118.425 128.176 118.387 128.183 118.348 128.181C118.31 128.178 118.274 128.164 118.243 128.142C118.212 128.119 118.188 128.089 118.173 128.053C118.159 128.018 118.154 127.979 118.16 127.941L118.397 126.565C118.402 126.532 118.4 126.498 118.39 126.466C118.379 126.435 118.361 126.406 118.338 126.383L117.338 125.407C117.311 125.381 117.291 125.347 117.282 125.31C117.273 125.272 117.275 125.234 117.287 125.197C117.298 125.161 117.32 125.129 117.349 125.104C117.378 125.079 117.414 125.063 117.451 125.057L118.834 124.856C118.867 124.851 118.898 124.839 118.925 124.819C118.952 124.799 118.974 124.774 118.989 124.744L119.607 123.491C119.624 123.457 119.65 123.429 119.683 123.409C119.715 123.389 119.752 123.378 119.791 123.378C119.829 123.378 119.866 123.389 119.899 123.409C119.931 123.429 119.957 123.457 119.975 123.491Z" fill="#FFCC71"/>
<path d="M124.243 121.261L124.394 121.569C124.398 121.576 124.404 121.583 124.41 121.587C124.417 121.592 124.425 121.595 124.433 121.597L124.772 121.646C124.782 121.647 124.79 121.651 124.797 121.657C124.805 121.663 124.81 121.671 124.813 121.68C124.816 121.689 124.816 121.699 124.814 121.708C124.812 121.717 124.807 121.725 124.8 121.732L124.553 121.971C124.547 121.977 124.543 121.984 124.54 121.992C124.538 122 124.537 122.008 124.539 122.016L124.597 122.355C124.598 122.364 124.597 122.373 124.594 122.382C124.59 122.391 124.584 122.398 124.576 122.404C124.569 122.409 124.56 122.413 124.551 122.413C124.541 122.414 124.532 122.412 124.523 122.408L124.22 122.248C124.213 122.244 124.204 122.242 124.196 122.242C124.188 122.242 124.18 122.244 124.173 122.248L123.869 122.408C123.861 122.412 123.851 122.414 123.842 122.413C123.833 122.413 123.824 122.409 123.816 122.404C123.808 122.398 123.803 122.391 123.799 122.382C123.795 122.373 123.794 122.364 123.796 122.355L123.854 122.016C123.855 122.008 123.855 122 123.852 121.992C123.85 121.984 123.845 121.977 123.839 121.971L123.592 121.732C123.586 121.725 123.581 121.717 123.579 121.708C123.576 121.699 123.577 121.689 123.58 121.68C123.583 121.671 123.588 121.663 123.595 121.657C123.602 121.651 123.611 121.647 123.62 121.646L123.96 121.597C123.968 121.595 123.976 121.592 123.982 121.587C123.989 121.583 123.994 121.576 123.998 121.569L124.15 121.261C124.154 121.252 124.16 121.244 124.168 121.239C124.177 121.233 124.186 121.23 124.196 121.23C124.206 121.23 124.216 121.233 124.224 121.239C124.232 121.244 124.239 121.252 124.243 121.261Z" fill="#FFCC71"/>
<path d="M126.056 123.157L126.207 123.464C126.211 123.472 126.216 123.478 126.223 123.483C126.23 123.488 126.237 123.491 126.246 123.492L126.585 123.541C126.594 123.543 126.603 123.547 126.61 123.553C126.617 123.559 126.623 123.567 126.626 123.576C126.628 123.585 126.629 123.594 126.627 123.603C126.624 123.613 126.62 123.621 126.613 123.628L126.366 123.867C126.36 123.873 126.356 123.88 126.353 123.888C126.351 123.895 126.35 123.904 126.351 123.912L126.409 124.25C126.411 124.259 126.41 124.269 126.406 124.278C126.403 124.286 126.397 124.294 126.389 124.299C126.382 124.305 126.373 124.308 126.363 124.309C126.354 124.309 126.344 124.308 126.336 124.303L126.033 124.143C126.025 124.14 126.017 124.137 126.009 124.137C126.001 124.137 125.993 124.14 125.986 124.143L125.682 124.303C125.674 124.308 125.664 124.309 125.655 124.309C125.645 124.308 125.636 124.305 125.629 124.299C125.621 124.294 125.615 124.286 125.612 124.278C125.608 124.269 125.607 124.259 125.609 124.25L125.667 123.912C125.668 123.904 125.667 123.895 125.665 123.888C125.662 123.88 125.658 123.873 125.652 123.867L125.405 123.628C125.398 123.621 125.394 123.613 125.391 123.603C125.389 123.594 125.39 123.585 125.393 123.576C125.395 123.567 125.401 123.559 125.408 123.553C125.415 123.547 125.424 123.543 125.433 123.541L125.773 123.492C125.781 123.491 125.788 123.488 125.795 123.483C125.802 123.478 125.807 123.472 125.811 123.464L125.962 123.157C125.966 123.148 125.973 123.14 125.981 123.134C125.989 123.129 125.999 123.126 126.009 123.126C126.019 123.126 126.029 123.129 126.037 123.134C126.045 123.14 126.052 123.148 126.056 123.157Z" fill="#FFCC71"/>
<path d="M126.88 125.216L127.031 125.524C127.035 125.531 127.04 125.538 127.047 125.542C127.054 125.547 127.061 125.55 127.07 125.552L127.409 125.601C127.418 125.602 127.427 125.606 127.434 125.612C127.441 125.619 127.447 125.626 127.45 125.635C127.453 125.644 127.453 125.654 127.451 125.663C127.448 125.672 127.444 125.681 127.437 125.687L127.19 125.926C127.184 125.932 127.18 125.939 127.177 125.947C127.175 125.955 127.174 125.963 127.175 125.971L127.234 126.31C127.235 126.319 127.234 126.328 127.23 126.337C127.227 126.346 127.221 126.353 127.213 126.359C127.206 126.364 127.197 126.368 127.187 126.368C127.178 126.369 127.169 126.367 127.16 126.363L126.857 126.203C126.849 126.199 126.841 126.197 126.833 126.197C126.825 126.197 126.817 126.199 126.81 126.203L126.506 126.363C126.498 126.367 126.488 126.369 126.479 126.368C126.47 126.368 126.461 126.364 126.453 126.359C126.445 126.353 126.439 126.346 126.436 126.337C126.432 126.328 126.431 126.319 126.433 126.31L126.491 125.971C126.492 125.963 126.491 125.955 126.489 125.947C126.486 125.939 126.482 125.932 126.476 125.926L126.229 125.687C126.222 125.681 126.218 125.672 126.216 125.663C126.213 125.654 126.214 125.644 126.217 125.635C126.22 125.626 126.225 125.619 126.232 125.612C126.239 125.606 126.248 125.602 126.257 125.601L126.597 125.552C126.605 125.55 126.612 125.547 126.619 125.542C126.626 125.538 126.631 125.531 126.635 125.524L126.787 125.216C126.79 125.207 126.797 125.199 126.805 125.194C126.814 125.188 126.823 125.186 126.833 125.186C126.843 125.186 126.853 125.188 126.861 125.194C126.869 125.199 126.876 125.207 126.88 125.216Z" fill="#FFCC71"/>
<path d="M124.243 129.131L124.394 129.439C124.398 129.446 124.404 129.453 124.41 129.457C124.417 129.462 124.425 129.465 124.433 129.467L124.772 129.516C124.782 129.517 124.79 129.521 124.797 129.528C124.805 129.534 124.81 129.542 124.813 129.55C124.816 129.559 124.816 129.569 124.814 129.578C124.812 129.587 124.807 129.596 124.8 129.602L124.553 129.842C124.547 129.847 124.543 129.854 124.54 129.862C124.538 129.87 124.537 129.878 124.539 129.886L124.597 130.225C124.598 130.234 124.597 130.243 124.594 130.252C124.59 130.261 124.584 130.268 124.576 130.274C124.569 130.279 124.56 130.283 124.551 130.283C124.541 130.284 124.532 130.282 124.523 130.278L124.22 130.118C124.213 130.114 124.204 130.112 124.196 130.112C124.188 130.112 124.18 130.114 124.173 130.118L123.869 130.278C123.861 130.282 123.851 130.284 123.842 130.283C123.833 130.283 123.824 130.279 123.816 130.274C123.808 130.268 123.803 130.261 123.799 130.252C123.795 130.243 123.794 130.234 123.796 130.225L123.854 129.886C123.855 129.878 123.855 129.87 123.852 129.862C123.85 129.854 123.845 129.847 123.839 129.842L123.592 129.602C123.586 129.596 123.581 129.587 123.579 129.578C123.576 129.569 123.577 129.559 123.58 129.55C123.583 129.542 123.588 129.534 123.595 129.528C123.602 129.521 123.611 129.517 123.62 129.516L123.96 129.467C123.968 129.465 123.976 129.462 123.982 129.457C123.989 129.453 123.994 129.446 123.998 129.439L124.15 129.131C124.154 129.122 124.16 129.114 124.168 129.109C124.177 129.103 124.186 129.101 124.196 129.101C124.206 129.101 124.216 129.103 124.224 129.109C124.232 129.114 124.239 129.122 124.243 129.131Z" fill="#FFCC71"/>
</g>
</g>
<defs>
<clipPath id="clip0_3369_1027">
<rect width="206" height="206" fill="white"/>
</clipPath>
</defs>
</svg>
