<svg width="28" height="28" viewBox="0 0 28 28" fill="none" xmlns="http://www.w3.org/2000/svg">
<g clip-path="url(#clip0_3371_1493)">
<path d="M20.7732 22.0049C20.7956 21.3141 20.2368 20.7403 19.5493 20.7403H19.5468V20.7399H19.6491C20.3165 20.7392 20.8569 20.1977 20.8565 19.5303C20.8561 18.863 20.3145 18.3259 19.6472 18.3264C19.0907 18.3264 15.2107 18.3264 14.6194 18.3264C14.4792 18.3264 14.3799 18.1894 14.4235 18.0563L14.8642 16.7112C15.2393 15.5663 15.1726 14.7868 15.1726 13.4459C15.1726 12.6572 14.5333 12.0181 13.7446 12.0181C13.0281 12.0181 12.4225 12.5487 12.3287 13.259C12.2251 14.0449 12.155 15.4424 10.856 16.6934L9.93887 17.5761C9.4281 18.0681 8.74664 18.3428 8.03763 18.3428H6.83301V26.2695C7.16071 26.2693 7.81909 26.2693 7.81952 26.2693C9.57016 26.2682 9.41016 28.0018 11.5874 27.9998H18.9973C19.6638 27.9998 20.2041 27.4594 20.2041 26.7929C20.2041 26.1262 19.6638 25.5859 18.9973 25.5859H19.2099C19.8657 25.5859 20.4258 25.0758 20.4476 24.4202C20.4705 23.7349 19.9217 23.172 19.2415 23.172H19.535C20.1915 23.172 20.752 22.6612 20.7732 22.0049Z" fill="#FFCDBF"/>
<path d="M18.9973 26.5914H11.5873C9.41006 26.5935 9.57007 24.8598 7.81943 24.8608C7.819 24.8608 7.16061 24.8611 6.83313 24.8613V26.2697C7.16061 26.2695 7.819 26.2695 7.81943 26.2695C9.57007 26.2684 9.41006 28.002 11.5873 28H18.9973C19.6638 28 20.204 27.4596 20.204 26.7931C20.204 26.5299 20.119 26.287 19.9759 26.0887C19.7569 26.3927 19.4006 26.5914 18.9973 26.5914Z" fill="#FFBEAB"/>
<path d="M6.49029 17.6309H1.91898C1.57419 17.6309 1.29456 17.9105 1.29456 18.2553V26.5127C1.29456 26.8577 1.57397 27.1373 1.91898 27.1373H6.49029C6.83508 27.1373 7.11472 26.8577 7.11472 26.5127V18.2553C7.11472 17.9105 6.83508 17.6309 6.49029 17.6309Z" fill="#54A0FF"/>
<path d="M2.98474 26.5129V18.2553C2.98474 17.9105 3.26437 17.6309 3.60937 17.6309H1.91898C1.57419 17.6309 1.29456 17.9105 1.29456 18.2553V26.5127C1.29456 26.8577 1.57397 27.1373 1.91898 27.1373H3.60916C3.26437 27.1373 2.98474 26.8577 2.98474 26.5129Z" fill="#338DEF"/>
<path d="M7.87949 6.5382C8.04996 6.37521 7.95597 6.09173 7.72034 6.05798L5.90006 5.79906C5.8065 5.78561 5.72575 5.72814 5.68388 5.64504L4.86976 4.02941C4.76444 3.82027 4.46003 3.82027 4.3545 4.02941L3.5406 5.64504C3.49873 5.72814 3.41776 5.78582 3.3242 5.79906L1.50413 6.05798C1.2685 6.09151 1.17429 6.37521 1.34498 6.5382L2.66196 7.7958C2.72968 7.86031 2.76044 7.95345 2.74464 8.04488L2.4336 9.82052C2.39344 10.0504 2.63975 10.2258 2.85059 10.1172L4.47861 9.27877C4.56214 9.23583 4.66233 9.23583 4.74586 9.27877L6.37388 10.1172C6.58472 10.2258 6.83103 10.0504 6.79087 9.82052L6.47984 8.04488C6.46381 7.95345 6.49479 7.86031 6.56251 7.7958L7.87949 6.5382Z" fill="#FECA57"/>
<path d="M4.73221 7.7197C4.74823 7.62848 4.71747 7.53534 4.64975 7.47061L3.33255 6.21301C3.20203 6.08847 3.22702 5.89322 3.35157 5.79346C3.34259 5.79559 3.33362 5.79752 3.32422 5.7988L1.50415 6.05792C1.26853 6.09146 1.17453 6.37515 1.34501 6.53793L2.66199 7.79553C2.72971 7.86026 2.76069 7.9534 2.74466 8.04462L2.43384 9.82046C2.39347 10.0503 2.63977 10.2257 2.85062 10.1172L4.45749 9.28961L4.73221 7.7197Z" fill="#F4B537"/>
<path d="M3.49194 5.73305L5.31201 5.47393C5.40259 5.46111 5.48099 5.40643 5.52393 5.3276L4.87003 4.02941C4.7645 3.82027 4.46008 3.82027 4.35477 4.02941L3.54065 5.64504C3.52185 5.68221 3.49493 5.71404 3.46289 5.73925C3.47229 5.7369 3.4819 5.73455 3.49194 5.73305Z" fill="#F4B537"/>
<path d="M26.6264 6.5382C26.7969 6.37521 26.7027 6.09173 26.4671 6.05798L24.647 5.79906C24.5534 5.78561 24.4725 5.72814 24.4306 5.64504L23.6167 4.02941C23.5114 3.82027 23.2068 3.82027 23.1014 4.02941L22.2873 5.64504C22.2454 5.72814 22.1647 5.78582 22.0711 5.79906L20.2511 6.05798C20.0152 6.09151 19.9212 6.37521 20.0917 6.5382L21.4087 7.7958C21.4764 7.86031 21.5074 7.95345 21.4914 8.04488L21.1805 9.82052C21.1402 10.0504 21.3867 10.2258 21.5973 10.1172L23.2253 9.27877C23.3091 9.23583 23.4091 9.23583 23.4928 9.27877L25.1206 10.1172C25.3314 10.2258 25.5778 10.0504 25.5376 9.82052L25.2266 8.04488C25.2105 7.95345 25.2415 7.86031 25.3092 7.7958L26.6264 6.5382Z" fill="#FECA57"/>
<path d="M23.4791 7.7197C23.4951 7.62848 23.4641 7.53534 23.3964 7.47061L22.0794 6.21301C21.9489 6.08847 21.9739 5.89322 22.0982 5.79346C22.0892 5.79559 22.0803 5.79752 22.0711 5.7988L20.251 6.05792C20.0154 6.09146 19.9212 6.37515 20.0916 6.53793L21.4088 7.79553C21.4766 7.86026 21.5073 7.9534 21.4913 8.04462L21.1805 9.82046C21.1403 10.0503 21.3866 10.2257 21.5975 10.1172L23.2043 9.28961L23.4791 7.7197Z" fill="#F4B537"/>
<path d="M22.2385 5.73305L24.0586 5.47393C24.1494 5.46111 24.2278 5.40643 24.2705 5.3276L23.6166 4.02941C23.5113 3.82027 23.2067 3.82027 23.1013 4.02941L22.2874 5.64504C22.2686 5.68221 22.2417 5.71404 22.2095 5.73925C22.2191 5.7369 22.2285 5.73455 22.2385 5.73305Z" fill="#F4B537"/>
<path d="M19.2686 4.31011C19.5444 4.04671 19.3921 3.58807 19.0112 3.53381L16.0681 3.11489C15.9169 3.09331 15.7859 3.00039 15.7184 2.86602L14.4023 0.253624C14.2318 -0.0845413 13.7394 -0.0845413 13.5691 0.253624L12.253 2.86602C12.1853 3.00039 12.0545 3.09331 11.9031 3.11489L8.96022 3.53381C8.57912 3.58807 8.42702 4.04671 8.70259 4.31011L10.8322 6.34338C10.9418 6.44805 10.9918 6.59866 10.9659 6.74627L10.4631 9.61736C10.3981 9.98907 10.7965 10.2725 11.1373 10.0972L13.7695 8.74151C13.905 8.67187 14.0665 8.67187 14.2019 8.74151L16.8342 10.0972C17.1749 10.2725 17.5733 9.98907 17.5081 9.61736L17.0055 6.74627C16.9796 6.59866 17.0296 6.44805 17.139 6.34338L19.2686 4.31011Z" fill="#FECA57"/>
<path d="M13.8908 2.78997C14.042 2.76839 14.1728 2.67525 14.2405 2.5411L14.8976 1.23693L14.4022 0.253624C14.2317 -0.0845413 13.7393 -0.0845413 13.5691 0.253624L12.2529 2.86602C12.2149 2.941 12.157 3.00274 12.0872 3.04675L13.8908 2.78997Z" fill="#F4B537"/>
<path d="M12.4508 9.2926L12.9535 6.42129C12.9793 6.27368 12.9293 6.12308 12.82 6.01862L10.6904 3.98514C10.466 3.77109 10.525 3.4278 10.7596 3.27783L8.96022 3.53397C8.57912 3.58823 8.42702 4.04688 8.70259 4.31027L10.8322 6.34354C10.9418 6.44821 10.9918 6.59882 10.9659 6.74643L10.4631 9.61752C10.3981 9.98923 10.7963 10.2727 11.1373 10.0973L12.447 9.4227C12.4421 9.38104 12.4429 9.33746 12.4508 9.2926Z" fill="#F4B537"/>
<path d="M17.0636 22.6087C17.0636 22.92 17.3159 23.1723 17.6269 23.1723H19.535C20.178 23.1723 20.7274 22.682 20.77 22.0454H17.6271C17.3159 22.0454 17.0636 22.2977 17.0636 22.6087Z" fill="#FFBEAB"/>
<path d="M17.0636 20.1766C17.0636 20.4879 17.3159 20.7401 17.6269 20.7401H19.6489C20.2885 20.7395 20.8101 20.242 20.8524 19.6133H17.6269C17.3159 19.6133 17.0636 19.8656 17.0636 20.1766Z" fill="#FFBEAB"/>
<path d="M20.4444 24.4595H17.6269C17.3159 24.4595 17.0636 24.7118 17.0636 25.0228C17.0636 25.334 17.3159 25.5863 17.6269 25.5863H19.2099C19.8527 25.5863 20.4019 25.0961 20.4444 24.4595Z" fill="#FFBEAB"/>
</g>
<defs>
<clipPath id="clip0_3371_1493">
<rect width="28" height="28" fill="white"/>
</clipPath>
</defs>
</svg>
