<svg width="65" height="70" viewBox="0 0 65 70" fill="none" xmlns="http://www.w3.org/2000/svg">
<g id="message_empty">
<path id="Rectangle 34624272" d="M6.48146 22.8519C6.48146 19.5382 9.16775 16.8519 12.4815 16.8519H41.9629C45.2766 16.8519 47.9629 19.5382 47.9629 22.8519V39.3704C47.9629 42.6841 45.2766 45.3704 41.9629 45.3704H22.037L19.4705 48.6555C17.0765 51.7199 12.2457 49.0115 13.6111 45.3704H12.4815C9.16775 45.3704 6.48146 42.6841 6.48146 39.3704V22.8519Z" fill="#F0F0F0"/>
<path id="Rectangle 34624273" d="M57.755 33.2222C57.755 29.9085 55.0687 27.2222 51.755 27.2222H26.7407C23.427 27.2222 20.7408 29.9085 20.7408 33.2222V45.9883C20.7408 49.302 23.427 51.9883 26.7408 51.9883H43.8747L46.25 54.9474C48.3964 57.6212 52.626 55.1878 51.3932 51.9883H51.755C55.0687 51.9883 57.755 49.302 57.755 45.9883V33.2222Z" fill="#F0F0F0"/>
<ellipse id="Ellipse 1183" opacity="0.1" cx="32.4074" cy="62.8678" rx="32.4074" ry="1.94444" fill="#B9B9B9"/>
<path id="Union" fill-rule="evenodd" clip-rule="evenodd" d="M49.5403 9.8297C49.5403 8.88662 48.7758 8.1221 47.8327 8.1221C46.8896 8.1221 46.1251 8.88662 46.1251 9.8297V13.3425C46.1251 14.2856 46.8896 15.0501 47.8327 15.0501C48.7758 15.0501 49.5403 14.2856 49.5403 13.3425V9.8297ZM47.8327 9.41839C48.0599 9.41839 48.244 9.60254 48.244 9.8297V13.3425C48.244 13.5697 48.0599 13.7538 47.8327 13.7538C47.6056 13.7538 47.4214 13.5697 47.4214 13.3425V9.8297C47.4214 9.60254 47.6056 9.41839 47.8327 9.41839ZM6.48151 22.0364C6.48151 18.8147 9.09318 16.203 12.3148 16.203H42.1297C45.3513 16.203 47.963 18.8147 47.963 22.0364V27.2215H53.1482C55.6539 27.2215 57.6852 29.2528 57.6852 31.7585V47.8326C57.6852 50.3383 55.6539 52.3696 53.1482 52.3696H51.4589V54.7178C51.4589 56.4142 49.4384 57.2971 48.1935 56.1446L44.1159 52.3696H26.5741C24.0684 52.3696 22.0371 50.3383 22.0371 47.8326V45.7841L17.0362 50.4515C15.7933 51.6116 13.7651 50.7302 13.7651 49.0301V45.6289H12.3148C9.09318 45.6289 6.48151 43.0172 6.48151 39.7956V22.0364ZM47.963 39.7956V28.5178H53.1482C54.938 28.5178 56.3889 29.9687 56.3889 31.7585V47.8326C56.3889 49.6224 54.938 51.0733 53.1482 51.0733H50.8108C50.4528 51.0733 50.1626 51.3635 50.1626 51.7214V54.7178C50.1626 55.2833 49.4891 55.5776 49.0742 55.1934L44.8101 51.2458C44.6903 51.1349 44.5331 51.0733 44.3698 51.0733H26.5741C24.7843 51.0733 23.3334 49.6224 23.3334 47.8326V45.6289H42.1297C45.3513 45.6289 47.963 43.0172 47.963 39.7956ZM42.1297 44.3326L23.3334 44.3326H22.0371L21.9479 44.3326C21.7838 44.3326 21.6257 44.3949 21.5057 44.5069L16.1518 49.5039C15.7374 49.8906 15.0614 49.5968 15.0614 49.0301V44.9807C15.0614 44.6228 14.7712 44.3326 14.4132 44.3326H12.3148C9.8091 44.3326 7.7778 42.3013 7.7778 39.7956V22.0364C7.7778 19.5306 9.8091 17.4993 12.3148 17.4993H42.1297C44.6354 17.4993 46.6667 19.5306 46.6667 22.0364V39.7956C46.6667 42.3013 44.6354 44.3326 42.1297 44.3326ZM17.6783 33.9297C19.3428 33.9297 20.6922 32.5803 20.6922 30.9158C20.6922 29.2513 19.3428 27.9019 17.6783 27.9019C16.0137 27.9019 14.6644 29.2513 14.6644 30.9158C14.6644 32.5803 16.0137 33.9297 17.6783 33.9297ZM30.2359 30.9158C30.2359 32.5803 28.8865 33.9297 27.222 33.9297C25.5575 33.9297 24.2081 32.5803 24.2081 30.9158C24.2081 29.2513 25.5575 27.9019 27.222 27.9019C28.8865 27.9019 30.2359 29.2513 30.2359 30.9158ZM36.7664 33.9297C38.4309 33.9297 39.7802 32.5803 39.7802 30.9158C39.7802 29.2513 38.4309 27.9019 36.7664 27.9019C35.1018 27.9019 33.7525 29.2513 33.7525 30.9158C33.7525 32.5803 35.1018 33.9297 36.7664 33.9297ZM49.4821 17.0792C49.4821 18.0222 50.2466 18.7868 51.1897 18.7868H54.7025C55.6456 18.7868 56.4101 18.0222 56.4101 17.0792C56.4101 16.1361 55.6456 15.3716 54.7025 15.3716H51.1897C50.2466 15.3716 49.4821 16.1361 49.4821 17.0792ZM51.1897 17.4905C50.9625 17.4905 50.7784 17.3063 50.7784 17.0792C50.7784 16.852 50.9625 16.6679 51.1897 16.6679H54.7025C54.9297 16.6679 55.1138 16.852 55.1138 17.0792C55.1138 17.3063 54.9297 17.4905 54.7025 17.4905H51.1897Z" fill="#B9B9B9"/>
</g>
</svg>
