<svg width="60" height="65" viewBox="0 0 60 65" fill="none" xmlns="http://www.w3.org/2000/svg">
<g id="Restaurants">
<path id="Vector" d="M49.1013 19.109C49.1013 8.66712 40.7027 0.181687 30.2745 0.00283528C19.7885 -0.176473 11.0413 8.17163 10.7819 18.6267C10.6108 25.5203 14.116 31.6583 19.5369 35.1587C20.2534 35.6213 20.872 36.2199 21.335 36.9353C23.5276 40.3212 25.6904 43.9557 27.9373 50.3652C28.6003 52.2568 31.2783 52.2532 31.9413 50.3616C34.8764 41.9874 38.7961 36.5379 38.7151 36.6625C39.0633 36.1278 39.5209 35.6715 40.0631 35.3343C45.4936 31.9576 49.1013 25.9483 49.1013 19.109Z" fill="#FF6B6B"/>
<path id="Vector_2" d="M32.5521 57.196C32.5521 58.6355 31.3822 59.8021 29.9387 59.8021C28.4951 59.8021 27.3252 58.6355 27.3252 57.196C27.3252 55.7565 28.4951 54.5898 29.9387 54.5898C31.3822 54.5898 32.5521 55.7565 32.5521 57.196Z" fill="#FF6B6B"/>
<g id="Group">
<path id="Vector_3" d="M31.5574 50.3652C29.3109 43.9557 27.1476 40.3212 24.9555 36.9353C24.4925 36.2199 23.8739 35.6213 23.157 35.1587C17.736 31.6578 14.2313 25.5203 14.4024 18.6263C14.6435 8.88932 22.2483 0.981047 31.7619 0.0858738C31.2714 0.039792 30.7755 0.0115041 30.2745 0.00283528C19.7885 -0.176473 11.0413 8.17163 10.7819 18.6267C10.6108 25.5203 14.116 31.6583 19.5369 35.1587C20.2534 35.6213 20.872 36.2199 21.335 36.9353C23.5276 40.3212 25.6904 43.9557 27.9373 50.3652C28.5482 52.1081 30.8683 52.2409 31.7482 50.7713C31.6741 50.6472 31.6091 50.5126 31.5574 50.3652Z" fill="black" fill-opacity="0.1"/>
<path id="Vector_4" d="M30.9453 57.1965C30.9453 56.4578 31.2536 55.7917 31.7487 55.3176C31.2793 54.8673 30.6414 54.5903 29.9387 54.5903C28.4951 54.5903 27.3252 55.757 27.3252 57.1965C27.3252 58.6355 28.4951 59.8026 29.9387 59.8026C30.6414 59.8026 31.2793 59.5256 31.7487 59.0753C31.2536 58.6013 30.9453 57.9351 30.9453 57.1965Z" fill="black" fill-opacity="0.1"/>
<path id="Vector_5" d="M44.1854 18.8036C44.1854 26.496 37.9318 32.7321 30.2177 32.7321C22.5035 32.7321 16.2499 26.496 16.2499 18.8036C16.2499 11.1111 22.5035 4.875 30.2177 4.875C37.9318 4.875 44.1854 11.1111 44.1854 18.8036Z" fill="#141313"/>
<g id="Group 1597884631">
<path id="Vector_6" d="M38.6171 13.4769C36.7649 11.63 32.3382 14.5388 33.2343 17.182C33.0097 17.4062 33.1919 17.2244 31.6185 18.7935C27.4372 22.9631 28.3689 22.0341 25.6675 24.7278C25.2088 25.187 25.2092 25.9303 25.6691 26.3886C26.1295 26.8475 26.8759 26.8477 27.3361 26.3885C30.5316 23.2021 28.9009 24.8559 32.5702 21.1801L32.5882 21.198C33.5665 20.1729 33.0872 20.6624 34.9017 18.8445C37.5523 19.7384 40.4688 15.3238 38.6171 13.4769Z" fill="#FCD170"/>
<path id="Vector_7" d="M26.9346 25.2269C31.3169 20.8566 29.838 22.3317 34.5014 17.6812C33.782 15.5591 36.496 13.2665 38.5367 13.4024C36.6244 11.7079 32.355 14.5881 33.2343 17.182C32.8863 17.5293 26.0556 24.3408 25.6676 24.7278C24.8302 25.566 25.6288 26.9775 26.782 26.6981C26.4841 26.243 26.5349 25.6271 26.9346 25.2269Z" fill="#F9A832"/>
<path id="Vector_8" d="M26.9071 18.8244C27.0025 18.9681 26.4822 18.4342 34.4588 26.3885C34.9193 26.8477 35.6657 26.8475 36.1262 26.3887C36.5865 25.9295 36.5863 25.1852 36.126 24.7263C28.1585 16.7808 28.6862 17.2916 28.5408 17.1953L26.9071 18.8244Z" fill="#FF7648"/>
<path id="Vector_9" d="M35.1214 25.3955C35.1212 25.3953 27.7198 18.0146 27.7198 18.0146L26.9071 18.8242C27.0025 18.9678 26.4822 18.4339 34.4588 26.3883C35.1792 27.1066 36.4129 26.6335 36.4683 25.6217C36.0292 25.8336 35.486 25.759 35.1214 25.3955Z" fill="#E13303"/>
<path id="Vector_10" d="M29.5042 14.6386L26.0922 11.2359C25.8272 10.9715 25.3973 10.9715 25.1322 11.2358C24.8671 11.5002 24.8671 11.9288 25.1321 12.1931C28.8316 15.8825 28.6769 15.6572 28.677 15.9152C28.677 16.1574 28.6039 16.1753 27.724 17.0526L23.9741 13.3133C23.7091 13.049 23.2792 13.049 23.0142 13.3133C22.7491 13.5778 22.7491 14.0062 23.0142 14.2706L26.764 18.0099L25.9438 18.8277C25.7664 19.0047 25.48 19.0041 25.3032 18.8278L21.8909 15.4253C21.6257 15.161 21.1961 15.1609 20.9309 15.4254C20.6658 15.6897 20.6658 16.1183 20.931 16.3826L24.3432 19.785C24.6851 20.1261 25.1398 20.3139 25.6234 20.3139C26.107 20.3139 26.5617 20.1261 26.9037 19.7851L29.5044 17.1917C29.8464 16.8507 30.0345 16.3974 30.0345 15.9151C30.0345 15.4328 29.8461 14.9795 29.5042 14.6386Z" fill="#E2E1E0"/>
</g>
</g>
<path id="Vector_11" d="M19.5909 18.9134C19.5909 11.8323 24.8897 5.98634 31.7486 5.10121C31.1561 5.02456 30.5522 4.98486 29.9386 4.98486C22.2245 4.98486 15.9708 11.221 15.9708 18.9134C15.9708 26.6059 22.2245 32.842 29.9386 32.842C30.5522 32.842 31.1561 32.8023 31.7486 32.7256C24.8897 31.8405 19.5909 25.9941 19.5909 18.9134Z" fill="#FFEEEF"/>
<ellipse id="Ellipse 223" cx="29.9122" cy="62.3722" rx="14.8023" ry="2.62803" fill="black" fill-opacity="0.1"/>
</g>
</svg>
