<svg width="226" height="224" viewBox="0 0 226 224" fill="none" xmlns="http://www.w3.org/2000/svg">
<g clip-path="url(#clip0_3197_1563)">
<path d="M184.69 39.9211C185.528 39.4342 186.915 40.0585 188.744 41.6723C189.202 42.0767 189.684 42.544 190.193 43.0662C190.671 43.6081 191.168 44.2088 191.689 44.8724C192.727 46.1956 193.871 47.7388 194.921 49.5607C195.461 50.4638 196.017 51.4218 196.585 52.427C197.098 53.4519 197.619 54.5317 198.144 55.6546C198.407 56.2201 198.669 56.7933 198.939 57.3744C199.198 57.9634 199.417 58.572 199.66 59.1885C200.134 60.4214 200.616 61.6975 201.086 63.0169C202.825 68.3255 204.192 74.3527 204.885 80.7647C205.609 87.1767 205.429 93.3414 204.877 98.866C204.713 100.248 204.54 101.591 204.36 102.891C204.149 104.19 203.886 105.439 203.639 106.648C203.185 109.067 202.507 111.274 201.9 113.272C201.74 113.771 201.587 114.254 201.434 114.729C201.254 115.196 201.078 115.648 200.905 116.092C200.557 116.971 200.208 117.796 199.868 118.557C199.213 120.089 198.473 121.353 197.792 122.358C196.433 124.369 195.246 125.323 194.31 125.068C193.374 124.812 192.778 123.379 192.481 121.07C192.336 119.916 192.277 118.546 192.183 116.963C192.148 116.174 192.128 115.342 192.124 114.462C192.124 114.026 192.128 113.575 192.132 113.111C192.12 112.648 192.108 112.173 192.097 111.69C192.054 109.75 192.136 107.661 192.061 105.419C192.058 104.304 192.054 103.15 192.046 101.96C192.003 100.774 191.967 99.557 191.948 98.3123C191.764 93.3335 191.56 87.8992 190.918 82.2411C190.303 76.583 189.469 71.2351 188.579 66.3544C188.329 65.1411 188.086 63.9553 187.847 62.8048C187.73 62.2276 187.636 61.6504 187.51 61.0929C187.381 60.5353 187.252 59.9895 187.126 59.4476C186.88 58.3639 186.656 57.3116 186.449 56.2907C186.19 55.2895 185.955 54.3196 185.744 53.3812C185.356 51.4925 184.913 49.808 184.6 48.2728C184.443 47.5071 184.314 46.7807 184.212 46.0975C184.079 45.4339 183.973 44.8096 183.903 44.2363C183.617 41.9393 183.836 40.4001 184.674 39.9132L184.69 39.9211Z" fill="#FF8200" fill-opacity="0.04"/>
<path fill-rule="evenodd" clip-rule="evenodd" d="M225.859 131.028C222.287 91.7632 169.454 110.944 155.6 124.911C155.6 124.911 213.462 55.2583 154.292 28.6523C86.137 -1.9903 51.8733 120.014 51.8733 120.014C51.8733 120.014 53.9492 92.1205 26.6652 84.0397C-0.630608 75.955 -16.2858 119.174 26.6299 152.471C110.346 217.427 230.708 184.268 225.855 131.028H225.859Z" fill="#FF8200" fill-opacity="0.04"/>
<path d="M8.29173 218.035C3.60339 210.461 199.527 212.774 205.915 218.035C212.303 223.297 14.6447 228.299 8.29173 218.035Z" fill="#FF8200" fill-opacity="0.08"/>
<path d="M80.2972 163.461L79.2436 175.943L85.1305 175.625L88.1738 164.179L80.2972 163.461Z" fill="#FFA896"/>
<path d="M86.2389 172.197C87.1475 171.777 85.0599 181.103 84.351 181.216C83.646 181.33 66.8862 178.26 65.488 177.251C64.0897 176.242 64.6498 173.108 67.3249 173.124C70.004 173.136 75.5853 173.328 77.6494 171.616C77.6494 171.616 79.3532 169.111 79.8271 168.942C80.3011 168.773 80.0034 170.89 80.0034 170.89C80.0034 170.89 84.0533 173.206 86.2349 172.201L86.2389 172.197Z" fill="#1C8EF4"/>
<path d="M84.351 181.162C83.6499 181.276 66.8824 178.201 65.4919 177.196C64.0897 176.183 64.6498 173.049 67.3289 173.069C68.7467 173.077 70.9793 173.128 73.0708 172.928C74.6414 174.361 78.8715 177.985 81.719 178.04C84.2061 178.099 84.9268 174.522 85.1265 172.386C85.5221 172.378 85.9138 172.292 86.2428 172.139C87.1515 171.722 85.06 181.044 84.351 181.158V181.162Z" fill="#3D72C1"/>
<path d="M69.0601 173.14C69.0013 173.234 69.1697 173.415 69.3068 173.725C69.4478 174.039 69.5262 174.518 69.5301 175.079C69.5301 176.21 69.346 177.18 69.5379 177.235C69.7063 177.298 70.2233 176.379 70.2312 175.072C70.2312 174.424 70.0392 173.799 69.722 173.45C69.4008 173.104 69.0953 173.065 69.0601 173.136V173.14Z" fill="#141313"/>
<path d="M85.2127 179.799C85.1618 180.133 84.8641 181.586 84.2492 181.578C83.6381 181.57 64.779 177.753 64.7085 177.471C64.638 177.184 64.7986 176.214 64.7751 176.018C64.7516 175.821 85.2088 179.799 85.2088 179.799H85.2127Z" fill="#141313"/>
<path d="M75.7655 174.137C76.3217 173.721 75.5736 172.327 75.2642 172.347C74.9547 172.367 75.2172 174.55 75.7655 174.137Z" fill="#141313"/>
<path d="M74.0343 174.322C74.5905 173.906 73.8424 172.512 73.533 172.531C73.2235 172.551 73.486 174.734 74.0343 174.322Z" fill="#141313"/>
<path d="M72.2561 174.388C72.8123 173.972 72.0642 172.578 71.7548 172.598C71.4453 172.617 71.7078 174.801 72.2561 174.388Z" fill="#141313"/>
<path opacity="0.5" d="M79.3532 175.515C79.1652 176.406 79.7371 177.282 80.6262 177.471C81.5153 177.659 82.3887 177.086 82.5767 176.194C82.7647 175.303 82.1929 174.427 81.3038 174.239C80.4147 174.051 79.5412 174.624 79.3532 175.515Z" fill="#F4F4F2"/>
<path d="M127.341 95.0967C127.341 95.0967 97.2645 96.0587 85.0874 105.632C79.2397 110.229 78.8832 165.648 78.8832 165.648L90.657 167.529L106.669 123.25C106.669 123.25 137.768 121.495 140.995 120.552C144.222 119.61 150.932 99.1842 150.932 99.1842L127.341 95.0967Z" fill="#141313"/>
<path opacity="0.35" d="M139.244 120.78C131.223 121.404 106.669 123.249 106.669 123.249L90.657 167.529L89.4271 167.246C91.8085 159.507 100.915 129.724 100.825 127.149C100.723 124.172 96.4929 122.24 94.985 119.111C93.4731 115.982 102.235 121.333 102.846 121.07C103.457 120.807 101.831 118.404 101.029 116.567C100.222 114.729 102.74 117.799 106.367 119.515C109.994 121.231 119.057 116.892 120.867 115.471C122.68 114.05 128.367 105.659 126.679 103.774C119.104 95.3084 127.905 96.1958 132.727 96.0348C142.812 95.6853 136.925 109.562 139.24 120.784L139.244 120.78Z" fill="#141313"/>
<path d="M83.6421 69.9164L80.2972 85.2101L79.8938 85.0963L82.9175 69.7161L85.3616 68.9033L85.0521 70.0224L83.6421 69.9164Z" fill="#141313"/>
<path d="M84.6761 69.3031C84.492 71.3684 84.7623 73.0804 85.2832 73.1275C85.8041 73.1746 86.376 71.5373 86.5601 69.4719C86.7441 67.4066 86.4739 65.6946 85.953 65.6475C85.432 65.6004 84.8602 67.2377 84.6761 69.3031Z" fill="#141313"/>
<path d="M85.1893 69.4448C84.9621 71.9696 85.201 74.0546 85.7219 74.1017C86.2429 74.1488 86.846 72.1424 87.0732 69.6176C87.3004 67.0929 87.0615 65.0079 86.5405 64.9647C86.0196 64.9176 85.4164 66.924 85.1893 69.4488V69.4448Z" fill="#B4B4B4"/>
<path d="M83.3797 90.0744C83.6147 90.9736 84.5704 91.5037 85.5104 91.2563C86.4543 91.009 87.0262 90.0784 86.7911 89.1792C86.5561 88.28 85.6005 87.7499 84.6604 87.9973C83.7165 88.2447 83.1447 89.1753 83.3797 90.0744Z" fill="#244A92"/>
<path d="M127.345 63.0366C127.345 63.0366 109.544 71.0624 99.7206 68.1608C95.5062 66.916 76.0674 31.8248 76.0674 31.8248L83.1606 27.9375L104.605 52.4076C104.605 52.4076 123.973 47.0596 124.921 46.6552C125.869 46.2508 129.225 59.8954 127.345 63.0366Z" fill="#FF7918"/>
<path opacity="0.1" d="M104.679 53.0002C105.329 53.6913 106.5 57.2762 105.74 56.9346C104.981 56.593 104.526 54.0957 104.526 54.0957C104.526 54.0957 102.901 60.5706 102.149 58.5641C101.397 56.5577 103.997 52.2817 104.679 53.0042V53.0002Z" fill="#141313"/>
<path opacity="0.1" d="M94.0724 40.3924C94.468 43.0507 94.7774 46.9536 93.5749 48.6577C92.3177 50.4364 89.7287 51.7479 88.0837 52.435C82.0362 42.607 76.0593 31.8287 76.0593 31.8287L83.1564 27.9375L94.0724 40.3963V40.3924Z" fill="#141313"/>
<path opacity="0.1" d="M127.345 63.033C127.345 63.033 119.617 66.5197 111.533 68.0668C113.703 64.3523 119.574 53.731 118.885 48.4263C122.061 47.5311 124.599 46.7968 124.921 46.6555C125.868 46.2471 129.225 59.8957 127.345 63.029V63.033Z" fill="#141313"/>
<path d="M86.615 89.2306C86.474 88.6927 86.0431 88.3 85.5261 88.1704H85.5222L84.5391 87.7189H84.5352L82.4045 86.7451L81.9344 91.0132L83.9398 91.0721L84.7036 91.0957C84.9033 91.1467 85.1148 91.1507 85.3263 91.1153C85.3734 91.1153 85.4203 91.0996 85.4713 91.0878C86.3095 90.864 86.8225 90.0316 86.615 89.2306Z" fill="#141313"/>
<path d="M79.6862 89.5524C80.0505 90.9463 81.3469 91.814 82.5846 91.4881C83.8223 91.1622 84.5273 89.7723 84.167 88.3783C83.8027 86.9844 82.5063 86.1167 81.2686 86.4426C80.0309 86.7685 79.3259 88.1585 79.6862 89.5524Z" fill="#141313"/>
<path d="M81.4291 87.0556C82.3652 86.8122 83.3444 87.4679 83.6186 88.5202C83.8928 89.5725 83.3601 90.6288 82.424 90.8722C81.4879 91.1157 80.5087 90.4599 80.2345 89.4076C79.9604 88.3553 80.493 87.2991 81.4291 87.0556Z" fill="#141313"/>
<path d="M199.206 169.7C199.206 169.7 206.757 172.943 207.051 179.732C207.345 186.517 203.021 184.625 203.021 184.625L199.206 169.704V169.7Z" fill="#E3E3E3"/>
<path d="M198.614 169.481C198.614 169.481 199.895 169.069 200.482 169.795C201.07 170.521 204.932 184.959 203.89 185.662C202.844 186.369 202.656 185.399 202.656 185.399L198.61 169.481H198.614Z" fill="#A7A7A7"/>
<path d="M154.297 129.546L216.099 136.671L223.206 74.7182L161.404 67.5934L154.297 129.546Z" fill="url(#paint0_linear_3197_1563)"/>
<path opacity="0.5" d="M192.9 83.2615C183.848 81.1491 174.8 86.7915 172.693 95.8657C170.586 104.94 176.214 114.01 185.266 116.123C194.317 118.235 203.365 112.593 205.472 103.518C207.58 94.4443 201.951 85.374 192.9 83.2615Z" fill="#FE573C"/>
<path d="M199.609 98.9915C198.943 101.83 196.797 103.805 194.553 103.829L191.411 116.402C190.734 116.496 190.04 116.551 189.343 116.555L192.645 103.35C190.644 102.254 189.598 99.4588 190.275 96.6003C190.671 94.9119 191.584 93.5454 192.712 92.6895L191.76 96.7495C191.666 97.1657 191.913 97.6055 192.332 97.7036C192.743 97.8096 193.15 97.5505 193.244 97.1264L194.486 91.857C194.85 91.7824 195.23 91.7353 195.606 91.7628L194.282 97.3974C194.18 97.8136 194.423 98.2376 194.838 98.3476C195.242 98.4497 195.649 98.1944 195.751 97.7743L197.075 92.1476C197.412 92.3243 197.733 92.5324 198.015 92.7876L196.781 98.0295C196.679 98.4614 196.934 98.8855 197.337 98.9837C197.749 99.0897 198.156 98.8305 198.258 98.4104L199.206 94.3936C199.809 95.6854 200.005 97.3267 199.609 98.9915Z" fill="#FABD23"/>
<path d="M188.854 96.1525C188.607 99.1014 186.739 101.387 184.475 101.752L183.127 115.467C182.458 115.22 181.819 114.929 181.2 114.607L182.489 101.555C180.307 100.747 178.823 98.1237 179.077 95.1474C179.359 91.7627 181.796 89.2497 184.494 89.5324C187.193 89.8269 189.132 92.7954 188.85 96.1486L188.854 96.1525Z" fill="#FABD23"/>
<path opacity="0.35" d="M216.647 131.848L216.095 136.686L154.292 129.559L156.231 112.655C163.818 127.572 216.651 131.848 216.651 131.848H216.647Z" fill="#EA3826"/>
<path d="M77.6181 102.494L75.5892 105.989L72.4872 102.459L74.3085 99.624L77.6181 102.494Z" fill="#141313"/>
<path d="M53.1816 145.454L42.6612 162.189L37.7379 158.966L48.4227 142.733L53.1816 145.454Z" fill="#141313"/>
<path d="M186.276 200.755C184.788 213.736 173.089 223.046 160.144 221.554C147.199 220.062 137.909 208.333 139.397 195.352C140.885 182.371 152.585 173.061 165.529 174.553C178.474 176.046 187.765 187.774 186.276 200.755Z" fill="#141313"/>
<path d="M176.441 199.624C175.576 207.155 168.788 212.562 161.276 211.698C153.764 210.83 148.37 204.026 149.236 196.491C150.101 188.96 156.889 183.553 164.401 184.421C171.914 185.284 177.307 192.093 176.441 199.628V199.624Z" fill="#A7A7A7"/>
<path d="M172.834 199.209C172.2 204.745 167.21 208.715 161.687 208.079C156.165 207.442 152.205 202.44 152.839 196.904C153.474 191.367 158.464 187.398 163.986 188.034C169.509 188.67 173.469 193.672 172.834 199.209Z" fill="#E3E3E3"/>
<path d="M169.865 199.33C169.474 202.757 166.379 205.219 162.96 204.827C159.541 204.434 157.085 201.332 157.481 197.904C157.872 194.476 160.966 192.014 164.386 192.411C167.805 192.804 170.261 195.906 169.865 199.334V199.33Z" fill="#141313"/>
<path d="M167.323 203.649C166.184 204.513 164.891 204.917 163.461 204.859C155.495 204.533 145.918 189.726 145.511 189.094C145.358 188.858 145.425 188.544 145.664 188.387C145.903 188.234 146.216 188.304 146.369 188.54C146.467 188.689 156.063 203.527 163.501 203.834C165.287 203.908 166.771 203.135 168.036 201.478C168.205 201.258 168.53 201.211 168.753 201.384C168.976 201.556 169.019 201.878 168.847 202.102C168.373 202.723 167.864 203.237 167.323 203.649Z" fill="#141313"/>
<path d="M64.5284 79.8771C64.5284 79.8771 63.5453 92.7992 64.1602 93.9968C64.6263 94.9156 69.7337 94.5976 72.3736 95.7991C73.1726 96.1603 73.7484 96.659 73.9011 97.3776C73.9129 97.4365 73.9168 97.5032 73.9168 97.5739C73.9207 97.9901 73.7288 98.634 73.3802 99.4586C73.2588 99.7374 73.3293 100.067 73.5486 100.275L76.964 103.495C77.4497 103.951 78.2291 103.821 78.5425 103.232C79.6078 101.226 80.4969 99.1641 81.1706 97.1616C81.8286 95.2101 82.2869 93.3136 82.518 91.5781C82.518 91.5781 82.518 91.5755 82.518 91.5702C82.988 88.0678 82.5532 85.2171 81.0061 83.9017C76.9014 80.4229 69.6789 78.5263 64.5244 79.8731L64.5284 79.8771Z" fill="#B4B4B4"/>
<path d="M82.6942 88.7121C82.7216 89.5838 82.6668 90.5536 82.5258 91.5667V91.5745C82.2908 93.3101 81.8364 95.2066 81.1745 97.162C80.5008 99.1645 79.6117 101.23 78.5542 103.232C78.2409 103.821 77.4575 103.955 76.9757 103.499L73.5603 100.276C73.3332 100.068 73.2666 99.7456 73.3919 99.459C73.7405 98.6344 73.9324 97.9905 73.9207 97.5703C73.9207 97.5036 73.9207 97.4368 73.9129 97.3819C73.7601 96.6594 73.1843 96.1568 72.3814 95.7995C69.7415 94.6058 64.6419 94.916 64.168 93.9972C63.8938 93.4553 63.9408 90.5654 64.0818 87.5381C65.2373 88.2606 66.6551 88.9045 68.3785 89.3011C72.448 90.2395 78.985 89.36 82.7059 88.7121H82.6942Z" fill="#969696"/>
<path d="M41.0397 143.314C43.848 145.8 46.4605 147.288 48.2778 148.678C49.3158 149.467 50.0913 150.221 50.5104 151.113C51.6658 153.567 57.3843 180.785 68.6371 186.361C80.0387 192.007 189.99 199.079 202.57 195.262C204.227 194.76 205.21 162.547 183.609 150.873C183.609 150.873 184.138 146.259 180.108 144.701H180.104C179.974 144.649 115.552 134.735 115.552 134.735C115.552 134.735 107.005 133.102 112.156 142.639C117.091 151.796 128.34 170.953 113.844 177.546C113.237 177.829 79.8429 187.649 69.4282 170.757C59.0136 153.861 63.7294 122.339 72.8397 112.118C74.4221 110.343 75.8556 108.376 77.1286 106.307C77.3636 105.926 77.297 105.435 76.9758 105.125L72.9925 101.21C72.6361 100.861 72.0916 100.861 71.7391 101.151C71.6412 101.23 71.5589 101.328 71.5002 101.442C67.5443 109.06 57.4195 123.325 52.0066 128.39C51.0274 129.309 50.2049 129.925 49.6017 130.145C44.6862 131.935 36.6255 139.411 41.0318 143.307L41.0397 143.314Z" fill="#D6D6D6"/>
<path d="M125.461 147.799C125.461 147.799 132.539 177.546 118.423 182.23C110.237 184.952 97.523 182.753 88.2952 180.436C100.558 181.535 113.464 177.723 113.844 177.542C128.34 170.95 117.091 151.8 112.16 142.635C107.013 133.102 115.556 134.735 115.556 134.735C115.556 134.735 131.661 137.209 147.783 139.694C163.896 142.18 180.037 144.673 180.104 144.693C184.134 146.26 183.613 150.869 183.613 150.869C183.962 151.058 184.314 151.25 184.655 151.458C165.012 152.927 125.461 147.799 125.461 147.799Z" fill="#969696"/>
<path d="M67.4464 117.403C67.4464 117.403 69.9413 119.111 73.0669 118.369C73.0669 118.369 74.1322 131.295 71.978 138.355C69.8238 145.415 60.0124 142.753 60.0124 142.753L58.1911 132.725L67.4464 117.403Z" fill="#969696"/>
<path d="M71.3278 118.106L70.0118 118.161C70.0118 118.161 69.7181 130.177 67.9046 132.379C66.0911 134.582 60.6351 131.543 60.6351 131.543C60.6351 131.543 59.6364 139.231 60.1847 141.328C60.733 143.425 68.5587 143.994 70.6737 136.958C72.7888 129.917 72.9885 119.335 71.3239 118.11L71.3278 118.106Z" fill="#B4B4B4"/>
<path d="M67.4464 117.403H70.2586C70.2586 117.403 73.862 118.071 73.0669 118.369C72.2718 118.668 69.9923 119.096 67.4464 117.403Z" fill="#141313"/>
<path d="M64.5284 79.8779C64.5284 79.8779 62.0647 83.0898 61.4107 86.7729C60.7526 90.456 64.1602 94.0016 64.1602 94.0016L64.5284 79.8779Z" fill="#E3E3E3"/>
<path d="M191.114 132.901C191.114 132.901 189.7 145.654 185.814 145.753C183.01 145.823 112.971 140.102 108.788 132.85C108.204 131.837 109.32 121.475 111.749 121.098C113.629 120.815 121.435 122.213 131.054 124.078C146.706 127.106 167.175 131.374 174.8 131.605C176.633 131.66 178.2 131.625 179.532 131.523H179.54C187.162 130.942 187.338 130.961 191.114 132.897V132.901Z" fill="#141313"/>
<path d="M191.11 132.901C191.11 132.901 189.692 145.655 185.814 145.757C183.014 145.824 112.975 140.111 108.791 132.854C108.208 131.845 108.909 121.299 111.177 120.348C122.007 115.813 121.435 122.221 131.054 124.086C138.531 125.535 147.105 127.263 154.852 128.696C152.502 131.881 147.83 138.556 149.146 139.573C150.877 140.919 164.48 140.279 164.48 140.279L189.01 131.888C189.613 132.136 190.271 132.474 191.11 132.905V132.901Z" fill="#141313"/>
<path d="M153.995 128.346C153.995 128.346 152.651 142.635 150.763 142.415C148.875 142.195 148.088 142.011 148.088 142.011C148.088 142.011 150.172 128.327 149.792 127.16C149.792 127.16 154.143 126.909 153.995 128.346Z" fill="#141313"/>
<path d="M48.2778 148.678C49.3157 149.467 50.0912 150.221 50.5103 151.112C51.6657 153.566 57.063 181.492 68.637 186.361C69.9413 186.914 71.9427 187.476 74.4612 188.037C60.6508 181.775 56.6831 153.735 56.875 144.327C57.0748 134.915 67.5677 114.529 69.5966 110.12C71.6216 105.71 71.7469 101.155 71.7469 101.155C71.649 101.234 71.5667 101.332 71.508 101.446C67.5521 109.063 57.4273 123.328 52.0143 128.394C48.3169 134.244 47.9723 142.82 48.2817 148.674L48.2778 148.678Z" fill="#B4B4B4"/>
<path d="M50.8041 184.26C48.505 197.539 35.9048 206.441 22.6584 204.136C9.41197 201.831 0.536626 189.2 2.83184 175.916C5.13097 162.637 17.7311 153.735 30.9776 156.04C44.224 158.345 53.0993 170.977 50.8041 184.26Z" fill="#141313"/>
<path d="M41.5489 182.65C40.1388 190.805 32.3994 196.271 24.2643 194.857C16.1292 193.444 10.6771 185.685 12.091 177.53C13.5011 169.374 21.2405 163.909 29.3756 165.322C37.5107 166.736 42.9628 174.495 41.5489 182.65Z" fill="#A7A7A7"/>
<path d="M37.6438 181.971C36.6059 187.963 30.9187 191.98 24.9418 190.939C18.9648 189.899 14.958 184.197 15.996 178.205C17.0339 172.21 22.721 168.197 28.6979 169.233C34.6749 170.274 38.6817 175.975 37.6438 181.967V181.971Z" fill="#E3E3E3"/>
<path d="M32.7205 181.115C32.1565 184.382 29.0544 186.573 25.7957 186.004C22.537 185.438 20.3553 182.328 20.9194 179.062C21.4834 175.795 24.5854 173.604 27.8442 174.173C31.1029 174.738 33.2884 177.848 32.7205 181.115Z" fill="#141313"/>
<path d="M26.814 186.062C28.1653 186.298 29.45 186.074 30.6446 185.395C37.3109 181.606 38.999 164.734 39.0695 164.019C39.0969 163.748 38.9011 163.509 38.6269 163.481C38.3567 163.454 38.1177 163.654 38.0903 163.925C38.0746 164.094 36.3826 181.001 30.1589 184.539C28.6627 185.391 27.0608 185.383 25.2512 184.523C25.0084 184.409 24.7146 184.511 24.5971 184.759C24.4796 185.006 24.5854 185.297 24.8321 185.415C25.5058 185.737 26.1677 185.952 26.814 186.062Z" fill="#141313"/>
<path d="M21.0564 175.912C21.1465 175.382 21.6518 175.028 22.1805 175.119C22.4116 175.158 22.6035 175.28 22.7445 175.444L27.6914 178.287C27.7815 178.33 27.8676 178.378 27.946 178.433C28.5883 178.868 28.9526 179.65 28.8116 180.466C28.6196 181.574 27.57 182.316 26.4654 182.123C26.1639 182.072 25.8897 181.955 25.6547 181.79C25.3609 181.586 25.1298 181.311 24.9771 180.989L21.5499 176.933C21.1935 176.736 20.982 176.332 21.0564 175.912Z" fill="#969696"/>
<path d="M25.4197 179.877C25.2865 180.651 25.8036 181.381 26.5712 181.519C27.3389 181.652 28.0713 181.134 28.2045 180.364C28.3377 179.591 27.8207 178.861 27.053 178.723C26.2853 178.59 25.5529 179.108 25.4197 179.877Z" fill="#FE573C"/>
<path d="M21.4128 175.975C21.3541 176.309 21.5773 176.627 21.9103 176.682C22.2432 176.741 22.5604 176.517 22.6153 176.183C22.674 175.849 22.4508 175.531 22.1178 175.476C21.7849 175.417 21.4677 175.641 21.4128 175.975Z" fill="#FE573C"/>
<path d="M15.5299 157.666C23.5318 159.888 37.683 169.708 45.0426 178.354C47.9566 181.778 50.9138 184.111 53.4205 185.681C57.2432 188.076 60.0202 188.693 60.0202 188.693C56.033 185.536 56.268 164.27 46.151 153.386C44.1261 151.206 41.682 149.44 38.7131 148.324C20.8919 141.622 8.40536 154.328 8.40536 154.328C8.40536 154.328 7.53193 155.443 15.5338 157.669L15.5299 157.666Z" fill="#E8E8E8"/>
<g opacity="0.5">
<path d="M60.0202 188.689C60.0202 188.689 57.2393 188.073 53.4166 185.677C52.6254 185.183 51.795 184.613 50.9334 183.946C52.88 167.187 46.1549 153.382 34.8904 147.143C36.1359 147.437 37.4049 147.826 38.7092 148.317C41.6859 149.432 44.13 151.203 46.151 153.378C56.264 164.262 56.0251 185.524 60.0202 188.681V188.689Z" fill="#A7A7A7"/>
</g>
<path d="M197.326 196.53C187.412 197.527 158.534 196.287 129.942 194.268C129.3 189.278 128.739 181.122 130.185 174.867C131.43 169.519 136.604 163.853 144.273 160.697C151.073 157.913 159.815 157.092 169.521 160.214C177.507 162.778 183.844 168.565 188.478 175.217C193.389 182.245 196.299 190.393 197.326 196.53Z" fill="#A7A7A7"/>
<path d="M133.537 175.26C132.045 181.699 132.915 190.389 133.553 194.527C134.38 194.594 162.647 198.101 194.603 196.762C194.008 191.068 191.302 182.697 186.331 175.574C182.133 169.551 176.391 164.305 169.16 161.981C160.371 159.157 152.451 159.896 146.298 162.42C139.346 165.279 134.662 170.415 133.537 175.256V175.26Z" fill="#E8E8E8"/>
<path opacity="0.5" d="M142.969 174.953C140.764 173.642 177.938 174.989 177.679 175.582C177.421 176.175 146.948 177.317 142.969 174.953Z" fill="#A7A7A7"/>
<path opacity="0.5" d="M146.576 185.7C144.653 184.373 177.229 185.995 176.998 186.584C176.767 187.173 150.043 188.091 146.576 185.7Z" fill="#A7A7A7"/>
<path opacity="0.5" d="M142.636 180.517C140.18 179.221 181.4 180.325 181.118 180.918C180.836 181.511 147.058 182.853 142.636 180.517Z" fill="#A7A7A7"/>
<path d="M191.114 132.901L218.174 136.019C218.934 136.105 219.483 136.796 219.396 137.558C219.31 138.32 218.621 138.87 217.861 138.779L191.815 135.779L167.386 146.232L164.484 145.898L164.797 143.165L191.114 132.901Z" fill="#EA3826"/>
<path d="M78.0333 92.8346C77.8649 94.3109 78.9224 95.646 80.3951 95.8148C81.8678 95.9837 83.1995 94.9235 83.3679 93.4471C83.5363 91.9707 82.4788 90.6357 81.0061 90.4669C79.5334 90.298 78.2017 91.3582 78.0333 92.8346Z" fill="#141313"/>
<path d="M79.0203 93.0785C78.9028 94.1033 79.6352 95.03 80.6575 95.1478C81.6798 95.2656 82.6041 94.5313 82.7216 93.5065C82.8391 92.4817 82.1067 91.555 81.0844 91.4372C80.0622 91.3194 79.1378 92.0537 79.0203 93.0785Z" fill="#141313"/>
<path d="M79.3728 94.4049L80.3207 95.4337L83.1603 98.516L85.5769 95.7124L84.2805 94.295L84.2727 94.291L82.0166 91.8252L81.6171 92.21L80.7241 93.0817L80.6418 93.1602L80.2619 93.5332L80.1562 93.6353L79.365 94.4049H79.3728Z" fill="#141313"/>
<path d="M82.3495 96.7533C82.232 97.7781 82.9645 98.7048 83.9867 98.8226C85.009 98.9404 85.9334 98.2061 86.0509 97.1813C86.1684 96.1565 85.4359 95.2298 84.4137 95.112C83.3914 94.9942 82.467 95.7285 82.3495 96.7533Z" fill="#244A92"/>
<path d="M82.5571 96.7766C82.4514 97.6875 83.1055 98.5082 84.0141 98.6142C84.9228 98.7202 85.7414 98.0645 85.8472 97.1535C85.9529 96.2426 85.2988 95.4219 84.3902 95.3159C83.4815 95.2099 82.6629 95.8656 82.5571 96.7766Z" fill="#141313"/>
<path d="M65.3705 79.5205C65.3705 79.5205 64.2855 79.281 64.219 79.8425C64.1563 80.404 63.4787 94.0604 63.8155 94.4059C64.1524 94.7515 64.7399 94.724 64.7399 94.724L65.3705 79.5205Z" fill="#141313"/>
<path opacity="0.44" d="M76.0788 86.7959C75.9417 87.1257 76.1767 87.5419 76.6037 87.7225C77.0345 87.9031 77.4928 87.7814 77.6338 87.4477C77.7709 87.1178 77.5358 86.7016 77.1089 86.521C76.6781 86.3404 76.2198 86.4621 76.0788 86.7959Z" fill="#141313"/>
<path d="M77.3518 73.6457L77.2852 89.3007L76.8661 89.2771L76.6037 73.5985L78.8206 72.291L78.754 73.4533L77.3518 73.6457Z" fill="#141313"/>
<path d="M78.2369 72.8292C78.4876 74.8867 79.1104 76.5044 79.6313 76.4416C80.1483 76.3788 80.3676 74.659 80.113 72.5976C79.8624 70.5401 79.2396 68.9223 78.7187 68.9852C78.2017 69.048 77.9823 70.7678 78.233 72.8292H78.2369Z" fill="#141313"/>
<path d="M78.7657 72.8605C79.0712 75.3774 79.741 77.3642 80.258 77.3014C80.775 77.2386 80.9473 75.1457 80.6418 72.6328C80.3363 70.1159 79.6666 68.1291 79.1496 68.1919C78.6326 68.2547 78.4602 70.3475 78.7657 72.8605Z" fill="#B4B4B4"/>
<path d="M79.7802 90.2393L78.9498 93.6161C78.9498 93.6161 77.5711 93.5807 76.3256 93.6004L77.0267 92.2025C77.0267 92.2025 76.212 92.1711 75.6715 92.5206C75.131 92.87 73.9246 93.4472 73.4037 93.6828C72.8906 93.9145 71.1477 94.3307 71.1007 94.3425C69.7846 94.421 71.0106 94.3739 70.0666 94.4249C68.3472 94.5231 68.3629 92.9093 68.3629 92.9093L79.7762 90.2393H79.7802Z" fill="#FFA896"/>
<path d="M75.6715 92.5248C76.212 92.1754 77.0267 92.2068 77.0267 92.2068L76.3256 93.6046C75.4913 93.6164 74.7197 93.6557 74.4612 93.7421C73.3449 94.1229 72.1934 94.28 71.1046 94.3428C71.1516 94.331 72.8906 93.9148 73.4076 93.6832C73.9285 93.4476 75.1349 92.8704 75.6754 92.5209L75.6715 92.5248Z" fill="#F29788"/>
<path d="M78.4955 91.5391C78.4955 91.5391 77.0267 91.7943 76.3374 92.9722C75.5501 94.3073 74.7158 96.8988 75.0879 97.205C75.8203 97.8097 76.6468 97.4563 76.6468 97.4563L78.4955 91.5391Z" fill="#FFA896"/>
<path d="M76.3373 95.8934C76.6076 95.1906 78.0607 90.8714 78.4289 90.7104C80.0857 89.9919 82.4357 89.7013 83.6499 89.6895C85.291 89.6738 88.4322 89.3008 88.4322 89.3008L88.867 94.5466C87.6763 94.6723 85.5025 96.3175 83.1642 96.2036C82.518 97.0674 83.0076 97.7899 82.7138 98.265C82.2947 98.9482 79.882 99.4273 78.9341 99.4194C78.1077 99.4155 77.8766 98.0412 77.8766 98.0412C77.8766 98.0412 77.3635 98.1747 76.7995 98.1747C75.742 98.1747 76.071 96.5923 76.3452 95.8895L76.3373 95.8934Z" fill="#FFA896"/>
<path d="M83.1604 96.2079L81.4722 96.0312C81.4722 96.0312 81.1041 96.6634 80.732 96.9343C79.886 97.5508 79.7841 98.0534 79.7841 98.0534C79.7841 98.0534 80.6615 97.7471 80.9474 97.6725C81.2333 97.6019 81.7738 97.7354 81.7738 97.7354C81.7738 97.7354 81.9579 96.6988 82.941 96.5299C83.0742 96.3925 83.1643 96.2079 83.1643 96.2079H83.1604Z" fill="#F29788"/>
<path d="M77.8845 98.1786C77.8845 98.1786 78.8284 95.5361 79.0712 94.9549C79.3141 94.3738 80.3207 92.5244 80.3207 92.5244C80.3207 92.5244 79.694 92.5833 79.2906 93.4393C78.8245 94.4288 78.2331 95.8227 77.9589 96.663C77.7748 97.2284 77.1324 98.1786 77.1324 98.1786H77.8923H77.8845Z" fill="#F29788"/>
<path d="M76.0671 97.5503C76.0671 97.5503 76.0984 96.5569 76.3373 95.8933C76.5763 95.2297 78.0646 92.0924 78.2095 91.9707C77.998 91.9786 77.6925 92.0414 77.4066 92.5243C77.1207 93.0034 76.5058 94.5465 76.2433 95.002C75.9809 95.4575 75.5618 97.46 75.5618 97.46L76.0671 97.5503Z" fill="#F29788"/>
<path d="M105.447 200.308L103.5 214.812L110.17 214.471L114.31 202.911L105.447 200.308Z" fill="#FFA896"/>
<path d="M111.435 210.588C112.469 210.117 110.072 220.679 109.273 220.805C108.474 220.93 89.4859 217.408 87.9035 216.262C86.3212 215.111 86.9635 211.565 89.999 211.589C93.0345 211.609 99.36 211.844 101.702 209.908C101.702 209.908 103.641 207.073 104.178 206.881C104.714 206.689 104.373 209.092 104.373 209.092C104.373 209.092 108.956 211.73 111.435 210.592V210.588Z" fill="#1C8EF4"/>
<path d="M91.9612 211.613C91.8946 211.719 92.0827 211.927 92.2393 212.276C92.396 212.634 92.4861 213.175 92.49 213.812C92.4861 215.092 92.2746 216.191 92.49 216.258C92.6819 216.328 93.2655 215.288 93.2812 213.808C93.2812 213.073 93.0697 212.363 92.7093 211.97C92.3451 211.577 92.0004 211.534 91.9612 211.613Z" fill="#141313"/>
<path d="M110.252 219.202C110.194 219.579 109.853 221.224 109.156 221.217C108.459 221.209 87.1006 216.831 87.0222 216.509C86.9439 216.187 87.128 215.087 87.1045 214.863C87.0771 214.64 110.252 219.202 110.252 219.202Z" fill="#141313"/>
<path d="M99.5598 212.759C100.19 212.288 99.3443 210.705 98.9957 210.729C98.6471 210.752 98.937 213.222 99.5598 212.759Z" fill="#141313"/>
<path d="M97.5974 212.963C98.228 212.492 97.382 210.909 97.0334 210.933C96.6848 210.956 96.9746 213.426 97.5974 212.963Z" fill="#141313"/>
<path d="M95.5803 213.034C96.2109 212.563 95.3649 210.981 95.0163 211.004C94.6677 211.028 94.9576 213.497 95.5803 213.034Z" fill="#141313"/>
<path opacity="0.5" d="M103.621 214.329C103.406 215.338 104.052 216.332 105.059 216.548C106.065 216.764 107.056 216.116 107.272 215.107C107.487 214.098 106.841 213.104 105.834 212.888C104.828 212.672 103.837 213.32 103.621 214.329Z" fill="#F4F4F2"/>
<path d="M154.292 91.3194L157.441 101.014C157.441 101.014 156.121 125.991 154.002 127.145C151.887 128.299 130.882 156.767 130.882 156.767C130.882 156.767 117.259 199.699 114.404 204.866C111.706 204.619 102.846 201.588 102.846 201.588L111.016 141.426C111.016 141.426 131.943 107.854 131.493 104.446C131.039 101.037 129.276 95.0967 129.276 95.0967L154.292 91.3154V91.3194Z" fill="#141313"/>
<path opacity="0.35" d="M157.437 101.014C157.437 101.014 156.114 125.991 153.999 127.149C151.883 128.299 130.886 156.767 130.886 156.767C130.886 156.767 117.256 199.699 114.404 204.866C113.597 204.792 112.25 204.478 110.746 204.058C114.138 194.398 125.066 163.01 124.897 160.171C124.697 156.818 119.66 155.051 118.419 152.459C117.177 149.868 126.91 155.455 127.803 154.846C128.704 154.242 126.307 152.624 124.897 151.415C123.487 150.201 127.114 151.615 129.276 151.415C131.446 151.214 147.254 124.966 149.15 119.916C151.037 114.867 146.651 112.848 143.631 112.601C140.611 112.354 151.688 110.63 152.773 109.538C153.865 108.447 149.267 109.012 147.751 108.042C146.236 107.08 150.274 106.79 149.146 104.32C148.01 101.842 141.814 104.567 138.782 105.989C136.769 106.923 129.213 114.309 124.333 119.202C128.356 112.153 131.677 105.82 131.497 104.442C131.039 101.037 129.276 95.0927 129.276 95.0927L154.296 91.3154L157.437 101.006V101.014Z" fill="#141313"/>
<path d="M111.729 140.275L130.142 104.901L125.637 95.6543L129.542 96.0312L132.55 104.827L111.729 140.275Z" fill="#141313"/>
<path d="M125.371 99.6904C134.019 99.4116 150.489 101.567 157.449 93.1135C158.808 91.4604 138.739 47.079 130.694 42.3672C130.694 42.3672 121.352 45.3553 120.882 46.651C120.408 47.9468 120.025 75.4481 120.04 79.8772C120.056 84.3063 125.375 99.6904 125.375 99.6904H125.371Z" fill="#FF7918"/>
<path d="M120.831 46.9775C120.831 46.9775 120.354 79.7875 119.723 79.442C119.092 79.0965 119.66 47.2092 120.831 46.9775Z" fill="#141313"/>
<path opacity="0.1" d="M156.873 90.1962C156.838 90.102 156.815 90.0077 156.779 89.9056C156.752 89.8193 156.721 89.725 156.685 89.6229C156.619 89.4345 156.544 89.2342 156.47 89.03C156.435 88.924 156.396 88.8141 156.356 88.7081C156.204 88.284 156.035 87.8324 155.847 87.3573C155.667 86.8783 155.471 86.3757 155.264 85.8496C154.946 85.0682 154.606 84.2397 154.241 83.3719C153.94 82.6455 153.611 81.8916 153.274 81.1102C153.141 80.8001 153 80.4899 152.863 80.1757V80.1679C152.647 79.6967 152.432 79.2137 152.216 78.719V78.7111C151.997 78.2282 151.774 77.7295 151.547 77.223C151.163 76.3827 150.767 75.5189 150.364 74.6511C150.117 74.1328 149.874 73.6067 149.624 73.0844V73.0766C149.369 72.5504 149.114 72.0204 148.86 71.4863C148.868 71.4785 148.86 71.4785 148.86 71.4785C148.605 70.9484 148.343 70.4144 148.08 69.8765C147.998 69.6959 147.904 69.5113 147.818 69.3307C147.113 67.8975 146.388 66.4565 145.656 65.0233C145.57 64.8427 145.476 64.6581 145.382 64.4775C145.201 64.1281 145.013 63.7707 144.833 63.4134C144.653 63.0561 144.465 62.6988 144.277 62.3415C144.089 61.992 143.909 61.6426 143.721 61.2931V61.2853C143.533 60.9436 143.345 60.5903 143.165 60.2487C143.071 60.072 142.977 59.8992 142.883 59.7225C142.695 59.3809 142.507 59.0432 142.327 58.6977C142.139 58.36 141.951 58.0184 141.763 57.6807C141.575 57.343 141.387 57.0132 141.206 56.6912C137.2 49.6039 133.31 43.8829 130.702 42.3477C130.702 42.3477 130.674 42.3555 130.627 42.3673C130.486 42.4066 130.149 42.4969 129.679 42.6225C129.687 42.6421 129.687 42.6579 129.691 42.6775C130.357 45.8462 130.663 49.0895 130.639 52.3289C130.557 59.8482 128.634 67.336 125.062 73.9522C124.063 75.8173 122.512 81.4558 121.02 85.3744C122.559 91.5194 125.375 99.6748 125.375 99.6748C131.571 99.4746 141.774 100.523 149.631 98.0257C150.109 97.8725 150.579 97.7076 151.034 97.527C151.727 97.2561 152.389 96.9537 153.027 96.62C153.458 96.3962 153.865 96.1567 154.269 95.9014C155.068 95.391 155.812 94.8059 156.486 94.1463C156.826 93.8165 157.151 93.467 157.453 93.0979C157.641 92.8702 157.422 91.8257 156.877 90.1844L156.873 90.1962ZM143.459 86.9372C147.226 89.4698 150.81 92.8466 148.096 92.4343C145.378 92.0299 141.128 89.1086 143.462 91.4252C145.805 93.7419 145.805 95.0062 144.242 95.6501C142.679 96.298 128.916 97.6095 127.921 96.0192C126.926 94.4447 125.355 92.3244 128.759 91.8179C132.174 91.3153 136.714 85.3038 137.286 82.6848C137.858 80.0736 135.978 58.1715 138.97 60.4685C138.97 60.4685 152.236 84.1729 152.902 87.5301C153.56 90.8873 139.683 84.4007 143.455 86.9293L143.459 86.9372Z" fill="#141313"/>
<path d="M87.641 88.9356C87.641 88.9356 84.8797 89.6109 84.8445 89.6266C84.8092 89.6423 86.043 95.4261 86.4934 95.6538C86.9439 95.8816 89.1294 96.074 89.5798 95.8305C90.0303 95.5871 87.6371 88.9316 87.6371 88.9316L87.641 88.9356Z" fill="#141313"/>
<path d="M135.813 50.4879C135.813 50.4879 137.125 80.6593 130.083 88.1197C127.063 91.3158 89.102 96.97 89.102 96.97L86.1331 88.9325L114.718 74.1059C114.718 74.1059 125.731 50.3819 125.798 49.3532C125.868 48.3244 133.87 47.386 135.809 50.4918L135.813 50.4879Z" fill="#FF7918"/>
<path d="M87.1554 88.3976L115.078 74.1011L124.329 53L113.958 72.9153L87.1554 88.3976Z" fill="#141313"/>
<path opacity="0.1" d="M130.087 88.1151C127.067 91.3113 89.0981 96.9655 89.0981 96.9655L88.2482 94.6528C97.0295 92.6817 124.592 84.8561 126.577 82.6926C128.916 80.1522 126.037 80.3288 124.772 79.4493C123.503 78.558 128.814 80.1207 129.444 78.1967C129.985 76.6026 135.797 50.4716 135.813 50.4873C135.813 50.4873 137.125 80.6626 130.087 88.1151Z" fill="#141313"/>
<path d="M117.89 91.8807C117.89 91.8807 129.511 89.3638 130.381 88.2291C131.25 87.0943 133.467 83.639 133.381 80.4389C133.314 77.8984 135.911 55.5801 135.911 55.5801C135.911 55.5801 132.362 78.7033 132.535 79.6536C132.962 82.0016 129.413 87.9621 129.198 87.9346C128.986 87.9071 117.89 91.8807 117.89 91.8807Z" fill="#141313"/>
<path d="M126.143 30.8545L121.333 35.3189L122.5 45.6418C122.5 45.6418 126.19 46.1051 127.329 45.7124C128.587 45.2805 131.759 42.6655 131.759 42.6655L126.139 30.8584L126.143 30.8545Z" fill="#FFA896"/>
<path d="M122.12 42.2764L121.333 35.3186L125.88 31.1016C126.209 34.1289 126.362 40.4153 122.12 42.2764Z" fill="#F29788"/>
<path d="M113.022 38.9321C115.947 42.6977 126.021 38.9282 126.973 33.8787C127.267 32.2885 127.803 25.2364 127.803 25.2364L127.725 23.069L112.489 21.8125C112.489 21.8125 112.297 22.9237 112.054 24.6317C111.94 25.5113 111.843 26.5714 111.729 27.6944C111.4 31.7702 111.392 36.8628 113.018 38.9321H113.022Z" fill="#FFA896"/>
<path d="M122.163 25.3574C122.163 25.3574 122.234 33.4147 121.905 34.4238C121.576 35.4329 121.094 35.1345 119.684 34.7261C118.274 34.3178 111.236 34.6515 111.561 35.9551C111.886 37.2587 112.928 41.0517 116.954 41.091C120.98 41.1263 125.097 37.6003 125.712 36.7208C126.327 35.8412 123.652 34.5769 123.691 33.7209C123.726 32.8649 123.996 26.7239 124.067 26.4647C124.137 26.2095 122.159 25.3535 122.159 25.3535L122.163 25.3574Z" fill="#141313"/>
<path d="M128.951 27.7683C128.923 26.0288 129.656 23.6101 128.892 23.4256C128.751 23.3902 128.387 23.351 127.889 23.3156C127.909 9.99294 113.182 17.2099 111.306 22.2712C110.883 23.3981 109.324 22.3497 110.997 23.7946C109.919 26.0799 116.057 24.9726 117.839 23.1114C118.137 22.8012 121.979 25.381 122.386 25.4438C122.198 27.1165 122.52 29.6884 123.597 28.0431C124.251 27.0497 123.746 25.7893 124.834 25.6637C125.257 25.6166 126.131 26.2487 126.546 26.3901C127.439 26.6963 125.344 34.4237 127.345 33.8662C129.346 33.3047 128.978 29.4999 128.951 27.7644V27.7683Z" fill="#141313"/>
<path d="M112.14 17.0689C112.14 17.0689 116.899 10.9121 124.251 13.6607C131.603 16.4092 132.966 26.948 130.099 29.4453C127.235 31.9425 126.166 27.7922 126.166 27.7922C126.166 27.7922 115.133 17.065 112.14 17.065V17.0689Z" fill="#FF7918"/>
<path opacity="0.35" d="M130.882 28.358C130.67 28.8095 130.412 29.1786 130.095 29.4495C127.231 31.9507 126.162 27.7965 126.162 27.7965C126.162 27.7965 118.838 20.6698 114.506 18.043C116.848 17.4854 119.535 16.9514 120.17 17.3598C121.329 18.1019 124.619 23.4459 126.546 23.8346C128.481 24.2312 128.555 25.0008 130.882 28.354V28.358Z" fill="#EA3826"/>
<path d="M127.345 29.0921C127.345 29.0921 119.848 21.9969 117.659 21.7967C115.469 21.5964 111.188 22.4367 111.188 22.4367C111.188 22.4367 105.709 18.5416 107.005 17.5442C108.302 16.5469 115.274 15.9462 117.765 16.9435C120.256 17.9408 127.349 29.0921 127.349 29.0921H127.345Z" fill="url(#paint1_linear_3197_1563)"/>
<path d="M119.449 28.6958C119.421 29.1944 119.053 29.5832 118.622 29.5557C118.199 29.5282 117.878 29.0963 117.906 28.6015C117.941 28.095 118.309 27.7141 118.74 27.7416C118.795 27.7495 118.846 27.7534 118.901 27.777C118.807 27.8594 118.748 27.9772 118.748 28.1147C118.748 28.362 118.948 28.5583 119.198 28.5583C119.284 28.5583 119.374 28.5309 119.441 28.4837C119.453 28.5583 119.461 28.6251 119.453 28.6997L119.449 28.6958Z" fill="#141313"/>
<path d="M117.381 25.9035C117.083 26.0488 117.295 26.4846 118.423 26.3943C119.551 26.304 120.573 26.9087 120.859 26.4296C121.145 25.9506 119.817 24.702 117.381 25.9035Z" fill="#141313"/>
<path d="M114.874 26.0724C115.172 26.2177 114.96 26.6535 113.832 26.5632C112.704 26.4729 111.682 27.0776 111.396 26.5986C111.11 26.1195 112.438 24.8709 114.874 26.0724Z" fill="#141313"/>
<path d="M113.488 28.8716C113.452 29.3702 113.084 29.755 112.661 29.7315C112.23 29.704 111.909 29.2721 111.944 28.7773C111.98 28.2708 112.348 27.8899 112.771 27.9174C112.853 27.9253 112.924 27.9449 112.998 27.9763C112.877 28.0588 112.798 28.1962 112.798 28.3454C112.798 28.5928 112.998 28.797 113.249 28.797C113.335 28.797 113.417 28.7695 113.484 28.7302C113.492 28.7773 113.492 28.8244 113.492 28.8716H113.488Z" fill="#141313"/>
<path d="M115.56 29.2377C115.434 28.8372 114.416 31.9509 114.514 32.1394C114.612 32.3278 116.417 32.4299 116.48 32.1551C116.547 31.8802 115.039 31.8331 115.105 31.7467C115.168 31.6643 115.579 29.2966 115.56 29.2377Z" fill="#141313"/>
<path d="M114.404 36.4184C114.404 36.4184 116.37 36.1671 118.646 36.1436C118.646 36.1436 118.666 36.4537 118.646 36.5755C117.706 38.3934 115.446 39.5243 114.404 36.4184Z" fill="#F4F4F2"/>
<path d="M124.306 25.9738C124.306 25.9738 125.614 24.9176 127.298 25.7971C129.135 26.7552 126.444 31.4238 125.222 31.3531C124.039 31.2864 123.855 30.6189 123.93 29.6961C124.063 28.1216 124.306 25.9738 124.306 25.9738Z" fill="#FFA896"/>
<path d="M126.252 26.6455C125.657 26.9989 124.486 28.2946 125.011 29.449C125.011 29.449 125.093 28.7266 125.528 28.33L126.546 28.0041L125.59 27.8195L126.248 26.6455H126.252Z" fill="#141313"/>
<path d="M131.368 41.0718C132.006 40.6281 134.364 44.4564 134.383 45.3124C134.442 47.633 131.704 46.4118 125.677 47.0911C122.825 47.4131 120.73 47.0165 120.73 47.0165L120.663 43.7222C120.663 43.7222 125.853 44.908 131.364 41.0718H131.368Z" fill="#141313"/>
<path d="M90.5081 34.5805C91.2758 35.0909 92.6192 34.5058 92.6349 32.9745C92.6506 31.4432 91.734 31.5217 92.2589 29.9864C92.7837 28.4512 93.5044 26.7902 92.349 26.7745C91.1935 26.7588 90.2378 28.2862 90.0655 29.3032C89.8932 30.3202 90.5081 34.5844 90.5081 34.5844V34.5805Z" fill="#FFA896"/>
<path d="M90.0655 29.2996C90.1438 28.8481 90.3749 28.2944 90.7118 27.8193C90.7431 28.4122 90.9115 28.9894 91.0251 29.5666C91.1426 30.1556 91.2679 30.7446 91.3854 31.3336C91.4442 31.6241 91.4912 31.9186 91.5499 32.2092C91.6048 32.4683 91.6909 32.7236 91.8006 32.9631C91.9142 33.2104 92.1844 33.8308 92.537 33.6267C92.2119 34.6593 91.1583 35.0049 90.512 34.5769C90.512 34.5769 89.8971 30.3127 90.0694 29.2957L90.0655 29.2996Z" fill="#F29788"/>
<path d="M89.2156 47.483L78.1508 48.6492C76.7721 48.7944 75.554 47.7225 75.4404 46.2618L74.9625 40.1522L74.5082 34.3134L73.1844 17.2998C73.0786 15.9373 74.0813 14.8104 75.4169 14.7829L86.1449 14.5591C87.4021 14.5316 88.5184 15.5722 88.6476 16.8836L91.3189 44.6991C91.456 46.1048 90.5199 47.3534 89.2234 47.4908L89.2156 47.483Z" fill="#141313"/>
<path d="M76.2433 14.5711L86.9713 14.3394C88.2285 14.3119 89.3487 15.3603 89.4741 16.6796L92.1649 44.6992C92.302 46.1128 91.3659 47.3732 90.0694 47.5106L79.0007 48.6886C77.622 48.8339 76.4 47.758 76.2864 46.2816L74.0108 17.1037C73.905 15.7294 74.9077 14.5946 76.2433 14.5671V14.5711Z" fill="#235DA3"/>
<path d="M76.3726 15.4861L86.9987 15.2309C87.8291 15.2112 88.5654 15.8984 88.6477 16.7701L91.3032 44.7112C91.3933 45.6418 90.7745 46.4703 89.9206 46.5566L78.9772 47.6953C78.0725 47.7896 77.2734 47.0828 77.1951 46.1169L74.9038 17.1549C74.8333 16.2518 75.4874 15.5057 76.3687 15.4861H76.3726Z" fill="#F4F4F2"/>
<path d="M79.8429 16.1255L83.599 16.0312C83.6656 16.0312 83.7244 16.0823 83.7283 16.153C83.7322 16.2197 83.6852 16.2786 83.6186 16.2786L79.8624 16.3729C79.7959 16.3729 79.7371 16.3218 79.7332 16.2511C79.7293 16.1844 79.7763 16.1255 79.8429 16.1255Z" fill="#141313"/>
<path d="M77.8179 33.575L88.636 32.8093C88.9571 32.7858 89.1921 32.4874 89.1608 32.1418L87.8918 18.721C87.8604 18.3872 87.5784 18.1242 87.2612 18.132L76.6037 18.454C76.2669 18.4658 76.0162 18.7524 76.0436 19.0979L77.1481 32.9703C77.1756 33.3276 77.4771 33.5986 77.8218 33.575H77.8179Z" fill="#D6E5ED"/>
<path d="M84.445 35.6642L78.3506 36.1668C78.1273 36.1864 77.9667 36.3867 77.9863 36.6105C78.0098 36.8382 78.2096 37.0071 78.4328 36.9835L84.5194 36.4299C84.7153 36.4102 84.8563 36.2257 84.8367 36.0136C84.8171 35.8016 84.6408 35.6446 84.445 35.6603V35.6642Z" fill="#EDECDF"/>
<path d="M81.5544 37.2506L79.365 37.4627C79.1456 37.4823 78.989 37.6826 79.0085 37.9064C79.032 38.1302 79.2279 38.2951 79.4433 38.2715L81.6289 38.0438C81.8364 38.0202 81.9853 37.8278 81.9657 37.608C81.9461 37.392 81.7581 37.231 81.5505 37.2506H81.5544Z" fill="#EDECDF"/>
<path d="M84.8719 36.9288L82.8313 37.1251C82.6276 37.1448 82.4827 37.3372 82.5023 37.5531C82.5218 37.7691 82.7059 37.9262 82.9096 37.9065L84.9463 37.6945C85.1382 37.6749 85.2792 37.4864 85.2596 37.2783C85.2401 37.0702 85.0677 36.9131 84.8719 36.9288Z" fill="#E5E3CC"/>
<path d="M88.1071 36.6183L86.2075 36.8029C86.0195 36.8225 85.8824 37.007 85.902 37.2152C85.9216 37.4233 86.09 37.5764 86.2819 37.5568L88.1776 37.3565C88.3578 37.3369 88.4871 37.1563 88.4675 36.956C88.4479 36.7518 88.2873 36.6026 88.1071 36.6183Z" fill="#EDECDF"/>
<path d="M88.679 35.3151L85.5612 35.5743C85.3693 35.59 85.2283 35.7745 85.2518 35.9865C85.2714 36.1986 85.4437 36.3556 85.6357 36.336L88.7495 36.0533C88.9257 36.0376 89.055 35.8609 89.0354 35.6567C89.0158 35.4525 88.8552 35.3033 88.679 35.3151Z" fill="#E5E3CC"/>
<path d="M88.4558 40.4629L79.5256 41.3503C79.181 41.3856 78.9225 41.6919 78.9499 42.0374L79.0595 43.3685C79.087 43.714 79.3925 43.9653 79.7371 43.9339L88.6673 43.0465C89.012 43.0112 89.2705 42.7049 89.2431 42.3594L89.1334 41.0283C89.106 40.6828 88.8005 40.4315 88.4558 40.4668V40.4629Z" fill="#FABD23"/>
<path opacity="0.5" d="M82.4671 30.6066L85.1462 33.0567L83.791 33.151L81.8639 31.3605L80.7947 33.3669L77.9198 33.5672L80.2698 29.3069L76.545 25.4039L76.404 23.6998L80.7672 28.2075L85.8825 18.1674L87.2573 18.1281C87.5745 18.1202 87.8565 18.3833 87.8879 18.721L87.9466 19.3335L84.2531 27.0609L88.5498 25.7298L88.6086 26.417L83.8536 27.9091L82.4593 30.6066H82.4671Z" fill="white"/>
<path opacity="0.5" d="M78.1821 23.8695L80.6849 26.1744L83.3953 21.6667L81.5544 19.8252L78.1821 23.8695Z" fill="white"/>
<path opacity="0.5" d="M84.2845 28.3102L83.5129 30.085L86.5797 33.0338L87.6529 31.1844L86.3564 30.2852L85.8825 30.9606L84.7075 30.2342L86.1058 27.8076L84.2845 28.3102Z" fill="white"/>
<path opacity="0.5" d="M78.9499 29.1624L77.1247 31.8796L77.0503 31.8128L76.7682 28.1965V28.1926L77.1638 27.584L78.9499 29.1624Z" fill="white"/>
<path d="M73.2157 29.4758C73.2157 29.4758 72.0759 29.7428 71.9271 28.5334C71.7783 27.328 74.2027 24.7129 75.2446 25.2273C76.2903 25.7378 75.7381 26.845 74.8451 27.383C73.9481 27.9209 73.7484 28.7573 73.7484 28.7573L73.2118 29.4758H73.2157Z" fill="#FFA896"/>
<path d="M72.6634 29.0439C72.9963 28.9693 73.2979 28.7455 73.5329 28.502C73.7679 28.2507 73.9559 27.9602 74.1635 27.6893C74.3633 27.4262 74.657 27.2573 74.9429 27.1042C75.1388 27.0021 75.3346 26.9 75.5187 26.7822C75.3464 27.0139 75.1114 27.222 74.845 27.383C73.9481 27.9209 73.7483 28.7573 73.7483 28.7573L73.2117 29.4758C73.2117 29.4758 72.4166 29.6604 72.0681 29.0203C72.2561 29.0753 72.4597 29.091 72.6595 29.0478L72.6634 29.0439Z" fill="#F29788"/>
<path d="M73.5095 32.0091C73.5095 32.0091 72.3697 32.2761 72.2208 31.0667C72.072 29.8574 74.4965 27.2462 75.5383 27.7606C76.5802 28.275 76.0318 29.3783 75.1388 29.9163C74.2419 30.4542 74.0421 31.2905 74.0421 31.2905L73.5055 32.0091H73.5095Z" fill="#FFA896"/>
<path d="M72.3383 30.3838C72.3422 30.4545 72.3501 30.5291 72.3657 30.5959C72.3971 30.7411 72.4558 30.8904 72.5655 30.9964C72.6869 31.1142 72.8475 31.1652 73.012 31.1691C73.247 31.177 73.4859 31.1259 73.6857 31.0003C73.9011 30.8668 74.046 30.6469 74.234 30.4741C74.4299 30.2935 74.6492 30.1482 74.8725 30.0069C75.084 29.8734 75.2798 29.7124 75.4521 29.5318C75.7733 29.1941 76.0318 28.7661 76.0749 28.2949C76.259 28.8368 75.7929 29.5239 75.1466 29.9126C74.2497 30.4506 74.0499 31.2869 74.0499 31.2869L73.5133 32.0055C73.5133 32.0055 72.3736 32.2725 72.2247 31.0631C72.2012 30.8668 72.2443 30.6312 72.3422 30.3799L72.3383 30.3838Z" fill="#F29788"/>
<path d="M73.999 34.384C73.999 34.384 72.8592 34.651 72.7104 33.4416C72.5616 32.2362 74.986 29.6211 76.0279 30.1355C77.0737 30.646 76.5214 31.7532 75.6284 32.2912C74.7315 32.8291 74.5317 33.6655 74.5317 33.6655L73.9951 34.384H73.999Z" fill="#FFA896"/>
<path d="M73.1804 34.0624C73.3605 34.0624 73.525 33.9721 73.6582 33.8504C73.8227 33.6973 73.8815 33.4852 73.9833 33.2928C74.0851 33.0926 74.2653 32.9512 74.4494 32.8295C74.6374 32.7078 74.8372 32.6136 75.0408 32.5193C75.2602 32.4172 75.4756 32.3151 75.6871 32.2013C75.8046 32.1345 75.9221 32.0678 76.0357 31.9932C75.9143 32.107 75.7772 32.2091 75.6323 32.2955C74.7353 32.8334 74.5356 33.6698 74.5356 33.6698L73.999 34.3883C73.999 34.3883 73.2665 34.5572 72.9023 34.0035C72.9924 34.0428 73.0864 34.0664 73.1804 34.0664V34.0624Z" fill="#F29788"/>
<path d="M74.7197 38.6174C74.7197 38.6174 72.9768 37.7457 72.8319 36.5364C72.683 35.3309 75.1075 32.7159 76.1494 33.2302C77.1951 33.7407 76.6429 34.848 75.7498 35.3859C74.8529 35.9238 74.6571 36.7602 74.6571 36.7602L74.7237 38.6174H74.7197Z" fill="#FFA896"/>
<path d="M73.7053 37.9181C73.7523 37.8278 73.7993 37.7414 73.8463 37.6511C73.8973 37.553 73.9678 37.4705 74.0343 37.388C74.1479 37.2506 74.2615 37.1132 74.332 36.9443C74.4103 36.7559 74.4064 36.5517 74.4417 36.3514C74.5161 35.9627 74.849 35.7036 75.1741 35.519C75.4992 35.3345 75.883 35.2167 76.1533 34.9497C76.353 34.7573 76.4745 34.4863 76.6703 34.2939C76.5528 34.7023 76.1886 35.1146 75.742 35.3855C74.8451 35.9235 74.6493 36.7598 74.6493 36.7598L74.7198 38.6249C74.7198 38.6249 74.2263 38.3815 73.7014 37.9181H73.7053Z" fill="#F29788"/>
<path d="M95.0672 8.97602C95.0672 4.02468 91.0721 0.0117796 86.137 0C81.2019 0.0117796 77.2068 4.02468 77.2068 8.97602C77.2068 8.97602 76.0436 13.8292 86.137 26.6454C96.2265 13.8292 95.0672 8.97602 95.0672 8.97602ZM86.137 13.6329C83.5911 13.6329 81.527 11.5636 81.527 9.01136C81.527 6.45912 83.5911 4.39377 86.137 4.39377C88.6829 4.39377 90.747 6.46305 90.747 9.01136C90.747 11.5597 88.6829 13.6329 86.137 13.6329Z" fill="#FF7918"/>
<path d="M91.5382 9.00744C91.5382 11.9994 89.1176 14.426 86.1331 14.426C83.1485 14.426 80.728 11.9994 80.728 9.00744C80.728 6.01544 83.1485 3.59277 86.1331 3.59277C89.1176 3.59277 91.5382 6.01936 91.5382 9.00744Z" fill="url(#paint2_linear_3197_1563)"/>
<path d="M90.747 9.00723C90.747 11.5595 88.6829 13.6287 86.137 13.6287C83.5911 13.6287 81.527 11.5595 81.527 9.00723C81.527 6.455 83.5911 4.38965 86.137 4.38965C88.6829 4.38965 90.747 6.45892 90.747 9.00723Z" fill="#E5E3CC"/>
<path d="M186.817 4.95096L172.219 4.84101C168.62 4.81353 165.678 7.71915 165.655 11.3276L165.545 26.2955C165.518 29.904 168.416 32.8528 172.016 32.8803L186.613 32.9902C190.213 33.0177 193.154 30.1121 193.182 26.5036L193.291 11.5357C193.319 7.92726 190.42 4.97844 186.821 4.95096H186.817Z" fill="#FF8200" fill-opacity="0.04"/>
<path d="M186.339 19.6083C185.834 19.6043 185.348 19.4434 184.976 19.1881C184.616 18.9447 184.165 19.0036 183.813 19.2588C183.535 19.4591 183.151 19.5847 182.712 19.5808C182.223 19.5808 181.764 19.4237 181.424 19.1803C181.071 18.929 180.625 18.9486 180.272 19.1999C179.963 19.4237 179.544 19.5572 179.07 19.5533C178.6 19.5533 178.181 19.408 177.875 19.1842C177.526 18.929 177.076 18.9054 176.724 19.1489C176.383 19.3845 175.928 19.5297 175.443 19.5258C174.996 19.5258 174.612 19.3962 174.338 19.1881C173.99 18.929 173.543 18.8583 173.179 19.0978C172.799 19.3452 172.313 19.5023 171.816 19.4983C171.749 19.4983 171.679 19.4983 171.624 19.4866L171.589 24.2259C171.585 24.7638 172.016 25.2036 172.552 25.2075L186.018 25.3096C186.555 25.3135 186.993 24.8816 186.997 24.3437L187.032 19.4905C186.84 19.569 186.602 19.6122 186.343 19.6122L186.339 19.6083Z" fill="#FF8200" fill-opacity="0.08"/>
<path d="M184.024 20.7471H180.35V25.3097H184.024V20.7471Z" fill="#FF8200" fill-opacity="0.08"/>
<path d="M186.151 18.8744C185.203 18.8665 184.326 18.2697 184.197 17.5708C184.326 18.2697 183.668 18.8626 182.72 18.8547C181.772 18.8469 180.973 18.2422 180.934 17.5511C180.973 18.2422 180.241 18.8351 179.297 18.8312C178.345 18.8233 177.624 18.2265 177.671 17.5237C177.616 18.2226 176.814 18.8076 175.866 18.8037C174.918 18.7958 174.268 18.199 174.409 17.4962C174.268 18.1951 173.382 18.7801 172.435 18.7762C171.487 18.7684 170.919 18.1715 171.146 17.4765L172.474 13.4361C172.634 12.9257 173.112 12.5802 173.649 12.588L175.388 12.5998L178.02 12.6194L180.66 12.6391L183.292 12.6508L185.031 12.6626C185.56 12.6705 186.03 13.0199 186.194 13.5304L187.463 17.5904C187.686 18.2893 187.099 18.8822 186.155 18.8705L186.151 18.8744Z" fill="#FF8200" fill-opacity="0.08"/>
<path d="M97.1431 14.5717L96.6574 14.1044C96.6574 14.1044 97.006 13.7432 97.664 13.1699L98.1027 13.6804C97.4721 14.2301 97.147 14.5678 97.1431 14.5717Z" fill="#3D72C1"/>
<path d="M100.171 12.0426L99.7751 11.4969C100.484 10.9825 101.232 10.472 102.008 9.98515L102.364 10.5545C101.604 11.0335 100.868 11.5322 100.171 12.0387V12.0426ZM158.538 9.75741C157.708 9.41188 156.885 9.08205 156.07 8.76793L156.313 8.13968C157.132 8.45773 157.962 8.78756 158.8 9.13702L158.542 9.75741H158.538ZM104.651 9.21948L104.33 8.62657C105.11 8.20251 105.917 7.79415 106.731 7.40935L107.017 8.01796C106.218 8.39491 105.419 8.79934 104.651 9.21555V9.21948ZM153.576 7.84127C152.726 7.53893 151.887 7.25622 151.057 6.98921L151.261 6.34919C152.099 6.62012 152.945 6.90283 153.799 7.2091L153.576 7.84127ZM109.446 6.96173L109.195 6.33741C110.021 6.00366 110.867 5.68954 111.717 5.4029L111.933 6.039C111.098 6.32171 110.26 6.6319 109.446 6.96173ZM148.515 6.21176C147.649 5.96047 146.796 5.73273 145.95 5.51677L146.114 4.86497C146.964 5.08093 147.826 5.31652 148.699 5.56781L148.515 6.21569V6.21176ZM114.463 5.25762L114.283 4.60974C115.137 4.37023 116.014 4.15034 116.887 3.95401L117.032 4.60974C116.167 4.80214 115.301 5.02203 114.463 5.25762ZM143.361 4.90816C142.487 4.71969 141.614 4.54299 140.756 4.38986L140.874 3.72628C141.739 3.88334 142.624 4.06003 143.502 4.25243L143.357 4.91209L143.361 4.90816ZM119.633 4.09537L119.519 3.43179C120.397 3.28258 121.29 3.14908 122.175 3.04306L122.253 3.71057C121.38 3.81659 120.495 3.94616 119.629 4.09537H119.633ZM138.132 3.96579C137.254 3.84015 136.369 3.7302 135.496 3.64382L135.562 2.97239C136.444 3.0627 137.341 3.17264 138.226 3.29829L138.132 3.96579ZM124.897 3.45927L124.85 2.78784C125.735 2.72501 126.636 2.6779 127.529 2.65434L127.545 3.32577C126.664 3.34933 125.771 3.39252 124.897 3.45535V3.45927ZM132.852 3.42394C131.963 3.36896 131.07 3.33363 130.2 3.31792L130.212 2.64648C131.093 2.66219 131.994 2.69753 132.891 2.7525L132.852 3.42394Z" fill="#3D72C1"/>
<path d="M162.216 11.3713C161.809 11.1828 161.401 10.9983 160.998 10.8176L161.272 10.2012C161.679 10.3818 162.087 10.5703 162.498 10.7587L162.216 11.3713Z" fill="#3D72C1"/>
</g>
<defs>
<linearGradient id="paint0_linear_3197_1563" x1="136.637" y1="27.1029" x2="249.398" y2="188.569" gradientUnits="userSpaceOnUse">
<stop stop-color="#FE573C"/>
<stop offset="1" stop-color="#FABD23"/>
</linearGradient>
<linearGradient id="paint1_linear_3197_1563" x1="111.678" y1="40.4005" x2="119.673" y2="15.459" gradientUnits="userSpaceOnUse">
<stop stop-color="#FE573C"/>
<stop offset="1" stop-color="#FABD23"/>
</linearGradient>
<linearGradient id="paint2_linear_3197_1563" x1="86.1206" y1="21.6808" x2="86.1206" y2="2.34128" gradientUnits="userSpaceOnUse">
<stop offset="0.11" stop-color="#FFA03E"/>
<stop offset="0.83" stop-color="#FFE5CA"/>
</linearGradient>
<clipPath id="clip0_3197_1563">
<rect width="226" height="224" fill="white"/>
</clipPath>
</defs>
</svg>
