<svg width="183" height="224" viewBox="0 0 183 224" fill="none" xmlns="http://www.w3.org/2000/svg">
<g clip-path="url(#clip0_3197_184)">
<path d="M7.40006 207.651C8.93789 202.187 47.9816 204.236 95.1754 204.108C142.369 204.237 181.413 202.187 182.951 207.651C184.577 212.894 145.554 224.086 95.1754 223.999C44.7973 224.086 5.77249 212.895 7.40006 207.651Z" fill="#FF8200" fill-opacity="0.08"/>
<path d="M74.7662 210.977C65.1453 210.977 57.3192 203.181 57.3192 193.597V17.3803C57.3192 7.79621 65.1463 0 74.7662 0H156.433C166.053 0 173.88 7.79621 173.88 17.3803V193.598C173.88 203.181 166.054 210.978 156.433 210.978H74.7662V210.977Z" fill="#235DA3"/>
<path d="M74.7661 5.55566H156.433C162.984 5.55566 168.303 10.8544 168.303 17.3803V193.598C168.303 200.124 162.984 205.423 156.433 205.423H74.7661C68.2152 205.423 62.8961 200.124 62.8961 193.598V17.3803C62.8961 10.8535 68.2152 5.55566 74.7661 5.55566Z" fill="#F4F4F2"/>
<path d="M132.953 197.377H98.2465C97.9074 197.377 97.6334 197.651 97.6334 197.988C97.6334 198.325 97.9074 198.598 98.2465 198.598H132.953C133.291 198.598 133.566 198.325 133.566 197.988C133.566 197.65 133.291 197.377 132.953 197.377Z" fill="#D6E5ED"/>
<path d="M133.162 12.3604H98.4562C98.1171 12.3604 97.8431 12.6342 97.8431 12.9711C97.8431 13.3079 98.1171 13.5818 98.4562 13.5818H133.162C133.5 13.5818 133.775 13.3089 133.775 12.9711C133.775 12.6332 133.5 12.3604 133.162 12.3604Z" fill="#D6E5ED"/>
<path d="M161.399 26.4243V136.013C161.399 138.059 159.651 139.716 157.487 139.716H74.4667C72.3092 139.716 70.5541 138.06 70.5541 136.013V26.4243C70.5541 24.3786 72.3082 22.7158 74.4667 22.7158H157.487C159.651 22.7158 161.399 24.3786 161.399 26.4243Z" fill="#D6E5ED"/>
<path d="M157.489 148.485H74.4686C72.3111 148.485 70.556 150.148 70.556 152.194V177.478C70.556 179.523 72.3045 181.186 74.4686 181.186H157.489C159.646 181.186 161.401 179.523 161.401 177.478V152.194C161.401 150.148 159.653 148.485 157.489 148.485Z" fill="#D6E5ED"/>
<path d="M161.4 92.9353L132.034 120.734L143.446 139.715H127.174L122.595 131.842L113.37 139.715H104.769L119.056 127.78L111.005 109.371L70.5553 107.532V94.3421L107.459 97.5086L82.9581 22.7158H99.9649L129.081 114.772L161.4 84.4945V92.9353Z" fill="#F4F4F2"/>
<path opacity="0.5" d="M129.147 103.471L149.299 86.784L144.041 77.2695L125.703 91.5097L129.147 103.471Z" fill="#F4F4F2"/>
<path d="M101.665 135.851L112.502 126.877L107.246 117.362L88.906 131.603L101.665 135.851Z" fill="#F4F4F2"/>
<path d="M161.399 63.8994V78.4106C157.573 81.0962 153.061 84.1536 153.061 84.1536L147.493 74.1178L161.399 63.8994Z" fill="#F4F4F2"/>
<path opacity="0.5" d="M75.4613 81.2627L81.0279 91.2984C81.0279 91.2984 99.94 90.8863 100.146 90.3179C100.352 89.7496 90.901 69.917 90.901 69.917L75.4603 81.2617L75.4613 81.2627Z" fill="#F4F4F2"/>
<path opacity="0.5" d="M122.125 80.6084L139.114 68.2944L130.796 44.7722L123.373 47.6121L116.983 32.4639L107.499 37.0089L122.125 80.6084Z" fill="#F4F4F2"/>
<path d="M81.334 166.821H106.432C107.719 166.821 108.763 167.862 108.763 169.143C108.763 170.424 107.718 171.464 106.432 171.464H81.334C80.0475 171.464 79.0037 170.424 79.0037 169.143C79.0037 167.861 80.0484 166.82 81.334 166.82V166.821Z" fill="#F4F4F2"/>
<path d="M118.915 158.209H81.334C80.047 158.209 79.0037 159.248 79.0037 160.53V160.531C79.0037 161.813 80.047 162.853 81.334 162.853H118.915C120.202 162.853 121.245 161.813 121.245 160.531V160.53C121.245 159.248 120.202 158.209 118.915 158.209Z" fill="#F4F4F2"/>
<path opacity="0.5" d="M133.972 166.821H114.732C113.445 166.821 112.401 167.861 112.401 169.143V169.144C112.401 170.426 113.445 171.465 114.732 171.465H133.972C135.259 171.465 136.302 170.426 136.302 169.144V169.143C136.302 167.861 135.259 166.821 133.972 166.821Z" fill="#F4F4F2"/>
<path d="M141.995 173.763C141.278 173.458 140.945 172.631 141.252 171.917L143.445 166.804C143.751 166.089 144.582 165.757 145.299 166.063C146.016 166.368 146.349 167.195 146.042 167.909L143.849 173.023C143.543 173.737 142.712 174.069 141.995 173.763Z" fill="#F4F4F2"/>
<path d="M149.562 156.244C146.726 155.037 143.446 156.347 142.234 159.173C141.022 161.998 142.338 165.265 145.175 166.473C148.012 167.68 151.29 166.369 152.502 163.543C153.714 160.718 152.398 157.451 149.562 156.244ZM145.65 165.363C143.428 164.418 142.397 161.859 143.346 159.646C144.295 157.432 146.866 156.405 149.088 157.351C151.309 158.296 152.339 160.856 151.39 163.069C150.44 165.282 147.873 166.308 145.651 165.363H145.65Z" fill="#F4F4F2"/>
<path d="M79.1586 28.4757C79.1586 31.8426 76.4183 34.5724 73.0385 34.5724C69.6587 34.5724 66.9183 31.8426 66.9183 28.4757C66.9183 25.1088 69.6587 22.3789 73.0385 22.3789C76.4183 22.3789 79.1586 25.1088 79.1586 28.4757Z" fill="#FDD248"/>
<path d="M71.9144 26.6535C71.7179 27.4026 70.9499 28.0001 70.6231 28.2241C70.5967 28.2438 70.5721 28.2598 70.5504 28.2739C70.5286 28.2598 70.5041 28.2438 70.4776 28.2241C70.1508 28.0001 69.3847 27.4026 69.1863 26.6535C68.936 25.6975 69.9949 25.4876 70.5523 25.9186C71.1096 25.4895 72.1666 25.6994 71.9144 26.6535Z" fill="#E2A824"/>
<path d="M76.8887 26.6535C76.6923 27.4026 75.9243 28.0001 75.5975 28.2241C75.571 28.2438 75.5465 28.2598 75.5247 28.2739C75.503 28.2598 75.4784 28.2438 75.452 28.2241C75.1252 28.0001 74.3591 27.4026 74.1607 26.6535C73.9104 25.6975 74.9693 25.4876 75.5266 25.9186C76.083 25.4895 77.141 25.6994 76.8887 26.6535Z" fill="#E2A824"/>
<path d="M70.3879 29.8867C70.6118 31.2474 71.7935 32.2872 73.2227 32.2872C74.6519 32.2872 75.8346 31.2474 76.0575 29.8867H70.3879Z" fill="#E2A824"/>
<path d="M55.1097 201.168C52.9399 201.168 50.9921 201.071 50.8684 202.126C50.7446 203.182 50.7446 210.527 51.4106 210.821C52.0765 211.116 66.3525 210.821 67.7581 210.821C69.1636 210.821 68.6214 205.786 64.2809 205.688L58.9306 201.39L55.1087 201.168H55.1097Z" fill="#1C8EF4"/>
<path opacity="0.5" d="M51.4134 210.818C52.0784 211.115 66.3515 210.818 67.7581 210.818C68.527 210.818 68.714 209.315 68.0141 207.934C65.5004 207.01 60.8596 208.92 60.8596 208.92C60.8596 208.92 53.8505 208.962 52.8048 208.265C52.0643 207.774 51.8489 203.718 51.7799 201.338C51.2538 201.469 50.9147 201.703 50.8655 202.125C50.7409 203.18 50.7409 210.528 51.4125 210.818L51.4134 210.818Z" fill="#3D72C1"/>
<path d="M51.0356 209.544C51.0356 209.534 57.3352 209.833 60.8577 209.814C61.2506 209.812 61.5699 208.807 65.0961 208.758C67.537 208.689 68.3636 209.458 68.4495 209.544C68.6101 209.703 68.918 211.217 68.2275 211.339C67.537 211.46 51.6788 211.609 51.4115 211.339C50.8816 210.804 51.0356 209.544 51.0356 209.544Z" fill="#141313"/>
<path d="M52.0142 193.533C52.0142 193.975 52.3674 200.643 52.478 202.449C53.2063 203.334 57.7432 203.621 58.1409 202.663C58.1409 201.167 58.771 193.533 58.771 193.533H52.0142Z" fill="#FFA896"/>
<path d="M53.6304 203.477C53.2969 202.946 53.0135 199.891 54.37 198.982C55.7265 198.073 57.8424 198.17 58.3402 198.982C58.838 199.793 59.4246 202.746 59.4992 203.357C59.5729 203.968 54.5429 204.926 53.6304 203.477Z" fill="#1C8EF4"/>
<path d="M57.4523 207.923C57.6251 207.431 60.8803 205.294 64.2818 205.688C64.2818 205.688 62.7572 204.239 59.4993 205.411C57.0943 206.277 57.4513 207.923 57.4513 207.923H57.4523Z" fill="#141313"/>
<path d="M58.2656 204.952C58.8824 204.606 61.9892 204.409 61.2987 203.992C60.6082 203.574 58.2911 204.065 58.1173 204.606C57.9444 205.146 58.2656 204.952 58.2656 204.952Z" fill="#141313"/>
<path d="M57.3039 203.899C57.9198 203.552 61.0266 203.356 60.3361 202.939C59.6465 202.521 57.3285 203.012 57.1556 203.553C56.9827 204.093 57.3039 203.9 57.3039 203.9V203.899Z" fill="#141313"/>
<path d="M56.3424 202.845C56.9592 202.499 60.066 202.302 59.3755 201.884C58.685 201.466 56.3679 201.958 56.195 202.499C56.0221 203.04 56.3424 202.845 56.3424 202.845Z" fill="#141313"/>
<path d="M45.3301 97.9116C45.3301 97.9116 47.821 191.774 49.3277 195.151C50.8343 198.528 59.4247 196.277 60.3664 195.151C61.0503 194.333 65.7366 126.17 66.4516 95.3126C50.8324 94.6755 45.3301 97.9107 45.3301 97.9107V97.9116Z" fill="#141313"/>
<path opacity="0.5" d="M45.333 97.9138C45.333 97.9138 47.8192 191.776 49.3287 195.149C49.7028 195.998 50.5265 196.488 51.5656 196.736C50.0901 181.979 50.6587 117.955 50.6587 117.955C50.6587 117.955 51.559 113.457 56.1441 110.821C58.6993 109.352 62.7857 110.049 65.902 111.029C66.1513 105.199 66.345 99.8522 66.4489 95.3119C50.8316 94.6777 45.333 97.9128 45.333 97.9128V97.9138Z" fill="#141313"/>
<path d="M61.4716 146.961C61.3318 146.738 59.9555 147.344 58.3988 148.316C56.8421 149.287 55.6934 150.256 55.8342 150.479C55.9749 150.702 57.3503 150.095 58.907 149.124C60.4637 148.153 61.6124 147.184 61.4726 146.961H61.4716Z" fill="#141313"/>
<path d="M64.6927 146.406C64.6294 146.387 64.5283 146.475 64.4037 146.64C64.3413 146.723 64.2733 146.826 64.2006 146.945C64.1042 147.074 64.0088 147.201 63.9134 147.327C63.4959 147.888 62.8441 148.587 61.9883 149.237C60.2606 150.525 58.5697 151.211 58.6528 151.467C58.7086 151.715 60.6469 151.419 62.5683 149.996C63.5148 149.281 64.193 148.386 64.501 147.662C64.5746 147.48 64.6389 147.314 64.687 147.167C64.7192 147.013 64.7418 146.879 64.7532 146.77C64.7758 146.551 64.7569 146.425 64.6937 146.406H64.6927Z" fill="#141313"/>
<path d="M38.9199 201.168C41.0897 201.168 43.0375 201.071 43.1613 202.126C43.285 203.182 43.285 210.527 42.6191 210.821C41.9531 211.116 27.6772 210.821 26.2716 210.821C24.866 210.821 25.4082 205.786 29.7487 205.688L35.099 201.39L38.9209 201.168H38.9199Z" fill="#1C8EF4"/>
<path opacity="0.5" d="M26.2744 210.818C27.68 210.818 41.954 211.115 42.619 210.818C43.284 210.529 43.284 203.181 43.1593 202.126C43.1244 201.78 42.8826 201.56 42.5085 201.415C42.3073 203.691 41.8917 208.045 41.664 208.501C41.3523 209.122 33.5961 209.004 33.5961 209.004C29.5172 207.501 26.9063 208.184 25.7152 208.721C25.41 209.831 25.6528 210.818 26.2763 210.818H26.2744Z" fill="#3D72C1"/>
<path d="M42.994 209.544C42.994 209.534 36.6944 209.833 33.1719 209.814C32.779 209.812 32.4597 208.807 28.9334 208.758C26.4926 208.689 25.666 209.458 25.5801 209.544C25.4195 209.703 25.1115 211.217 25.802 211.339C26.4926 211.46 42.3498 211.609 42.6181 211.339C43.148 210.804 42.994 209.544 42.994 209.544Z" fill="#141313"/>
<path d="M42.0163 193.533C42.0163 193.975 41.6631 200.643 41.5525 202.449C40.8233 203.334 36.2873 203.621 35.8896 202.663C35.8896 201.167 35.2595 193.533 35.2595 193.533H42.0163Z" fill="#FFA896"/>
<path d="M40.4001 203.477C40.7335 202.946 41.0169 199.891 39.6604 198.982C38.304 198.073 36.188 198.17 35.6902 198.982C35.1924 199.793 34.6058 202.746 34.5312 203.357C34.4575 203.968 39.4876 204.926 40.4001 203.477Z" fill="#1C8EF4"/>
<path d="M36.5782 207.923C36.4054 207.431 33.1502 205.294 29.7487 205.688C29.7487 205.688 31.2733 204.239 34.5312 205.411C36.9362 206.277 36.5792 207.923 36.5792 207.923H36.5782Z" fill="#141313"/>
<path d="M35.7639 204.952C35.1471 204.606 32.0402 204.409 32.7308 203.992C33.4213 203.574 35.7384 204.065 35.9122 204.606C36.0851 205.146 35.7639 204.952 35.7639 204.952Z" fill="#141313"/>
<path d="M36.7255 203.899C36.1087 203.552 33.0028 203.356 33.6933 202.939C34.3829 202.521 36.701 203.012 36.8738 203.553C37.0467 204.093 36.7255 203.9 36.7255 203.9V203.899Z" fill="#141313"/>
<path d="M37.6871 202.845C37.0703 202.499 33.9635 202.302 34.654 201.884C35.3445 201.466 37.6616 201.958 37.8345 202.499C38.0074 203.04 37.6871 202.845 37.6871 202.845Z" fill="#141313"/>
<path d="M26.1726 96.0892C26.1726 96.0892 31.8837 191.845 33.3913 195.222C34.898 198.6 43.6829 196.807 44.6247 195.68C45.3086 194.863 45.0365 143.031 47.9885 114.263C52.7172 102.879 57.5961 94.5215 57.5961 94.5215L26.1736 96.0892H26.1726Z" fill="#141313"/>
<path opacity="0.5" d="M26.1704 96.0854C26.1704 96.0854 26.4963 101.591 27.0225 110.007C28.719 108.483 32.6533 105.475 35.9632 106.744C40.3198 108.421 42.8268 117.955 43.0138 122.619C43.1801 126.69 41.3031 182.986 40.8327 196.957C42.6955 196.661 44.2607 196.122 44.6282 195.681C45.3064 194.861 45.0372 143.034 47.9872 114.265C52.7169 102.881 57.5996 94.5195 57.5996 94.5195L26.1714 96.0854H26.1704Z" fill="#141313"/>
<path d="M30.4089 146.977C30.4759 146.723 31.9703 146.897 33.7471 147.363C35.523 147.831 36.9078 148.416 36.8407 148.67C36.7737 148.924 35.2783 148.752 33.5034 148.285C31.7275 147.817 30.3427 147.232 30.4098 146.977H30.4089Z" fill="#141313"/>
<path d="M28.4857 148.267C28.5405 148.231 28.6633 148.284 28.8314 148.406C28.9155 148.467 29.0118 148.544 29.1157 148.637C29.2461 148.731 29.3755 148.825 29.504 148.917C30.0688 149.33 30.9011 149.805 31.9108 150.173C33.9446 150.892 35.763 151.046 35.7611 151.315C35.7819 151.568 33.8426 151.859 31.584 151.069C30.4665 150.665 29.5521 150.012 29.043 149.412C28.9174 149.259 28.8078 149.12 28.718 148.994C28.6415 148.856 28.5801 148.736 28.5367 148.633C28.4498 148.43 28.4309 148.305 28.4847 148.268L28.4857 148.267Z" fill="#141313"/>
<path d="M49.2265 106.747C49.2615 106.738 49.3427 106.93 49.4674 107.306C49.6034 107.68 49.7413 108.249 49.8471 108.998C50.9807 114.491 47.2371 116.46 47.2371 116.46C47.2353 118.612 46.3823 136.579 46.2387 141.118C46.1669 143.386 45.2761 117.027 45.3309 114.737C45.4669 114.685 47.0312 113.914 47.1587 113.854C47.2683 113.802 47.2995 113.785 47.3722 113.743C47.5007 113.677 47.6159 113.588 47.735 113.51C47.9607 113.334 48.1685 113.145 48.3452 112.937C48.7089 112.526 48.9488 112.052 49.1141 111.587C49.4372 110.649 49.474 109.753 49.4475 109.031C49.405 108.308 49.3342 107.738 49.2643 107.354C49.2067 106.969 49.1925 106.758 49.2265 106.748V106.747Z" fill="#141313"/>
<path d="M28.0597 97.9247C29.5559 86.3824 38.2426 46.3879 38.2426 46.3879C38.2426 46.3879 50.3998 45.6426 52.9068 46.051C55.9163 46.5422 60.3796 80.8154 62.2027 98.9758C60.5506 103.766 26.8808 107.014 28.0597 97.9238V97.9247Z" fill="#9DA7BC"/>
<path d="M62.2008 98.9782C60.9945 80.8196 55.9144 46.5408 52.9077 46.0505C50.3978 45.6431 38.2407 46.3883 38.2407 46.3883C38.2407 46.3883 29.5559 86.3838 28.0568 97.9242C26.8817 107.013 60.5496 103.766 62.2008 98.9782ZM38.815 85.7354C41.2502 83.5702 48.5133 79.4166 45.2119 79.3968C42.1825 79.379 43.0091 56.1578 43.1734 52.1802C43.249 53.2784 44.1266 55.2112 50.3468 51.1705C51.4756 50.4347 49.2199 87.1272 48.4255 89.9822C47.6292 92.8409 42.4348 91.3175 43.5749 92.7337C44.715 94.1508 48.6758 93.1722 47.9494 94.7521C47.2211 96.3302 43.0062 99.4035 40.0553 97.6909C37.0977 95.9735 36.3722 87.9129 38.815 85.7354Z" fill="#9499A5"/>
<path d="M93.6017 100.274C93.6017 100.274 65.8782 85.0199 65.9859 80.4532C66.0936 75.8856 66.5876 75.5422 70.0742 73.2056C70.6277 72.834 72.0163 72.626 74.0255 72.6006L85.0624 83.6414L96.7293 94.1919L93.6007 100.275L93.6017 100.274Z" fill="#FFA896"/>
<path d="M70.6911 62.3223C72.3083 67.0235 76.0566 73.6519 77.1778 75.7541L73.3625 82.3412L65.9841 80.4535L61.1949 66.2274L70.6902 62.3223H70.6911Z" fill="#FFA896"/>
<path d="M76.5628 76.1167C77.2099 76.351 73.7073 78.7204 73.8225 78.4457C73.9377 78.1709 75.9772 76.6869 75.7023 76.733C75.4274 76.7791 71.5299 79.0168 71.461 77.898C71.392 76.7791 76.0584 75.9341 76.5628 76.1167Z" fill="#F9A08F"/>
<path d="M74.3723 70.5081C73.2473 72.1709 70.5825 74.4848 64.3717 75.6479L61.1987 66.2275L70.6921 62.3242C71.5536 64.8273 73.0215 67.8837 74.3723 70.5091V70.5081Z" fill="#F9A08F"/>
<path d="M55.6878 46.3828C55.6878 46.3828 60.6952 47.2401 62.7289 48.054C65.4806 51.2629 71.0519 63.079 75.2073 67.7088C70.3557 74.3005 60.0226 72.3215 60.0226 72.3215L56.9224 64.4407C56.9224 64.4407 54.5826 48.3589 55.6878 46.3828Z" fill="#FF7918"/>
<path d="M34.1903 66.2274L29.4011 80.4535L16.2625 83.1946C17.412 78.2826 20.2629 70.6567 24.695 62.3223L34.1903 66.2274Z" fill="#FFA896"/>
<path d="M34.1875 66.2265L31.279 74.8715C24.457 75.0578 21.5211 72.6912 20.3848 71.2844C21.5901 68.4698 23.0306 65.4473 24.6922 62.3223L34.1875 66.2274V66.2265Z" fill="#F9A08F"/>
<path d="M39.6992 46.3828C39.6992 46.3828 34.6918 47.2401 32.658 48.054C29.9064 51.2629 24.3341 63.079 20.1797 67.7088C25.0312 74.3005 35.3644 72.3215 35.3644 72.3215L38.4646 64.4407C38.4646 64.4407 40.8044 48.3589 39.6992 46.3828Z" fill="#FF7918"/>
<path d="M52.5123 45.8949C52.5123 45.8949 48.937 104.064 49.3063 104.648C49.6738 105.23 69.624 102.865 70.2465 101.61C70.8737 100.345 58.3916 50.8342 57.003 47.4598C56.305 45.7641 52.5123 45.8949 52.5123 45.8949Z" fill="#FF7918"/>
<path opacity="0.1" d="M49.306 104.649C49.6744 105.229 69.6218 102.866 70.2472 101.611C70.711 100.67 64.4435 75.1206 60.1851 58.8704L62.2435 76.0277C62.2435 76.0277 61.0003 83.7176 60.6301 86.6751C60.2654 89.5753 69.5652 93.0382 65.6847 97.5625C61.8939 101.985 53.8421 100.809 54.6091 100.396C55.3771 99.9819 61.5737 97.3254 58.0522 97.6284C54.5184 97.9324 52.7142 98.2457 52.3392 94.4695C52.0756 91.8243 51.9358 70.8663 51.8688 56.5264C50.8099 74.0394 49.0302 104.213 49.3051 104.65L49.306 104.649Z" fill="#141313"/>
<path d="M59.7751 58.71C59.7751 58.71 65.2907 81.1096 65.6261 80.6824C65.9624 80.2552 61.7768 59.8269 59.7751 58.71Z" fill="#141313"/>
<path d="M40.5655 45.8953C40.5655 45.8953 44.1409 104.064 43.7715 104.649C43.4041 105.23 23.4538 102.865 22.8313 101.61C22.2041 100.345 34.6777 50.4789 36.0663 47.1045C38.0462 45.7974 40.5655 45.8962 40.5655 45.8962V45.8953Z" fill="#FF7918"/>
<path opacity="0.1" d="M43.7705 104.649C43.4021 105.229 23.4547 102.866 22.8294 101.611C22.3656 100.67 28.6331 75.1206 32.8914 58.8704L30.8331 76.0277C30.8331 76.0277 32.0762 83.7176 32.4465 86.6751C32.8111 89.5753 23.5114 93.0382 27.3919 97.5625C31.1826 101.985 39.2345 100.809 38.4675 100.396C37.6995 99.9819 31.5028 97.3254 35.0244 97.6284C38.5582 97.9324 40.3624 98.2457 40.7374 94.4695C41.0009 91.8243 41.1407 70.8663 41.2078 56.5264C42.2667 74.0394 44.0464 104.213 43.7715 104.65L43.7705 104.649Z" fill="#141313"/>
<path d="M33.3013 58.71C33.3013 58.71 27.7857 81.1096 27.4504 80.6824C27.1141 80.2552 31.2997 59.8269 33.3013 58.71Z" fill="#141313"/>
<path d="M37.0647 29.0651C37.2149 28.0441 37.708 27.1586 38.407 26.5027C38.4174 26.3804 38.424 26.2581 38.442 26.1348C38.9086 22.9636 41.8672 20.7701 45.0496 21.235C46.3522 21.4251 47.4867 22.0358 48.3444 22.9034C48.8601 22.7876 49.4042 22.7575 49.9587 22.8385C52.3571 23.1885 54.0187 25.3952 53.6975 27.7815C55.2627 28.6444 56.2102 30.4051 55.9353 32.272C55.752 33.517 55.0606 34.5596 54.1037 35.2315C54.1037 35.5655 54.0867 35.9024 54.0366 36.2421C53.4698 40.0936 49.8765 42.7585 46.0102 42.1939C43.8867 41.8843 42.1269 40.661 41.0623 38.987C39.1183 38.2954 37.8686 36.3146 38.1794 34.202C38.2408 33.7823 38.3636 33.3871 38.5308 33.0201C37.4388 32.0678 36.8371 30.6027 37.0638 29.067L37.0647 29.0651Z" fill="#141313"/>
<path d="M44.2798 40.542L43.1982 47.5092C43.1982 47.5092 46.5648 48.7485 47.4632 48.4775C48.3615 48.2065 50.416 46.6754 50.6701 46.4505C50.3896 44.7483 49.6528 40.6634 49.6528 40.6634L44.2798 40.5429V40.542Z" fill="#FFA896"/>
<path d="M43.799 43.6248C44.4366 44.0821 45.555 44.6674 46.9322 44.53C48.4483 44.3776 49.392 42.7205 49.836 41.6882C49.7236 41.0784 49.6527 40.6663 49.6527 40.6663L44.2788 40.5439L43.799 43.6248Z" fill="#F29788"/>
<path d="M51.2614 32.7751C51.2614 32.7751 52.1125 31.8417 53.468 32.2952C54.9491 32.7911 53.4878 36.557 52.5687 36.6483C51.6808 36.7358 51.4635 36.2634 51.4144 35.5737C51.3294 34.3927 51.2614 32.7761 51.2614 32.7761V32.7751Z" fill="#FFA896"/>
<path d="M52.7868 33.0439C52.3844 33.3733 51.6646 34.4696 52.1908 35.2628C52.1908 35.2628 52.1672 34.717 52.4468 34.3755L53.1666 34.016L52.4336 33.9906L52.7868 33.0449V33.0439Z" fill="#141313"/>
<path d="M41.9862 32.7751C41.9862 32.7751 41.1351 31.8417 39.7796 32.2952C38.2985 32.7911 39.7598 36.557 40.6789 36.6483C41.5668 36.7358 41.7841 36.2634 41.8332 35.5737C41.9182 34.3927 41.9862 32.7761 41.9862 32.7761V32.7751Z" fill="#FFA896"/>
<path d="M40.4597 33.0439C40.8621 33.3733 41.5819 34.4696 41.0557 35.2628C41.0557 35.2628 41.0794 34.717 40.7998 34.3755L40.08 34.016L40.813 33.9906L40.4597 33.0449V33.0439Z" fill="#141313"/>
<path d="M41.2362 30.8201C41.2362 30.8201 41.325 37.4401 41.3108 37.9915C41.2362 40.8051 44.1494 43.2075 45.9262 43.4926C47.9241 43.8135 51.5164 41.2267 51.7479 37.888C51.8178 36.8388 52.1304 32.7972 52.1153 30.8145C49.5469 31.539 47.7172 31.1579 47.2354 29.8848C44.9202 31.9314 41.2362 30.8201 41.2362 30.8201Z" fill="#FFA896"/>
<path d="M46.612 35.2666C46.5223 35.357 45.8072 36.968 46.1227 37.3114C46.4382 37.6549 47.3724 37.4526 47.2506 37.3397C47.1287 37.2267 46.3201 37.1025 46.3164 36.9849C46.3126 36.8673 46.8189 35.0587 46.612 35.2666Z" fill="#141313"/>
<path d="M44.4243 39.1169C44.4243 39.1169 46.5053 39.0718 48.8819 39.2995C48.8819 39.2995 48.8678 39.6232 48.8347 39.7465C47.653 41.5297 45.1677 42.4537 44.4243 39.1169Z" fill="#141313"/>
<path d="M44.4243 39.117C44.4243 39.117 44.5036 39.754 44.6104 39.7983C44.7171 39.8425 47.8938 40.0486 48.8337 39.7474L48.881 39.3005C48.881 39.3005 46.937 38.9043 44.4233 39.1179L44.4243 39.117Z" fill="#F4F4F2"/>
<path d="M45.2111 40.764C45.2111 40.764 45.8657 40.2154 46.5779 40.2926C47.2892 40.3698 47.8191 40.7292 47.8191 40.7292C47.8191 40.7292 46.4221 41.9337 45.2111 40.764Z" fill="#FE573C"/>
<path d="M49.7358 34.3626C49.7717 34.7352 49.5412 35.0618 49.2228 35.0919C48.9036 35.122 48.6164 34.8444 48.5814 34.4717C48.5455 34.0991 48.776 33.7726 49.0944 33.7425C49.4136 33.7124 49.7008 33.99 49.7358 34.3626Z" fill="#141313"/>
<path d="M47.9041 32.4375C47.6661 32.6041 47.907 32.9504 48.8733 32.7189C49.8396 32.4874 50.8098 32.8722 50.9921 32.4196C51.1744 31.967 49.8519 31.0721 47.9041 32.4375Z" fill="#141313"/>
<path d="M42.9005 34.3626C42.8646 34.7352 43.0951 35.0618 43.4135 35.0919C43.7327 35.122 44.0199 34.8444 44.0549 34.4717C44.0907 34.0991 43.8603 33.7726 43.5419 33.7425C43.2226 33.7124 42.9355 33.99 42.9005 34.3626Z" fill="#141313"/>
<path d="M44.9881 32.5322C45.2262 32.6988 44.9853 33.0451 44.019 32.8136C43.0526 32.5821 42.0825 32.967 41.9002 32.5144C41.7179 32.0617 43.0403 31.1668 44.9881 32.5322Z" fill="#141313"/>
<path d="M52.1342 46.5867L50.6918 44.0996C50.6918 44.0996 48.4303 45.9383 47.1957 46.135C45.9611 46.3317 43.3323 44.3499 43.3323 44.3499L41.8955 46.4672C41.8955 46.4672 42.6984 48.9787 46.3135 49.3862C49.9294 49.7936 52.1342 46.5867 52.1342 46.5867Z" fill="#656A75"/>
<path d="M105.352 95.4822C105.472 95.9734 105.167 96.3122 104.573 96.4167C103.309 96.6387 102.03 96.7319 100.717 96.8956C102.712 98.437 104.828 100.137 106.824 101.679C106.68 101.972 106.342 102.074 106.072 102.057C105.803 102.04 105.548 101.934 105.302 101.825C104.334 101.396 103.394 100.907 102.49 100.361C103.737 101.611 104.663 102.479 105.787 103.701C105.63 103.902 105.285 104.058 105.034 104.008C104.783 103.958 104.382 103.706 104.165 103.568C103.184 102.947 102.381 102.439 101.399 101.818C102.206 102.743 102.951 103.795 103.757 104.72C103.675 104.9 103.347 105.029 103.15 105.012C102.952 104.995 102.765 104.908 102.6 104.8C101.76 104.248 100.737 103.413 100.085 102.945C100.563 103.619 100.99 104.367 101.468 105.041C100.897 105.571 100.391 104.706 99.8654 104.357C97.689 102.909 95.3983 101.399 93.221 99.9511C93.221 99.9511 91.5811 98.8539 90.4146 97.9232C90.4665 97.8573 93.8747 93.0601 94.1326 92.6348C94.722 93.0507 95.9821 93.9032 95.9821 93.9032C99.3081 93.0968 100.51 94.4547 105.352 95.4813V95.4822Z" fill="#FFA896"/>
<path d="M101.946 99.891C101.906 99.939 102.098 100.163 102.375 100.392C102.653 100.619 102.91 100.765 102.95 100.717C102.989 100.669 102.798 100.445 102.52 100.217C102.242 99.9888 101.985 99.843 101.946 99.891Z" fill="#F29788"/>
<path d="M100.682 101.246C100.642 101.294 100.834 101.518 101.111 101.747C101.389 101.975 101.646 102.121 101.686 102.073C101.725 102.025 101.534 101.801 101.256 101.572C100.978 101.344 100.721 101.198 100.682 101.246Z" fill="#F29788"/>
<path d="M99.394 102.415C99.3543 102.463 99.5461 102.687 99.8238 102.916C100.102 103.144 100.358 103.29 100.398 103.242C100.438 103.194 100.246 102.97 99.9683 102.741C99.6906 102.513 99.4337 102.367 99.394 102.415Z" fill="#F29788"/>
<path d="M98.5666 101.716C98.6157 101.755 99.1381 101.185 99.7323 100.445C100.327 99.7031 100.769 99.0708 100.72 99.0312C100.671 98.9917 100.149 99.562 99.5547 100.303C98.9596 101.044 98.5175 101.676 98.5666 101.716Z" fill="#F29788"/>
<path d="M97.0949 97.2654C97.0855 97.2777 97.1242 97.3228 97.2064 97.3962C97.2904 97.4659 97.4038 97.5816 97.5823 97.6701C97.9139 97.878 98.4778 98.0568 99.0909 97.9627C99.7049 97.878 100.187 97.5731 100.494 97.3369C100.8 97.0895 100.944 96.8909 100.922 96.8702C100.899 96.8486 100.717 97.0019 100.4 97.2061C100.082 97.4009 99.618 97.6625 99.0588 97.7378C98.5014 97.8225 97.9913 97.6889 97.656 97.527C97.4794 97.4621 97.3556 97.3699 97.2583 97.3238C97.1629 97.2739 97.1053 97.2522 97.0949 97.2645V97.2654Z" fill="#F29788"/>
<path d="M95.7648 94.2765C95.7563 94.2634 95.6902 94.2925 95.5778 94.3575C95.4654 94.4224 95.3029 94.5184 95.1225 94.6652C94.7532 94.9465 94.2894 95.4029 93.8879 95.9901C93.0708 97.1654 92.8479 98.3285 92.9121 98.3341C92.9716 98.3539 93.2843 97.2548 94.0759 96.119C94.8476 94.9663 95.8111 94.3386 95.7648 94.2765Z" fill="#F29788"/>
<path d="M22.0513 55.6162C22.0513 55.6162 14.6549 81.1466 16.5687 84.8108C17.3225 86.2534 19.1749 89.8489 21.3286 89.449C24.6433 88.8327 27.156 84.3093 27.4356 82.4423C28.401 75.988 28.9347 56.7671 28.9347 56.7671L22.0513 55.6171V55.6162Z" fill="#FFA896"/>
<path d="M16.6932 78.187C16.2067 81.3413 16.0631 83.8415 16.5685 84.8126C17.3214 86.2552 19.1747 89.8507 21.3275 89.447C24.6412 88.8326 27.1538 84.3101 27.4363 82.4432C27.6923 80.7305 27.9209 78.1164 28.1117 75.2021C27.0235 78.251 25.293 82.2305 23.3329 83.5554C20.9732 85.1504 18.1394 80.835 16.6923 78.187H16.6932Z" fill="#F9A08F"/>
<path d="M28.7823 59.2725C28.7823 59.2725 27.0366 79.9068 27.7659 79.6094C28.4961 79.312 29.2754 62.2319 28.7823 59.2725Z" fill="#F29788"/>
<path d="M29.6231 40.6015L38.1577 40.3784C38.8029 40.3615 39.296 40.7727 39.3394 41.3674L40.6562 59.3726C40.7195 60.2402 39.9279 61.0447 39.0192 61.0363L31.3338 60.9638C30.7076 60.9582 30.223 60.5347 30.1531 59.9343L28.0863 42.2444C27.9927 41.4418 28.7579 40.6259 29.625 40.6033L29.6231 40.6015Z" fill="#E5E3CC"/>
<path d="M29.2358 41.0949L37.7619 40.8823C38.4062 40.8663 38.8983 41.2794 38.9418 41.8741L40.2415 59.9018C40.3039 60.7704 39.5132 61.5749 38.6045 61.5646L30.9258 61.4818C30.2995 61.4752 29.8168 61.0508 29.7469 60.4495L27.6971 42.7351C27.6045 41.9315 28.3696 41.1147 29.2358 41.0931V41.0949Z" fill="#FABD23"/>
<path d="M31.0798 60.4506L38.7472 60.5137C38.8946 60.5146 38.9947 60.4356 39.041 60.3885C39.0873 60.3415 39.1638 60.2408 39.1544 60.0996L37.9018 42.103C37.8923 41.9674 37.7903 41.8677 37.6467 41.8555L29.0715 42.0465C28.9299 42.0503 28.8344 42.1302 28.7891 42.1782C28.7438 42.2262 28.671 42.326 28.6871 42.4568L30.786 60.1947C30.8021 60.3302 30.9003 60.429 31.0373 60.4478C31.0373 60.4478 31.0656 60.4506 31.0807 60.4506H31.0798Z" fill="#FDD248"/>
<path d="M36.5519 42.5954C36.9902 42.5004 37.3671 42.7488 37.3945 43.1525L37.5928 46.1308C37.6202 46.5401 37.2821 46.9476 36.84 47.0398C36.3979 47.132 36.0191 46.8742 35.9936 46.4658L35.8075 43.495C35.782 43.0932 36.1155 42.6905 36.5528 42.5954H36.5519Z" fill="#FABD23"/>
<path d="M36.0408 43.7265C36.0597 44.1339 36.3375 44.4181 36.6615 44.3626C36.9855 44.3061 37.233 43.9288 37.2131 43.5213C37.1933 43.1139 36.9146 42.8316 36.5916 42.888C36.2685 42.9454 36.0229 43.3209 36.0418 43.7265H36.0408Z" fill="#141313"/>
<path d="M22.0511 54.7811C22.5574 52.3204 24.0121 50.4017 24.6686 49.6348C25.7852 48.3334 31.126 45.0352 31.126 45.0352C31.126 45.0352 31.6994 45.676 31.7674 46.0204C31.8789 46.5784 31.2989 47.4695 30.4138 48.2101C31.1156 47.8139 32.4711 47.2136 32.4711 47.2136C32.4711 47.2136 32.9302 48.1132 32.8906 48.4632C32.8386 48.9319 32.2567 49.6705 31.6833 50.1194C32.2095 49.8917 33.0776 49.455 33.0776 49.455C33.0776 49.455 33.4809 50.5231 33.3893 50.8647C33.2155 51.513 32.3323 52.2574 31.5313 52.8549C32.1708 52.5048 33.3969 52.1642 33.3969 52.1642C33.3969 52.1642 33.5641 53.188 33.4894 53.4995C33.1985 54.7105 30.0709 56.9059 30.0709 56.9059C31.1213 60.3424 29.08 61.2562 27.6895 62.0852C26.0393 63.0685 22.0077 60.015 22.0077 60.015C22.0077 60.015 21.6704 56.617 22.0511 54.7811Z" fill="#FFA896"/>
<path d="M26.9932 50.7484C27.0188 50.7719 27.1963 50.6129 27.4948 50.372C27.7933 50.1311 28.2127 49.8074 28.6907 49.4667C29.6448 48.7836 30.4458 48.2641 30.4137 48.2105C30.3835 48.1569 29.5229 48.5935 28.5585 49.2842C28.0758 49.6286 27.6649 49.9786 27.3881 50.2534C27.1113 50.5301 26.9725 50.7296 26.9932 50.7484Z" fill="#F29788"/>
<path d="M28.3743 52.4693C28.397 52.4937 28.5821 52.361 28.8797 52.1503C29.2093 51.9197 29.6098 51.6402 30.0519 51.3306C30.971 50.6936 31.7163 50.1741 31.6833 50.1205C31.6511 50.0678 30.8482 50.5044 29.9225 51.1462C29.4596 51.4661 29.0563 51.7795 28.7795 52.026C28.5027 52.2726 28.3535 52.4485 28.3733 52.4702L28.3743 52.4693Z" fill="#F29788"/>
<path d="M29.8999 53.9994C29.9348 54.0512 30.4071 53.7952 30.955 53.4282C31.5029 53.0612 31.9195 52.7225 31.8845 52.6707C31.8496 52.619 31.3773 52.8749 30.8294 53.2419C30.2815 53.6089 29.8649 53.9477 29.8999 53.9994Z" fill="#F29788"/>
<path d="M30.834 138.091L23.005 108.755C22.5894 107.197 21.0554 106.293 19.4769 106.676L2.54282 110.781C0.964367 111.164 -0.135163 112.706 0.0131412 114.33L2.80259 144.887C2.97167 146.719 4.64175 147.92 6.42234 147.488L28.3959 142.161C30.1765 141.729 31.3006 139.851 30.8331 138.091H30.834Z" fill="#E2A824"/>
<path d="M34.757 137.304L23.8373 108.717C23.2573 107.198 21.5976 106.325 20.0191 106.708L3.08504 110.814C1.50659 111.197 0.533635 112.708 0.845358 114.292L6.72558 144.1C7.08075 145.887 8.90858 147.049 10.6901 146.617L32.6628 141.29C34.4434 140.858 35.4088 139.018 34.756 137.304H34.757ZM18.879 112.81C18.6995 113.118 18.3982 113.354 18.0137 113.447L8.45328 115.765C7.68814 115.951 6.89277 115.489 6.67551 114.735C6.56688 114.356 6.62356 113.977 6.80209 113.671C6.98157 113.363 7.2829 113.127 7.66736 113.033L17.2278 110.716C17.9929 110.53 18.7883 110.991 19.0056 111.746C19.1142 112.125 19.0575 112.504 18.879 112.81Z" fill="#E5E3CC"/>
<path d="M10.2046 127.007L12.2544 126.51L12.4292 127.116L11.1464 127.426L11.3343 128.081L12.2941 127.849L12.4632 128.437L11.5034 128.669L11.8652 129.926L11.0982 130.112L10.2046 127.007Z" fill="#B99C7A"/>
<path d="M15.0486 129.187C14.1559 129.404 13.2396 128.921 12.9714 127.988C12.7031 127.054 13.2415 126.223 14.1333 126.007C15.0306 125.789 15.9318 126.271 16.2001 127.205C16.4683 128.138 15.9403 128.971 15.0476 129.187H15.0486ZM14.8502 128.497C15.3527 128.375 15.5766 127.937 15.4208 127.393C15.2621 126.84 14.8332 126.569 14.3316 126.692C13.8206 126.816 13.5977 127.243 13.7573 127.797C13.9141 128.34 14.3401 128.621 14.8512 128.497H14.8502Z" fill="#B99C7A"/>
<path d="M18.5739 128.333C17.6812 128.549 16.7649 128.067 16.4966 127.133C16.2284 126.2 16.7668 125.369 17.6585 125.152C18.5559 124.935 19.4571 125.417 19.7253 126.35C19.9936 127.284 19.4656 128.116 18.5729 128.333H18.5739ZM18.3755 127.642C18.878 127.521 19.1019 127.082 18.946 126.538C18.7873 125.985 18.3585 125.715 17.8569 125.837C17.3459 125.962 17.1229 126.389 17.2826 126.942C17.4394 127.486 17.8654 127.766 18.3764 127.642H18.3755Z" fill="#B99C7A"/>
<path d="M22.9833 125.57C23.2478 126.49 22.784 127.28 21.7798 127.523L20.6 127.81L19.7064 124.704L20.8862 124.418C21.8913 124.174 22.7178 124.646 22.9833 125.571V125.57ZM21.5418 126.88C22.1209 126.74 22.3674 126.329 22.203 125.759C22.0387 125.188 21.6013 124.935 21.0223 125.075L20.6586 125.163L21.1781 126.968L21.5418 126.88Z" fill="#B99C7A"/>
<path opacity="0.5" d="M29.5115 135.474L10.3019 140.131L8.19348 132.801L27.4022 128.144L29.5115 135.474Z" fill="#AA845E"/>
<path d="M100.321 207.806L94.4207 166.344C94.519 164.116 92.8923 162.392 90.6772 162.378L72.1543 161.824C69.9401 161.81 67.8724 163.511 67.3982 165.736L60.9918 207.551C60.46 210.064 62.1423 212.232 64.6418 212.248L95.4711 212.448C97.9696 212.464 100.206 210.323 100.321 207.807V207.806Z" fill="#E2A824"/>
<path d="M95.4362 208.655L93.0265 165.514C92.898 163.222 91.0976 161.449 88.8825 161.435L65.1236 161.28C62.9084 161.266 61.0164 163.016 60.768 165.305L56.1072 208.4C55.8305 210.984 57.7329 213.214 60.2314 213.23L91.0608 213.431C93.5593 213.447 95.577 211.243 95.4353 208.656L95.4362 208.655ZM84.8745 169.453C84.5136 169.815 84.0234 170.037 83.484 170.034L70.0705 169.946C68.9965 169.939 68.1511 169.031 68.1803 167.916C68.1945 167.356 68.425 166.855 68.7858 166.493C69.1467 166.13 69.6369 165.908 70.1763 165.912L83.5898 165.999C84.6638 166.006 85.5093 166.914 85.48 168.029C85.4658 168.589 85.2353 169.091 84.8745 169.453Z" fill="#E5E3CC"/>
<path d="M67.7061 186.037L70.5824 186.056L70.5588 186.951L68.7593 186.94L68.7338 187.907L70.0808 187.915L70.0581 188.784L68.7111 188.775L68.663 190.631L67.587 190.624L67.707 186.038L67.7061 186.037Z" fill="#B99C7A"/>
<path d="M73.1159 190.705C71.8633 190.697 70.8696 189.717 70.9055 188.339C70.9414 186.96 71.9861 185.999 73.2387 186.008C74.4969 186.016 75.4727 186.989 75.4368 188.368C75.4009 189.746 74.3684 190.714 73.1159 190.705ZM73.1423 189.686C73.847 189.691 74.3203 189.165 74.341 188.361C74.3628 187.545 73.916 187.025 73.2113 187.021C72.4943 187.017 72.0277 187.529 72.006 188.346C71.9852 189.15 72.4244 189.682 73.1414 189.686H73.1423Z" fill="#B99C7A"/>
<path d="M78.061 190.738C76.8084 190.729 75.8147 189.75 75.8506 188.371C75.8864 186.992 76.9312 186.032 78.1837 186.04C79.442 186.049 80.4178 187.022 80.3819 188.4C80.346 189.779 79.3135 190.746 78.061 190.738ZM78.0874 189.718C78.7921 189.723 79.2653 189.197 79.2861 188.394C79.3078 187.577 78.861 187.057 78.1564 187.054C77.4394 187.049 76.9728 187.562 76.951 188.378C76.9302 189.182 77.3695 189.715 78.0865 189.718H78.0874Z" fill="#B99C7A"/>
<path d="M84.9481 188.443C84.9122 189.801 83.9818 190.73 82.5724 190.721L80.9175 190.71L81.0374 186.124L82.6924 186.134C84.1018 186.144 84.984 187.077 84.9481 188.443ZM82.528 189.753C83.3395 189.759 83.8307 189.278 83.8524 188.436C83.8741 187.593 83.4094 187.093 82.597 187.089L82.0869 187.086L82.017 189.752L82.5271 189.754L82.528 189.753Z" fill="#B99C7A"/>
<path opacity="0.5" d="M89.3594 204.332L62.4077 204.157L62.6902 193.332L89.6419 193.506L89.3594 204.332Z" fill="#AA845E"/>
<path d="M34.1166 25.53C34.1166 22.1762 31.3923 19.4567 28.0276 19.4492C24.6629 19.4567 21.9386 22.1762 21.9386 25.53C21.9386 25.53 21.147 28.8178 28.0266 37.5014H28.0276H28.0285C34.9091 28.8178 34.1166 25.53 34.1166 25.53ZM28.0276 28.6833C26.2923 28.6833 24.8848 27.2812 24.8848 25.5516C24.8848 23.8221 26.2923 22.4218 28.0276 22.4218C29.7628 22.4218 31.1703 23.823 31.1703 25.5516C31.1703 27.2802 29.7628 28.6833 28.0276 28.6833Z" fill="#FE573C"/>
<path d="M31.7106 25.5518C31.7106 27.5796 30.0613 29.2226 28.0266 29.2226C25.9919 29.2226 24.3427 27.5796 24.3427 25.5518C24.3427 23.5239 25.9919 21.8828 28.0266 21.8828C30.0613 21.8828 31.7106 23.5258 31.7106 25.5518Z" fill="url(#paint0_linear_3197_184)"/>
<path d="M31.1694 25.5517C31.1694 27.2822 29.7619 28.6833 28.0266 28.6833C26.2914 28.6833 24.8839 27.2812 24.8839 25.5517C24.8839 23.8221 26.2914 22.4219 28.0266 22.4219C29.7619 22.4219 31.1694 23.823 31.1694 25.5517Z" fill="#E5E3CC"/>
<path d="M132.277 60.5139L128.168 68.488L124.893 60.3398L132.277 60.5139Z" fill="#E5E3CC"/>
<path d="M154.388 17.2516L127.008 17.2422C121.948 17.2403 117.844 21.3252 117.842 26.3661L117.832 54.1897C117.83 59.2307 121.931 63.3184 126.991 63.3203L154.371 63.3297C159.431 63.3316 163.534 59.2467 163.536 54.2057L163.547 26.3821C163.548 21.3412 159.448 17.2535 154.388 17.2516Z" fill="#E5E3CC"/>
<path d="M153.442 37.9686C152.53 37.9686 151.65 37.6816 150.967 37.2299C150.312 36.7961 149.499 36.9099 148.865 37.3748C148.366 37.7408 147.674 37.9667 146.874 37.9657C145.985 37.9657 145.16 37.6928 144.539 37.2609C143.901 36.8168 143.087 36.8544 142.457 37.3099C141.9 37.7136 141.14 37.9639 140.286 37.9629C139.435 37.9629 138.678 37.7136 138.121 37.3117C137.489 36.8563 136.674 36.8205 136.035 37.2647C135.419 37.6919 134.603 37.961 133.719 37.9601C132.91 37.9601 132.214 37.7343 131.714 37.3673C131.08 36.9024 130.268 36.7876 129.612 37.2214C128.928 37.6721 128.054 37.9582 127.151 37.9582C127.029 37.9582 126.906 37.9582 126.804 37.9375L126.801 46.4573C126.801 47.4247 127.588 48.2104 128.559 48.2104L136.682 48.2133L136.684 43.4113C136.684 42.3715 137.531 41.5284 138.575 41.5284L142.937 41.5303C143.982 41.5303 144.827 42.3743 144.827 43.4141L144.825 48.2161L152.928 48.2189C153.9 48.2189 154.688 47.435 154.688 46.4668L154.691 37.7427C154.343 37.8848 153.913 37.9667 153.443 37.9667L153.442 37.9686Z" fill="#FABD23"/>
<path d="M130.396 25.5078C129.43 25.5078 128.574 26.1289 128.278 27.0454L125.927 34.3241C125.521 35.5803 126.565 36.6502 128.278 36.6512C129.992 36.6512 131.588 35.5831 131.831 34.3269L133.541 25.5097H130.395L130.396 25.5078Z" fill="#F4F4F2"/>
<path d="M133.542 25.5088L131.832 34.326C131.588 35.5822 132.77 36.6521 134.484 36.6521C136.196 36.6521 137.655 35.5841 137.737 34.3279L138.309 25.5107L133.543 25.5088H133.542Z" fill="#FABD23"/>
<path d="M138.309 25.5107L137.737 34.3279C137.656 35.5841 138.975 36.6541 140.689 36.6541C142.402 36.6541 143.722 35.586 143.642 34.3298L143.076 25.5116L138.309 25.5098V25.5107Z" fill="#F4F4F2"/>
<path d="M143.076 25.5127L143.642 34.3308C143.723 35.5871 145.179 36.657 146.893 36.657C148.607 36.657 149.788 35.589 149.546 34.3327L147.843 25.5146L143.077 25.5127H143.076Z" fill="#FABD23"/>
<path d="M155.451 34.3347L153.106 27.0542C152.81 26.1376 151.955 25.5156 150.99 25.5156H147.844L149.548 34.3328C149.791 35.5891 151.386 36.659 153.1 36.6599C154.813 36.6599 155.857 35.5909 155.453 34.3347H155.451Z" fill="#F4F4F2"/>
<path d="M130.613 52.6812L129.18 52.4356L128.539 51.0993C128.491 50.9986 128.393 50.9601 128.3 50.9695C128.3 50.9676 128.3 50.9648 128.301 50.9629C128.28 50.9648 128.262 50.9761 128.243 50.9836C128.23 50.9883 128.217 50.9892 128.206 50.9968C128.172 51.0175 128.142 51.0466 128.121 51.088L127.477 52.3942L126.037 52.572C125.993 52.5776 125.958 52.5965 125.927 52.62C125.918 52.6275 125.911 52.636 125.903 52.6454C125.892 52.6567 125.879 52.6652 125.872 52.6774C125.874 52.6774 125.878 52.6774 125.881 52.6774C125.824 52.7649 125.82 52.8854 125.907 52.9729L126.949 54.0259L126.702 55.4731C126.669 55.666 126.869 55.8175 127.041 55.73L128.328 55.0722L129.61 55.7846C129.673 55.8194 129.739 55.8213 129.796 55.8015C129.796 55.8015 129.797 55.8015 129.797 55.8015C129.82 55.7931 129.841 55.7818 129.86 55.7667C129.865 55.7629 129.868 55.7582 129.873 55.7535C129.886 55.7413 129.899 55.7291 129.908 55.714C129.913 55.7074 129.916 55.7008 129.92 55.6933C129.929 55.6783 129.934 55.6623 129.939 55.6444C129.941 55.6369 129.944 55.6293 129.945 55.6218C129.95 55.5964 129.95 55.57 129.946 55.5418L129.702 54.087L130.67 53.1507L130.74 53.0839C130.878 52.9503 130.803 52.7103 130.612 52.6783L130.613 52.6812Z" fill="#FABD23"/>
<path d="M136.794 52.731L135.361 52.4854L134.721 51.1491C134.673 51.0494 134.574 51.0099 134.482 51.0193C134.482 51.0174 134.482 51.0146 134.483 51.0127C134.462 51.0146 134.444 51.0259 134.424 51.0334C134.412 51.0381 134.399 51.039 134.387 51.0466C134.353 51.0673 134.323 51.0964 134.302 51.1379L133.658 52.444L132.218 52.6227C132.174 52.6284 132.139 52.6472 132.109 52.6707C132.099 52.6783 132.093 52.6867 132.084 52.6962C132.074 52.7074 132.061 52.7159 132.053 52.7281C132.056 52.7281 132.06 52.7281 132.063 52.7281C132.006 52.8157 132.001 52.9361 132.088 53.0236L133.13 54.0766L132.883 55.5239C132.85 55.7168 133.051 55.8683 133.223 55.7808L134.509 55.123L135.792 55.8353C135.854 55.8702 135.92 55.872 135.977 55.8523C135.977 55.8523 135.978 55.8523 135.979 55.8523C136.002 55.8438 136.022 55.8325 136.041 55.8175C136.046 55.8137 136.05 55.809 136.055 55.8043C136.068 55.7921 136.079 55.7798 136.089 55.7648C136.094 55.7582 136.098 55.7516 136.102 55.7441C136.11 55.729 136.116 55.713 136.121 55.6951C136.123 55.6876 136.125 55.6801 136.126 55.6725C136.131 55.6471 136.132 55.6208 136.126 55.5926L135.884 54.1378L136.852 53.2024L136.922 53.1356C137.06 53.002 136.984 52.762 136.793 52.73L136.794 52.731Z" fill="#FABD23"/>
<path d="M142.976 52.7808L141.543 52.5352L140.902 51.199C140.854 51.0992 140.756 51.0597 140.663 51.0701C140.663 51.0682 140.663 51.0654 140.664 51.0635C140.643 51.0654 140.626 51.0766 140.606 51.0842C140.593 51.0889 140.58 51.0898 140.569 51.0974C140.535 51.1181 140.505 51.1482 140.484 51.1886L139.84 52.4947L138.4 52.6726C138.356 52.6782 138.321 52.6971 138.29 52.7206C138.281 52.7281 138.274 52.7366 138.266 52.746C138.255 52.7573 138.242 52.7657 138.235 52.778C138.238 52.778 138.241 52.778 138.244 52.778C138.187 52.8655 138.183 52.9859 138.27 53.0735L139.312 54.1264L139.065 55.5737C139.032 55.7666 139.232 55.9181 139.404 55.8306L140.691 55.1728L141.973 55.8852C142.036 55.92 142.102 55.9219 142.159 55.9021C142.159 55.9021 142.16 55.9021 142.16 55.9021C142.183 55.8936 142.204 55.8823 142.223 55.8673C142.228 55.8635 142.231 55.8588 142.236 55.8541C142.249 55.8419 142.262 55.8297 142.271 55.8146C142.276 55.808 142.28 55.8014 142.283 55.7939C142.292 55.7788 142.297 55.7628 142.302 55.745C142.304 55.7374 142.307 55.7299 142.308 55.7224C142.313 55.697 142.314 55.6706 142.309 55.6424L142.065 54.1876L143.033 53.2522L143.103 53.1854C143.241 53.0518 143.166 52.8119 142.975 52.7799L142.976 52.7808Z" fill="#FABD23"/>
<path d="M149.157 52.8296L147.724 52.584L147.084 51.2478C147.036 51.1471 146.937 51.1085 146.845 51.1179C146.845 51.116 146.845 51.1132 146.846 51.1113C146.825 51.1132 146.807 51.1245 146.787 51.132C146.775 51.1367 146.762 51.1377 146.75 51.1452C146.716 51.1659 146.686 51.196 146.665 51.2365L146.021 52.5426L144.582 52.7204C144.537 52.7261 144.502 52.7449 144.472 52.7684C144.463 52.776 144.456 52.7844 144.447 52.7929C144.437 52.8042 144.424 52.8127 144.416 52.8249C144.419 52.8249 144.423 52.8249 144.426 52.8249C144.369 52.9124 144.364 53.0329 144.451 53.1204L145.493 54.1734L145.247 55.6206C145.213 55.8135 145.414 55.965 145.586 55.8775L146.872 55.2197L148.155 55.9321C148.217 55.9669 148.283 55.9688 148.34 55.949C148.34 55.949 148.341 55.949 148.342 55.949C148.365 55.9406 148.385 55.9293 148.404 55.9142C148.409 55.9104 148.413 55.9057 148.418 55.901C148.431 55.8888 148.443 55.8766 148.453 55.8615C148.457 55.8549 148.461 55.8483 148.465 55.8408C148.473 55.8258 148.479 55.8098 148.484 55.7919C148.486 55.7844 148.488 55.7768 148.489 55.7693C148.494 55.7439 148.495 55.7175 148.489 55.6893L148.247 54.2345L149.215 53.2982L149.285 53.2314C149.423 53.0978 149.347 52.8578 149.156 52.8258L149.157 52.8296Z" fill="#FABD23"/>
<path d="M155.339 52.8794L153.906 52.6338L153.265 51.2976C153.217 51.1979 153.119 51.1583 153.026 51.1687C153.026 51.1668 153.026 51.164 153.027 51.1621C153.007 51.164 152.989 51.1753 152.969 51.1828C152.957 51.1875 152.943 51.1885 152.932 51.196C152.898 51.2167 152.868 51.2468 152.847 51.2873L152.203 52.5934L150.763 52.7722C150.72 52.7778 150.684 52.7966 150.654 52.8202C150.644 52.8277 150.638 52.8362 150.629 52.8446C150.619 52.8559 150.605 52.8644 150.598 52.8766C150.601 52.8766 150.604 52.8766 150.607 52.8766C150.551 52.9641 150.546 53.0846 150.633 53.1721L151.675 54.2251L151.428 55.6723C151.395 55.8652 151.595 56.0167 151.767 55.9292L153.054 55.2715L154.337 55.9838C154.399 56.0186 154.465 56.0205 154.522 56.0007C154.522 56.0007 154.523 56.0007 154.524 56.0007C154.546 55.9923 154.567 55.981 154.586 55.9659C154.591 55.9622 154.595 55.9575 154.599 55.9528C154.612 55.9405 154.625 55.9283 154.634 55.9132C154.639 55.9066 154.643 55.9001 154.646 55.8925C154.655 55.8775 154.661 55.8615 154.665 55.8436C154.667 55.8361 154.67 55.8285 154.671 55.821C154.676 55.7956 154.677 55.7693 154.672 55.741L154.429 54.2862L155.397 53.3509L155.467 53.2841C155.605 53.1504 155.53 52.9105 155.339 52.8785V52.8794Z" fill="#FABD23"/>
</g>
<defs>
<linearGradient id="paint0_linear_3197_184" x1="24.1226" y1="18.8415" x2="33.0441" y2="34.2932" gradientUnits="userSpaceOnUse">
<stop stop-color="#FE573C"/>
<stop offset="1" stop-color="#EA3826"/>
</linearGradient>
<clipPath id="clip0_3197_184">
<rect width="183" height="224" fill="white"/>
</clipPath>
</defs>
</svg>
