<svg width="28" height="28" viewBox="0 0 28 28" fill="none" xmlns="http://www.w3.org/2000/svg">
<g clip-path="url(#clip0_3371_1398)">
<path d="M17.5447 22.3053L22.9748 18.4266C23.5931 17.9842 24.4526 18.1271 24.8949 18.7455C24.9167 18.7759 24.9371 18.8072 24.9561 18.839C25.3267 19.4559 25.1592 20.2542 24.5722 20.6704L18.8094 25.447C18.2988 25.8704 17.6562 26.102 16.9927 26.102H5.20569V20.407L7.52493 18.4741C7.86613 18.1898 8.29613 18.0342 8.74031 18.0342H14.9345C15.5899 18.0342 16.1209 18.5653 16.1209 19.2206C16.1209 19.876 15.5899 20.4071 14.9345 20.4071H11.8497C11.3253 20.4071 10.9006 20.8318 10.9006 21.3562C10.9006 21.8806 11.3253 22.3054 11.8497 22.3054H17.5447V22.3053Z" fill="#FEC9A3"/>
<path d="M5.20565 19.9321H0V27.9999H5.20565V19.9321Z" fill="#4398D1"/>
<path d="M2.37286 26.1019C2.89707 26.1019 3.32202 25.677 3.32202 25.1528C3.32202 24.6286 2.89707 24.2036 2.37286 24.2036C1.84866 24.2036 1.42371 24.6286 1.42371 25.1528C1.42371 25.677 1.84866 26.1019 2.37286 26.1019Z" fill="#E5E5E5"/>
<path d="M0.474609 15.1865H28C28 16.7593 26.7253 18.034 25.1526 18.034H3.32208C1.74932 18.034 0.474609 16.7593 0.474609 15.1865Z" fill="#D1D1D1"/>
<path d="M26.1017 15.1866H2.37292V14.7121C2.37292 8.15956 7.68483 2.84766 14.2373 2.84766C20.7898 2.84766 26.1017 8.15956 26.1017 14.7121V15.1866Z" fill="#E5E5E5"/>
<path d="M6.31187 9.49511L5.51978 8.97307C5.79551 8.5564 6.10067 8.16014 6.43284 7.78662L7.14235 8.41684C6.84053 8.75618 6.56294 9.1164 6.31187 9.49511Z" fill="white"/>
<path d="M7.74417 7.79474L7.09448 7.10327C9.02648 5.28185 11.5821 4.26816 14.2373 4.271V5.22016C11.8236 5.21775 9.50057 6.13891 7.74417 7.79474Z" fill="white"/>
<path d="M15.6611 0H12.8136V0.949156H13.7628V2.84747H14.7119V0.949156H15.6611V0Z" fill="#D1D1D1"/>
<path d="M21.1429 15.1865C18.5009 16.5305 15.68 17.4891 12.7661 18.034H25.1526C26.7253 18.034 28 16.7593 28 15.1865H21.1429Z" fill="#C9C9C9"/>
<path d="M26.1017 14.7118C26.1045 11.4463 24.7577 8.325 22.3796 6.08691C19.0509 10.8379 13.0248 13.6758 8.73743 15.1864H26.1017V14.7118Z" fill="#DEDEDE"/>
<path d="M25.0249 18.9827C25.005 18.9338 24.9817 18.8863 24.9561 18.8403C24.5655 18.1882 23.7203 17.9761 23.0682 18.3667C23.0364 18.3856 23.0051 18.406 22.9747 18.4279L22.1954 18.9827H25.0249Z" fill="#F7BB8F"/>
<path d="M16.0966 18.9828C15.9837 18.4304 15.4982 18.0337 14.9344 18.0337H8.74024C8.29602 18.0337 7.86606 18.1893 7.52487 18.4736L6.91406 18.9828L16.0966 18.9828Z" fill="#F7BB8F"/>
</g>
<defs>
<clipPath id="clip0_3371_1398">
<rect width="28" height="28" fill="white"/>
</clipPath>
</defs>
</svg>
