<svg width="28" height="28" viewBox="0 0 28 28" fill="none" xmlns="http://www.w3.org/2000/svg">
<path fill-rule="evenodd" clip-rule="evenodd" d="M1.03398 12.3513H6.72252C7.08066 12.3513 7.37368 12.0583 7.37368 11.7001V6.01157C7.37368 5.65342 7.08066 5.36035 6.72252 5.36035H1.03398C0.675828 5.36035 0.382812 5.65342 0.382812 6.01157V11.7001C0.382812 12.0583 0.675828 12.3513 1.03398 12.3513Z" fill="#FFDC6E"/>
<path fill-rule="evenodd" clip-rule="evenodd" d="M6.1333 12.3513H6.72256C7.08071 12.3513 7.37372 12.0583 7.37372 11.7001V6.01157C7.37372 5.65342 7.08071 5.36035 6.72256 5.36035H6.1333V12.3513Z" fill="#FFCA28"/>
<path fill-rule="evenodd" clip-rule="evenodd" d="M4.91696 7.97873V5.36035H2.8396V7.97873C2.8396 8.18491 2.98151 8.35302 3.15553 8.35302H4.60114C4.7751 8.35307 4.91696 8.18491 4.91696 7.97873Z" fill="#F7524B"/>
<path fill-rule="evenodd" clip-rule="evenodd" d="M19.8893 12.6279H22.7522L24.1145 18.9262H19.8893V12.6279Z" fill="#F7524B"/>
<path fill-rule="evenodd" clip-rule="evenodd" d="M19.8893 12.6279H22.7522L23.3033 15.1755L19.8893 13.8866V12.6279Z" fill="#CB413D"/>
<path fill-rule="evenodd" clip-rule="evenodd" d="M4.13 14.5665H13.1727C13.7765 14.5665 14.2704 14.0726 14.2704 13.4688C14.2704 12.865 13.7765 12.3711 13.1727 12.3711H5.2278C4.624 12.3711 4.13 12.865 4.13 13.4688V14.5665Z" fill="#404049"/>
<path fill-rule="evenodd" clip-rule="evenodd" d="M10.7637 21.9585C10.7637 24.2527 8.90381 26.1126 6.60956 26.1126C4.31531 26.1126 2.45544 24.2528 2.45544 21.9585H10.7637Z" fill="#404049"/>
<path fill-rule="evenodd" clip-rule="evenodd" d="M8.67883 21.9585C8.67883 23.1013 7.75242 24.0277 6.60962 24.0277C5.46681 24.0277 4.54041 23.1013 4.54041 21.9585H8.67883Z" fill="#F0F0FC"/>
<path fill-rule="evenodd" clip-rule="evenodd" d="M26.8117 21.9585C26.8117 24.2527 24.9518 26.1126 22.6575 26.1126C20.3633 26.1126 18.5034 24.2527 18.5034 21.9585H26.8117Z" fill="#404049"/>
<path fill-rule="evenodd" clip-rule="evenodd" d="M24.7267 21.9585C24.7267 23.1013 23.8003 24.0277 22.6575 24.0277C21.5147 24.0277 20.5883 23.1013 20.5883 21.9585H24.7267Z" fill="#F0F0FC"/>
<path fill-rule="evenodd" clip-rule="evenodd" d="M1.6499 21.9587H13.3384V14.1084H5.5751C3.41625 14.1084 1.6499 15.8747 1.6499 18.0335V21.9587Z" fill="#F7524B"/>
<path fill-rule="evenodd" clip-rule="evenodd" d="M12.3434 19.0679H19.2617V21.9586H12.3434V19.0679Z" fill="#F7524B"/>
<path fill-rule="evenodd" clip-rule="evenodd" d="M23.4526 9.44221L20.4263 9.90159C20.1152 9.94878 19.8893 10.2116 19.8893 10.5262V13.0265L23.4526 13.5673C24.3954 13.7105 25.1806 12.6392 25.1806 11.5048C25.1806 10.4224 24.4225 9.29505 23.4526 9.44221Z" fill="#EF444E"/>
<path fill-rule="evenodd" clip-rule="evenodd" d="M23.4928 13.5726C24.4176 13.6798 25.1806 12.623 25.1806 11.5047C25.1806 10.4373 24.4434 9.3263 23.4928 9.43682V13.5726Z" fill="#FFDC6E"/>
<path fill-rule="evenodd" clip-rule="evenodd" d="M6.60962 16.999C9.34881 16.999 11.5693 19.2196 11.5693 21.9587H1.6499C1.6499 19.2196 3.87043 16.999 6.60962 16.999Z" fill="#E14844"/>
<path fill-rule="evenodd" clip-rule="evenodd" d="M8.27185 10.0896L10.9532 11.3659L14.3028 9.73269L16.3745 11.384L21.1117 12.7778L21.7866 11.6424C20.2486 11.1289 19.0131 10.6296 17.4691 10.0162L16.3064 8.51901C16.3064 8.51901 16.3447 7.14012 15.5592 6.41874C14.7738 5.69736 14.7689 5.6792 14.7689 5.6792C10.5449 5.83796 8.93313 7.80731 8.27185 10.0896Z" fill="#FFDC6E"/>
<path fill-rule="evenodd" clip-rule="evenodd" d="M21.2435 12.9875C21.7168 12.9875 22.1028 12.6016 22.1028 12.1283C22.1028 11.655 21.7168 11.269 21.2435 11.269C20.7703 11.269 20.3843 11.655 20.3843 12.1283C20.3843 12.6016 20.7703 12.9875 21.2435 12.9875Z" fill="#484A50"/>
<path fill-rule="evenodd" clip-rule="evenodd" d="M8.59319 12.923L14.3475 14.9101L14.2943 19.9911H16.1608L16.3253 14.0014C16.3409 13.4348 16.0163 12.9481 15.4994 12.7156L8.45489 9.54688L7.83495 10.925C7.49408 11.6828 7.80755 12.6518 8.59319 12.923Z" fill="#484A50"/>
<path fill-rule="evenodd" clip-rule="evenodd" d="M14.2903 19.7378L14.2827 20.3853C14.2763 20.9307 14.7424 21.3727 15.2879 21.3638L16.0346 21.3516L16.945 21.3458C17.3366 21.3433 17.654 21.0217 17.6515 20.6301L17.6509 20.5346C17.6482 20.1213 17.3308 19.7801 16.9285 19.7378H16.1506H14.2903Z" fill="#FFDC6E"/>
<path fill-rule="evenodd" clip-rule="evenodd" d="M15.7321 21.3566L16.0346 21.3516L16.9449 21.3458C17.3366 21.3433 17.6539 21.0217 17.6515 20.6301L17.6508 20.5346C17.6482 20.1213 17.3307 19.7801 16.9285 19.7378H16.1506H15.7321V21.3566H15.7321Z" fill="#FFCA28"/>
<path fill-rule="evenodd" clip-rule="evenodd" d="M22.6574 16.999C25.3966 16.999 27.6171 19.2196 27.6171 21.9587H17.6978C17.6978 19.2196 19.9183 16.999 22.6574 16.999Z" fill="#E14844"/>
<path fill-rule="evenodd" clip-rule="evenodd" d="M6.60964 16.999C9.34883 16.999 11.5694 19.2196 11.5694 21.9587H9.3911C9.32159 19.6675 7.79406 17.7431 5.70483 17.0817C5.99818 17.0275 6.30054 16.999 6.60964 16.999Z" fill="#CB413D"/>
<path fill-rule="evenodd" clip-rule="evenodd" d="M22.6575 16.999C25.3967 16.999 27.6172 19.2196 27.6172 21.9587H25.439C25.3694 19.6675 23.8419 17.7431 21.7527 17.0817C22.0461 17.0275 22.3485 16.999 22.6575 16.999Z" fill="#CB413D"/>
<path fill-rule="evenodd" clip-rule="evenodd" d="M21.2434 11.269C21.7179 11.269 22.1026 11.6537 22.1026 12.1282C22.1026 12.6028 21.7179 12.9874 21.2434 12.9874C21.1849 12.9874 21.1277 12.9816 21.0725 12.9704C21.4652 12.8912 21.7608 12.5442 21.7608 12.1282C21.7608 11.7122 21.4652 11.3653 21.0725 11.2861C21.1277 11.2749 21.1849 11.269 21.2434 11.269Z" fill="#404049"/>
<path fill-rule="evenodd" clip-rule="evenodd" d="M11.1378 11.2758L15.0073 13.0164C15.5241 13.2489 15.8468 13.7356 15.8332 14.3023L15.7023 19.7376H16.1678L16.3253 14.0015C16.338 13.4791 16.0647 13.0247 15.617 12.7748C15.6094 12.7705 15.6017 12.7663 15.594 12.7622H15.594C15.5863 12.7581 15.5785 12.754 15.5708 12.75C15.563 12.746 15.5551 12.7421 15.5473 12.7382C15.5394 12.7343 15.5314 12.7305 15.5235 12.7267C15.5155 12.723 15.5074 12.7193 15.4994 12.7156L8.45488 9.54688L8.26074 9.97852L11.1378 11.2758Z" fill="#404049"/>
<path fill-rule="evenodd" clip-rule="evenodd" d="M10.9507 6.5857C11.811 6.22848 12.8755 6.00229 14.1948 5.95269C14.403 6.68534 14.9852 7.42597 15.6156 7.84778C15.7444 8.35719 15.7323 8.7925 15.7323 8.7925L16.8949 10.2897C18.0956 10.7667 19.2934 11.248 20.5126 11.6761C20.6051 11.527 20.7419 11.4082 20.9046 11.3383C19.748 10.927 18.6098 10.4693 17.4692 10.0162L16.3065 8.51901C16.3065 8.51901 16.318 8.10235 16.198 7.60726C16.0996 7.2017 15.913 6.74358 15.5593 6.41874C14.7739 5.69736 14.769 5.6792 14.769 5.6792C14.7267 5.68079 14.6846 5.68259 14.6429 5.6845C13.0749 5.75779 11.8736 6.08471 10.9507 6.5857Z" fill="#FFCA28"/>
<path fill-rule="evenodd" clip-rule="evenodd" d="M17.7969 2.53711C19.1076 2.66459 20.0669 3.83052 19.9394 5.14127C19.8119 6.45208 18.646 7.41135 17.3352 7.28387C16.0244 7.1564 15.0652 5.99046 15.1926 4.67966L17.5661 4.91049L17.7969 2.53711Z" fill="#F6DCCD"/>
<path fill-rule="evenodd" clip-rule="evenodd" d="M17.8586 1.90162C19.2454 2.03648 20.3218 3.08828 20.5462 4.39837C20.5805 4.59897 20.5247 4.78616 20.3861 4.93524C20.2475 5.08432 20.0648 5.15355 19.8622 5.13387L18.1948 4.97172C17.8485 4.93803 17.5385 5.19304 17.5048 5.53937L17.3427 7.20647C17.323 7.40914 17.2197 7.57517 17.0467 7.68247C16.8737 7.78977 16.679 7.80847 16.4887 7.73606C15.2466 7.26329 14.4222 6.00455 14.557 4.61795C14.7187 2.95621 16.1969 1.74001 17.8586 1.90162Z" fill="#E14844"/>
<path fill-rule="evenodd" clip-rule="evenodd" d="M17.8586 1.90161C19.2455 2.03647 20.3218 3.08828 20.5462 4.39837C20.5805 4.59897 20.5247 4.78616 20.3861 4.93524C20.2654 5.06507 20.1112 5.13436 19.9396 5.13704C19.9398 5.12309 19.9401 5.10915 19.9401 5.09515C19.9401 3.46415 18.618 2.14202 16.987 2.14202C16.6609 2.14202 16.3472 2.19501 16.054 2.29257C16.5814 1.98736 17.2058 1.83812 17.8586 1.90161Z" fill="#CB413D"/>
</svg>
