<svg width="60" height="65" viewBox="0 0 60 65" fill="none" xmlns="http://www.w3.org/2000/svg">
<path d="M49.1014 19.109C49.1014 8.66712 40.7028 0.181687 30.2745 0.00283528C19.7886 -0.176473 11.0414 8.17163 10.7819 18.6267C10.6108 25.5203 14.116 31.6583 19.537 35.1587C20.2535 35.6213 20.8721 36.2199 21.3351 36.9353C23.5276 40.3212 25.6904 43.9557 27.9374 50.3652C28.6004 52.2568 31.2784 52.2532 31.9413 50.3616C34.8764 41.9874 38.7962 36.5379 38.7152 36.6625C39.0634 36.1278 39.5209 35.6715 40.0631 35.3343C45.4937 31.9576 49.1014 25.9483 49.1014 19.109Z" fill="#FF6B6B"/>
<path d="M32.5521 57.1961C32.5521 58.6356 31.3822 59.8022 29.9387 59.8022C28.4951 59.8022 27.3252 58.6356 27.3252 57.1961C27.3252 55.7566 28.4951 54.59 29.9387 54.59C31.3822 54.59 32.5521 55.7566 32.5521 57.1961Z" fill="#FF6B6B"/>
<path d="M31.5575 50.3652C29.3109 43.9557 27.1477 40.3212 24.9556 36.9353C24.4926 36.2199 23.874 35.6213 23.157 35.1587C17.7361 31.6578 14.2313 25.5203 14.4024 18.6263C14.6436 8.88932 22.2483 0.981047 31.762 0.0858738C31.2715 0.039792 30.7755 0.0115041 30.2745 0.00283528C19.7886 -0.176473 11.0414 8.17163 10.7819 18.6267C10.6108 25.5203 14.116 31.6583 19.537 35.1587C20.2535 35.6213 20.8721 36.2199 21.3351 36.9353C23.5276 40.3212 25.6904 43.9557 27.9374 50.3652C28.5482 52.1081 30.8684 52.2409 31.7482 50.7713C31.6741 50.6472 31.6092 50.5126 31.5575 50.3652Z" fill="black" fill-opacity="0.1"/>
<path d="M30.9453 57.1962C30.9453 56.4575 31.2536 55.7914 31.7487 55.3174C31.2793 54.867 30.6414 54.5901 29.9387 54.5901C28.4951 54.5901 27.3252 55.7567 27.3252 57.1962C27.3252 58.6352 28.4951 59.8023 29.9387 59.8023C30.6414 59.8023 31.2793 59.5254 31.7487 59.0751C31.2536 58.601 30.9453 57.9349 30.9453 57.1962Z" fill="black" fill-opacity="0.1"/>
<path d="M44.1856 18.8036C44.1856 26.496 37.9319 32.7321 30.2178 32.7321C22.5037 32.7321 16.25 26.496 16.25 18.8036C16.25 11.1111 22.5037 4.875 30.2178 4.875C37.9319 4.875 44.1856 11.1111 44.1856 18.8036Z" fill="#141313"/>
<path d="M38.617 13.4772C36.7648 11.6302 32.3381 14.5391 33.2342 17.1823C33.0096 17.4064 33.1918 17.2247 31.6185 18.7937C27.4371 22.9633 28.3688 22.0343 25.6675 24.7281C25.2087 25.1873 25.2092 25.9306 25.6691 26.3889C26.1295 26.8477 26.8758 26.8479 27.3361 26.3887C30.5315 23.2023 28.9008 24.8561 32.5701 21.1803L32.5881 21.1983C33.5665 20.1732 33.0871 20.6627 34.9017 18.8448C37.5522 19.7387 40.4688 15.3241 38.617 13.4772Z" fill="#FCD170"/>
<path d="M26.9346 25.2272C31.3169 20.8568 29.838 22.332 34.5014 17.6815C33.782 15.5593 36.496 13.2667 38.5367 13.4026C36.6244 11.7081 32.355 14.5884 33.2343 17.1822C32.8863 17.5296 26.0556 24.3411 25.6676 24.728C24.8302 25.5663 25.6288 26.9778 26.782 26.6983C26.4841 26.2432 26.5349 25.6273 26.9346 25.2272Z" fill="#F9A832"/>
<path d="M26.907 18.8247C27.0024 18.9683 26.4821 18.4344 34.4588 26.3888C34.9193 26.848 35.6656 26.8478 36.1261 26.3889C36.5865 25.9297 36.5863 25.1855 36.126 24.7265C28.1584 16.781 28.6861 17.2918 28.5407 17.1956L26.907 18.8247Z" fill="#FF7648"/>
<path d="M35.1213 25.396C35.1212 25.3958 27.7197 18.0151 27.7197 18.0151L26.907 18.8247C27.0024 18.9683 26.4821 18.4344 34.4588 26.3887C35.1791 27.1071 36.4129 26.6339 36.4682 25.6222C36.0292 25.8341 35.4859 25.7595 35.1213 25.396Z" fill="#E13303"/>
<path d="M29.5042 14.6389L26.0922 11.2362C25.8272 10.9717 25.3973 10.9718 25.1322 11.2361C24.8671 11.5005 24.8671 11.929 25.1321 12.1933C28.8316 15.8827 28.6769 15.6575 28.677 15.9155C28.677 16.1576 28.6039 16.1756 27.724 17.0528L23.9741 13.3135C23.7091 13.0493 23.2792 13.0493 23.0142 13.3135C22.7491 13.578 22.7491 14.0065 23.0142 14.2708L26.764 18.0101L25.9438 18.8279C25.7664 19.0049 25.48 19.0044 25.3032 18.828L21.8909 15.4255C21.6257 15.1612 21.1961 15.1611 20.9309 15.4256C20.6658 15.69 20.6658 16.1185 20.931 16.3828L24.3432 19.7852C24.6851 20.1264 25.1398 20.3141 25.6234 20.3141C26.107 20.3141 26.5617 20.1264 26.9037 19.7853L29.5044 17.192C29.8464 16.851 30.0345 16.3976 30.0345 15.9154C30.0345 15.4331 29.8461 14.9797 29.5042 14.6389Z" fill="#E2E1E0"/>
<path d="M19.5909 18.9137C19.5909 11.8326 24.8897 5.98659 31.7487 5.10145C31.1562 5.0248 30.5522 4.98511 29.9387 4.98511C22.2245 4.98511 15.9709 11.2212 15.9709 18.9137C15.9709 26.6061 22.2245 32.8422 29.9387 32.8422C30.5522 32.8422 31.1562 32.8025 31.7487 32.7259C24.8897 31.8408 19.5909 25.9943 19.5909 18.9137Z" fill="#FFEEEF"/>
<ellipse cx="29.9121" cy="62.3719" rx="14.8023" ry="2.62803" fill="black" fill-opacity="0.1"/>
</svg>
