<svg width="300" height="100" viewBox="0 0 300 100" fill="none" xmlns="http://www.w3.org/2000/svg">
<rect width="300" height="100" rx="8" fill="#C8C9CC" fill-opacity="0.2"/>
<g clip-path="url(#clip0_4110_3027)">
<path d="M150.001 33.127C140.685 33.127 133.134 40.6782 133.134 49.9946C133.134 56.7073 137.065 62.4861 142.741 65.2009L143.269 54.9995C143.269 54.9995 142.276 54.6735 142.059 54.5674C139.953 53.6396 138.423 50.9077 138.423 47.3622C138.423 43.4932 141.423 40.1607 144.324 40.1331C144.328 40.1331 144.328 40.1331 144.33 40.1331C144.331 40.1331 144.334 40.1331 144.335 40.1331C147.236 40.1606 150.237 43.4931 150.237 47.3622C150.237 50.9077 148.705 53.6385 146.603 54.5674C146.586 54.5747 145.383 55.0117 145.383 55.0117L145.972 66.3545C147.266 66.673 148.612 66.8599 150.004 66.8599C151.881 66.8599 153.679 66.5401 155.366 65.9748L155.889 55.8662C154.512 55.5634 153.338 54.6869 152.601 53.5872C151.69 52.2213 153.303 40.132 153.303 40.132H154.353V51.4766H155.396V40.1332H156.536V51.4791H157.574V40.1332H158.756V51.4791H159.798V40.1332H160.603C160.603 40.1332 162.217 52.2225 161.304 53.5884C160.575 54.6773 159.412 55.5514 158.052 55.8614C158.028 55.87 158.006 55.8784 158.006 55.8784L158.46 64.5736C163.484 61.6524 166.87 56.2252 166.87 49.9947C166.868 40.6783 159.317 33.127 150.001 33.127Z" fill="#CAD0DD" fill-opacity="0.65"/>
<path d="M140.891 45.6468C140.952 45.4008 141.033 45.167 141.037 45.1628C141.063 45.0707 141.014 44.9767 140.914 44.9169C140.819 44.8656 140.703 44.8919 140.649 44.9742C140.649 44.9742 140.534 45.158 140.366 45.4296C140.23 45.6634 140.029 46.0369 139.892 46.502C139.773 46.9096 139.63 47.4517 139.566 48.0583C139.539 48.377 139.533 48.6644 139.542 48.9604C139.566 49.2978 139.617 49.5866 139.715 49.9168C140.047 50.8586 140.302 51.7705 141.223 52.6701C141.514 52.9692 141.813 53.173 142.029 53.3231L142.105 53.3768C142.152 53.4074 142.196 53.4356 142.24 53.4612C142.421 53.5564 142.543 53.5905 142.565 53.5954C142.655 53.6197 142.748 53.5758 142.786 53.5026C142.822 53.4257 142.796 53.3292 142.721 53.2683C142.721 53.2683 142.616 53.1768 142.481 53.0059C142.389 52.9021 142.289 52.7519 142.172 52.5823C142.09 52.4627 141.993 52.3271 141.903 52.1953C141.454 51.5105 141.195 50.5547 140.838 49.5756C140.767 49.3632 140.71 49.0879 140.689 48.8542C140.66 48.5843 140.647 48.3244 140.647 48.0833C140.636 47.523 140.661 47.042 140.71 46.652C140.766 46.212 140.81 45.8818 140.891 45.6468Z" fill="#CAD0DD" fill-opacity="0.65"/>
<path d="M150.001 29.9941C138.974 29.9941 130 38.9663 130 49.9941C130 61.0195 138.974 69.9941 150.001 69.9941C161.028 69.9941 170 61.0195 170 49.9941C170 38.9663 161.028 29.9941 150.001 29.9941ZM150.001 68.5024C139.795 68.5024 131.491 60.1993 131.491 49.9941C131.491 39.7878 139.795 31.4839 150.001 31.4839C160.207 31.4839 168.511 39.7878 168.511 49.9941C168.511 60.1993 160.207 68.5024 150.001 68.5024Z" fill="#CAD0DD" fill-opacity="0.65"/>
</g>
<defs>
<clipPath id="clip0_4110_3027">
<rect width="40" height="40" fill="white" transform="translate(130 30)"/>
</clipPath>
</defs>
</svg>
