<svg width="26" height="26" viewBox="0 0 26 26" fill="none" xmlns="http://www.w3.org/2000/svg">
<g clip-path="url(#clip0_3371_1463)">
<path d="M13.2615 25.8535C14.7376 25.3532 15.5286 23.751 15.0282 22.2749C14.5279 20.7988 12.9256 20.0078 11.4496 20.5081C9.97346 21.0085 9.18246 22.6107 9.68281 24.0868C10.1832 25.5629 11.7854 26.3539 13.2615 25.8535Z" fill="#FECA57"/>
<path d="M12.3612 20.3555C12.1815 20.3555 12.006 20.373 11.8356 20.4051C12.6622 20.5984 13.278 21.3395 13.278 22.225C13.278 23.2575 12.4409 24.0945 11.4084 24.0945C10.523 24.0945 9.78182 23.4787 9.58856 22.6522C9.55646 22.8225 9.53894 22.9981 9.53894 23.1777C9.53894 24.7364 10.8025 26 12.3612 26C13.9199 26 15.1835 24.7364 15.1835 23.1777C15.1835 21.619 13.9199 20.3555 12.3612 20.3555Z" fill="#F4B537"/>
<path d="M19.9993 0.705243C19.217 0.253585 18.2167 0.521612 17.765 1.30391L16.4098 3.65117C15.9582 4.43347 16.2262 5.43376 17.0085 5.88542C17.7908 6.33708 18.7911 6.06905 19.2427 5.28675L20.5979 2.93949C21.0496 2.15719 20.7816 1.1569 19.9993 0.705243Z" fill="#FECA57"/>
<path d="M19.2244 24.3139C18.1064 22.5409 21.9388 14.6946 21.9883 14.5944C24.0643 10.3875 22.4588 5.35435 18.4023 3.35257C14.3458 1.35078 9.37445 3.13842 7.29842 7.34535C7.19208 7.56087 3.49969 15.4267 1.37683 15.5065L19.2244 24.3139Z" fill="#FECA57"/>
<path d="M18.4023 3.35263C17.9614 3.13501 17.5096 2.96232 17.0519 2.83252C19.2253 4.56007 19.9493 7.6991 18.6268 10.3791C18.6073 10.4187 17.7773 12.1176 17.1504 13.8723C16.5249 15.6229 14.5215 16.445 12.8544 15.6224L4.94653 11.72C3.77487 13.6379 2.39532 15.4683 1.37683 15.5066L19.2244 24.3139C18.1064 22.5409 21.9388 14.6946 21.9883 14.5945C24.0643 10.3876 22.4588 5.35442 18.4023 3.35263Z" fill="#F4B537"/>
<path d="M10.2641 7.64462C10.1479 7.64462 10.0309 7.60631 9.93356 7.52749C9.70762 7.3447 9.67263 7.01343 9.85537 6.7875C10.3483 6.1782 10.9305 5.6523 11.5858 5.22437C11.829 5.06542 12.1551 5.13393 12.314 5.37728C12.4729 5.62057 12.4044 5.94664 12.1611 6.10549C11.5978 6.47333 11.0973 6.92541 10.6735 7.44931C10.5695 7.5779 10.4175 7.64462 10.2641 7.64462Z" fill="white"/>
<path d="M13.476 5.421C13.2547 5.421 13.0488 5.2803 12.9761 5.05858C12.8856 4.78245 13.0361 4.48522 13.3123 4.39472C13.5122 4.32916 13.7178 4.2717 13.9232 4.22382C14.2062 4.15784 14.4891 4.33379 14.555 4.61681C14.621 4.89978 14.4451 5.1827 14.1621 5.24868C13.9865 5.28961 13.8108 5.33871 13.64 5.39469C13.5856 5.41247 13.5303 5.421 13.476 5.421Z" fill="white"/>
<path d="M17.7744 25.2421L1.41081 17.1671C0.775631 16.8536 0.514813 16.0846 0.828247 15.4494L0.848873 15.4076C1.16231 14.7725 1.93135 14.5116 2.56653 14.8251L18.9301 22.9001C19.5653 23.2136 19.8261 23.9826 19.5127 24.6178L19.4921 24.6596C19.1786 25.2948 18.4096 25.5556 17.7744 25.2421Z" fill="#FECA57"/>
<path d="M14.8727 24.3368C14.7945 24.3368 14.7152 24.3194 14.6403 24.2824L10.1421 22.0626C9.88145 21.934 9.77449 21.6185 9.90308 21.3579C10.0317 21.0974 10.3471 20.9903 10.6078 21.1189L15.106 23.3387C15.3666 23.4672 15.4736 23.7827 15.345 24.0433C15.2533 24.2291 15.0667 24.3368 14.8727 24.3368Z" fill="#F4B537"/>
<path d="M2.10814 5.18443L2.54033 6.39976C2.55885 6.4518 2.59547 6.49305 2.64172 6.51388L3.72146 7.00037C3.87399 7.06909 3.87399 7.31212 3.72146 7.38089L2.64172 7.86738C2.59547 7.88822 2.55885 7.92942 2.54033 7.98146L2.10814 9.19679C2.0471 9.36847 1.83111 9.36847 1.77008 9.19679L1.33789 7.98146C1.31937 7.92942 1.28275 7.88817 1.2365 7.86738L0.156759 7.38089C0.00422478 7.31218 0.00422478 7.06914 0.156759 7.00037L1.2365 6.51388C1.28275 6.49305 1.31937 6.4518 1.33789 6.39976L1.77008 5.18443C1.83111 5.01274 2.04705 5.01274 2.10814 5.18443Z" fill="#FECA57"/>
<path d="M7.47433 0.0954985L7.79492 0.996973C7.80866 1.03559 7.83581 1.06616 7.87011 1.08163L8.67104 1.44247C8.78421 1.49346 8.78421 1.67372 8.67104 1.72471L7.87011 2.08555C7.83581 2.10102 7.80866 2.13159 7.79492 2.17021L7.47433 3.07168C7.42903 3.19907 7.26887 3.19907 7.22356 3.07168L6.90297 2.17021C6.88924 2.13159 6.86209 2.10102 6.82778 2.08555L6.02686 1.72471C5.91374 1.67372 5.91374 1.49346 6.02686 1.44247L6.82778 1.08163C6.86209 1.06616 6.88924 1.03559 6.90297 0.996973L7.22356 0.0954985C7.26887 -0.0318328 7.42903 -0.0318328 7.47433 0.0954985Z" fill="#FECA57"/>
<path d="M25.9471 4.41425C26.0602 3.90553 25.7395 3.40144 25.2308 3.28833C24.722 3.17522 24.2179 3.49593 24.1048 4.00465C23.9917 4.51338 24.3124 5.01747 24.8212 5.13058C25.3299 5.24369 25.834 4.92298 25.9471 4.41425Z" fill="#FECA57"/>
<path d="M2.90758 3.00217C3.13241 3.00217 3.31467 2.81991 3.31467 2.59508C3.31467 2.37025 3.13241 2.18799 2.90758 2.18799C2.68275 2.18799 2.50049 2.37025 2.50049 2.59508C2.50049 2.81991 2.68275 3.00217 2.90758 3.00217Z" fill="#FECA57"/>
</g>
<defs>
<clipPath id="clip0_3371_1463">
<rect width="26" height="26" fill="white"/>
</clipPath>
</defs>
</svg>
