<svg width="205" height="150" viewBox="0 0 205 150" fill="none" xmlns="http://www.w3.org/2000/svg">
<path d="M121.005 34.8432C121.033 34.7634 121.692 33.6392 122.542 32.4153C126.499 26.7153 132.365 21.2217 139.245 21.4282L139.25 21.3859C136.141 21.0447 133.092 21.8731 130.417 23.3498C126.003 25.729 121.702 30.2633 119.349 33.7485L121.005 34.8432Z" fill="#F7CC7F"/>
<path d="M137.719 24.5791L138.184 21.3739L135.807 19.1725C135.747 19.116 135.703 19.0437 135.681 18.9637C135.659 18.8836 135.66 18.7991 135.683 18.7196C135.707 18.64 135.753 18.5687 135.815 18.5136C135.877 18.4585 135.953 18.4219 136.035 18.4078L139.224 17.8593L140.579 14.9187C140.614 14.8437 140.67 14.7799 140.739 14.7345C140.808 14.6891 140.889 14.6639 140.972 14.6618C141.054 14.6596 141.136 14.6806 141.208 14.7223C141.279 14.764 141.338 14.8249 141.377 14.898L142.884 17.7684L146.101 18.1519C146.183 18.1617 146.261 18.1945 146.326 18.2464C146.391 18.2983 146.44 18.3673 146.468 18.4456C146.495 18.524 146.5 18.6085 146.483 18.6896C146.465 18.7707 146.424 18.8451 146.366 18.9046L144.106 21.224L144.735 24.4021C144.751 24.4835 144.744 24.5678 144.715 24.6455C144.686 24.7232 144.635 24.7911 144.569 24.8416C144.503 24.8921 144.425 24.9232 144.342 24.9313C144.26 24.9395 144.176 24.9244 144.102 24.8877L141.196 23.4525L138.376 25.036C138.303 25.0767 138.221 25.0961 138.137 25.092C138.054 25.0879 137.973 25.0605 137.905 25.0129C137.836 24.9653 137.782 24.8994 137.75 24.8227C137.717 24.746 137.706 24.6616 137.719 24.5791Z" fill="#F7CC7F"/>
<path d="M75.1143 18.7116L74.6909 20.2824L75.961 21.3492L75.3614 23.0762L77.0637 23.7962L76.4721 25.7783L77.9583 26.6347L77.7008 28.6351L76.9441 28.5379L77.1363 27.0421L75.5679 26.1387L76.1372 24.2331L74.4054 23.5012L75.0672 21.5956L73.8274 20.5535L74.2197 19.0976L73.2629 18.5833L73.6241 17.9111L75.1143 18.7116Z" fill="#9BC1F9"/>
<path d="M39.2698 116.3C39.9267 117.034 40.3514 117.945 40.4902 118.92C40.6291 119.894 40.4758 120.888 40.0498 121.776C39.6239 122.663 38.9443 123.404 38.0971 123.906C37.2498 124.407 36.273 124.646 35.29 124.592C34.3071 124.538 33.3621 124.194 32.5747 123.603C31.7873 123.012 31.1928 122.201 30.8663 121.273C30.5398 120.344 30.4961 119.339 30.7405 118.386C30.985 117.432 31.5067 116.572 32.2398 115.915C32.7266 115.479 33.2947 115.143 33.9115 114.926C34.5283 114.709 35.1817 114.616 35.8346 114.651C36.4874 114.687 37.1268 114.851 37.7162 115.134C38.3056 115.417 38.8335 115.813 39.2698 116.3Z" fill="#F7CC7F"/>
<path d="M34.1071 121.986C34.5792 122.507 35.2386 122.821 35.9412 122.857C36.6437 122.894 37.3322 122.651 37.8562 122.182C38.3801 121.712 38.6969 121.054 38.7372 120.352C38.7775 119.65 38.5381 118.96 38.0714 118.434L34.1071 121.986Z" fill="#EFEFEF"/>
<path d="M165.214 144.481H45.9171C45.7673 144.481 45.6237 144.541 45.5177 144.647C45.4117 144.753 45.352 144.896 45.3518 145.046C45.3518 145.12 45.3664 145.194 45.3948 145.262C45.4233 145.331 45.4649 145.393 45.5174 145.446C45.5699 145.498 45.6322 145.54 45.7008 145.568C45.7694 145.597 45.8429 145.611 45.9171 145.611H165.214C165.288 145.611 165.361 145.597 165.43 145.568C165.498 145.54 165.561 145.498 165.613 145.446C165.666 145.393 165.707 145.331 165.736 145.262C165.764 145.194 165.779 145.12 165.779 145.046C165.779 144.896 165.719 144.753 165.613 144.647C165.507 144.541 165.363 144.481 165.214 144.481Z" fill="#184655" fill-opacity="0.1"/>
<path d="M33.8519 103.832L32.5515 103.094C32.211 103.637 31.8 104.133 31.3292 104.568C31.1582 104.724 30.9345 104.808 30.7034 104.805C30.4723 104.802 30.251 104.711 30.0846 104.551L30.0431 104.51C29.9528 104.423 29.8815 104.319 29.8335 104.203C29.7854 104.088 29.7618 103.964 29.7641 103.838C29.7663 103.713 29.7944 103.59 29.8465 103.476C29.8986 103.363 29.9737 103.261 30.067 103.178C30.504 102.794 30.8749 102.341 31.1649 101.837C31.6074 101.057 31.609 100.353 31.0613 100.042C30.5414 99.7467 29.9642 99.9986 29.0472 100.817C27.7237 102.003 26.4719 102.615 25.1443 101.861C23.9396 101.178 23.4763 99.7937 24.0193 98.1656L22.7189 97.4328L23.4795 96.0909L24.6843 96.7742C24.9381 96.3607 25.2362 95.976 25.5733 95.6269C25.7413 95.4573 25.9694 95.3607 26.2082 95.358C26.447 95.3553 26.6772 95.4467 26.849 95.6125C26.9369 95.6973 27.0068 95.7989 27.0546 95.9113C27.1023 96.0237 27.1269 96.1446 27.1269 96.2667C27.1269 96.3889 27.1023 96.5097 27.0546 96.6221C27.0068 96.7345 26.9369 96.8362 26.849 96.9209C26.5127 97.2462 26.2255 97.6187 25.9967 98.0268C25.492 98.9166 25.712 99.4221 26.0955 99.639C26.5468 99.8958 27.1065 99.5792 28.2045 98.6639C29.7034 97.3611 30.8293 97.1306 32.0611 97.8291C33.2802 98.5204 33.8312 99.9731 33.2125 101.702L34.6086 102.495L33.8519 103.832Z" fill="#FAE0B2"/>
<path d="M161.774 48.9062L160.913 51.0526L157.306 50.0488L155.661 53.0316L152.839 52.7214L152.682 54.1495L156.456 54.5649L158.016 51.7375L161.767 52.782L163.063 49.5529L161.774 48.9062Z" fill="#466EB6"/>
<path d="M155.536 124.923L156.291 123.048C155.503 122.689 154.766 122.227 154.099 121.675C153.859 121.474 153.704 121.189 153.667 120.877C153.63 120.566 153.713 120.253 153.899 120.001L153.946 119.938C154.046 119.801 154.173 119.687 154.319 119.602C154.465 119.517 154.627 119.463 154.796 119.443C154.964 119.424 155.134 119.44 155.296 119.489C155.457 119.539 155.607 119.621 155.736 119.731C156.328 120.248 157.001 120.664 157.729 120.962C158.853 121.416 159.802 121.292 160.116 120.502C160.418 119.753 159.977 119.025 158.716 117.943C156.891 116.382 155.846 114.814 156.62 112.9C157.319 111.164 159.092 110.295 161.37 110.732L162.125 108.856L164.06 109.636L163.36 111.373C163.959 111.639 164.528 111.969 165.056 112.358C165.314 112.553 165.485 112.842 165.531 113.162C165.577 113.482 165.496 113.808 165.304 114.068C165.206 114.201 165.083 114.313 164.941 114.398C164.799 114.483 164.641 114.538 164.477 114.56C164.314 114.582 164.147 114.572 163.988 114.528C163.828 114.485 163.679 114.409 163.549 114.307C163.053 113.915 162.503 113.596 161.915 113.362C160.632 112.845 159.995 113.231 159.773 113.784C159.51 114.435 160.033 115.127 161.456 116.435C163.471 118.21 163.981 119.677 163.265 121.453C162.558 123.207 160.709 124.208 158.282 123.686L157.471 125.702L155.536 124.923Z" fill="#96D9C9"/>
<path d="M50.2817 60.0792C50.3745 60.2018 50.4219 60.3528 50.4156 60.5064C50.4094 60.66 50.3499 60.8066 50.2474 60.9212C49.6947 61.5164 49.0357 62.0031 48.3043 62.3564C47.0597 62.9632 45.6317 63.1449 44.2858 62.6809C43.4446 62.3907 42.6441 61.8038 42.0429 60.9978L41.3078 61.3557C41.2484 61.3847 41.1838 61.4017 41.1178 61.4057C41.0519 61.4098 40.9857 61.4007 40.9232 61.3792C40.8607 61.3576 40.8031 61.324 40.7536 61.2802C40.7041 61.2363 40.6638 61.1832 40.6348 61.1237L40.6253 61.1046C40.567 60.9847 40.5587 60.8465 40.6022 60.7205C40.6457 60.5945 40.7374 60.4909 40.8573 60.4324L41.4609 60.1382C41.3413 59.9397 41.2575 59.8193 41.2025 59.7037C41.0971 59.4816 41.0086 59.2518 40.9378 59.0164L40.3159 59.3194C40.2565 59.3485 40.192 59.3655 40.1259 59.3696C40.0599 59.3737 39.9938 59.3647 39.9312 59.3431C39.8687 59.3216 39.8111 59.2879 39.7616 59.244C39.7121 59.2001 39.6718 59.1469 39.643 59.0874C39.614 59.0279 39.597 58.9634 39.593 58.8974C39.589 58.8314 39.598 58.7653 39.6195 58.7028C39.6411 58.6403 39.6747 58.5827 39.7186 58.5332C39.7624 58.4837 39.8155 58.4433 39.875 58.4144L40.6293 58.0477C40.414 57.0789 40.4522 56.1038 40.7417 55.2626C41.2352 53.833 42.3156 52.7462 43.6168 52.1124C44.2176 51.8095 44.8674 51.6156 45.536 51.5399C45.7108 51.5214 45.886 51.5715 46.0246 51.6797C46.1632 51.7878 46.2544 51.9455 46.2791 52.1195V52.1307C46.2915 52.2197 46.2862 52.3103 46.2634 52.3973C46.2407 52.4842 46.2009 52.5658 46.1464 52.6372C46.0919 52.7087 46.0238 52.7687 45.9459 52.8137C45.8681 52.8586 45.7822 52.8878 45.6931 52.8993C45.1742 52.9742 44.6708 53.1319 44.2021 53.3666C43.3728 53.77 42.672 54.4382 42.3244 55.4013C42.1128 55.9958 42.093 56.6416 42.2678 57.2479L46.5095 55.1813C46.6295 55.123 46.7678 55.1146 46.894 55.1581C47.0201 55.2016 47.1239 55.2934 47.1825 55.4133C47.2115 55.4727 47.2286 55.5372 47.2327 55.6033C47.2368 55.6693 47.2278 55.7354 47.2062 55.798C47.1847 55.8605 47.151 55.9181 47.1071 55.9676C47.0632 56.0171 47.01 56.0574 46.9504 56.0862L42.5213 58.2478C42.601 58.4639 42.6856 58.6807 42.7501 58.8123C42.8299 58.9821 42.9152 59.1519 43.0443 59.3704L47.4846 57.2073C47.5455 57.1778 47.6115 57.1606 47.679 57.1567C47.7465 57.1528 47.814 57.1622 47.8779 57.1844C47.9417 57.2066 48.0005 57.2412 48.051 57.2862C48.1014 57.3311 48.1425 57.3856 48.1719 57.4465C48.2014 57.5073 48.2186 57.5733 48.2225 57.6408C48.2264 57.7083 48.217 57.7759 48.1948 57.8397C48.1726 57.9035 48.138 57.9624 48.093 58.0128C48.0481 58.0633 47.9936 58.1044 47.9327 58.1338L43.6806 60.2068C44.0465 60.661 44.5295 61.0064 45.0775 61.2059C46.0774 61.5351 46.9608 61.4315 47.9032 60.9722C48.4132 60.7232 48.8819 60.3972 49.293 60.0059C49.3606 59.9413 49.441 59.8918 49.5291 59.8606C49.6172 59.8293 49.7109 59.8171 49.804 59.8246C49.8971 59.8321 49.9876 59.8593 50.0696 59.9043C50.1515 59.9492 50.2229 60.0111 50.2793 60.0856L50.2817 60.0792Z" fill="#86B1F2"/>
<path d="M36.5669 73.483L34.3719 73.7063L33.6232 70.2132L30.3733 70.143L29.3854 67.6211L28.1089 68.121L29.4293 71.4945L32.5093 71.5607L33.2883 75.1941L36.5916 74.8592L36.5669 73.483Z" fill="#50BFA5"/>
<path d="M141.216 47.9406L142.595 48.3959C142.595 48.3959 144.78 47.687 144.996 47.2421C145.211 46.7972 145.272 45.7161 145.583 45.6866C145.894 45.6571 146.494 45.7583 146.637 46.4974C146.741 47.0348 145.955 48.5864 146.079 48.7515C146.159 48.8551 146.941 49.139 147.514 49.3367C147.701 49.4017 147.867 49.5171 147.992 49.67C148.118 49.8229 148.198 50.0075 148.226 50.2034C148.245 50.3358 148.219 50.4709 148.152 50.5867C148.085 50.7026 147.981 50.7923 147.857 50.8413L147.458 50.9943L147.585 51.4034C147.63 51.5503 147.616 51.709 147.546 51.846C147.477 51.983 147.356 52.0873 147.211 52.1369L146.904 52.2398L147.002 52.4893C147.032 52.5654 147.045 52.6469 147.042 52.7285C147.039 52.8102 147.019 52.8903 146.983 52.9638C146.947 53.0372 146.896 53.1025 146.834 53.1553C146.772 53.2081 146.699 53.2474 146.621 53.2707L146.353 53.3504L146.364 53.4222C146.386 53.5659 146.354 53.7128 146.275 53.8346C146.195 53.9564 146.074 54.0446 145.933 54.0824L145.667 54.1525L142.003 52.9422C141.659 52.8288 141.342 52.6449 141.073 52.4024L139.851 51.755C139.787 51.7206 139.738 51.6645 139.712 51.597C139.686 51.5295 139.685 51.4549 139.709 51.3866L140.839 48.132C140.865 48.0571 140.918 47.9951 140.989 47.9593C141.059 47.9235 141.141 47.9168 141.216 47.9406Z" fill="#FAE0B2"/>
<path d="M57.2008 52.3141C57.1705 52.228 56.4346 50.9698 55.485 49.6032C51.0686 43.2405 44.5186 37.1075 36.8364 37.3371L36.8308 37.2909C40.3032 36.9098 43.7061 37.8347 46.6929 39.4827C51.6204 42.1394 56.4203 47.2008 59.0514 51.0918L57.2008 52.3141Z" fill="#F7CC7F"/>
<path d="M38.5418 40.8591L38.0227 37.2807L40.6762 34.8233C40.7451 34.7606 40.795 34.6798 40.8201 34.59C40.8452 34.5003 40.8446 34.4053 40.8183 34.316C40.7921 34.2266 40.7412 34.1464 40.6715 34.0845C40.6018 34.0227 40.5161 33.9817 40.4242 33.9662L36.8594 33.3539L35.3445 30.0713C35.3057 29.9871 35.244 29.9155 35.1666 29.8645C35.0892 29.8136 34.999 29.7853 34.9064 29.7829C34.8137 29.7805 34.7222 29.804 34.6423 29.8509C34.5623 29.8978 34.497 29.9661 34.4539 30.0482L32.7699 33.2526L29.182 33.68C29.0887 33.6896 29.0001 33.7254 28.9263 33.7832C28.8525 33.8411 28.7965 33.9186 28.7648 34.0068C28.7332 34.0951 28.7271 34.1905 28.7473 34.282C28.7675 34.3736 28.8131 34.4576 28.879 34.5243L31.4033 37.114L30.7009 40.6613C30.6829 40.7523 30.6908 40.8464 30.7235 40.9332C30.7562 41.0199 30.8125 41.0958 30.886 41.1523C30.9596 41.2087 31.0474 41.2435 31.1396 41.2527C31.2319 41.2619 31.3249 41.2451 31.4081 41.2043L34.6508 39.6041L37.8074 41.3686C37.8887 41.414 37.9812 41.4356 38.0742 41.4311C38.1672 41.4265 38.257 41.396 38.3335 41.3429C38.4101 41.2898 38.4701 41.2163 38.5069 41.1308C38.5437 41.0453 38.5558 40.9511 38.5418 40.8591Z" fill="#F7CC7F"/>
<path d="M158.678 102.943L158.927 102.094C160.244 101.848 161.378 100.96 161.752 99.688C161.873 99.2918 161.96 98.8861 162.014 98.4753L160.249 97.9674L160.564 96.8982L162.158 97.3574C162.223 96.7201 162.34 96.0892 162.507 95.471C163.095 93.4689 164.867 92.5615 166.768 93.1093C167.22 93.2315 167.65 93.4224 168.044 93.6754C168.179 93.7661 168.273 93.9065 168.305 94.066C168.337 94.2255 168.304 94.3912 168.215 94.5269C168.123 94.6625 167.982 94.7576 167.822 94.7925C167.662 94.8274 167.495 94.7994 167.355 94.7143C167.062 94.5403 166.746 94.4063 166.417 94.3156C165.081 93.9313 164.265 94.6896 163.911 95.8943C163.696 96.6239 163.64 97.1964 163.583 97.7688L166.051 98.4793L165.737 99.5477L163.407 98.8771C163.269 99.5365 163.114 100.191 162.78 100.758C162.377 101.423 161.776 101.945 161.06 102.25L161.051 102.283L165.553 103.58C165.632 103.602 165.706 103.64 165.77 103.69C165.834 103.741 165.888 103.804 165.927 103.876C165.967 103.947 165.992 104.026 166.001 104.108C166.01 104.189 166.003 104.271 165.981 104.35L165.968 104.395C165.92 104.554 165.812 104.688 165.666 104.767C165.52 104.846 165.349 104.865 165.19 104.819L158.678 102.943Z" fill="#F7CC7F"/>
<path d="M23.3616 53.0298L24.1996 51.6137L23.5083 50.1212C23.4894 50.0827 23.4818 50.0397 23.4865 49.9971C23.4912 49.9545 23.5079 49.9141 23.5346 49.8807C23.5614 49.8472 23.5971 49.8221 23.6376 49.8082C23.6781 49.7943 23.7218 49.7922 23.7634 49.8022L25.3685 50.161L26.5748 49.0448C26.6061 49.0169 26.6446 48.9984 26.6858 48.9912C26.7271 48.9839 26.7696 48.9884 26.8085 49.0039C26.8474 49.0195 26.8812 49.0456 26.9061 49.0793C26.931 49.113 26.9461 49.1529 26.9495 49.1947L27.1034 50.8324L28.5386 51.6297C28.5754 51.6503 28.6057 51.6807 28.6261 51.7176C28.6465 51.7545 28.6562 51.7963 28.6541 51.8384C28.6521 51.8805 28.6383 51.9212 28.6144 51.9558C28.5904 51.9905 28.5573 52.0178 28.5187 52.0347L27.0085 52.6869L26.6896 54.3007C26.6814 54.3421 26.6618 54.3803 26.633 54.4111C26.6042 54.4419 26.5674 54.4641 26.5267 54.4751C26.4861 54.4861 26.4431 54.4855 26.4027 54.4735C26.3623 54.4614 26.3261 54.4383 26.2981 54.4068L25.213 53.1733L23.5801 53.3695C23.5384 53.3737 23.4965 53.3664 23.4588 53.3482C23.4211 53.3301 23.3892 53.3019 23.3666 53.2667C23.3439 53.2315 23.3315 53.1908 23.3306 53.1489C23.3297 53.1071 23.3405 53.0659 23.3616 53.0298Z" fill="#466EB6"/>
<path d="M178.113 75.7671L176.103 75.6045L175.829 77.4639L173.841 77.3913L173.36 79.1366L171.864 79.3256L171.96 80.0831L173.96 79.8303L174.416 78.1767L176.484 78.2516L176.754 76.4233L178.576 76.5701L178.113 75.7671Z" fill="#F48C7F"/>
<path d="M70.5106 30.631L70.3878 28.6178L68.5085 28.6082L68.3004 26.6301L66.5048 26.3996L66.107 24.9453L65.3702 25.1462L65.9029 27.0925L67.6043 27.311L67.8212 29.3681L69.6694 29.3776L69.781 31.2019L70.5106 30.631Z" fill="#F48C7F"/>
<path d="M26.9391 90.0474L28.458 90.6271L29.6484 89.4718L31.3061 90.2428L32.1943 88.6218L34.107 89.4112L35.1085 88.019L37.0731 88.4775L36.9001 89.2206L35.4314 88.8778L34.3734 90.3464L32.5347 89.5882L31.6322 91.237L29.8031 90.3863L28.6406 91.5145L27.2325 90.9763L26.6242 91.8765L25.9911 91.4491L26.9391 90.0474Z" fill="#F7CC7F"/>
<path d="M118.602 26.0264L118.504 27.2511L116.515 27.3101L116.151 29.0833L114.67 29.3711L114.816 30.1198L116.796 29.7355L117.142 28.0556L119.209 27.9942L119.358 26.1515L118.602 26.0264Z" fill="#50BFA5"/>
<path d="M158.932 26.2272C159.754 27.0148 160.323 28.0284 160.569 29.1397C160.814 30.251 160.724 31.4101 160.311 32.4704C159.897 33.5307 159.179 34.4446 158.246 35.0965C157.313 35.7483 156.208 36.1089 155.07 36.1325C153.932 36.1562 152.813 35.8419 151.854 35.2293C150.895 34.6168 150.139 33.7335 149.681 32.6913C149.224 31.6491 149.087 30.4947 149.286 29.3742C149.485 28.2537 150.011 27.2173 150.799 26.3962C151.856 25.2956 153.306 24.6594 154.831 24.6277C156.356 24.596 157.831 25.1714 158.932 26.2272Z" fill="#FFF3D9"/>
<path d="M158.834 31.0376L156.385 31.7903L155.618 34.2341C155.604 34.2786 155.578 34.3182 155.542 34.3486C155.507 34.379 155.464 34.3989 155.418 34.4061C155.372 34.4132 155.325 34.4073 155.282 34.389C155.239 34.3707 155.202 34.3408 155.175 34.3027L153.702 32.2065L151.141 32.2312C151.095 32.2317 151.049 32.2191 151.01 32.195C150.97 32.1709 150.938 32.1361 150.917 32.0947C150.896 32.0532 150.886 32.0067 150.89 31.9604C150.894 31.9141 150.911 31.8698 150.939 31.8325L152.478 29.7842L151.663 27.3556C151.648 27.3113 151.645 27.2636 151.656 27.218C151.667 27.1724 151.69 27.1308 151.723 27.0979C151.757 27.065 151.799 27.0422 151.844 27.0321C151.89 27.0219 151.938 27.0249 151.982 27.0406L154.405 27.8706L156.463 26.3454C156.5 26.3175 156.545 26.3007 156.591 26.2968C156.638 26.2929 156.684 26.3021 156.726 26.3233C156.767 26.3446 156.802 26.377 156.826 26.417C156.85 26.457 156.862 26.5029 156.861 26.5495L156.82 29.1105L158.907 30.5959C158.945 30.623 158.974 30.6602 158.992 30.7032C159.01 30.7462 159.015 30.7934 159.008 30.8393C159 30.8853 158.98 30.9282 158.949 30.9632C158.919 30.9983 158.879 31.0241 158.834 31.0376Z" fill="#FED333"/>
<path d="M175.236 55.8847L176.586 55.8049C176.62 55.7999 176.653 55.786 176.68 55.7645C176.707 55.743 176.729 55.7147 176.742 55.6825C176.755 55.6502 176.759 55.6151 176.754 55.5807C176.75 55.5462 176.736 55.5136 176.715 55.486L175.855 54.361L176.226 52.9258C176.238 52.8933 176.239 52.8583 176.232 52.8249C176.224 52.7914 176.206 52.7609 176.182 52.7369C176.157 52.7129 176.126 52.6965 176.092 52.6895C176.059 52.6826 176.024 52.6855 175.992 52.6978L174.735 53.267L173.615 52.4641C173.586 52.4459 173.552 52.4363 173.518 52.4365C173.483 52.4368 173.45 52.4468 173.421 52.4655C173.392 52.4842 173.369 52.5107 173.355 52.542C173.341 52.5732 173.336 52.6079 173.341 52.6419L173.42 54.1186L172.357 55.0538C172.331 55.0768 172.312 55.1062 172.3 55.1392C172.289 55.1721 172.287 55.2074 172.293 55.2416C172.3 55.2759 172.315 55.3077 172.338 55.3341C172.361 55.3604 172.39 55.3804 172.423 55.3919L173.737 55.7332L174.2 57.1149C174.209 57.1479 174.228 57.1772 174.255 57.1992C174.281 57.2212 174.313 57.2348 174.347 57.2381C174.381 57.2415 174.415 57.2345 174.445 57.218C174.475 57.2016 174.5 57.1765 174.515 57.146L175.236 55.8847Z" fill="#F47458"/>
<path d="M72.4711 80.819C72.4711 80.819 74.8902 76.165 75.2618 74.4563C75.6333 72.7477 76.8979 64.1509 76.8269 63.5904C76.693 62.5332 75.3048 61.8483 75.5584 61.3778C75.8119 60.9074 77.1267 60.7607 77.5748 60.8014C78.0229 60.842 78.9239 61.1028 79.3098 61.4201C79.6957 61.7374 78.876 72.0484 78.6313 74.2682C78.3865 76.4879 75.3822 83.3242 75.3822 83.3242L72.4711 80.819Z" fill="#F7A491"/>
<path d="M79.746 61.229C79.6925 61.2633 79.4892 61.3231 79.4414 61.3661L79.0698 61.4834C79.0698 61.4834 80.0266 61.4586 80.5895 62.0646C80.3774 61.7241 80.0885 61.4379 79.746 61.229Z" fill="#F47257"/>
<path d="M125.468 63.0968C125.843 62.8114 126.034 62.0946 126.114 61.6313L126.304 61.0222C126.16 60.9552 123.316 60.4162 122.454 60.354C122.357 60.6235 122.305 60.8523 122.325 61.0006C122.42 61.7126 123.111 66.3355 123.111 66.3355L125.574 66.495C125.574 66.495 125.162 63.7562 125.468 63.0968Z" fill="#F7A491"/>
<path d="M125.527 61.1548C125.527 61.1548 125.019 61.3852 124.454 62.0661C124.454 62.0661 123.099 61.1093 123.163 60.8271C123.243 60.4547 124.638 61.217 124.638 61.217L125.527 61.1548Z" fill="#F47458"/>
<path d="M137.538 128.763C137.538 128.763 140.853 131.155 141.374 131.866C142.126 132.892 135.76 134.816 136.455 133.61C136.614 133.333 137.073 132.403 137.093 132.311C137.2 131.823 135.849 130.504 135.849 130.504L137.538 128.763Z" fill="#F7A491"/>
<path d="M134.735 135.619L136.986 132.439C136.986 132.439 138.391 132.113 139.833 130.49C139.833 130.49 141.129 130.985 141.926 132.057C140.733 133.296 139.454 134.449 138.099 135.508C137.126 136.319 136.016 136.949 134.822 137.37C132.919 138.012 134.735 135.619 134.735 135.619Z" fill="#F7CC7F"/>
<path d="M164.602 69.8122C164.602 69.8122 163.745 71.2258 163.65 71.1397C163.577 71.0736 164.088 70.3289 164.452 69.4271C164.545 69.1951 164.637 68.9654 164.719 68.7541C164.935 68.196 164.668 67.9122 164.352 68.4575C164.207 68.7037 164.078 68.9597 163.968 69.2238C163.865 69.4925 163.687 69.7077 163.569 69.9206C163.33 70.344 163.164 70.6558 163.152 70.6382C163.14 70.6207 163.033 70.6645 163.125 70.415C163.235 70.1152 163.603 69.5291 163.735 69.0763C163.809 68.8195 163.994 68.2917 163.994 68.2917C163.994 68.2917 164.129 67.4441 164.084 67.4202C163.837 67.2918 163.586 67.8476 163.53 68.2088C163.38 68.4224 163.201 68.983 163.201 68.983C163.201 68.983 162.592 70.0386 162.447 69.9557C162.385 69.9206 162.686 69.2293 162.874 68.5062C163.051 67.8348 163.123 67.13 163 67.0766C162.79 66.9865 162.517 67.7144 162.517 67.7144C162.517 67.7144 162.352 68.2327 162.285 68.4009C162.205 68.5979 161.925 69.1703 161.925 69.1703C161.925 69.1703 160.827 71.1062 160.697 71.0153C160.567 70.9245 160.355 70.5649 160.379 70.4213C160.402 70.2778 160.585 70.0386 160.611 69.8951C160.638 69.7516 160.552 69.5443 160.383 69.502C160.213 69.4598 159.832 70.1088 159.832 70.1088C159.832 70.1088 159.525 70.639 159.517 71.0656C159.489 72.5319 159.728 72.4737 159.719 72.6602C159.71 72.8827 158.011 75.3313 158.011 75.3313L157.979 75.3687L159.994 76.835C160.666 75.7419 161.19 74.8856 161.342 74.6177C161.342 74.6177 162.353 73.7526 162.971 73.1889C163.589 72.6251 163.935 71.8135 164.087 71.6277C164.438 71.1225 164.727 70.5769 164.949 70.0027C165.269 69.1783 164.602 69.8122 164.602 69.8122Z" fill="#F8A492"/>
<path d="M142.61 104.206L142.086 106.798L128.907 118.785L138.34 128.332L135.789 130.935C135.789 130.935 121.857 120.705 121.357 119.363C120.584 117.299 131.344 103.627 131.344 103.627L142.61 104.206Z" fill="#B75742"/>
<path d="M152.314 135.932C152.314 135.932 155.628 138.324 156.149 139.034C156.901 140.06 150.535 141.984 151.23 140.779C151.389 140.502 151.848 139.571 151.868 139.481C151.975 138.991 150.624 137.672 150.624 137.672L152.314 135.932Z" fill="#F7A491"/>
<path d="M149.505 142.801L151.755 139.62C151.755 139.62 153.25 139.352 154.693 137.729C154.693 137.729 155.899 138.166 156.697 139.238C155.503 140.477 154.224 141.63 152.869 142.689C151.896 143.5 150.786 144.131 149.592 144.551C147.689 145.193 149.505 142.801 149.505 142.801Z" fill="#F7CC7F"/>
<path d="M142.163 105.406L142.369 122.443L152.836 135.575L150.372 138.313C150.372 138.313 137.41 127.535 135.99 124.44C135.113 122.526 131.901 104.378 131.901 104.378L142.163 105.406Z" fill="#F47458"/>
<path d="M131.529 104.064C132.601 101.645 132.477 84.3036 136.648 80.2412C138.116 80.4892 139.163 80.6287 139.407 80.6925C139.625 82.4793 139.865 89.0349 140.012 95.0443C140.11 99.0469 140.012 103.245 140.501 105.457C140.807 106.827 130.55 106.275 131.529 104.064Z" fill="#FAE0B2"/>
<path d="M113.865 90.1891C111.427 90.3294 110.401 90.7161 109.65 90.5734C108.9 90.4307 106.901 89.7163 106.939 88.9668C109.618 88.431 114.295 89.261 114.295 89.261C113.971 90.8238 113.865 90.1891 113.865 90.1891Z" fill="#F7A491"/>
<path d="M134.869 80.7934C134.869 80.7934 133.787 86.1092 132.526 87.0229C131.266 87.9366 124.872 91.1498 124.482 91.1267C122.549 91.0151 113.305 90.638 113.305 90.638L113.59 87.6735L124.009 86.8283C124.009 86.8283 131.552 81.8849 132.569 81.1028C133.283 80.6523 134.869 80.7934 134.869 80.7934Z" fill="#466EB6"/>
<path d="M131.11 105.223C130.173 105.223 129.827 105.094 129.202 104.905C129.202 104.905 128.792 97.9447 130.789 87.6242C131.542 83.7332 131.562 81.3715 133.101 80.7728C134.489 80.233 136.186 80.1612 136.649 80.2393C132.562 91.8005 132.549 100.699 131.97 103.282C131.679 104.576 131.426 105.231 131.11 105.223Z" fill="#466EB6"/>
<path d="M137.079 78.4949L136.651 80.2411C136.651 80.2411 136.553 81.7624 137.259 81.8987C138.111 82.0638 139.375 80.7896 139.375 80.7896L140.108 75.8638L137.079 78.4949Z" fill="#F7A491"/>
<path d="M137.079 78.4949L136.651 80.2411C136.651 80.2411 136.553 81.7624 137.259 81.8987C138.111 82.0638 139.375 80.7896 139.375 80.7896L140.108 75.8638L137.079 78.4949Z" fill="#F7A491"/>
<path d="M140.101 75.8862L137.079 78.4951L136.76 79.7995C137.914 79.522 139.561 78.2511 140.101 75.8862Z" fill="#F47458"/>
<path d="M137.069 71.354C136.338 71.354 135.681 71.8587 135.424 72.5883C135.133 73.4111 134.912 74.2572 134.764 75.1174C134.446 77.011 135.524 78.7452 136.462 78.8839C137.4 79.0227 139.636 78.4008 140.13 75.717C140.341 74.5664 140.62 73.0579 139.674 72.2653C138.94 71.649 137.909 71.3604 137.069 71.354Z" fill="#F7A491"/>
<path d="M139.826 77.7623C139.826 77.7623 143.135 74.8122 143.279 72.5096C143.423 70.2069 141.296 68.9718 139.477 68.9081C138.733 68.8785 137.988 68.917 137.251 69.0229C135.428 69.2525 134.246 70.0594 134.662 71.5536C135.221 73.5588 139.003 71.8669 139.776 72.4896C140.414 73.0031 139.378 74.2382 140 74.7094C140.583 75.1519 140.286 75.002 140.093 75.844C139.962 76.4769 139.873 77.1178 139.826 77.7623Z" fill="#13375B"/>
<path d="M141.102 75.0906C141.022 75.6432 140.682 76.0474 140.348 76.0011C140.014 75.9549 139.809 75.4645 139.891 74.912C139.973 74.3595 140.311 73.9552 140.645 74.0023C140.979 74.0493 141.184 74.5389 141.102 75.0906Z" fill="#F7A491"/>
<path d="M126.035 60.2265C125.738 59.7075 125.295 60.2409 125.582 60.9162C125.589 60.9423 125.589 60.9699 125.582 60.9959C125.508 61.1722 124.819 61.7223 124.819 61.7223C124.819 61.7223 125.371 63.2643 125.681 62.8585C125.99 62.4527 126.226 61.1387 126.226 61.1387L126.035 60.2265Z" fill="#F7A491"/>
<path d="M160.914 76.005L158.66 73.7725C158.66 73.7725 154.379 79.9166 152.207 80.9827C150.096 82.0192 143.068 81.6413 142.82 81.5854C141.978 81.3933 139.387 80.6845 139.387 80.6845C139.387 80.6845 137.215 99.3291 140.044 105.811C140.968 107.926 146.709 106.524 146.709 106.524C146.709 106.524 144.938 98.7606 144.843 97.7448C144.753 96.7729 144.26 89.0731 144.339 88.9942C144.546 88.7877 152.384 87.0806 154.533 85.4469C156.801 83.7255 160.914 76.005 160.914 76.005Z" fill="#466EB6"/>
<path d="M51.5071 92.9241C55.3717 96.9514 58.7628 93.3826 58.5977 93.4424C58.7301 93.3866 59.5776 93.3906 60.1302 93.369C62.432 93.2789 64.529 91.6293 65.4435 89.4422C68.8888 88.9917 71.1412 85.808 70.1326 83.0525C71.6547 81.1572 71.1859 78.1306 69.7451 76.1955C69.4102 73.0189 65.2602 72.4815 62.4041 73.5938C60.9562 74.1583 59.7235 75.3774 59.0889 76.8556C56.3357 76.7895 53.986 78.8147 53.3721 81.634C49.088 82.826 47.562 88.8139 51.5071 92.9241Z" fill="#181615"/>
<path d="M76.3334 131.95C76.0571 133.418 75.6616 134.86 75.1509 136.263C75.1055 136.371 74.6725 136.766 74.6247 136.877C74.8567 139.529 76.5462 141.103 78.1329 142.228C77.7893 140.89 77.023 139.357 77.1219 139.058C77.6767 137.224 78.3697 135.435 79.195 133.706C77.8786 133.558 77.4082 132.755 76.3334 131.95Z" fill="#F7A491"/>
<path d="M71.5016 100.395L62.3324 106.656C62.3324 106.656 66.7974 109.555 68.3291 111.015C69.8607 112.474 78.0524 119.092 78.1864 119.426C78.2853 119.674 77.4257 122.813 75.4556 132.861C76.327 133.752 78.2462 134.625 79.3816 134.913C81.764 129.552 84.4549 118.398 84.1528 117.171C83.6839 115.267 71.5016 100.395 71.5016 100.395Z" fill="#355389"/>
<path d="M48.2851 112.995C48.5538 113.258 50.3438 116.743 51.0247 118.609C52.0213 117.982 52.6241 117.234 53.7356 116.811C52.8585 115.54 51.1443 112.481 51.0031 111.753C50.6691 110.025 50.2768 109.771 50.2768 109.771C50.2768 109.771 44.4866 111.73 44.1007 112.279C43.7148 112.829 47.2015 111.94 48.2851 112.995Z" fill="#F7A491"/>
<path d="M51.0725 112.137C51.5214 112.137 51.0334 110.107 50.9306 109.639C50.815 109.113 50.5096 108.955 50.4339 108.937C50.2289 108.886 43.7929 111.063 42.7054 111.846C42.6193 111.921 42.5434 112.008 42.4798 112.103C41.8842 113.215 47.1895 113.426 47.9534 112.94C48.6367 112.508 49.0513 112.131 51.0725 112.137Z" fill="#3C8F7C"/>
<path d="M73.1671 102.353C73.1671 102.353 65.3996 99.2946 65.2984 99.6199C64.4947 102.21 61.9919 101.374 60.5064 105.937C59.8837 107.851 59.3902 112.892 58.9748 116.633C58.6861 119.204 58.2835 121.264 58.2835 121.264C58.2835 121.264 56.4855 118.604 53.1009 114.791C52.8386 114.496 50.1053 117.094 50.1053 117.094C55.4969 127.784 59.4293 129.293 60.2888 129.005C64.1837 127.688 69.348 109.769 69.3392 109.771C69.9723 108.537 73.1671 102.353 73.1671 102.353Z" fill="#466EB6"/>
<path d="M61.1794 84.2412C61.1794 84.2412 51.9057 84.2292 49.9204 84.1176C48.124 84.0139 40.9967 84.1973 40.7185 84.163C40.4402 84.1287 38.5976 81.0104 38.2914 81.3461C37.9852 81.6817 39.316 82.8929 38.9046 83.207C38.4931 83.5212 34.0696 82.8171 34.1286 83.144C34.2378 83.7564 36.8188 83.6782 36.8164 83.9741C36.814 84.2699 34.115 83.8082 33.9324 84.2986C33.7499 84.7889 36.5277 84.4987 36.6386 84.7172C36.7494 84.9356 34.0616 85.3367 34.3367 85.7928C34.4858 86.0407 36.7183 85.3789 36.7071 85.713C36.696 86.0471 35.0678 86.8181 35.268 87.0876C35.4681 87.3571 36.5437 86.2624 37.4909 86.2488C38.4381 86.2353 39.1127 85.7417 40.6204 86.1555C41.3651 86.3597 47.0516 87.0549 51.8555 87.4655C56.7814 87.8865 60.8182 88.0237 60.8182 88.0237L61.1794 84.2412Z" fill="#F7A491"/>
<path d="M74.9292 92.4846C75.052 90.9952 74.7594 88.1615 74.69 87.6671C75.1405 86.1211 76.0981 82.821 76.4442 82.1728C76.4442 82.1728 74.8296 79.0704 73.1751 79.0919C73.1751 79.0919 71.4872 82.8967 70.1828 83.5769C70.1636 83.5721 69.7211 83.7746 69.5266 83.773C68.266 83.7642 63.8656 83.6303 63.0411 83.6135L63.5036 89.8598C65.2394 94.4611 64.9228 98.5331 64.6198 99.9515C64.4492 100.74 72.0956 103.109 73.2708 102.353C73.3163 102.325 74.6805 95.4945 74.9292 92.4846Z" fill="#FF8200"/>
<path d="M65.2808 83.8524C64.4691 83.4641 58.5921 83.6586 58.5921 83.6586C58.5921 83.6586 57.7708 87.7513 58.4326 88.7352C58.4326 88.7352 63.6878 89.5165 63.5355 89.9479L65.2808 83.8524Z" fill="#FF8200"/>
<path d="M66.3054 80.989C66.3054 80.989 66.9162 83.1418 67.023 84.0675C67.1299 84.9931 68.5491 87.8946 70.4762 87.4768C72.4034 87.059 70.3925 84.3609 70.0154 83.5093C69.6382 82.6578 68.6177 79.2197 68.6177 79.2197L66.3054 80.989Z" fill="#F7A491"/>
<path d="M69.0483 80.6294C68.8091 79.8456 68.6201 79.2197 68.6201 79.2197L66.3079 80.989C66.3079 80.989 66.4203 81.3877 66.5574 81.9091C67.7797 82.0749 68.6169 81.4865 69.0483 80.6294Z" fill="#F47257"/>
<path d="M64.6262 74.55C63.9703 74.9715 63.4862 75.6133 63.2612 76.3599C62.9072 77.5894 63.3768 80.7452 66.0184 81.4628C68.6599 82.1804 69.7658 79.6688 69.1925 77.7209C68.6192 75.7731 67.4073 73.3181 64.6262 74.55Z" fill="#F7A491"/>
<path d="M69.5099 76.9623C69.466 77.4885 69.1822 77.8944 68.876 77.8688C68.5698 77.8433 68.357 77.396 68.3976 76.8698C68.4383 76.3436 68.7253 75.9385 69.0355 75.964C69.3456 75.9895 69.5537 76.4368 69.5099 76.9623Z" fill="#F7A491"/>
<path d="M75.1311 136.329C74.9644 135.911 73.2869 137.242 72.8914 137.511C72.4465 137.815 72.413 138.157 72.4241 138.234C72.4529 138.438 76.7217 143.696 77.9695 144.422C78.1079 144.482 78.2616 144.497 78.4089 144.464C79.1025 144.197 77.9735 139.895 77.063 139.046C76.4746 138.495 75.8782 138.207 75.1311 136.329Z" fill="#3C8F7C"/>
<path d="M64.9317 74.3901C64.9317 74.3901 64.5067 77.9215 63.3761 78.5745C62.2455 79.2275 62.7462 80.7831 62.7462 80.7831C62.7462 80.7831 61.6595 77.1648 62.5437 75.9848C63.428 74.8047 64.9317 74.3901 64.9317 74.3901Z" fill="#181615"/>
<path d="M64.0586 79.0673C64.3775 79.5218 64.3775 80.0632 64.0737 80.2768C63.7699 80.4905 63.2613 80.2944 62.9455 79.8399C62.6298 79.3854 62.6266 78.8441 62.9304 78.6304C63.2341 78.4167 63.7428 78.616 64.0586 79.0673Z" fill="#F7A491"/>
<path d="M111.922 45.7371C110.481 46.021 104.722 53.7375 104.722 53.7375L104.52 54.2709C104.52 54.2709 114.938 53.1124 115.315 52.6674C116.334 51.4651 113.107 45.5043 111.922 45.7371ZM104.795 53.8993C106.696 51.4691 111.028 47.9194 111.964 47.1675C112.8 48.0198 114.06 50.537 114.225 51.674C113.029 51.9227 107.835 53.5341 104.795 53.8993Z" fill="#82C7E6"/>
<path d="M97.9656 47.0543C95.1311 45.2053 94.3529 45.2204 93.5269 45.6876C92.7009 46.1549 89.6559 50.525 91.0169 51.8884C92.378 53.2519 103.174 54.223 103.174 54.223L103.418 53.562C103.418 53.562 100.799 48.9033 97.9656 47.0543ZM92.893 51.4076C92.2631 50.7794 93.8307 48.1633 94.5451 47.6068C94.7277 47.5039 101.991 52.1268 103.005 53.7047C98.9479 53.2662 93.4791 51.9283 92.893 51.4076Z" fill="#82C7E6"/>
<path d="M103.869 52.3027H103.261C102.659 52.3027 102.171 52.7907 102.171 53.3927V55.1803C102.171 55.7822 102.659 56.2702 103.261 56.2702H103.869C104.471 56.2702 104.959 55.7822 104.959 55.1803V53.3927C104.959 52.7907 104.471 52.3027 103.869 52.3027Z" fill="#82C7E6"/>
<path d="M126.296 54.3041L76.9043 54.1558C76.595 54.1549 76.2892 54.221 76.0078 54.3494C75.7265 54.4779 75.4762 54.6657 75.2743 54.9C75.0724 55.1343 74.9235 55.4094 74.8379 55.7067C74.7524 56.0039 74.7321 56.3161 74.7786 56.6219L75.5432 61.6618L78.0189 61.657L79.5107 87.0207C79.549 87.6743 79.8355 88.2887 80.3117 88.738C80.7879 89.1874 81.4178 89.4379 82.0725 89.4382H121.495L123.136 61.5637L125.468 61.5589L126.296 54.3041Z" fill="#B32323"/>
<path d="M77.2001 62.2557L77.2113 61.6465C76.7384 61.4616 76.1803 61.5214 75.9044 61.4464L75.2427 60.9585C75.1031 60.8979 74.907 61.0501 74.9086 61.2016C74.9102 61.3531 75.096 61.6402 75.19 61.7151C75.19 61.7151 76.3749 62.691 76.7911 62.9908C76.9976 63.1375 77.6458 63.5338 77.6458 63.5338L78.0237 62.8266L77.2001 62.2557Z" fill="#F7A491"/>
<path d="M122.336 89.4382H92.0757L90.4556 54.8296H126.408L124.9 87.0319C124.837 88.3778 123.708 89.4382 122.336 89.4382Z" fill="#FF3B3B"/>
<path d="M127.891 61.5758L88.8617 61.6794L87.9703 54.1694L126.204 54.3161C126.501 54.3173 126.795 54.3801 127.066 54.5005C127.337 54.621 127.58 54.7964 127.78 55.0159C127.98 55.2353 128.132 55.4938 128.227 55.7751C128.322 56.0564 128.357 56.3543 128.331 56.6499L127.891 61.5758Z" fill="#FF3B3B"/>
<path d="M88.8633 61.6793L126.089 61.5757L90.0434 63.5435L88.8633 61.6793Z" fill="#B32323"/>
<path d="M104.544 54.2285H103.509V61.6452H104.544V54.2285Z" fill="#82C7E6"/>
<path d="M107.808 61.6099H106.513V89.4899H107.808V61.6099Z" fill="#82C7E6"/>
<path d="M76.5558 39.6828C79.5355 40.8526 82.5796 41.8511 85.6732 42.6736C86.6069 42.9215 88.1537 43.6304 89.0132 42.9989C89.4597 42.672 89.6471 42.18 89.3848 41.6562C88.9064 40.6994 87.4154 40.6284 86.4745 40.3805C83.6042 39.6166 80.3981 38.616 77.2136 37.4168C76.6164 37.192 75.918 37.6432 75.7505 38.2221C75.5592 38.8799 75.9594 39.454 76.5558 39.6852V39.6828Z" fill="#DEF0F8"/>
<path d="M98.6226 34.3852C97.606 26.5961 97.6722 26.5762 97.2408 25.841C96.7983 25.0876 95.5864 25.1912 95.3472 26.0627C95.108 26.9342 95.1654 26.7875 96.2665 34.9792C96.3542 35.6306 97.1555 36.0077 97.7416 35.8602C98.44 35.6848 98.7087 35.039 98.6226 34.3852Z" fill="#DEF0F8"/>
<path d="M111.147 35.3861C111.916 34.3483 112.571 33.2307 113.1 32.0525C113.596 30.9562 114.501 29.3416 113.652 28.2556C113.47 28.022 113.04 27.9112 112.765 28.0061C111.613 28.4047 111.393 30.0185 110.931 31.0279C110.42 32.127 109.817 33.1804 109.127 34.1766C108.769 34.7012 109.01 35.477 109.533 35.7896C110.122 36.142 110.766 35.8956 111.145 35.3837L111.147 35.3861Z" fill="#DEF0F8"/>
<path d="M128.485 41.3064C128.833 40.828 128.541 40.2077 128.132 39.9015C127.288 39.2724 125.8 39.8529 124.881 40.1064C123.813 40.4083 122.771 40.7957 121.766 41.2649C121.184 41.532 121.023 42.3581 121.319 42.8819C121.665 43.4943 122.342 43.5756 122.935 43.3284C126.811 41.7146 127.624 42.4872 128.485 41.3064Z" fill="#DEF0F8"/>
</svg>
