<svg width="20" height="20" viewBox="0 0 20 20" fill="none" xmlns="http://www.w3.org/2000/svg">
<g clip-path="url(#clip0_4546_21642)">
<path d="M6.14444 13.354C6.10799 13.4492 6.14299 13.557 6.2285 13.6127L7.34538 14.3396C7.39006 14.3687 7.42245 14.4133 7.43627 14.4647L7.62721 15.1743H13.6788L13.8697 14.4647C13.8836 14.4133 13.9159 14.3687 13.9606 14.3396L15.0775 13.6127C15.163 13.557 15.198 13.4493 15.1615 13.354L14.6853 12.1094C14.6662 12.0596 14.6662 12.0045 14.6853 11.9547L15.1615 10.7101C15.198 10.6149 15.163 10.5071 15.0775 10.4515L13.9606 9.7245C13.9159 9.69544 13.8835 9.65087 13.8697 9.59939L13.5235 8.31251C13.497 8.21403 13.4053 8.14743 13.3034 8.15267L11.9726 8.22103C11.9193 8.22376 11.8669 8.20673 11.8255 8.17325L10.789 7.33567C10.7096 7.27157 10.5963 7.27157 10.517 7.33567L9.48049 8.17325C9.43901 8.20677 9.38667 8.22376 9.33342 8.22103L8.00256 8.15267C7.90073 8.14743 7.80905 8.21403 7.78252 8.31251L7.43627 9.59939C7.42241 9.65087 7.39006 9.6954 7.34538 9.7245L6.2285 10.4515C6.14303 10.5071 6.10799 10.6149 6.14444 10.7101L6.62073 11.9547C6.63979 12.0045 6.63979 12.0596 6.62073 12.1094L6.14444 13.354Z" fill="#FEDF30"/>
<path d="M6.14447 13.354C6.10803 13.4493 6.14303 13.557 6.22853 13.6127L7.34541 14.3396C7.3901 14.3687 7.42248 14.4133 7.43631 14.4647L7.62725 15.1743H8.52197C8.3324 14.5972 8.22936 13.9808 8.22936 13.3402C8.22936 10.981 9.62006 8.947 11.6262 8.01224L10.789 7.33567C10.7097 7.27157 10.5963 7.27157 10.517 7.33567L9.48049 8.17325C9.43904 8.20677 9.38666 8.22376 9.33342 8.22103L8.00256 8.15267C7.90072 8.14743 7.80904 8.21403 7.78252 8.31255L7.43627 9.59939C7.4224 9.65087 7.39006 9.6954 7.34537 9.7245L6.2285 10.4515C6.14303 10.5071 6.10799 10.6149 6.14443 10.7101L6.62072 11.9547C6.63978 12.0045 6.63978 12.0596 6.62072 12.1094L6.14447 13.354Z" fill="#FAC600"/>
<path d="M16.1416 20.0001H5.16443C5.04963 20.0001 4.95654 19.907 4.95654 19.7922V15.3431C4.95654 15.2283 5.04963 15.1353 5.16443 15.1353H16.1416C16.2564 15.1353 16.3495 15.2283 16.3495 15.3431V19.7922C16.3495 19.907 16.2564 20.0001 16.1416 20.0001Z" fill="#FE7AB6"/>
<path d="M6.98182 19.7922V15.3431C6.98182 15.2283 7.0749 15.1353 7.18971 15.1353H5.16443C5.04963 15.1353 4.95654 15.2283 4.95654 15.3431V19.7922C4.95654 19.907 5.04963 20.0001 5.16443 20.0001H7.18971C7.0749 20.0001 6.98182 19.907 6.98182 19.7922Z" fill="#FE3D97"/>
<path d="M9.60608 15.135H11.6999V19.9999H9.60608V15.135Z" fill="#8AC9FE"/>
<path d="M9.60608 15.135H10.6425V19.9999H9.60608V15.135Z" fill="#60B7FF"/>
<path d="M7.41245 2.89446L7.50593 3.05641L10.6001 1.26997L10.0629 0.339381C9.81608 -0.0881195 9.20995 -0.117534 8.92292 0.284068L7.22437 2.6604C7.29753 2.72782 7.36147 2.80614 7.41245 2.89446Z" fill="#60B7FF"/>
<path d="M2.67909 5.84319L5.77331 4.05675L5.67984 3.8948C5.62812 3.80526 5.59191 3.71093 5.57031 3.61499L2.66394 3.89772C2.17261 3.94554 1.89503 4.48515 2.14183 4.91265L2.67909 5.84319Z" fill="#60B7FF"/>
<path d="M5.7395 4.07613L7.53973 3.03679L7.44626 2.87484C7.15922 2.37773 6.5236 2.20738 6.02645 2.49441C5.52934 2.7814 5.35899 3.41707 5.64602 3.91421L5.7395 4.07613Z" fill="#8AC9FE"/>
<path d="M6.9453 6.71044L5.50327 4.21278L5.44991 4.19849L1.68815 6.37036C1.57838 6.43372 1.54077 6.57407 1.60416 6.68384L2.85577 8.85169C2.91913 8.96146 3.05948 8.99907 3.16924 8.93567L6.931 6.76384L6.9453 6.71044Z" fill="#FE7AB6"/>
<path d="M13.1171 2.92717L11.8655 0.759316C11.8022 0.64955 11.6618 0.611933 11.5521 0.675331L7.7903 2.84721L7.776 2.90057L9.21803 5.39818L9.27139 5.41252L13.0331 3.24064C13.1429 3.17728 13.1805 3.03693 13.1171 2.92717Z" fill="#FE7AB6"/>
<path d="M8.33079 3.7836L12.2913 1.49699L11.8654 0.759298C11.802 0.649533 11.6617 0.611955 11.5519 0.675314L7.79016 2.84719L8.33079 3.7836Z" fill="#FE3D97"/>
<path d="M3.32901 6.67129L5.99057 5.13465L5.44991 4.19824L1.68815 6.37008C1.57838 6.43344 1.54077 6.57379 1.60416 6.68355L2.85577 8.85141C2.91913 8.96117 3.05948 8.99879 3.16924 8.93539L4.07073 8.41492L3.24502 6.98477C3.18163 6.875 3.21924 6.73469 3.32901 6.67129Z" fill="#FE3D97"/>
<path d="M5.44983 4.198L7.79006 2.84683L9.27115 5.41208L6.93092 6.76325L5.44983 4.198Z" fill="#8AC9FE"/>
<path d="M5.44971 4.198L7.78994 2.84683L8.33058 3.78322L5.99035 5.13439L5.44971 4.198Z" fill="#60B7FF"/>
<path d="M12.6333 6.95586L14.3691 5.31958C14.4097 5.28137 14.4019 5.21489 14.3537 5.18704L13.167 4.50192C13.1188 4.47407 13.0573 4.50059 13.0445 4.55481L12.4953 6.87622C12.4764 6.95649 12.5733 7.01247 12.6333 6.95586Z" fill="#FE7D43"/>
<path d="M16.0345 12.1117L18.3195 12.7968C18.3728 12.8128 18.4265 12.7728 18.4265 12.7171V11.3469C18.4265 11.2912 18.3728 11.2512 18.3195 11.2672L16.0345 11.9524C15.9555 11.976 15.9555 12.0879 16.0345 12.1117Z" fill="#00F2A6"/>
<path d="M5.27151 11.9524L2.98655 11.2672C2.93319 11.2512 2.87952 11.2912 2.87952 11.3469V12.7171C2.87952 12.7728 2.93319 12.8128 2.98655 12.7968L5.27151 12.1117C5.35053 12.088 5.35053 11.9761 5.27151 11.9524Z" fill="#FE7D43"/>
<path d="M15.567 7.72454L14.9264 8.36513C14.894 8.39759 14.894 8.45024 14.9264 8.48274L15.567 9.12333C15.5995 9.15579 15.6521 9.15579 15.6846 9.12333L16.3252 8.48274C16.3577 8.45028 16.3577 8.39763 16.3252 8.36513L15.6846 7.72454C15.6521 7.69208 15.5995 7.69208 15.567 7.72454Z" fill="#8AC9FE"/>
<path d="M3.30189 14.2031L2.66131 14.8437C2.62885 14.8761 2.62885 14.9288 2.66131 14.9613L3.30189 15.6019C3.33436 15.6343 3.38701 15.6343 3.41951 15.6019L4.0601 14.9613C4.09256 14.9288 4.09256 14.8762 4.0601 14.8437L3.41951 14.2031C3.38701 14.1706 3.33436 14.1706 3.30189 14.2031Z" fill="#00F2A6"/>
<path d="M9.46531 11.572C10.0143 11.572 10.4609 11.1253 10.4609 10.5764C10.4609 10.0275 10.0143 9.58081 9.46531 9.58081C8.91637 9.58081 8.46973 10.0275 8.46973 10.5764C8.46973 11.1253 8.91633 11.572 9.46531 11.572ZM9.46531 10.1667C9.69121 10.1667 9.87496 10.3505 9.87496 10.5764C9.87496 10.8023 9.69117 10.986 9.46531 10.986C9.23945 10.986 9.05566 10.8023 9.05566 10.5764C9.05566 10.3505 9.23945 10.1667 9.46531 10.1667Z" fill="white"/>
<path d="M11.8408 12.4917C11.2918 12.4917 10.8452 12.9383 10.8452 13.4873C10.8452 14.0362 11.2918 14.4828 11.8408 14.4828C12.3898 14.4828 12.8364 14.0362 12.8364 13.4873C12.8364 12.9383 12.3898 12.4917 11.8408 12.4917ZM11.8408 13.8969C11.6149 13.8969 11.4312 13.7132 11.4312 13.4873C11.4312 13.2614 11.6149 13.0777 11.8408 13.0777C12.0667 13.0777 12.2504 13.2614 12.2504 13.4873C12.2504 13.7132 12.0667 13.8969 11.8408 13.8969Z" fill="white"/>
<path d="M12.4518 9.63966C12.3224 9.54239 12.1388 9.56841 12.0415 9.6977L8.79612 14.0138C8.69889 14.1431 8.72491 14.3268 8.85421 14.424C8.90698 14.4637 8.96878 14.4828 9.03003 14.4828C9.11897 14.4828 9.20682 14.4425 9.2644 14.3659L12.5098 10.0499C12.6071 9.92059 12.5811 9.73692 12.4518 9.63966Z" fill="white"/>
</g>
<defs>
<clipPath id="clip0_4546_21642">
<rect width="20" height="20" fill="white"/>
</clipPath>
</defs>
</svg>
