<svg width="20" height="16" viewBox="0 0 20 16" fill="none" xmlns="http://www.w3.org/2000/svg">
<path d="M11.9951 3.5942H9.19471C9.14881 3.5942 9.11158 3.55697 9.11158 3.51107V3.13975C9.11158 3.05865 9.04186 3.00592 8.9826 3.04217L7.5608 3.91221C7.48787 3.95682 7.48787 4.06275 7.5608 4.10736L8.9826 4.9774C9.04186 5.01365 9.11158 4.96092 9.11158 4.87982V4.5085C9.11158 4.4626 9.14881 4.42537 9.19471 4.42537H12.0089C12.241 4.42537 12.4287 4.23506 12.4244 4.00197C12.4203 3.77322 12.224 3.5942 11.9951 3.5942Z" fill="#FECA57"/>
<path d="M12.3752 1.53013L10.9534 0.660088C10.8942 0.623838 10.8244 0.676572 10.8244 0.757666V1.12899C10.8244 1.17493 10.7872 1.21216 10.7413 1.21216H7.94088C7.71205 1.21216 7.51577 1.39114 7.51155 1.61993C7.50725 1.85302 7.69495 2.04333 7.92705 2.04333H10.7413C10.7872 2.04333 10.8244 2.08056 10.8244 2.12649V2.49778C10.8244 2.57888 10.8941 2.63161 10.9534 2.59536L12.3752 1.72532C12.4481 1.68063 12.4481 1.57474 12.3752 1.53013Z" fill="#FF6B6B"/>
<path d="M8.14873 4.10736C8.0758 4.06275 8.0758 3.95682 8.14873 3.91221L9.11158 3.32299V3.13975C9.11158 3.05865 9.04186 3.00592 8.9826 3.04217L7.5608 3.91221C7.48787 3.95682 7.48787 4.06275 7.5608 4.10736L8.9826 4.9774C9.04186 5.01365 9.11158 4.96092 9.11158 4.87982V4.69658L8.14873 4.10736Z" fill="#F4B537"/>
<path d="M11.4124 1.12895V0.940908L10.9535 0.660088C10.8942 0.623838 10.8245 0.676572 10.8245 0.757666V1.12899C10.8245 1.17493 10.7873 1.21216 10.7413 1.21216H11.3293C11.3752 1.21212 11.4124 1.17489 11.4124 1.12895Z" fill="#EE5253"/>
<path d="M11.4124 2.12638C11.4124 2.08044 11.3752 2.04321 11.3293 2.04321H10.7413C10.7873 2.04321 10.8245 2.08044 10.8245 2.12638V2.49767C10.8245 2.57876 10.8942 2.63149 10.9534 2.59524L11.4123 2.31442V2.12638H11.4124Z" fill="#EE5253"/>
<path d="M8.09948 1.61993C8.1037 1.39114 8.29998 1.21216 8.52881 1.21216H7.94088C7.71205 1.21216 7.51577 1.39114 7.51155 1.61993C7.50725 1.85302 7.69495 2.04333 7.92705 2.04333H8.51498C8.28287 2.04333 8.09522 1.85302 8.09948 1.61993Z" fill="#EE5253"/>
<path d="M15.4127 3.57959C14.1074 3.57959 13.0493 4.63768 13.0493 5.94299V6.92115C13.2073 6.77475 13.432 6.69518 13.6513 6.72447V6.6067C13.6513 6.51307 13.7313 6.43912 13.824 6.44615C14.7377 6.51178 15.6677 6.22143 16.3708 5.76213C16.4364 5.71924 16.5233 5.7299 16.5767 5.78725C17.1778 6.43338 17.1742 6.40838 17.1742 6.49275V6.724C17.4146 6.68795 17.6279 6.76228 17.7761 6.90006V5.94307C17.7761 4.63771 16.718 3.57959 15.4127 3.57959Z" fill="#3E4B5A"/>
<path d="M14.2553 5.94299C14.2553 4.84611 15.0026 3.92408 16.0157 3.65748C15.8231 3.60682 15.6212 3.57959 15.4127 3.57959C14.1074 3.57959 13.0493 4.63768 13.0493 5.94299V6.92115C13.2073 6.77475 13.432 6.69518 13.6513 6.72447V6.6067C13.6513 6.51307 13.7313 6.43912 13.824 6.44615C13.9677 6.45647 14.1117 6.45705 14.2553 6.45049V5.94299Z" fill="#303F49"/>
<path d="M15.1427 10.1046C15.238 10.0676 15.3009 9.9759 15.3009 9.87363V9.53922C14.9755 9.51731 14.6871 9.41773 14.446 9.26367V10.0018C14.446 10.0679 14.4195 10.1293 14.3752 10.1746L15.1427 10.1046Z" fill="#FFBEAB"/>
<path d="M14.1258 10.6663C14.8791 11.4667 15.9441 11.4666 16.6973 10.6663L16.9648 10.382L16.5714 10.2297C16.4808 10.1946 16.4211 10.1075 16.4211 10.0103V9.23755C16.1414 9.43052 15.8027 9.54388 15.4378 9.54388C15.056 9.54388 14.7204 9.43903 14.446 9.26368V10.0018C14.446 10.1041 14.3832 10.1958 14.2879 10.2328L13.8702 10.3947L14.1258 10.6663Z" fill="#FFBEAB"/>
<path d="M15.3009 9.53922C14.9755 9.51731 14.6872 9.41773 14.446 9.26367V10.0018C14.446 10.1041 14.3832 10.1958 14.2879 10.2328L13.8702 10.3947L14.1258 10.6663C14.4719 11.0339 14.8837 11.2322 15.3009 11.2621V9.53922Z" fill="#F7AF9F"/>
<path d="M17.139 6.61843V7.91308C17.139 7.9271 17.1383 7.94097 17.1379 7.95495C17.5961 8.02433 17.9901 7.69327 17.9901 7.28675C17.9901 6.87937 17.5958 6.54995 17.139 6.61843Z" fill="#FFBEAB"/>
<path d="M13.6864 7.91325V6.61907C13.2876 6.56579 12.8353 6.87192 12.8353 7.28688C12.8353 7.6929 13.2285 8.02454 13.6874 7.95508C13.6871 7.94114 13.6864 7.92723 13.6864 7.91325Z" fill="#FFBEAB"/>
<path d="M17.6875 6.73957C17.5375 6.63816 17.3448 6.58777 17.139 6.61863V7.91328C17.139 7.9273 17.1383 7.94117 17.1379 7.95515C17.3443 7.9864 17.5374 7.93589 17.6875 7.83429V6.73957Z" fill="#F7AF9F"/>
<path d="M13.6864 7.83434C13.5031 7.7104 13.3838 7.51012 13.3838 7.28688C13.3838 7.06832 13.5094 6.88004 13.6864 6.75848V6.61907C13.2876 6.56579 12.8353 6.87192 12.8353 7.28688C12.8353 7.6929 13.2285 8.02454 13.6874 7.95508C13.6871 7.94114 13.6864 7.92719 13.6864 7.91321V7.83434Z" fill="#F7AF9F"/>
<path d="M16.5766 5.68171C16.5232 5.62437 16.4363 5.6137 16.3707 5.65659C15.6676 6.11593 14.7377 6.40628 13.8239 6.34062C13.7312 6.33359 13.6512 6.40753 13.6512 6.50116V7.91308C13.6512 8.82054 14.3623 9.64933 15.4378 9.64933C16.3952 9.64933 17.1741 8.87042 17.1741 7.91308V6.38718C17.1741 6.30284 17.1777 6.32784 16.5766 5.68171Z" fill="#FFCDBF"/>
<path d="M14.8572 7.91313V6.27173C14.5193 6.33903 14.1704 6.36556 13.8239 6.34067C13.7312 6.33364 13.6512 6.40759 13.6512 6.50122V7.91313C13.6512 8.8206 14.3623 9.64942 15.4378 9.64942C15.6404 9.64942 15.8348 9.61423 16.0157 9.55017C15.3416 9.31149 14.8572 8.66794 14.8572 7.91313Z" fill="#FFBEAB"/>
<path d="M19.0337 11.1834L16.9129 10.3621L16.6396 10.6525C15.9208 11.4162 14.9046 11.4163 14.1857 10.6525L13.9237 10.3741L11.8362 11.1834C11.8362 11.1834 10.87 11.5807 10.87 12.6822V15.1269C10.87 15.251 10.9707 15.3516 11.0948 15.3516H19.7772C19.9002 15.3516 20 15.2519 20 15.1288V12.6822C20 11.5807 19.0337 11.1834 19.0337 11.1834Z" fill="#FF6B6B"/>
<path d="M12.0759 12.1595C12.0759 11.4465 12.4806 11.0289 12.7662 10.8228L11.8362 11.1833C11.8362 11.1833 10.87 11.5805 10.87 12.6821V15.1267C10.87 15.2509 10.9707 15.3515 11.0948 15.3515H12.076V12.1595H12.0759Z" fill="#EE5253"/>
<path d="M12.816 15.3516V13.0608C12.816 12.8942 12.681 12.7593 12.5145 12.7593C12.348 12.7593 12.213 12.8943 12.213 13.0608V15.3516H12.816Z" fill="#EE5253"/>
<path d="M18.6569 15.3516V13.0608C18.6569 12.8942 18.5219 12.7593 18.3554 12.7593C18.1889 12.7593 18.054 12.8943 18.054 13.0608V15.3516H18.6569Z" fill="#EE5253"/>
<path d="M4.5426 3.57959C3.23729 3.57959 2.1792 4.63768 2.1792 5.94299V6.92115C2.33717 6.77475 2.56186 6.69518 2.78123 6.72447V6.6067C2.78123 6.51307 2.86115 6.43912 2.95385 6.44615C3.8676 6.51178 4.79756 6.22143 5.50068 5.76213C5.56631 5.71924 5.65322 5.7299 5.70658 5.78725C6.30771 6.43338 6.30408 6.40838 6.30408 6.49275V6.724C6.54451 6.68795 6.75779 6.76228 6.906 6.90006V5.94307C6.906 4.63771 5.84791 3.57959 4.5426 3.57959Z" fill="#3E4B5A"/>
<path d="M3.38518 5.94299C3.38518 4.84611 4.13244 3.92408 5.14557 3.65748C4.95303 3.60682 4.75103 3.57959 4.5426 3.57959C3.23729 3.57959 2.1792 4.63768 2.1792 5.94299V6.92115C2.33717 6.77475 2.56186 6.69518 2.78123 6.72447V6.6067C2.78123 6.51307 2.86119 6.43912 2.95385 6.44615C3.09756 6.45647 3.24158 6.45705 3.38518 6.45049V5.94299Z" fill="#303F49"/>
<path d="M4.27283 10.1046C4.36814 10.0676 4.431 9.9759 4.431 9.87363V9.53922C4.10561 9.51731 3.81725 9.41773 3.57611 9.26367V10.0018C3.57611 10.0679 3.54963 10.1293 3.50537 10.1746L4.27283 10.1046Z" fill="#FFBEAB"/>
<path d="M3.25583 10.6663C4.00915 11.4667 5.07407 11.4666 5.82735 10.6663L6.09481 10.382L5.70142 10.2297C5.61083 10.1946 5.55114 10.1075 5.55114 10.0103V9.23755C5.27138 9.43052 4.93263 9.54388 4.56782 9.54388C4.18599 9.54388 3.85044 9.43903 3.57603 9.26368V10.0018C3.57603 10.1041 3.51321 10.1958 3.41786 10.2328L3.00024 10.3947L3.25583 10.6663Z" fill="#FFBEAB"/>
<path d="M4.43091 9.53922C4.10552 9.51731 3.81716 9.41773 3.57603 9.26367V10.0018C3.57603 10.1041 3.51321 10.1958 3.41786 10.2328L3.00024 10.3947L3.25583 10.6663C3.60188 11.0339 4.01372 11.2322 4.43091 11.2621V9.53922Z" fill="#F7AF9F"/>
<path d="M6.269 6.61843V7.91308C6.269 7.9271 6.26826 7.94097 6.26794 7.95495C6.72611 8.02433 7.12009 7.69327 7.12009 7.28675C7.12005 6.87937 6.72576 6.54995 6.269 6.61843Z" fill="#FFBEAB"/>
<path d="M2.81643 7.91325V6.61907C2.41756 6.56579 1.96533 6.87192 1.96533 7.28688C1.96533 7.6929 2.35854 8.02454 2.81744 7.95508C2.81709 7.94114 2.81643 7.92723 2.81643 7.91325Z" fill="#FFBEAB"/>
<path d="M6.81755 6.73957C6.66748 6.63816 6.47478 6.58777 6.269 6.61863V7.91328C6.269 7.9273 6.26826 7.94117 6.26794 7.95515C6.47435 7.9864 6.66736 7.93589 6.81755 7.83429V6.73957Z" fill="#F7AF9F"/>
<path d="M2.81643 7.83434C2.63314 7.7104 2.51385 7.51012 2.51385 7.28688C2.51385 7.06832 2.63939 6.88004 2.81643 6.75848V6.61907C2.41756 6.56579 1.96533 6.87192 1.96533 7.28688C1.96533 7.6929 2.35854 8.02454 2.81744 7.95508C2.81709 7.94114 2.81643 7.92719 2.81643 7.91321V7.83434Z" fill="#F7AF9F"/>
<path d="M5.7066 5.68171C5.65324 5.62437 5.56633 5.6137 5.5007 5.65659C4.79758 6.11593 3.86766 6.40628 2.95387 6.34062C2.86117 6.33359 2.78125 6.40753 2.78125 6.50116V7.91308C2.78125 8.82054 3.49227 9.64933 4.56781 9.64933C5.5252 9.64933 6.3041 8.87042 6.3041 7.91308V6.38718C6.3041 6.30284 6.30773 6.32784 5.7066 5.68171Z" fill="#FFCDBF"/>
<path d="M3.98723 7.91313V6.27173C3.64926 6.33903 3.30043 6.36556 2.95387 6.34067C2.86117 6.33364 2.78125 6.40759 2.78125 6.50122V7.91313C2.78125 8.8206 3.49227 9.64942 4.56781 9.64942C4.77039 9.64942 4.96477 9.61423 5.14566 9.55017C4.47156 9.31149 3.98723 8.66794 3.98723 7.91313Z" fill="#FFBEAB"/>
<path d="M8.16371 11.1834L6.04293 10.3621L5.76965 10.6525C5.05078 11.4162 4.03461 11.4163 3.31574 10.6525L3.05375 10.3741L0.96625 11.1834C0.96625 11.1834 0 11.5807 0 12.6822V15.1269C0 15.251 0.100625 15.3516 0.224766 15.3516H8.90719C9.03023 15.3516 9.13 15.2519 9.13 15.1288V12.6822C9.12996 11.5807 8.16371 11.1834 8.16371 11.1834Z" fill="#FECA57"/>
<path d="M1.20594 12.1595C1.20594 11.4465 1.61059 11.0289 1.89617 10.8228L0.96625 11.1833C0.96625 11.1833 0 11.5805 0 12.6821V15.1267C0 15.2509 0.100664 15.3515 0.224766 15.3515H1.20598V12.1595H1.20594Z" fill="#F4B537"/>
<path d="M1.94599 15.3516V13.0608C1.94599 12.8942 1.81099 12.7593 1.6445 12.7593C1.47802 12.7593 1.34302 12.8943 1.34302 13.0608V15.3516H1.94599Z" fill="#F4B537"/>
<path d="M7.78693 15.3516V13.0608C7.78693 12.8942 7.65193 12.7593 7.48544 12.7593C7.31892 12.7593 7.18396 12.8943 7.18396 13.0608V15.3516H7.78693Z" fill="#F4B537"/>
</svg>
