<svg width="300" height="100" viewBox="0 0 300 100" fill="none" xmlns="http://www.w3.org/2000/svg">
<rect width="300" height="100" rx="8" fill="#C1C1C1" fill-opacity="0.2"/>
<g clip-path="url(#clip0_4336_1156)">
<path d="M169.775 43.0249L163.525 34.275C163.275 33.95 162.9 33.75 162.5 33.75H137.5C137.1 33.75 136.725 33.95 136.475 34.275L130.225 43.0249C130.15 43.2499 130.075 43.4749 130 43.6999C129.975 46.4749 132.225 48.7499 135 48.7499C136.5 48.7499 137.825 48.0999 138.75 47.0499C139.675 48.0999 141 48.7499 142.5 48.7499C144 48.7499 145.325 48.0999 146.25 47.0499C147.175 48.0999 148.5 48.7499 150 48.7499C151.5 48.7499 152.825 48.0999 153.75 47.0499C154.675 48.0999 156 48.7499 157.5 48.7499C159 48.7499 160.325 48.0999 161.25 47.0499C162.175 48.0999 163.5 48.7499 165 48.7499C167.775 48.7499 170.025 46.4749 170 43.6999C169.925 43.4749 169.85 43.2499 169.775 43.0249Z" fill="#CAD0DD" fill-opacity="0.5"/>
<path d="M165 51.2502C163.672 51.2502 162.38 50.8952 161.25 50.2402C158.99 51.5477 156.01 51.5477 153.75 50.2402C151.49 51.5477 148.508 51.5477 146.25 50.2402C143.993 51.5477 141.008 51.5477 138.75 50.2402C136.873 51.3302 134.548 51.4702 132.5 50.7627V63.7501C132.5 65.1301 133.62 66.2501 135 66.2501H155V53.7502H162.5V66.2501H165C166.38 66.2501 167.5 65.1301 167.5 63.7501V50.7927C166.705 51.0752 165.867 51.2502 165 51.2502ZM147.5 61.2501H137.5V53.7502H147.5V61.2501Z" fill="#CAD0DD" fill-opacity="0.5"/>
</g>
<defs>
<clipPath id="clip0_4336_1156">
<rect width="40" height="40" fill="white" transform="translate(130 30)"/>
</clipPath>
</defs>
</svg>
