<svg width="33" height="33" viewBox="0 0 33 33" fill="none" xmlns="http://www.w3.org/2000/svg">
<g id="carbon:send-filled" clip-path="url(#clip0_3232_7526)">
<path id="Vector" d="M21.7713 11.1999L5.51387 14.0719C5.38644 14.0944 5.27334 14.1555 5.1882 14.2478C5.10305 14.3401 5.04949 14.4597 5.03396 14.5921C5.02057 14.7203 5.04322 14.8549 5.09936 14.9808C5.1555 15.1066 5.2429 15.2188 5.35173 15.3045L11.3813 19.8105L17.0128 15.0851L17.977 16.2341L12.3455 20.9596L15.7016 27.6794C15.7541 27.7833 15.8282 27.8763 15.9178 27.9511C16.0074 28.026 16.1101 28.0804 16.2176 28.1102C16.3251 28.14 16.4345 28.1442 16.5368 28.1226C16.6392 28.1009 16.7317 28.054 16.8069 27.9855C16.8844 27.9196 16.943 27.8336 16.978 27.7343L22.6294 12.2226C22.6705 12.106 22.6775 11.9753 22.6496 11.8449C22.6217 11.7146 22.56 11.5897 22.4713 11.484C22.3825 11.3782 22.2702 11.2958 22.1467 11.2456C22.0232 11.1955 21.8933 11.1797 21.7713 11.1999Z" fill="#FF7918"/>
</g>
<defs>
<clipPath id="clip0_3232_7526">
<rect width="20.8" height="24" fill="white" transform="translate(0.818726 13.9877) rotate(-40)"/>
</clipPath>
</defs>
</svg>
