<svg width="18" height="18" viewBox="0 0 18 18" fill="none" xmlns="http://www.w3.org/2000/svg">
<g clip-path="url(#clip0_3232_1117)">
<path d="M12 9.75C11.6507 10.2157 11.1978 10.5937 10.6771 10.8541C10.1563 11.1145 9.58217 11.25 9 11.25C8.41783 11.25 7.84366 11.1145 7.32295 10.8541C6.80224 10.5937 6.3493 10.2157 6 9.75C5.70602 10.1463 5.33609 10.4801 4.91177 10.7319C4.48746 10.9837 4.01725 11.1485 3.52858 11.2167C3.0399 11.2849 2.54253 11.2551 2.06548 11.1291C1.58843 11.0031 1.14125 10.7834 0.75 10.4828V14.25C0.751191 15.2442 1.14666 16.1973 1.84966 16.9003C2.55267 17.6033 3.5058 17.9988 4.5 18H13.5C14.4942 17.9988 15.4473 17.6033 16.1503 16.9003C16.8533 16.1973 17.2488 15.2442 17.25 14.25V10.4805C16.8589 10.7813 16.4118 11.0011 15.9349 11.1273C15.4579 11.2535 14.9606 11.2835 14.4719 11.2155C13.9832 11.1475 13.513 10.9829 13.0886 10.7313C12.6642 10.4797 12.2941 10.1461 12 9.75Z" fill="#CCD1D6"/>
<path d="M16.275 2.3483C16.1298 1.68012 15.7594 1.08215 15.2258 0.654621C14.6921 0.227092 14.0278 -0.00401039 13.344 5.26746e-05H12.75V2.25005C12.75 2.44897 12.671 2.63973 12.5303 2.78038C12.3897 2.92104 12.1989 3.00005 12 3.00005C11.8011 3.00005 11.6103 2.92104 11.4697 2.78038C11.329 2.63973 11.25 2.44897 11.25 2.25005V5.26746e-05H6.75V2.25005C6.75 2.44897 6.67098 2.63973 6.53033 2.78038C6.38968 2.92104 6.19891 3.00005 6 3.00005C5.80109 3.00005 5.61032 2.92104 5.46967 2.78038C5.32902 2.63973 5.25 2.44897 5.25 2.25005V5.26746e-05H4.656C3.97214 -0.00397369 3.30768 0.227235 2.77404 0.654913C2.2404 1.08259 1.87002 1.68073 1.725 2.34905L0.7665 6.67505L0.75 7.51505C0.750985 7.81053 0.810158 8.10291 0.924141 8.37552C1.03812 8.64813 1.20468 8.89561 1.41431 9.10385C1.83768 9.5244 2.41076 9.75954 3.0075 9.75755C3.30297 9.75657 3.59536 9.6974 3.86797 9.58341C4.14057 9.46943 4.38806 9.30287 4.59629 9.09324C4.80453 8.88361 4.96944 8.63502 5.0816 8.36166C5.19376 8.0883 5.25099 7.79553 5.25 7.50005C5.25 7.30114 5.32902 7.11038 5.46967 6.96972C5.61032 6.82907 5.80109 6.75005 6 6.75005C6.19891 6.75005 6.38968 6.82907 6.53033 6.96972C6.67098 7.11038 6.75 7.30114 6.75 7.50005C6.75 8.09679 6.98705 8.66909 7.40901 9.09104C7.83097 9.513 8.40326 9.75005 9 9.75005C9.59674 9.75005 10.169 9.513 10.591 9.09104C11.0129 8.66909 11.25 8.09679 11.25 7.50005C11.25 7.30114 11.329 7.11038 11.4697 6.96972C11.6103 6.82907 11.8011 6.75005 12 6.75005C12.1989 6.75005 12.3897 6.82907 12.5303 6.96972C12.671 7.11038 12.75 7.30114 12.75 7.50005C12.75 8.09679 12.9871 8.66909 13.409 9.09104C13.831 9.513 14.4033 9.75005 15 9.75005C15.5967 9.75005 16.169 9.513 16.591 9.09104C17.0129 8.66909 17.25 8.09679 17.25 7.50005V6.8303L16.275 2.3483Z" fill="#CCD1D6"/>
</g>
<defs>
<clipPath id="clip0_3232_1117">
<rect width="18" height="18" fill="white"/>
</clipPath>
</defs>
</svg>
