<svg width="16" height="16" viewBox="0 0 16 16" fill="none" xmlns="http://www.w3.org/2000/svg">
<g clip-path="url(#clip0_3369_928)">
<path d="M11.7333 0.692383C9.85644 0.692383 8.61556 1.71726 8 2.39529C7.38447 1.71726 6.14356 0.692383 4.26666 0.692383C1.75616 0.692383 0 3.01201 0 5.74173C0 7.73791 1.00659 11.6268 7.74784 15.2437C7.90534 15.3283 8.09475 15.3282 8.25216 15.2437C14.9934 11.6268 16 7.73794 16 5.74173C16 3.07391 14.2943 0.692383 11.7333 0.692383Z" fill="#FFD7A4" fill-opacity="0.5"/>
<path d="M7.8149 2.56333L8 2.76722L8.1851 2.56333C8.77601 1.91245 9.95484 0.942383 11.7333 0.942383C14.108 0.942383 15.75 3.15822 15.75 5.74173C15.75 7.63088 14.8082 11.4425 8.13396 15.0234L8.13394 15.0234C8.05033 15.0683 7.9497 15.0683 7.86607 15.0234L7.86604 15.0234C1.19186 11.4425 0.25 7.63085 0.25 5.74173C0.25 3.10057 1.93901 0.942383 4.26666 0.942383C6.04516 0.942383 7.22402 1.91245 7.8149 2.56333Z" stroke="white" stroke-opacity="0.7" stroke-width="0.5"/>
</g>
<defs>
<clipPath id="clip0_3369_928">
<rect width="16" height="16" fill="white"/>
</clipPath>
</defs>
</svg>
