<svg width="18" height="18" viewBox="0 0 18 18" fill="none" xmlns="http://www.w3.org/2000/svg">
<g clip-path="url(#clip0_3232_1235)">
<path d="M18 4.87503C18 5.49603 17.496 6.00003 16.875 6.00003C16.254 6.00003 15.75 5.49603 15.75 4.87503C15.75 4.25403 16.254 3.75003 16.875 3.75003C17.496 3.75003 18 4.25403 18 4.87503ZM11.625 2.25003C12.246 2.25003 12.75 1.74603 12.75 1.12503C12.75 0.504027 12.246 2.71597e-05 11.625 2.71597e-05C11.004 2.71597e-05 10.5 0.504027 10.5 1.12503C10.5 1.74603 11.004 2.25003 11.625 2.25003ZM12.3337 5.87403C12.4612 5.95953 12.606 6.00003 12.7493 6.00003C12.9915 6.00003 13.2293 5.88303 13.374 5.66628L16.374 1.16628C16.6035 0.822027 16.5105 0.355527 16.1663 0.126027C15.8212 -0.104973 15.3555 -0.0112229 15.126 0.333777L12.126 4.83378C11.8965 5.17803 11.9895 5.64453 12.3337 5.87403ZM4.3125 6.00003C6.6945 6.00003 8.625 4.99278 8.625 3.75003C8.625 2.50728 6.6945 1.50003 4.3125 1.50003C1.9305 1.50003 0 2.50728 0 3.75003C0 4.99278 1.9305 6.00003 4.3125 6.00003ZM4.3125 12C6.771 12 8.625 10.8713 8.625 9.37503V7.87503C8.625 9.35328 6.828 10.5 4.3125 10.5C1.797 10.5 0 9.35328 0 7.87503V9.37503C0 10.8713 1.854 12 4.3125 12ZM4.3125 9.00003C6.771 9.00003 8.625 7.87128 8.625 6.37503V4.87503C8.625 6.35328 6.828 7.50003 4.3125 7.50003C1.797 7.50003 0 6.35328 0 4.87503V6.37503C0 7.87128 1.854 9.00003 4.3125 9.00003ZM12.9375 7.50003C10.5555 7.50003 8.625 8.50728 8.625 9.75003C8.625 10.9928 10.5555 12 12.9375 12C15.3195 12 17.25 10.9928 17.25 9.75003C17.25 8.50728 15.3195 7.50003 12.9375 7.50003ZM12.9375 16.5C10.422 16.5 8.625 15.3533 8.625 13.875C8.625 15.3533 6.828 16.5 4.3125 16.5C1.797 16.5 0 15.3533 0 13.875V15.375C0 16.8713 1.854 18 4.3125 18C6.771 18 8.625 16.8713 8.625 15.375C8.625 16.8713 10.479 18 12.9375 18C15.396 18 17.25 16.8713 17.25 15.375V13.875C17.25 15.3533 15.453 16.5 12.9375 16.5ZM12.9375 13.5C10.422 13.5 8.625 12.3533 8.625 10.875C8.625 12.3533 6.828 13.5 4.3125 13.5C1.797 13.5 0 12.3533 0 10.875V12.375C0 13.8713 1.854 15 4.3125 15C6.771 15 8.625 13.8713 8.625 12.375C8.625 13.8713 10.479 15 12.9375 15C15.396 15 17.25 13.8713 17.25 12.375V10.875C17.25 12.3533 15.453 13.5 12.9375 13.5Z" fill="#CCD1D6"/>
</g>
<defs>
<clipPath id="clip0_3232_1235">
<rect width="18" height="18" fill="white"/>
</clipPath>
</defs>
</svg>
