<svg width="36" height="36" viewBox="0 0 36 36" fill="none" xmlns="http://www.w3.org/2000/svg">
<g clip-path="url(#clip0_476_1024)">
<path d="M17.3234 26C18.5308 26 19.5408 25.1393 19.7727 24H14.874C15.1061 25.1393 16.1161 26 17.3234 26Z" fill="currentColor"/>
<path d="M21.998 17.999C21.9953 17.999 21.9926 17.9996 21.9899 17.9996C19.4173 17.9996 17.3233 15.9062 17.3233 13.333C17.3233 12.6256 17.486 11.9569 17.7693 11.3556C17.6226 11.3417 17.4739 11.333 17.3233 11.333C14.746 11.333 12.6567 13.4222 12.6567 15.9996V17.8583C12.6567 19.1776 12.0787 20.423 11.0646 21.2803C10.7266 21.569 10.5766 22.0289 10.6979 22.4777C10.8393 22.9996 11.3553 23.333 11.8967 23.333H22.7466C23.3146 23.333 23.85 22.965 23.9653 22.4083C24.0546 21.9777 23.9013 21.5476 23.5673 21.267C22.5979 20.4543 22.0373 19.2603 21.998 17.999Z" fill="currentColor"/>
<path d="M25.3234 13.3334C25.3234 15.1743 23.8311 16.6666 21.99 16.6666C20.149 16.6666 18.6567 15.1743 18.6567 13.3334C18.6567 11.4924 20.149 10 21.99 10C23.8311 10 25.3234 11.4924 25.3234 13.3334Z" fill="#F93E3E"/>
</g>
<defs>
<clipPath id="clip0_476_1024">
<rect width="16" height="16" fill="currentColor" transform="translate(10 10)"/>
</clipPath>
</defs>
</svg>
